<?xml version="1.0" encoding="utf-8" standalone="no"?>
<!DOCTYPE svg PUBLIC "-//W3C//DTD SVG 1.1//EN"
  "http://www.w3.org/Graphics/SVG/1.1/DTD/svg11.dtd">
<!-- Created with matplotlib (http://matplotlib.org/) -->
<svg height="277pt" version="1.1" viewBox="0 0 400 277" width="400pt" xmlns="http://www.w3.org/2000/svg" xmlns:xlink="http://www.w3.org/1999/xlink">
 <defs>
  <style type="text/css">
*{stroke-linecap:butt;stroke-linejoin:round;}
  </style>
 </defs>
 <g id="figure_1">
  <g id="patch_1">
   <path d="M 0 277.616789 
L 400.421562 277.616789 
L 400.421562 0 
L 0 0 
z
" style="fill:none;"/>
  </g>
  <g id="axes_1">
   <g id="patch_2">
    <path d="M 58.421563 228.195226 
L 393.221563 228.195226 
L 393.221563 10.755226 
L 58.421563 10.755226 
z
" style="fill:#eaeaf2;"/>
   </g>
   <g id="matplotlib.axis_1">
    <g id="xtick_1">
     <g id="line2d_1">
      <path clip-path="url(#p0ee93cf3be)" d="M 73.639744 228.195226 
L 73.639744 10.755226 
" style="fill:none;stroke:#ffffff;stroke-linecap:round;"/>
     </g>
     <g id="line2d_2"/>
     <g id="text_1">
      <!-- $\mathdefault{10^{2}}$ -->
      <defs>
       <path d="M 37.25 0 
L 28.46875 0 
L 28.46875 56 
Q 25.296875 52.984375 20.140625 49.953125 
Q 14.984375 46.921875 10.890625 45.40625 
L 10.890625 53.90625 
Q 18.265625 57.375 23.78125 62.296875 
Q 29.296875 67.234375 31.59375 71.875 
L 37.25 71.875 
z
" id="ArialMT-31"/>
       <path d="M 4.15625 35.296875 
Q 4.15625 48 6.765625 55.734375 
Q 9.375 63.484375 14.515625 67.671875 
Q 19.671875 71.875 27.484375 71.875 
Q 33.25 71.875 37.59375 69.546875 
Q 41.9375 67.234375 44.765625 62.859375 
Q 47.609375 58.5 49.21875 52.21875 
Q 50.828125 45.953125 50.828125 35.296875 
Q 50.828125 22.703125 48.234375 14.96875 
Q 45.65625 7.234375 40.5 3 
Q 35.359375 -1.21875 27.484375 -1.21875 
Q 17.140625 -1.21875 11.234375 6.203125 
Q 4.15625 15.140625 4.15625 35.296875 
z
M 13.1875 35.296875 
Q 13.1875 17.671875 17.3125 11.828125 
Q 21.4375 6 27.484375 6 
Q 33.546875 6 37.671875 11.859375 
Q 41.796875 17.71875 41.796875 35.296875 
Q 41.796875 52.984375 37.671875 58.78125 
Q 33.546875 64.59375 27.390625 64.59375 
Q 21.34375 64.59375 17.71875 59.46875 
Q 13.1875 52.9375 13.1875 35.296875 
z
" id="ArialMT-30"/>
       <path d="M 50.34375 8.453125 
L 50.34375 0 
L 3.03125 0 
Q 2.9375 3.171875 4.046875 6.109375 
Q 5.859375 10.9375 9.828125 15.625 
Q 13.8125 20.3125 21.34375 26.46875 
Q 33.015625 36.03125 37.109375 41.625 
Q 41.21875 47.21875 41.21875 52.203125 
Q 41.21875 57.421875 37.46875 61 
Q 33.734375 64.59375 27.734375 64.59375 
Q 21.390625 64.59375 17.578125 60.78125 
Q 13.765625 56.984375 13.71875 50.25 
L 4.6875 51.171875 
Q 5.609375 61.28125 11.65625 66.578125 
Q 17.71875 71.875 27.9375 71.875 
Q 38.234375 71.875 44.234375 66.15625 
Q 50.25 60.453125 50.25 52 
Q 50.25 47.703125 48.484375 43.546875 
Q 46.734375 39.40625 42.65625 34.8125 
Q 38.578125 30.21875 29.109375 22.21875 
Q 21.1875 15.578125 18.9375 13.203125 
Q 16.703125 10.84375 15.234375 8.453125 
z
" id="ArialMT-32"/>
      </defs>
      <g style="fill:#262626;" transform="translate(64.219744 247.570226)scale(0.12 -0.12)">
       <use transform="translate(0 0.99375)" xlink:href="#ArialMT-31"/>
       <use transform="translate(55.615234 0.99375)" xlink:href="#ArialMT-30"/>
       <use transform="translate(112.972813 70.6875)scale(0.7)" xlink:href="#ArialMT-32"/>
      </g>
     </g>
    </g>
    <g id="xtick_2">
     <g id="line2d_3">
      <path clip-path="url(#p0ee93cf3be)" d="M 175.09429 228.195226 
L 175.09429 10.755226 
" style="fill:none;stroke:#ffffff;stroke-linecap:round;"/>
     </g>
     <g id="line2d_4"/>
     <g id="text_2">
      <!-- $\mathdefault{10^{3}}$ -->
      <defs>
       <path d="M 4.203125 18.890625 
L 12.984375 20.0625 
Q 14.5 12.59375 18.140625 9.296875 
Q 21.78125 6 27 6 
Q 33.203125 6 37.46875 10.296875 
Q 41.75 14.59375 41.75 20.953125 
Q 41.75 27 37.796875 30.921875 
Q 33.84375 34.859375 27.734375 34.859375 
Q 25.25 34.859375 21.53125 33.890625 
L 22.515625 41.609375 
Q 23.390625 41.5 23.921875 41.5 
Q 29.546875 41.5 34.03125 44.421875 
Q 38.53125 47.359375 38.53125 53.46875 
Q 38.53125 58.296875 35.25 61.46875 
Q 31.984375 64.65625 26.8125 64.65625 
Q 21.6875 64.65625 18.265625 61.421875 
Q 14.84375 58.203125 13.875 51.765625 
L 5.078125 53.328125 
Q 6.6875 62.15625 12.390625 67.015625 
Q 18.109375 71.875 26.609375 71.875 
Q 32.46875 71.875 37.390625 69.359375 
Q 42.328125 66.84375 44.9375 62.5 
Q 47.5625 58.15625 47.5625 53.265625 
Q 47.5625 48.640625 45.0625 44.828125 
Q 42.578125 41.015625 37.703125 38.765625 
Q 44.046875 37.3125 47.5625 32.6875 
Q 51.078125 28.078125 51.078125 21.140625 
Q 51.078125 11.765625 44.234375 5.25 
Q 37.40625 -1.265625 26.953125 -1.265625 
Q 17.53125 -1.265625 11.296875 4.34375 
Q 5.078125 9.96875 4.203125 18.890625 
z
" id="ArialMT-33"/>
      </defs>
      <g style="fill:#262626;" transform="translate(165.67429 247.570226)scale(0.12 -0.12)">
       <use transform="translate(0 0.99375)" xlink:href="#ArialMT-31"/>
       <use transform="translate(55.615234 0.99375)" xlink:href="#ArialMT-30"/>
       <use transform="translate(112.972813 70.6875)scale(0.7)" xlink:href="#ArialMT-33"/>
      </g>
     </g>
    </g>
    <g id="xtick_3">
     <g id="line2d_5">
      <path clip-path="url(#p0ee93cf3be)" d="M 276.548835 228.195226 
L 276.548835 10.755226 
" style="fill:none;stroke:#ffffff;stroke-linecap:round;"/>
     </g>
     <g id="line2d_6"/>
     <g id="text_3">
      <!-- $\mathdefault{10^{4}}$ -->
      <defs>
       <path d="M 32.328125 0 
L 32.328125 17.140625 
L 1.265625 17.140625 
L 1.265625 25.203125 
L 33.9375 71.578125 
L 41.109375 71.578125 
L 41.109375 25.203125 
L 50.78125 25.203125 
L 50.78125 17.140625 
L 41.109375 17.140625 
L 41.109375 0 
z
M 32.328125 25.203125 
L 32.328125 57.46875 
L 9.90625 25.203125 
z
" id="ArialMT-34"/>
      </defs>
      <g style="fill:#262626;" transform="translate(267.128835 247.450226)scale(0.12 -0.12)">
       <use transform="translate(0 0.201563)" xlink:href="#ArialMT-31"/>
       <use transform="translate(55.615234 0.201563)" xlink:href="#ArialMT-30"/>
       <use transform="translate(112.972813 69.895313)scale(0.7)" xlink:href="#ArialMT-34"/>
      </g>
     </g>
    </g>
    <g id="xtick_4">
     <g id="line2d_7">
      <path clip-path="url(#p0ee93cf3be)" d="M 378.003381 228.195226 
L 378.003381 10.755226 
" style="fill:none;stroke:#ffffff;stroke-linecap:round;"/>
     </g>
     <g id="line2d_8"/>
     <g id="text_4">
      <!-- $\mathdefault{10^{5}}$ -->
      <defs>
       <path d="M 4.15625 18.75 
L 13.375 19.53125 
Q 14.40625 12.796875 18.140625 9.390625 
Q 21.875 6 27.15625 6 
Q 33.5 6 37.890625 10.78125 
Q 42.28125 15.578125 42.28125 23.484375 
Q 42.28125 31 38.0625 35.34375 
Q 33.84375 39.703125 27 39.703125 
Q 22.75 39.703125 19.328125 37.765625 
Q 15.921875 35.84375 13.96875 32.765625 
L 5.71875 33.84375 
L 12.640625 70.609375 
L 48.25 70.609375 
L 48.25 62.203125 
L 19.671875 62.203125 
L 15.828125 42.96875 
Q 22.265625 47.46875 29.34375 47.46875 
Q 38.71875 47.46875 45.15625 40.96875 
Q 51.609375 34.46875 51.609375 24.265625 
Q 51.609375 14.546875 45.953125 7.46875 
Q 39.0625 -1.21875 27.15625 -1.21875 
Q 17.390625 -1.21875 11.203125 4.25 
Q 5.03125 9.71875 4.15625 18.75 
z
" id="ArialMT-35"/>
      </defs>
      <g style="fill:#262626;" transform="translate(368.583381 247.450226)scale(0.12 -0.12)">
       <use transform="translate(0 0.879688)" xlink:href="#ArialMT-31"/>
       <use transform="translate(55.615234 0.879688)" xlink:href="#ArialMT-30"/>
       <use transform="translate(112.972813 70.573438)scale(0.7)" xlink:href="#ArialMT-35"/>
      </g>
     </g>
    </g>
    <g id="xtick_5">
     <g id="line2d_9"/>
    </g>
    <g id="xtick_6">
     <g id="line2d_10"/>
    </g>
    <g id="xtick_7">
     <g id="line2d_11"/>
    </g>
    <g id="xtick_8">
     <g id="line2d_12"/>
    </g>
    <g id="xtick_9">
     <g id="line2d_13"/>
    </g>
    <g id="xtick_10">
     <g id="line2d_14"/>
    </g>
    <g id="xtick_11">
     <g id="line2d_15"/>
    </g>
    <g id="xtick_12">
     <g id="line2d_16"/>
    </g>
    <g id="xtick_13">
     <g id="line2d_17"/>
    </g>
    <g id="xtick_14">
     <g id="line2d_18"/>
    </g>
    <g id="xtick_15">
     <g id="line2d_19"/>
    </g>
    <g id="xtick_16">
     <g id="line2d_20"/>
    </g>
    <g id="xtick_17">
     <g id="line2d_21"/>
    </g>
    <g id="xtick_18">
     <g id="line2d_22"/>
    </g>
    <g id="xtick_19">
     <g id="line2d_23"/>
    </g>
    <g id="xtick_20">
     <g id="line2d_24"/>
    </g>
    <g id="xtick_21">
     <g id="line2d_25"/>
    </g>
    <g id="xtick_22">
     <g id="line2d_26"/>
    </g>
    <g id="xtick_23">
     <g id="line2d_27"/>
    </g>
    <g id="xtick_24">
     <g id="line2d_28"/>
    </g>
    <g id="xtick_25">
     <g id="line2d_29"/>
    </g>
    <g id="xtick_26">
     <g id="line2d_30"/>
    </g>
    <g id="xtick_27">
     <g id="line2d_31"/>
    </g>
    <g id="xtick_28">
     <g id="line2d_32"/>
    </g>
    <g id="xtick_29">
     <g id="line2d_33"/>
    </g>
    <g id="xtick_30">
     <g id="line2d_34"/>
    </g>
    <g id="xtick_31">
     <g id="line2d_35"/>
    </g>
    <g id="text_5">
     <!-- npts -->
     <defs>
      <path d="M 6.59375 0 
L 6.59375 51.859375 
L 14.5 51.859375 
L 14.5 44.484375 
Q 20.21875 53.03125 31 53.03125 
Q 35.6875 53.03125 39.625 51.34375 
Q 43.5625 49.65625 45.515625 46.921875 
Q 47.46875 44.1875 48.25 40.4375 
Q 48.734375 37.984375 48.734375 31.890625 
L 48.734375 0 
L 39.9375 0 
L 39.9375 31.546875 
Q 39.9375 36.921875 38.90625 39.578125 
Q 37.890625 42.234375 35.28125 43.8125 
Q 32.671875 45.40625 29.15625 45.40625 
Q 23.53125 45.40625 19.453125 41.84375 
Q 15.375 38.28125 15.375 28.328125 
L 15.375 0 
z
" id="ArialMT-6e"/>
      <path d="M 6.59375 -19.875 
L 6.59375 51.859375 
L 14.59375 51.859375 
L 14.59375 45.125 
Q 17.4375 49.078125 21 51.046875 
Q 24.5625 53.03125 29.640625 53.03125 
Q 36.28125 53.03125 41.359375 49.609375 
Q 46.4375 46.1875 49.015625 39.953125 
Q 51.609375 33.734375 51.609375 26.3125 
Q 51.609375 18.359375 48.75 11.984375 
Q 45.90625 5.609375 40.453125 2.21875 
Q 35.015625 -1.171875 29 -1.171875 
Q 24.609375 -1.171875 21.109375 0.6875 
Q 17.625 2.546875 15.375 5.375 
L 15.375 -19.875 
z
M 14.546875 25.640625 
Q 14.546875 15.625 18.59375 10.84375 
Q 22.65625 6.0625 28.421875 6.0625 
Q 34.28125 6.0625 38.453125 11.015625 
Q 42.625 15.96875 42.625 26.375 
Q 42.625 36.28125 38.546875 41.203125 
Q 34.46875 46.140625 28.8125 46.140625 
Q 23.1875 46.140625 18.859375 40.890625 
Q 14.546875 35.640625 14.546875 25.640625 
z
" id="ArialMT-70"/>
      <path d="M 25.78125 7.859375 
L 27.046875 0.09375 
Q 23.34375 -0.6875 20.40625 -0.6875 
Q 15.625 -0.6875 12.984375 0.828125 
Q 10.359375 2.34375 9.28125 4.8125 
Q 8.203125 7.28125 8.203125 15.1875 
L 8.203125 45.015625 
L 1.765625 45.015625 
L 1.765625 51.859375 
L 8.203125 51.859375 
L 8.203125 64.703125 
L 16.9375 69.96875 
L 16.9375 51.859375 
L 25.78125 51.859375 
L 25.78125 45.015625 
L 16.9375 45.015625 
L 16.9375 14.703125 
Q 16.9375 10.9375 17.40625 9.859375 
Q 17.875 8.796875 18.921875 8.15625 
Q 19.96875 7.515625 21.921875 7.515625 
Q 23.390625 7.515625 25.78125 7.859375 
z
" id="ArialMT-74"/>
      <path d="M 3.078125 15.484375 
L 11.765625 16.84375 
Q 12.5 11.625 15.84375 8.84375 
Q 19.1875 6.0625 25.203125 6.0625 
Q 31.25 6.0625 34.171875 8.515625 
Q 37.109375 10.984375 37.109375 14.3125 
Q 37.109375 17.28125 34.515625 19 
Q 32.71875 20.171875 25.53125 21.96875 
Q 15.875 24.421875 12.140625 26.203125 
Q 8.40625 27.984375 6.46875 31.125 
Q 4.546875 34.28125 4.546875 38.09375 
Q 4.546875 41.546875 6.125 44.5 
Q 7.71875 47.46875 10.453125 49.421875 
Q 12.5 50.921875 16.03125 51.96875 
Q 19.578125 53.03125 23.640625 53.03125 
Q 29.734375 53.03125 34.34375 51.265625 
Q 38.96875 49.515625 41.15625 46.5 
Q 43.359375 43.5 44.1875 38.484375 
L 35.59375 37.3125 
Q 35.015625 41.3125 32.203125 43.546875 
Q 29.390625 45.796875 24.265625 45.796875 
Q 18.21875 45.796875 15.625 43.796875 
Q 13.03125 41.796875 13.03125 39.109375 
Q 13.03125 37.40625 14.109375 36.03125 
Q 15.1875 34.625 17.484375 33.6875 
Q 18.796875 33.203125 25.25 31.453125 
Q 34.578125 28.953125 38.25 27.359375 
Q 41.9375 25.78125 44.03125 22.75 
Q 46.140625 19.734375 46.140625 15.234375 
Q 46.140625 10.84375 43.578125 6.953125 
Q 41.015625 3.078125 36.171875 0.953125 
Q 31.34375 -1.171875 25.25 -1.171875 
Q 15.140625 -1.171875 9.84375 3.03125 
Q 4.546875 7.234375 3.078125 15.484375 
z
" id="ArialMT-73"/>
     </defs>
     <g style="fill:#262626;" transform="translate(208.811563 266.839289)scale(0.18 -0.18)">
      <use xlink:href="#ArialMT-6e"/>
      <use x="55.615234" xlink:href="#ArialMT-70"/>
      <use x="111.230469" xlink:href="#ArialMT-74"/>
      <use x="139.013672" xlink:href="#ArialMT-73"/>
     </g>
    </g>
   </g>
   <g id="matplotlib.axis_2">
    <g id="ytick_1">
     <g id="line2d_36">
      <path clip-path="url(#p0ee93cf3be)" d="M 58.421563 218.311773 
L 393.221563 218.311773 
" style="fill:none;stroke:#ffffff;stroke-linecap:round;"/>
     </g>
     <g id="line2d_37"/>
     <g id="text_6">
      <!-- $\mathdefault{10^{-5}}$ -->
      <defs>
       <path d="M 52.828125 31.203125 
L 5.5625 31.203125 
L 5.5625 39.40625 
L 52.828125 39.40625 
z
" id="ArialMT-2212"/>
      </defs>
      <g style="fill:#262626;" transform="translate(27.661563 224.439273)scale(0.12 -0.12)">
       <use transform="translate(0 0.879688)" xlink:href="#ArialMT-31"/>
       <use transform="translate(55.615234 0.879688)" xlink:href="#ArialMT-30"/>
       <use transform="translate(112.972813 70.573438)scale(0.7)" xlink:href="#ArialMT-2212"/>
       <use transform="translate(153.851719 70.573438)scale(0.7)" xlink:href="#ArialMT-35"/>
      </g>
     </g>
    </g>
    <g id="ytick_2">
     <g id="line2d_38">
      <path clip-path="url(#p0ee93cf3be)" d="M 58.421563 167.080705 
L 393.221563 167.080705 
" style="fill:none;stroke:#ffffff;stroke-linecap:round;"/>
     </g>
     <g id="line2d_39"/>
     <g id="text_7">
      <!-- $\mathdefault{10^{-4}}$ -->
      <g style="fill:#262626;" transform="translate(27.661563 173.208205)scale(0.12 -0.12)">
       <use transform="translate(0 0.201563)" xlink:href="#ArialMT-31"/>
       <use transform="translate(55.615234 0.201563)" xlink:href="#ArialMT-30"/>
       <use transform="translate(112.972813 69.895313)scale(0.7)" xlink:href="#ArialMT-2212"/>
       <use transform="translate(153.851719 69.895313)scale(0.7)" xlink:href="#ArialMT-34"/>
      </g>
     </g>
    </g>
    <g id="ytick_3">
     <g id="line2d_40">
      <path clip-path="url(#p0ee93cf3be)" d="M 58.421563 115.849636 
L 393.221563 115.849636 
" style="fill:none;stroke:#ffffff;stroke-linecap:round;"/>
     </g>
     <g id="line2d_41"/>
     <g id="text_8">
      <!-- $\mathdefault{10^{-3}}$ -->
      <g style="fill:#262626;" transform="translate(27.661563 122.037136)scale(0.12 -0.12)">
       <use transform="translate(0 0.99375)" xlink:href="#ArialMT-31"/>
       <use transform="translate(55.615234 0.99375)" xlink:href="#ArialMT-30"/>
       <use transform="translate(112.972813 70.6875)scale(0.7)" xlink:href="#ArialMT-2212"/>
       <use transform="translate(153.851719 70.6875)scale(0.7)" xlink:href="#ArialMT-33"/>
      </g>
     </g>
    </g>
    <g id="ytick_4">
     <g id="line2d_42">
      <path clip-path="url(#p0ee93cf3be)" d="M 58.421563 64.618568 
L 393.221563 64.618568 
" style="fill:none;stroke:#ffffff;stroke-linecap:round;"/>
     </g>
     <g id="line2d_43"/>
     <g id="text_9">
      <!-- $\mathdefault{10^{-2}}$ -->
      <g style="fill:#262626;" transform="translate(27.661563 70.806068)scale(0.12 -0.12)">
       <use transform="translate(0 0.99375)" xlink:href="#ArialMT-31"/>
       <use transform="translate(55.615234 0.99375)" xlink:href="#ArialMT-30"/>
       <use transform="translate(112.972813 70.6875)scale(0.7)" xlink:href="#ArialMT-2212"/>
       <use transform="translate(153.851719 70.6875)scale(0.7)" xlink:href="#ArialMT-32"/>
      </g>
     </g>
    </g>
    <g id="ytick_5">
     <g id="line2d_44">
      <path clip-path="url(#p0ee93cf3be)" d="M 58.421563 13.3875 
L 393.221563 13.3875 
" style="fill:none;stroke:#ffffff;stroke-linecap:round;"/>
     </g>
     <g id="line2d_45"/>
     <g id="text_10">
      <!-- $\mathdefault{10^{-1}}$ -->
      <g style="fill:#262626;" transform="translate(27.661563 19.575)scale(0.12 -0.12)">
       <use transform="translate(0 0.99375)" xlink:href="#ArialMT-31"/>
       <use transform="translate(55.615234 0.99375)" xlink:href="#ArialMT-30"/>
       <use transform="translate(112.972813 70.6875)scale(0.7)" xlink:href="#ArialMT-2212"/>
       <use transform="translate(153.851719 70.6875)scale(0.7)" xlink:href="#ArialMT-31"/>
      </g>
     </g>
    </g>
    <g id="ytick_6">
     <g id="line2d_46"/>
    </g>
    <g id="ytick_7">
     <g id="line2d_47"/>
    </g>
    <g id="ytick_8">
     <g id="line2d_48"/>
    </g>
    <g id="ytick_9">
     <g id="line2d_49"/>
    </g>
    <g id="ytick_10">
     <g id="line2d_50"/>
    </g>
    <g id="ytick_11">
     <g id="line2d_51"/>
    </g>
    <g id="ytick_12">
     <g id="line2d_52"/>
    </g>
    <g id="ytick_13">
     <g id="line2d_53"/>
    </g>
    <g id="ytick_14">
     <g id="line2d_54"/>
    </g>
    <g id="ytick_15">
     <g id="line2d_55"/>
    </g>
    <g id="ytick_16">
     <g id="line2d_56"/>
    </g>
    <g id="ytick_17">
     <g id="line2d_57"/>
    </g>
    <g id="ytick_18">
     <g id="line2d_58"/>
    </g>
    <g id="ytick_19">
     <g id="line2d_59"/>
    </g>
    <g id="ytick_20">
     <g id="line2d_60"/>
    </g>
    <g id="ytick_21">
     <g id="line2d_61"/>
    </g>
    <g id="ytick_22">
     <g id="line2d_62"/>
    </g>
    <g id="ytick_23">
     <g id="line2d_63"/>
    </g>
    <g id="ytick_24">
     <g id="line2d_64"/>
    </g>
    <g id="ytick_25">
     <g id="line2d_65"/>
    </g>
    <g id="ytick_26">
     <g id="line2d_66"/>
    </g>
    <g id="ytick_27">
     <g id="line2d_67"/>
    </g>
    <g id="ytick_28">
     <g id="line2d_68"/>
    </g>
    <g id="ytick_29">
     <g id="line2d_69"/>
    </g>
    <g id="ytick_30">
     <g id="line2d_70"/>
    </g>
    <g id="ytick_31">
     <g id="line2d_71"/>
    </g>
    <g id="ytick_32">
     <g id="line2d_72"/>
    </g>
    <g id="ytick_33">
     <g id="line2d_73"/>
    </g>
    <g id="ytick_34">
     <g id="line2d_74"/>
    </g>
    <g id="ytick_35">
     <g id="line2d_75"/>
    </g>
    <g id="ytick_36">
     <g id="line2d_76"/>
    </g>
    <g id="ytick_37">
     <g id="line2d_77"/>
    </g>
    <g id="ytick_38">
     <g id="line2d_78"/>
    </g>
    <g id="ytick_39">
     <g id="line2d_79"/>
    </g>
    <g id="ytick_40">
     <g id="line2d_80"/>
    </g>
    <g id="text_11">
     <!-- absolute error -->
     <defs>
      <path d="M 40.4375 6.390625 
Q 35.546875 2.25 31.03125 0.53125 
Q 26.515625 -1.171875 21.34375 -1.171875 
Q 12.796875 -1.171875 8.203125 3 
Q 3.609375 7.171875 3.609375 13.671875 
Q 3.609375 17.484375 5.34375 20.625 
Q 7.078125 23.78125 9.890625 25.6875 
Q 12.703125 27.59375 16.21875 28.5625 
Q 18.796875 29.25 24.03125 29.890625 
Q 34.671875 31.15625 39.703125 32.90625 
Q 39.75 34.71875 39.75 35.203125 
Q 39.75 40.578125 37.25 42.78125 
Q 33.890625 45.75 27.25 45.75 
Q 21.046875 45.75 18.09375 43.578125 
Q 15.140625 41.40625 13.71875 35.890625 
L 5.125 37.0625 
Q 6.296875 42.578125 8.984375 45.96875 
Q 11.671875 49.359375 16.75 51.1875 
Q 21.828125 53.03125 28.515625 53.03125 
Q 35.15625 53.03125 39.296875 51.46875 
Q 43.453125 49.90625 45.40625 47.53125 
Q 47.359375 45.171875 48.140625 41.546875 
Q 48.578125 39.3125 48.578125 33.453125 
L 48.578125 21.734375 
Q 48.578125 9.46875 49.140625 6.21875 
Q 49.703125 2.984375 51.375 0 
L 42.1875 0 
Q 40.828125 2.734375 40.4375 6.390625 
z
M 39.703125 26.03125 
Q 34.90625 24.078125 25.34375 22.703125 
Q 19.921875 21.921875 17.671875 20.9375 
Q 15.4375 19.96875 14.203125 18.09375 
Q 12.984375 16.21875 12.984375 13.921875 
Q 12.984375 10.40625 15.640625 8.0625 
Q 18.3125 5.71875 23.4375 5.71875 
Q 28.515625 5.71875 32.46875 7.9375 
Q 36.421875 10.15625 38.28125 14.015625 
Q 39.703125 17 39.703125 22.796875 
z
" id="ArialMT-61"/>
      <path d="M 14.703125 0 
L 6.546875 0 
L 6.546875 71.578125 
L 15.328125 71.578125 
L 15.328125 46.046875 
Q 20.90625 53.03125 29.546875 53.03125 
Q 34.328125 53.03125 38.59375 51.09375 
Q 42.875 49.171875 45.625 45.671875 
Q 48.390625 42.1875 49.953125 37.25 
Q 51.515625 32.328125 51.515625 26.703125 
Q 51.515625 13.375 44.921875 6.09375 
Q 38.328125 -1.171875 29.109375 -1.171875 
Q 19.921875 -1.171875 14.703125 6.5 
z
M 14.59375 26.3125 
Q 14.59375 17 17.140625 12.84375 
Q 21.296875 6.0625 28.375 6.0625 
Q 34.125 6.0625 38.328125 11.0625 
Q 42.53125 16.0625 42.53125 25.984375 
Q 42.53125 36.140625 38.5 40.96875 
Q 34.46875 45.796875 28.765625 45.796875 
Q 23 45.796875 18.796875 40.796875 
Q 14.59375 35.796875 14.59375 26.3125 
z
" id="ArialMT-62"/>
      <path d="M 3.328125 25.921875 
Q 3.328125 40.328125 11.328125 47.265625 
Q 18.015625 53.03125 27.640625 53.03125 
Q 38.328125 53.03125 45.109375 46.015625 
Q 51.90625 39.015625 51.90625 26.65625 
Q 51.90625 16.65625 48.90625 10.90625 
Q 45.90625 5.171875 40.15625 2 
Q 34.421875 -1.171875 27.640625 -1.171875 
Q 16.75 -1.171875 10.03125 5.8125 
Q 3.328125 12.796875 3.328125 25.921875 
z
M 12.359375 25.921875 
Q 12.359375 15.96875 16.703125 11.015625 
Q 21.046875 6.0625 27.640625 6.0625 
Q 34.1875 6.0625 38.53125 11.03125 
Q 42.875 16.015625 42.875 26.21875 
Q 42.875 35.84375 38.5 40.796875 
Q 34.125 45.75 27.640625 45.75 
Q 21.046875 45.75 16.703125 40.8125 
Q 12.359375 35.890625 12.359375 25.921875 
z
" id="ArialMT-6f"/>
      <path d="M 6.390625 0 
L 6.390625 71.578125 
L 15.1875 71.578125 
L 15.1875 0 
z
" id="ArialMT-6c"/>
      <path d="M 40.578125 0 
L 40.578125 7.625 
Q 34.515625 -1.171875 24.125 -1.171875 
Q 19.53125 -1.171875 15.546875 0.578125 
Q 11.578125 2.34375 9.640625 5 
Q 7.71875 7.671875 6.9375 11.53125 
Q 6.390625 14.109375 6.390625 19.734375 
L 6.390625 51.859375 
L 15.1875 51.859375 
L 15.1875 23.09375 
Q 15.1875 16.21875 15.71875 13.8125 
Q 16.546875 10.359375 19.234375 8.375 
Q 21.921875 6.390625 25.875 6.390625 
Q 29.828125 6.390625 33.296875 8.421875 
Q 36.765625 10.453125 38.203125 13.9375 
Q 39.65625 17.4375 39.65625 24.078125 
L 39.65625 51.859375 
L 48.4375 51.859375 
L 48.4375 0 
z
" id="ArialMT-75"/>
      <path d="M 42.09375 16.703125 
L 51.171875 15.578125 
Q 49.03125 7.625 43.21875 3.21875 
Q 37.40625 -1.171875 28.375 -1.171875 
Q 17 -1.171875 10.328125 5.828125 
Q 3.65625 12.84375 3.65625 25.484375 
Q 3.65625 38.578125 10.390625 45.796875 
Q 17.140625 53.03125 27.875 53.03125 
Q 38.28125 53.03125 44.875 45.953125 
Q 51.46875 38.875 51.46875 26.03125 
Q 51.46875 25.25 51.421875 23.6875 
L 12.75 23.6875 
Q 13.234375 15.140625 17.578125 10.59375 
Q 21.921875 6.0625 28.421875 6.0625 
Q 33.25 6.0625 36.671875 8.59375 
Q 40.09375 11.140625 42.09375 16.703125 
z
M 13.234375 30.90625 
L 42.1875 30.90625 
Q 41.609375 37.453125 38.875 40.71875 
Q 34.671875 45.796875 27.984375 45.796875 
Q 21.921875 45.796875 17.796875 41.75 
Q 13.671875 37.703125 13.234375 30.90625 
z
" id="ArialMT-65"/>
      <path id="ArialMT-20"/>
      <path d="M 6.5 0 
L 6.5 51.859375 
L 14.40625 51.859375 
L 14.40625 44 
Q 17.4375 49.515625 20 51.265625 
Q 22.5625 53.03125 25.640625 53.03125 
Q 30.078125 53.03125 34.671875 50.203125 
L 31.640625 42.046875 
Q 28.421875 43.953125 25.203125 43.953125 
Q 22.3125 43.953125 20.015625 42.21875 
Q 17.71875 40.484375 16.75 37.40625 
Q 15.28125 32.71875 15.28125 27.15625 
L 15.28125 0 
z
" id="ArialMT-72"/>
     </defs>
     <g style="fill:#262626;" transform="translate(20.084062 174.999601)rotate(-90)scale(0.18 -0.18)">
      <use xlink:href="#ArialMT-61"/>
      <use x="55.615234" xlink:href="#ArialMT-62"/>
      <use x="111.230469" xlink:href="#ArialMT-73"/>
      <use x="161.230469" xlink:href="#ArialMT-6f"/>
      <use x="216.845703" xlink:href="#ArialMT-6c"/>
      <use x="239.0625" xlink:href="#ArialMT-75"/>
      <use x="294.677734" xlink:href="#ArialMT-74"/>
      <use x="322.460938" xlink:href="#ArialMT-65"/>
      <use x="378.076172" xlink:href="#ArialMT-20"/>
      <use x="405.859375" xlink:href="#ArialMT-65"/>
      <use x="461.474609" xlink:href="#ArialMT-72"/>
      <use x="494.775391" xlink:href="#ArialMT-72"/>
      <use x="528.076172" xlink:href="#ArialMT-6f"/>
      <use x="583.691406" xlink:href="#ArialMT-72"/>
     </g>
    </g>
   </g>
   <g id="line2d_81">
    <path clip-path="url(#p0ee93cf3be)" d="M 73.639744 64.434487 
L 76.620862 65.951959 
L 79.413 67.372508 
L 82.761027 69.07501 
L 85.872518 70.656445 
L 88.778702 72.132894 
L 91.797769 73.666085 
L 94.895995 75.238874 
L 98.044559 76.836637 
L 101.219311 78.447137 
L 104.180606 79.948889 
L 107.367137 81.564398 
L 110.529832 83.167378 
L 113.480635 84.662589 
L 116.579962 86.232698 
L 119.63095 87.777983 
L 122.774164 89.369652 
L 125.842953 90.923337 
L 128.96363 92.503012 
L 131.995166 94.037311 
L 135.050693 95.583518 
L 138.112459 97.132662 
L 141.261023 98.725508 
L 144.288265 100.256787 
L 147.369523 101.815209 
L 150.481014 103.388751 
L 153.531189 104.931129 
L 156.585467 106.475438 
L 159.692386 108.046224 
L 162.769774 109.601954 
L 165.864042 111.166097 
L 168.907569 112.704482 
L 171.991395 114.263134 
L 175.09429 115.831326 
L 178.157688 117.379468 
L 181.214031 118.923961 
L 184.287158 120.476859 
L 187.36043 122.029758 
L 190.451449 123.591556 
L 193.514151 125.138983 
L 196.594647 126.695342 
L 199.676006 128.252083 
L 202.744486 129.802265 
L 205.832982 131.362511 
L 208.903581 132.913672 
L 211.984378 134.469943 
L 215.059874 136.023497 
L 218.134156 137.576402 
L 221.209437 139.129779 
L 224.272027 140.676713 
L 227.351363 142.232077 
L 230.430727 143.787428 
L 233.49656 145.335919 
L 236.581705 146.89414 
L 239.648524 148.443083 
L 242.725063 149.996916 
L 245.804825 151.552356 
L 248.87364 153.10225 
L 251.950963 154.656424 
L 255.021659 156.207235 
L 258.100329 157.76206 
L 261.171923 159.313297 
L 264.247626 160.866596 
L 267.32402 162.420233 
L 270.397592 163.972434 
L 273.474297 165.526206 
L 276.548835 167.078875 
L 279.620453 168.63006 
L 282.695411 170.182923 
L 285.770305 171.735747 
L 288.844984 173.288454 
L 291.918431 174.840533 
L 294.994795 176.394078 
L 298.068122 177.946084 
L 301.14316 179.498949 
L 304.217847 181.051631 
L 307.291913 182.603995 
L 310.366308 184.15652 
L 313.440831 185.709106 
L 316.514419 187.261216 
L 319.588701 188.813673 
L 322.663983 190.366631 
L 325.738117 191.919007 
L 328.812637 193.471574 
L 331.886527 195.023821 
L 334.961639 196.576683 
L 338.03625 198.129289 
L 341.110195 199.681556 
L 344.184356 201.23393 
L 347.25937 202.786734 
L 350.33314 204.338907 
L 353.407818 205.891537 
L 356.482667 207.444252 
L 359.556884 208.996646 
L 362.631465 210.549223 
L 365.705666 212.101607 
L 368.780195 213.654155 
L 371.854164 215.206419 
L 374.928842 216.75904 
L 378.003381 218.31159 
" style="fill:none;stroke:#4c72b0;stroke-linecap:round;stroke-width:2;"/>
   </g>
   <g id="line2d_82">
    <path clip-path="url(#p0ee93cf3be)" d="M 73.639744 27.616569 
L 76.620862 61.094719 
L 79.413 33.407949 
L 82.761027 44.392087 
L 85.872518 56.347947 
L 88.778702 37.912418 
L 91.797769 43.754589 
L 94.895995 33.221469 
L 98.044559 50.886719 
L 101.219311 20.638863 
L 104.180606 64.254642 
L 107.367137 35.707666 
L 110.529832 32.177493 
L 113.480635 34.77796 
L 116.579962 51.81656 
L 119.63095 46.110253 
L 122.774164 48.90074 
L 125.842953 72.151368 
L 128.96363 41.098684 
L 131.995166 72.909893 
L 135.050693 22.402787 
L 138.112459 46.384918 
L 141.261023 43.023732 
L 144.288265 42.283737 
L 147.369523 43.988343 
L 150.481014 32.565312 
L 153.531189 53.18963 
L 156.585467 54.618037 
L 159.692386 25.318238 
L 162.769774 69.855354 
L 165.864042 89.031841 
L 168.907569 52.566329 
L 171.991395 61.483688 
L 175.09429 62.196513 
L 178.157688 49.824936 
L 181.214031 73.454484 
L 184.287158 42.673243 
L 187.36043 65.882785 
L 190.451449 51.614442 
L 193.514151 110.930057 
L 196.594647 96.649046 
L 199.676006 56.33173 
L 202.744486 74.922362 
L 205.832982 104.324248 
L 208.903581 65.694391 
L 211.984378 94.689403 
L 215.059874 118.513038 
L 218.134156 88.251461 
L 221.209437 46.888717 
L 224.272027 113.547134 
L 227.351363 78.049941 
L 230.430727 107.539122 
L 233.49656 87.403226 
L 236.581705 71.209963 
L 239.648524 66.742296 
L 242.725063 75.531971 
L 245.804825 71.894692 
L 248.87364 81.600241 
L 251.950963 81.468425 
L 255.021659 76.885174 
L 258.100329 128.916435 
L 261.171923 124.200877 
L 264.247626 85.999769 
L 267.32402 97.237935 
L 270.397592 102.630737 
L 273.474297 109.967054 
L 276.548835 64.339576 
L 279.620453 75.060793 
L 282.695411 63.079332 
L 285.770305 100.922789 
L 288.844984 105.738973 
L 291.918431 73.604178 
L 294.994795 79.653633 
L 298.068122 85.491427 
L 301.14316 100.597054 
L 304.217847 85.969852 
L 307.291913 84.303586 
L 310.366308 110.31933 
L 313.440831 75.506934 
L 316.514419 122.919923 
L 319.588701 122.524411 
L 322.663983 184.256851 
L 325.738117 96.798034 
L 328.812637 75.100529 
L 331.886527 80.560607 
L 334.961639 83.36939 
L 338.03625 107.178741 
L 341.110195 85.65046 
L 344.184356 93.322711 
L 347.25937 118.259191 
L 350.33314 140.623854 
L 353.407818 118.789672 
L 356.482667 93.709749 
L 359.556884 104.682591 
L 362.631465 108.753453 
L 365.705666 147.28943 
L 368.780195 94.70207 
L 371.854164 109.230532 
L 374.928842 77.257148 
L 378.003381 130.827411 
" style="fill:none;stroke:#55a868;stroke-linecap:round;stroke-width:2;"/>
   </g>
   <g id="line2d_83">
    <path clip-path="url(#p0ee93cf3be)" d="M 73.639744 28.809588 
L 76.620862 29.562269 
L 79.413 30.267236 
L 82.761027 31.112556 
L 85.872518 31.898154 
L 88.778702 32.631916 
L 91.797769 33.394178 
L 94.895995 34.176427 
L 98.044559 34.971386 
L 101.219311 35.772956 
L 104.180606 36.520632 
L 107.367137 37.325177 
L 110.529832 38.123703 
L 113.480635 38.86873 
L 116.579962 39.651257 
L 119.63095 40.42158 
L 122.774164 41.215187 
L 125.842953 41.990004 
L 128.96363 42.777921 
L 131.995166 43.543332 
L 135.050693 44.3148 
L 138.112459 45.087844 
L 141.261023 45.882802 
L 144.288265 46.647129 
L 147.369523 47.425094 
L 150.481014 48.210692 
L 153.531189 48.980809 
L 156.585467 49.751962 
L 159.692386 50.536406 
L 162.769774 51.313393 
L 165.864042 52.094643 
L 168.907569 52.863081 
L 171.991395 53.641695 
L 175.09429 54.425122 
L 178.157688 55.198578 
L 181.214031 55.970252 
L 184.287158 56.746164 
L 187.36043 57.522113 
L 190.451449 58.302542 
L 193.514151 59.075822 
L 196.594647 59.853594 
L 199.676006 60.631585 
L 202.744486 61.406323 
L 205.832982 62.186115 
L 208.903581 62.961389 
L 211.984378 63.739237 
L 215.059874 64.515747 
L 218.134156 65.291951 
L 221.209437 66.068407 
L 224.272027 66.841658 
L 227.351363 67.619138 
L 230.430727 68.396624 
L 233.49656 69.170695 
L 236.581705 69.949641 
L 239.648524 70.72396 
L 242.725063 71.500734 
L 245.804825 72.278321 
L 248.87364 73.053144 
L 251.950963 73.830115 
L 255.021659 74.605413 
L 258.100329 75.382725 
L 261.171923 76.15825 
L 264.247626 76.934812 
L 267.32402 77.711549 
L 270.397592 78.487573 
L 273.474297 79.264388 
L 276.548835 80.040656 
L 279.620453 80.816187 
L 282.695411 81.592562 
L 285.770305 82.36892 
L 288.844984 83.145223 
L 291.918431 83.921216 
L 294.994795 84.697945 
L 298.068122 85.473908 
L 301.14316 86.250302 
L 304.217847 87.026608 
L 307.291913 87.802757 
L 310.366308 88.578989 
L 313.440831 89.355253 
L 316.514419 90.131282 
L 319.588701 90.907485 
L 322.663983 91.683941 
L 325.738117 92.460107 
L 328.812637 93.236371 
L 331.886527 94.012475 
L 334.961639 94.788888 
L 338.03625 95.565175 
L 341.110195 96.341293 
L 344.184356 97.117466 
L 347.25937 97.893855 
L 350.33314 98.669929 
L 353.407818 99.446233 
L 356.482667 100.222579 
L 359.556884 100.998766 
L 362.631465 101.775045 
L 365.705666 102.551228 
L 368.780195 103.327494 
L 371.854164 104.103619 
L 374.928842 104.879922 
L 378.003381 105.656191 
" style="fill:none;stroke:#c44e52;stroke-dasharray:7.4,3.2;stroke-dashoffset:0;stroke-width:2;"/>
   </g>
   <g id="patch_3">
    <path d="M 58.421563 228.195226 
L 58.421563 10.755226 
" style="fill:none;"/>
   </g>
   <g id="patch_4">
    <path d="M 393.221563 228.195226 
L 393.221563 10.755226 
" style="fill:none;"/>
   </g>
   <g id="patch_5">
    <path d="M 58.421562 228.195226 
L 393.221563 228.195226 
" style="fill:none;"/>
   </g>
   <g id="patch_6">
    <path d="M 58.421562 10.755226 
L 393.221563 10.755226 
" style="fill:none;"/>
   </g>
   <g id="legend_1">
    <g id="line2d_84">
     <path d="M 67.421562 185.295226 
L 87.421562 185.295226 
" style="fill:none;stroke:#4c72b0;stroke-linecap:round;stroke-width:2;"/>
    </g>
    <g id="line2d_85"/>
    <g id="text_12">
     <!-- equi -->
     <defs>
      <path d="M 39.65625 -19.875 
L 39.65625 5.515625 
Q 37.59375 2.640625 33.90625 0.734375 
Q 30.21875 -1.171875 26.078125 -1.171875 
Q 16.84375 -1.171875 10.171875 6.203125 
Q 3.515625 13.578125 3.515625 26.421875 
Q 3.515625 34.234375 6.21875 40.421875 
Q 8.9375 46.625 14.078125 49.828125 
Q 19.234375 53.03125 25.390625 53.03125 
Q 35.015625 53.03125 40.53125 44.921875 
L 40.53125 51.859375 
L 48.4375 51.859375 
L 48.4375 -19.875 
z
M 12.546875 26.078125 
Q 12.546875 16.0625 16.75 11.0625 
Q 20.953125 6.0625 26.8125 6.0625 
Q 32.421875 6.0625 36.46875 10.8125 
Q 40.53125 15.578125 40.53125 25.296875 
Q 40.53125 35.640625 36.25 40.859375 
Q 31.984375 46.09375 26.21875 46.09375 
Q 20.515625 46.09375 16.53125 41.234375 
Q 12.546875 36.375 12.546875 26.078125 
z
" id="ArialMT-71"/>
      <path d="M 6.640625 61.46875 
L 6.640625 71.578125 
L 15.4375 71.578125 
L 15.4375 61.46875 
z
M 6.640625 0 
L 6.640625 51.859375 
L 15.4375 51.859375 
L 15.4375 0 
z
" id="ArialMT-69"/>
     </defs>
     <g style="fill:#262626;" transform="translate(95.421562 188.795226)scale(0.1 -0.1)">
      <use xlink:href="#ArialMT-65"/>
      <use x="55.615234" xlink:href="#ArialMT-71"/>
      <use x="111.230469" xlink:href="#ArialMT-75"/>
      <use x="166.845703" xlink:href="#ArialMT-69"/>
     </g>
    </g>
    <g id="line2d_86">
     <path d="M 67.421562 199.440539 
L 87.421562 199.440539 
" style="fill:none;stroke:#55a868;stroke-linecap:round;stroke-width:2;"/>
    </g>
    <g id="line2d_87"/>
    <g id="text_13">
     <!-- MC -->
     <defs>
      <path d="M 7.421875 0 
L 7.421875 71.578125 
L 21.6875 71.578125 
L 38.625 20.90625 
Q 40.96875 13.8125 42.046875 10.296875 
Q 43.265625 14.203125 45.84375 21.78125 
L 62.984375 71.578125 
L 75.734375 71.578125 
L 75.734375 0 
L 66.609375 0 
L 66.609375 59.90625 
L 45.796875 0 
L 37.25 0 
L 16.546875 60.9375 
L 16.546875 0 
z
" id="ArialMT-4d"/>
      <path d="M 58.796875 25.09375 
L 68.265625 22.703125 
Q 65.28125 11.03125 57.546875 4.90625 
Q 49.8125 -1.21875 38.625 -1.21875 
Q 27.046875 -1.21875 19.796875 3.484375 
Q 12.546875 8.203125 8.765625 17.140625 
Q 4.984375 26.078125 4.984375 36.328125 
Q 4.984375 47.515625 9.25 55.828125 
Q 13.53125 64.15625 21.40625 68.46875 
Q 29.296875 72.796875 38.765625 72.796875 
Q 49.515625 72.796875 56.828125 67.328125 
Q 64.15625 61.859375 67.046875 51.953125 
L 57.71875 49.75 
Q 55.21875 57.5625 50.484375 61.125 
Q 45.75 64.703125 38.578125 64.703125 
Q 30.328125 64.703125 24.78125 60.734375 
Q 19.234375 56.78125 16.984375 50.109375 
Q 14.75 43.453125 14.75 36.375 
Q 14.75 27.25 17.40625 20.4375 
Q 20.0625 13.625 25.671875 10.25 
Q 31.296875 6.890625 37.84375 6.890625 
Q 45.796875 6.890625 51.3125 11.46875 
Q 56.84375 16.0625 58.796875 25.09375 
z
" id="ArialMT-43"/>
     </defs>
     <g style="fill:#262626;" transform="translate(95.421562 202.940539)scale(0.1 -0.1)">
      <use xlink:href="#ArialMT-4d"/>
      <use x="83.300781" xlink:href="#ArialMT-43"/>
     </g>
    </g>
    <g id="line2d_88">
     <path d="M 67.421562 213.707726 
L 87.421562 213.707726 
" style="fill:none;stroke:#c44e52;stroke-dasharray:7.4,3.2;stroke-dashoffset:0;stroke-width:2;"/>
    </g>
    <g id="line2d_89"/>
    <g id="text_14">
     <!-- -1/2 power -->
     <defs>
      <path d="M 3.171875 21.484375 
L 3.171875 30.328125 
L 30.171875 30.328125 
L 30.171875 21.484375 
z
" id="ArialMT-2d"/>
      <path d="M 0 -1.21875 
L 20.75 72.796875 
L 27.78125 72.796875 
L 7.078125 -1.21875 
z
" id="ArialMT-2f"/>
      <path d="M 16.15625 0 
L 0.296875 51.859375 
L 9.375 51.859375 
L 17.625 21.921875 
L 20.703125 10.796875 
Q 20.90625 11.625 23.390625 21.484375 
L 31.640625 51.859375 
L 40.671875 51.859375 
L 48.4375 21.78125 
L 51.03125 11.859375 
L 54 21.875 
L 62.890625 51.859375 
L 71.4375 51.859375 
L 55.21875 0 
L 46.09375 0 
L 37.84375 31.0625 
L 35.84375 39.890625 
L 25.34375 0 
z
" id="ArialMT-77"/>
     </defs>
     <g style="fill:#262626;" transform="translate(95.421562 217.207726)scale(0.1 -0.1)">
      <use xlink:href="#ArialMT-2d"/>
      <use x="33.300781" xlink:href="#ArialMT-31"/>
      <use x="88.916016" xlink:href="#ArialMT-2f"/>
      <use x="116.699219" xlink:href="#ArialMT-32"/>
      <use x="172.314453" xlink:href="#ArialMT-20"/>
      <use x="200.097656" xlink:href="#ArialMT-70"/>
      <use x="255.712891" xlink:href="#ArialMT-6f"/>
      <use x="311.328125" xlink:href="#ArialMT-77"/>
      <use x="383.544922" xlink:href="#ArialMT-65"/>
      <use x="439.160156" xlink:href="#ArialMT-72"/>
     </g>
    </g>
   </g>
  </g>
 </g>
 <defs>
  <clipPath id="p0ee93cf3be">
   <rect height="217.44" width="334.8" x="58.421563" y="10.755226"/>
  </clipPath>
 </defs>
</svg>
