<?xml version="1.0" encoding="utf-8" standalone="no"?>
<!DOCTYPE svg PUBLIC "-//W3C//DTD SVG 1.1//EN"
  "http://www.w3.org/Graphics/SVG/1.1/DTD/svg11.dtd">
<!-- Created with matplotlib (http://matplotlib.org/) -->
<svg height="274pt" version="1.1" viewBox="0 0 400 274" width="400pt" xmlns="http://www.w3.org/2000/svg" xmlns:xlink="http://www.w3.org/1999/xlink">
 <defs>
  <style type="text/css">
*{stroke-linecap:butt;stroke-linejoin:round;}
  </style>
 </defs>
 <g id="figure_1">
  <g id="patch_1">
   <path d="M 0 274.061562 
L 400.421563 274.061562 
L 400.421563 0 
L 0 0 
z
" style="fill:none;"/>
  </g>
  <g id="axes_1">
   <g id="patch_2">
    <path d="M 58.421563 224.64 
L 393.221563 224.64 
L 393.221563 7.2 
L 58.421563 7.2 
z
" style="fill:#eaeaf2;"/>
   </g>
   <g id="matplotlib.axis_1">
    <g id="xtick_1">
     <g id="line2d_1">
      <path clip-path="url(#pd2ef419668)" d="M 73.639744 224.64 
L 73.639744 7.2 
" style="fill:none;stroke:#ffffff;stroke-linecap:round;"/>
     </g>
     <g id="line2d_2"/>
     <g id="text_1">
      <!-- $\mathdefault{10^{0}}$ -->
      <defs>
       <path d="M 37.25 0 
L 28.46875 0 
L 28.46875 56 
Q 25.296875 52.984375 20.140625 49.953125 
Q 14.984375 46.921875 10.890625 45.40625 
L 10.890625 53.90625 
Q 18.265625 57.375 23.78125 62.296875 
Q 29.296875 67.234375 31.59375 71.875 
L 37.25 71.875 
z
" id="ArialMT-31"/>
       <path d="M 4.15625 35.296875 
Q 4.15625 48 6.765625 55.734375 
Q 9.375 63.484375 14.515625 67.671875 
Q 19.671875 71.875 27.484375 71.875 
Q 33.25 71.875 37.59375 69.546875 
Q 41.9375 67.234375 44.765625 62.859375 
Q 47.609375 58.5 49.21875 52.21875 
Q 50.828125 45.953125 50.828125 35.296875 
Q 50.828125 22.703125 48.234375 14.96875 
Q 45.65625 7.234375 40.5 3 
Q 35.359375 -1.21875 27.484375 -1.21875 
Q 17.140625 -1.21875 11.234375 6.203125 
Q 4.15625 15.140625 4.15625 35.296875 
z
M 13.1875 35.296875 
Q 13.1875 17.671875 17.3125 11.828125 
Q 21.4375 6 27.484375 6 
Q 33.546875 6 37.671875 11.859375 
Q 41.796875 17.71875 41.796875 35.296875 
Q 41.796875 52.984375 37.671875 58.78125 
Q 33.546875 64.59375 27.390625 64.59375 
Q 21.34375 64.59375 17.71875 59.46875 
Q 13.1875 52.9375 13.1875 35.296875 
z
" id="ArialMT-30"/>
      </defs>
      <g style="fill:#262626;" transform="translate(64.219744 244.015)scale(0.12 -0.12)">
       <use transform="translate(0 0.99375)" xlink:href="#ArialMT-31"/>
       <use transform="translate(55.615234 0.99375)" xlink:href="#ArialMT-30"/>
       <use transform="translate(112.972813 70.6875)scale(0.7)" xlink:href="#ArialMT-30"/>
      </g>
     </g>
    </g>
    <g id="xtick_2">
     <g id="line2d_3">
      <path clip-path="url(#pd2ef419668)" d="M 124.367017 224.64 
L 124.367017 7.2 
" style="fill:none;stroke:#ffffff;stroke-linecap:round;"/>
     </g>
     <g id="line2d_4"/>
     <g id="text_2">
      <!-- $\mathdefault{10^{1}}$ -->
      <g style="fill:#262626;" transform="translate(114.947017 244.015)scale(0.12 -0.12)">
       <use transform="translate(0 0.99375)" xlink:href="#ArialMT-31"/>
       <use transform="translate(55.615234 0.99375)" xlink:href="#ArialMT-30"/>
       <use transform="translate(112.972813 70.6875)scale(0.7)" xlink:href="#ArialMT-31"/>
      </g>
     </g>
    </g>
    <g id="xtick_3">
     <g id="line2d_5">
      <path clip-path="url(#pd2ef419668)" d="M 175.09429 224.64 
L 175.09429 7.2 
" style="fill:none;stroke:#ffffff;stroke-linecap:round;"/>
     </g>
     <g id="line2d_6"/>
     <g id="text_3">
      <!-- $\mathdefault{10^{2}}$ -->
      <defs>
       <path d="M 50.34375 8.453125 
L 50.34375 0 
L 3.03125 0 
Q 2.9375 3.171875 4.046875 6.109375 
Q 5.859375 10.9375 9.828125 15.625 
Q 13.8125 20.3125 21.34375 26.46875 
Q 33.015625 36.03125 37.109375 41.625 
Q 41.21875 47.21875 41.21875 52.203125 
Q 41.21875 57.421875 37.46875 61 
Q 33.734375 64.59375 27.734375 64.59375 
Q 21.390625 64.59375 17.578125 60.78125 
Q 13.765625 56.984375 13.71875 50.25 
L 4.6875 51.171875 
Q 5.609375 61.28125 11.65625 66.578125 
Q 17.71875 71.875 27.9375 71.875 
Q 38.234375 71.875 44.234375 66.15625 
Q 50.25 60.453125 50.25 52 
Q 50.25 47.703125 48.484375 43.546875 
Q 46.734375 39.40625 42.65625 34.8125 
Q 38.578125 30.21875 29.109375 22.21875 
Q 21.1875 15.578125 18.9375 13.203125 
Q 16.703125 10.84375 15.234375 8.453125 
z
" id="ArialMT-32"/>
      </defs>
      <g style="fill:#262626;" transform="translate(165.67429 244.015)scale(0.12 -0.12)">
       <use transform="translate(0 0.99375)" xlink:href="#ArialMT-31"/>
       <use transform="translate(55.615234 0.99375)" xlink:href="#ArialMT-30"/>
       <use transform="translate(112.972813 70.6875)scale(0.7)" xlink:href="#ArialMT-32"/>
      </g>
     </g>
    </g>
    <g id="xtick_4">
     <g id="line2d_7">
      <path clip-path="url(#pd2ef419668)" d="M 225.821563 224.64 
L 225.821563 7.2 
" style="fill:none;stroke:#ffffff;stroke-linecap:round;"/>
     </g>
     <g id="line2d_8"/>
     <g id="text_4">
      <!-- $\mathdefault{10^{3}}$ -->
      <defs>
       <path d="M 4.203125 18.890625 
L 12.984375 20.0625 
Q 14.5 12.59375 18.140625 9.296875 
Q 21.78125 6 27 6 
Q 33.203125 6 37.46875 10.296875 
Q 41.75 14.59375 41.75 20.953125 
Q 41.75 27 37.796875 30.921875 
Q 33.84375 34.859375 27.734375 34.859375 
Q 25.25 34.859375 21.53125 33.890625 
L 22.515625 41.609375 
Q 23.390625 41.5 23.921875 41.5 
Q 29.546875 41.5 34.03125 44.421875 
Q 38.53125 47.359375 38.53125 53.46875 
Q 38.53125 58.296875 35.25 61.46875 
Q 31.984375 64.65625 26.8125 64.65625 
Q 21.6875 64.65625 18.265625 61.421875 
Q 14.84375 58.203125 13.875 51.765625 
L 5.078125 53.328125 
Q 6.6875 62.15625 12.390625 67.015625 
Q 18.109375 71.875 26.609375 71.875 
Q 32.46875 71.875 37.390625 69.359375 
Q 42.328125 66.84375 44.9375 62.5 
Q 47.5625 58.15625 47.5625 53.265625 
Q 47.5625 48.640625 45.0625 44.828125 
Q 42.578125 41.015625 37.703125 38.765625 
Q 44.046875 37.3125 47.5625 32.6875 
Q 51.078125 28.078125 51.078125 21.140625 
Q 51.078125 11.765625 44.234375 5.25 
Q 37.40625 -1.265625 26.953125 -1.265625 
Q 17.53125 -1.265625 11.296875 4.34375 
Q 5.078125 9.96875 4.203125 18.890625 
z
" id="ArialMT-33"/>
      </defs>
      <g style="fill:#262626;" transform="translate(216.401563 244.015)scale(0.12 -0.12)">
       <use transform="translate(0 0.99375)" xlink:href="#ArialMT-31"/>
       <use transform="translate(55.615234 0.99375)" xlink:href="#ArialMT-30"/>
       <use transform="translate(112.972813 70.6875)scale(0.7)" xlink:href="#ArialMT-33"/>
      </g>
     </g>
    </g>
    <g id="xtick_5">
     <g id="line2d_9">
      <path clip-path="url(#pd2ef419668)" d="M 276.548835 224.64 
L 276.548835 7.2 
" style="fill:none;stroke:#ffffff;stroke-linecap:round;"/>
     </g>
     <g id="line2d_10"/>
     <g id="text_5">
      <!-- $\mathdefault{10^{4}}$ -->
      <defs>
       <path d="M 32.328125 0 
L 32.328125 17.140625 
L 1.265625 17.140625 
L 1.265625 25.203125 
L 33.9375 71.578125 
L 41.109375 71.578125 
L 41.109375 25.203125 
L 50.78125 25.203125 
L 50.78125 17.140625 
L 41.109375 17.140625 
L 41.109375 0 
z
M 32.328125 25.203125 
L 32.328125 57.46875 
L 9.90625 25.203125 
z
" id="ArialMT-34"/>
      </defs>
      <g style="fill:#262626;" transform="translate(267.128835 243.895)scale(0.12 -0.12)">
       <use transform="translate(0 0.201563)" xlink:href="#ArialMT-31"/>
       <use transform="translate(55.615234 0.201563)" xlink:href="#ArialMT-30"/>
       <use transform="translate(112.972813 69.895313)scale(0.7)" xlink:href="#ArialMT-34"/>
      </g>
     </g>
    </g>
    <g id="xtick_6">
     <g id="line2d_11">
      <path clip-path="url(#pd2ef419668)" d="M 327.276108 224.64 
L 327.276108 7.2 
" style="fill:none;stroke:#ffffff;stroke-linecap:round;"/>
     </g>
     <g id="line2d_12"/>
     <g id="text_6">
      <!-- $\mathdefault{10^{5}}$ -->
      <defs>
       <path d="M 4.15625 18.75 
L 13.375 19.53125 
Q 14.40625 12.796875 18.140625 9.390625 
Q 21.875 6 27.15625 6 
Q 33.5 6 37.890625 10.78125 
Q 42.28125 15.578125 42.28125 23.484375 
Q 42.28125 31 38.0625 35.34375 
Q 33.84375 39.703125 27 39.703125 
Q 22.75 39.703125 19.328125 37.765625 
Q 15.921875 35.84375 13.96875 32.765625 
L 5.71875 33.84375 
L 12.640625 70.609375 
L 48.25 70.609375 
L 48.25 62.203125 
L 19.671875 62.203125 
L 15.828125 42.96875 
Q 22.265625 47.46875 29.34375 47.46875 
Q 38.71875 47.46875 45.15625 40.96875 
Q 51.609375 34.46875 51.609375 24.265625 
Q 51.609375 14.546875 45.953125 7.46875 
Q 39.0625 -1.21875 27.15625 -1.21875 
Q 17.390625 -1.21875 11.203125 4.25 
Q 5.03125 9.71875 4.15625 18.75 
z
" id="ArialMT-35"/>
      </defs>
      <g style="fill:#262626;" transform="translate(317.856108 243.895)scale(0.12 -0.12)">
       <use transform="translate(0 0.879688)" xlink:href="#ArialMT-31"/>
       <use transform="translate(55.615234 0.879688)" xlink:href="#ArialMT-30"/>
       <use transform="translate(112.972813 70.573438)scale(0.7)" xlink:href="#ArialMT-35"/>
      </g>
     </g>
    </g>
    <g id="xtick_7">
     <g id="line2d_13">
      <path clip-path="url(#pd2ef419668)" d="M 378.003381 224.64 
L 378.003381 7.2 
" style="fill:none;stroke:#ffffff;stroke-linecap:round;"/>
     </g>
     <g id="line2d_14"/>
     <g id="text_7">
      <!-- $\mathdefault{10^{6}}$ -->
      <defs>
       <path d="M 49.75 54.046875 
L 41.015625 53.375 
Q 39.84375 58.546875 37.703125 60.890625 
Q 34.125 64.65625 28.90625 64.65625 
Q 24.703125 64.65625 21.53125 62.3125 
Q 17.390625 59.28125 14.984375 53.46875 
Q 12.59375 47.65625 12.5 36.921875 
Q 15.671875 41.75 20.265625 44.09375 
Q 24.859375 46.4375 29.890625 46.4375 
Q 38.671875 46.4375 44.84375 39.96875 
Q 51.03125 33.5 51.03125 23.25 
Q 51.03125 16.5 48.125 10.71875 
Q 45.21875 4.9375 40.140625 1.859375 
Q 35.0625 -1.21875 28.609375 -1.21875 
Q 17.625 -1.21875 10.6875 6.859375 
Q 3.765625 14.9375 3.765625 33.5 
Q 3.765625 54.25 11.421875 63.671875 
Q 18.109375 71.875 29.4375 71.875 
Q 37.890625 71.875 43.28125 67.140625 
Q 48.6875 62.40625 49.75 54.046875 
z
M 13.875 23.1875 
Q 13.875 18.65625 15.796875 14.5 
Q 17.71875 10.359375 21.1875 8.171875 
Q 24.65625 6 28.46875 6 
Q 34.03125 6 38.03125 10.484375 
Q 42.046875 14.984375 42.046875 22.703125 
Q 42.046875 30.125 38.078125 34.390625 
Q 34.125 38.671875 28.125 38.671875 
Q 22.171875 38.671875 18.015625 34.390625 
Q 13.875 30.125 13.875 23.1875 
z
" id="ArialMT-36"/>
      </defs>
      <g style="fill:#262626;" transform="translate(368.583381 244.015)scale(0.12 -0.12)">
       <use transform="translate(0 0.99375)" xlink:href="#ArialMT-31"/>
       <use transform="translate(55.615234 0.99375)" xlink:href="#ArialMT-30"/>
       <use transform="translate(112.972813 70.6875)scale(0.7)" xlink:href="#ArialMT-36"/>
      </g>
     </g>
    </g>
    <g id="xtick_8">
     <g id="line2d_15"/>
    </g>
    <g id="xtick_9">
     <g id="line2d_16"/>
    </g>
    <g id="xtick_10">
     <g id="line2d_17"/>
    </g>
    <g id="xtick_11">
     <g id="line2d_18"/>
    </g>
    <g id="xtick_12">
     <g id="line2d_19"/>
    </g>
    <g id="xtick_13">
     <g id="line2d_20"/>
    </g>
    <g id="xtick_14">
     <g id="line2d_21"/>
    </g>
    <g id="xtick_15">
     <g id="line2d_22"/>
    </g>
    <g id="xtick_16">
     <g id="line2d_23"/>
    </g>
    <g id="xtick_17">
     <g id="line2d_24"/>
    </g>
    <g id="xtick_18">
     <g id="line2d_25"/>
    </g>
    <g id="xtick_19">
     <g id="line2d_26"/>
    </g>
    <g id="xtick_20">
     <g id="line2d_27"/>
    </g>
    <g id="xtick_21">
     <g id="line2d_28"/>
    </g>
    <g id="xtick_22">
     <g id="line2d_29"/>
    </g>
    <g id="xtick_23">
     <g id="line2d_30"/>
    </g>
    <g id="xtick_24">
     <g id="line2d_31"/>
    </g>
    <g id="xtick_25">
     <g id="line2d_32"/>
    </g>
    <g id="xtick_26">
     <g id="line2d_33"/>
    </g>
    <g id="xtick_27">
     <g id="line2d_34"/>
    </g>
    <g id="xtick_28">
     <g id="line2d_35"/>
    </g>
    <g id="xtick_29">
     <g id="line2d_36"/>
    </g>
    <g id="xtick_30">
     <g id="line2d_37"/>
    </g>
    <g id="xtick_31">
     <g id="line2d_38"/>
    </g>
    <g id="xtick_32">
     <g id="line2d_39"/>
    </g>
    <g id="xtick_33">
     <g id="line2d_40"/>
    </g>
    <g id="xtick_34">
     <g id="line2d_41"/>
    </g>
    <g id="xtick_35">
     <g id="line2d_42"/>
    </g>
    <g id="xtick_36">
     <g id="line2d_43"/>
    </g>
    <g id="xtick_37">
     <g id="line2d_44"/>
    </g>
    <g id="xtick_38">
     <g id="line2d_45"/>
    </g>
    <g id="xtick_39">
     <g id="line2d_46"/>
    </g>
    <g id="xtick_40">
     <g id="line2d_47"/>
    </g>
    <g id="xtick_41">
     <g id="line2d_48"/>
    </g>
    <g id="xtick_42">
     <g id="line2d_49"/>
    </g>
    <g id="xtick_43">
     <g id="line2d_50"/>
    </g>
    <g id="xtick_44">
     <g id="line2d_51"/>
    </g>
    <g id="xtick_45">
     <g id="line2d_52"/>
    </g>
    <g id="xtick_46">
     <g id="line2d_53"/>
    </g>
    <g id="xtick_47">
     <g id="line2d_54"/>
    </g>
    <g id="xtick_48">
     <g id="line2d_55"/>
    </g>
    <g id="xtick_49">
     <g id="line2d_56"/>
    </g>
    <g id="xtick_50">
     <g id="line2d_57"/>
    </g>
    <g id="xtick_51">
     <g id="line2d_58"/>
    </g>
    <g id="xtick_52">
     <g id="line2d_59"/>
    </g>
    <g id="xtick_53">
     <g id="line2d_60"/>
    </g>
    <g id="xtick_54">
     <g id="line2d_61"/>
    </g>
    <g id="xtick_55">
     <g id="line2d_62"/>
    </g>
    <g id="xtick_56">
     <g id="line2d_63"/>
    </g>
    <g id="xtick_57">
     <g id="line2d_64"/>
    </g>
    <g id="xtick_58">
     <g id="line2d_65"/>
    </g>
    <g id="xtick_59">
     <g id="line2d_66"/>
    </g>
    <g id="xtick_60">
     <g id="line2d_67"/>
    </g>
    <g id="xtick_61">
     <g id="line2d_68"/>
    </g>
    <g id="text_8">
     <!-- npts -->
     <defs>
      <path d="M 6.59375 0 
L 6.59375 51.859375 
L 14.5 51.859375 
L 14.5 44.484375 
Q 20.21875 53.03125 31 53.03125 
Q 35.6875 53.03125 39.625 51.34375 
Q 43.5625 49.65625 45.515625 46.921875 
Q 47.46875 44.1875 48.25 40.4375 
Q 48.734375 37.984375 48.734375 31.890625 
L 48.734375 0 
L 39.9375 0 
L 39.9375 31.546875 
Q 39.9375 36.921875 38.90625 39.578125 
Q 37.890625 42.234375 35.28125 43.8125 
Q 32.671875 45.40625 29.15625 45.40625 
Q 23.53125 45.40625 19.453125 41.84375 
Q 15.375 38.28125 15.375 28.328125 
L 15.375 0 
z
" id="ArialMT-6e"/>
      <path d="M 6.59375 -19.875 
L 6.59375 51.859375 
L 14.59375 51.859375 
L 14.59375 45.125 
Q 17.4375 49.078125 21 51.046875 
Q 24.5625 53.03125 29.640625 53.03125 
Q 36.28125 53.03125 41.359375 49.609375 
Q 46.4375 46.1875 49.015625 39.953125 
Q 51.609375 33.734375 51.609375 26.3125 
Q 51.609375 18.359375 48.75 11.984375 
Q 45.90625 5.609375 40.453125 2.21875 
Q 35.015625 -1.171875 29 -1.171875 
Q 24.609375 -1.171875 21.109375 0.6875 
Q 17.625 2.546875 15.375 5.375 
L 15.375 -19.875 
z
M 14.546875 25.640625 
Q 14.546875 15.625 18.59375 10.84375 
Q 22.65625 6.0625 28.421875 6.0625 
Q 34.28125 6.0625 38.453125 11.015625 
Q 42.625 15.96875 42.625 26.375 
Q 42.625 36.28125 38.546875 41.203125 
Q 34.46875 46.140625 28.8125 46.140625 
Q 23.1875 46.140625 18.859375 40.890625 
Q 14.546875 35.640625 14.546875 25.640625 
z
" id="ArialMT-70"/>
      <path d="M 25.78125 7.859375 
L 27.046875 0.09375 
Q 23.34375 -0.6875 20.40625 -0.6875 
Q 15.625 -0.6875 12.984375 0.828125 
Q 10.359375 2.34375 9.28125 4.8125 
Q 8.203125 7.28125 8.203125 15.1875 
L 8.203125 45.015625 
L 1.765625 45.015625 
L 1.765625 51.859375 
L 8.203125 51.859375 
L 8.203125 64.703125 
L 16.9375 69.96875 
L 16.9375 51.859375 
L 25.78125 51.859375 
L 25.78125 45.015625 
L 16.9375 45.015625 
L 16.9375 14.703125 
Q 16.9375 10.9375 17.40625 9.859375 
Q 17.875 8.796875 18.921875 8.15625 
Q 19.96875 7.515625 21.921875 7.515625 
Q 23.390625 7.515625 25.78125 7.859375 
z
" id="ArialMT-74"/>
      <path d="M 3.078125 15.484375 
L 11.765625 16.84375 
Q 12.5 11.625 15.84375 8.84375 
Q 19.1875 6.0625 25.203125 6.0625 
Q 31.25 6.0625 34.171875 8.515625 
Q 37.109375 10.984375 37.109375 14.3125 
Q 37.109375 17.28125 34.515625 19 
Q 32.71875 20.171875 25.53125 21.96875 
Q 15.875 24.421875 12.140625 26.203125 
Q 8.40625 27.984375 6.46875 31.125 
Q 4.546875 34.28125 4.546875 38.09375 
Q 4.546875 41.546875 6.125 44.5 
Q 7.71875 47.46875 10.453125 49.421875 
Q 12.5 50.921875 16.03125 51.96875 
Q 19.578125 53.03125 23.640625 53.03125 
Q 29.734375 53.03125 34.34375 51.265625 
Q 38.96875 49.515625 41.15625 46.5 
Q 43.359375 43.5 44.1875 38.484375 
L 35.59375 37.3125 
Q 35.015625 41.3125 32.203125 43.546875 
Q 29.390625 45.796875 24.265625 45.796875 
Q 18.21875 45.796875 15.625 43.796875 
Q 13.03125 41.796875 13.03125 39.109375 
Q 13.03125 37.40625 14.109375 36.03125 
Q 15.1875 34.625 17.484375 33.6875 
Q 18.796875 33.203125 25.25 31.453125 
Q 34.578125 28.953125 38.25 27.359375 
Q 41.9375 25.78125 44.03125 22.75 
Q 46.140625 19.734375 46.140625 15.234375 
Q 46.140625 10.84375 43.578125 6.953125 
Q 41.015625 3.078125 36.171875 0.953125 
Q 31.34375 -1.171875 25.25 -1.171875 
Q 15.140625 -1.171875 9.84375 3.03125 
Q 4.546875 7.234375 3.078125 15.484375 
z
" id="ArialMT-73"/>
     </defs>
     <g style="fill:#262626;" transform="translate(208.811563 263.284063)scale(0.18 -0.18)">
      <use xlink:href="#ArialMT-6e"/>
      <use x="55.615234" xlink:href="#ArialMT-70"/>
      <use x="111.230469" xlink:href="#ArialMT-74"/>
      <use x="139.013672" xlink:href="#ArialMT-73"/>
     </g>
    </g>
   </g>
   <g id="matplotlib.axis_2">
    <g id="ytick_1">
     <g id="line2d_69">
      <path clip-path="url(#pd2ef419668)" d="M 58.421563 214.737617 
L 393.221563 214.737617 
" style="fill:none;stroke:#ffffff;stroke-linecap:round;"/>
     </g>
     <g id="line2d_70"/>
     <g id="text_9">
      <!-- $\mathdefault{10^{-4}}$ -->
      <defs>
       <path d="M 52.828125 31.203125 
L 5.5625 31.203125 
L 5.5625 39.40625 
L 52.828125 39.40625 
z
" id="ArialMT-2212"/>
      </defs>
      <g style="fill:#262626;" transform="translate(27.661563 220.865117)scale(0.12 -0.12)">
       <use transform="translate(0 0.201563)" xlink:href="#ArialMT-31"/>
       <use transform="translate(55.615234 0.201563)" xlink:href="#ArialMT-30"/>
       <use transform="translate(112.972813 69.895313)scale(0.7)" xlink:href="#ArialMT-2212"/>
       <use transform="translate(153.851719 69.895313)scale(0.7)" xlink:href="#ArialMT-34"/>
      </g>
     </g>
    </g>
    <g id="ytick_2">
     <g id="line2d_71">
      <path clip-path="url(#pd2ef419668)" d="M 58.421563 170.786673 
L 393.221563 170.786673 
" style="fill:none;stroke:#ffffff;stroke-linecap:round;"/>
     </g>
     <g id="line2d_72"/>
     <g id="text_10">
      <!-- $\mathdefault{10^{-3}}$ -->
      <g style="fill:#262626;" transform="translate(27.661563 176.974173)scale(0.12 -0.12)">
       <use transform="translate(0 0.99375)" xlink:href="#ArialMT-31"/>
       <use transform="translate(55.615234 0.99375)" xlink:href="#ArialMT-30"/>
       <use transform="translate(112.972813 70.6875)scale(0.7)" xlink:href="#ArialMT-2212"/>
       <use transform="translate(153.851719 70.6875)scale(0.7)" xlink:href="#ArialMT-33"/>
      </g>
     </g>
    </g>
    <g id="ytick_3">
     <g id="line2d_73">
      <path clip-path="url(#pd2ef419668)" d="M 58.421563 126.83573 
L 393.221563 126.83573 
" style="fill:none;stroke:#ffffff;stroke-linecap:round;"/>
     </g>
     <g id="line2d_74"/>
     <g id="text_11">
      <!-- $\mathdefault{10^{-2}}$ -->
      <g style="fill:#262626;" transform="translate(27.661563 133.02323)scale(0.12 -0.12)">
       <use transform="translate(0 0.99375)" xlink:href="#ArialMT-31"/>
       <use transform="translate(55.615234 0.99375)" xlink:href="#ArialMT-30"/>
       <use transform="translate(112.972813 70.6875)scale(0.7)" xlink:href="#ArialMT-2212"/>
       <use transform="translate(153.851719 70.6875)scale(0.7)" xlink:href="#ArialMT-32"/>
      </g>
     </g>
    </g>
    <g id="ytick_4">
     <g id="line2d_75">
      <path clip-path="url(#pd2ef419668)" d="M 58.421563 82.884786 
L 393.221563 82.884786 
" style="fill:none;stroke:#ffffff;stroke-linecap:round;"/>
     </g>
     <g id="line2d_76"/>
     <g id="text_12">
      <!-- $\mathdefault{10^{-1}}$ -->
      <g style="fill:#262626;" transform="translate(27.661563 89.072286)scale(0.12 -0.12)">
       <use transform="translate(0 0.99375)" xlink:href="#ArialMT-31"/>
       <use transform="translate(55.615234 0.99375)" xlink:href="#ArialMT-30"/>
       <use transform="translate(112.972813 70.6875)scale(0.7)" xlink:href="#ArialMT-2212"/>
       <use transform="translate(153.851719 70.6875)scale(0.7)" xlink:href="#ArialMT-31"/>
      </g>
     </g>
    </g>
    <g id="ytick_5">
     <g id="line2d_77">
      <path clip-path="url(#pd2ef419668)" d="M 58.421563 38.933842 
L 393.221563 38.933842 
" style="fill:none;stroke:#ffffff;stroke-linecap:round;"/>
     </g>
     <g id="line2d_78"/>
     <g id="text_13">
      <!-- $\mathdefault{10^{0}}$ -->
      <g style="fill:#262626;" transform="translate(32.581563 45.121342)scale(0.12 -0.12)">
       <use transform="translate(0 0.99375)" xlink:href="#ArialMT-31"/>
       <use transform="translate(55.615234 0.99375)" xlink:href="#ArialMT-30"/>
       <use transform="translate(112.972813 70.6875)scale(0.7)" xlink:href="#ArialMT-30"/>
      </g>
     </g>
    </g>
    <g id="ytick_6">
     <g id="line2d_79"/>
    </g>
    <g id="ytick_7">
     <g id="line2d_80"/>
    </g>
    <g id="ytick_8">
     <g id="line2d_81"/>
    </g>
    <g id="ytick_9">
     <g id="line2d_82"/>
    </g>
    <g id="ytick_10">
     <g id="line2d_83"/>
    </g>
    <g id="ytick_11">
     <g id="line2d_84"/>
    </g>
    <g id="ytick_12">
     <g id="line2d_85"/>
    </g>
    <g id="ytick_13">
     <g id="line2d_86"/>
    </g>
    <g id="ytick_14">
     <g id="line2d_87"/>
    </g>
    <g id="ytick_15">
     <g id="line2d_88"/>
    </g>
    <g id="ytick_16">
     <g id="line2d_89"/>
    </g>
    <g id="ytick_17">
     <g id="line2d_90"/>
    </g>
    <g id="ytick_18">
     <g id="line2d_91"/>
    </g>
    <g id="ytick_19">
     <g id="line2d_92"/>
    </g>
    <g id="ytick_20">
     <g id="line2d_93"/>
    </g>
    <g id="ytick_21">
     <g id="line2d_94"/>
    </g>
    <g id="ytick_22">
     <g id="line2d_95"/>
    </g>
    <g id="ytick_23">
     <g id="line2d_96"/>
    </g>
    <g id="ytick_24">
     <g id="line2d_97"/>
    </g>
    <g id="ytick_25">
     <g id="line2d_98"/>
    </g>
    <g id="ytick_26">
     <g id="line2d_99"/>
    </g>
    <g id="ytick_27">
     <g id="line2d_100"/>
    </g>
    <g id="ytick_28">
     <g id="line2d_101"/>
    </g>
    <g id="ytick_29">
     <g id="line2d_102"/>
    </g>
    <g id="ytick_30">
     <g id="line2d_103"/>
    </g>
    <g id="ytick_31">
     <g id="line2d_104"/>
    </g>
    <g id="ytick_32">
     <g id="line2d_105"/>
    </g>
    <g id="ytick_33">
     <g id="line2d_106"/>
    </g>
    <g id="ytick_34">
     <g id="line2d_107"/>
    </g>
    <g id="ytick_35">
     <g id="line2d_108"/>
    </g>
    <g id="ytick_36">
     <g id="line2d_109"/>
    </g>
    <g id="ytick_37">
     <g id="line2d_110"/>
    </g>
    <g id="ytick_38">
     <g id="line2d_111"/>
    </g>
    <g id="ytick_39">
     <g id="line2d_112"/>
    </g>
    <g id="ytick_40">
     <g id="line2d_113"/>
    </g>
    <g id="ytick_41">
     <g id="line2d_114"/>
    </g>
    <g id="ytick_42">
     <g id="line2d_115"/>
    </g>
    <g id="ytick_43">
     <g id="line2d_116"/>
    </g>
    <g id="ytick_44">
     <g id="line2d_117"/>
    </g>
    <g id="ytick_45">
     <g id="line2d_118"/>
    </g>
    <g id="text_14">
     <!-- absolute error -->
     <defs>
      <path d="M 40.4375 6.390625 
Q 35.546875 2.25 31.03125 0.53125 
Q 26.515625 -1.171875 21.34375 -1.171875 
Q 12.796875 -1.171875 8.203125 3 
Q 3.609375 7.171875 3.609375 13.671875 
Q 3.609375 17.484375 5.34375 20.625 
Q 7.078125 23.78125 9.890625 25.6875 
Q 12.703125 27.59375 16.21875 28.5625 
Q 18.796875 29.25 24.03125 29.890625 
Q 34.671875 31.15625 39.703125 32.90625 
Q 39.75 34.71875 39.75 35.203125 
Q 39.75 40.578125 37.25 42.78125 
Q 33.890625 45.75 27.25 45.75 
Q 21.046875 45.75 18.09375 43.578125 
Q 15.140625 41.40625 13.71875 35.890625 
L 5.125 37.0625 
Q 6.296875 42.578125 8.984375 45.96875 
Q 11.671875 49.359375 16.75 51.1875 
Q 21.828125 53.03125 28.515625 53.03125 
Q 35.15625 53.03125 39.296875 51.46875 
Q 43.453125 49.90625 45.40625 47.53125 
Q 47.359375 45.171875 48.140625 41.546875 
Q 48.578125 39.3125 48.578125 33.453125 
L 48.578125 21.734375 
Q 48.578125 9.46875 49.140625 6.21875 
Q 49.703125 2.984375 51.375 0 
L 42.1875 0 
Q 40.828125 2.734375 40.4375 6.390625 
z
M 39.703125 26.03125 
Q 34.90625 24.078125 25.34375 22.703125 
Q 19.921875 21.921875 17.671875 20.9375 
Q 15.4375 19.96875 14.203125 18.09375 
Q 12.984375 16.21875 12.984375 13.921875 
Q 12.984375 10.40625 15.640625 8.0625 
Q 18.3125 5.71875 23.4375 5.71875 
Q 28.515625 5.71875 32.46875 7.9375 
Q 36.421875 10.15625 38.28125 14.015625 
Q 39.703125 17 39.703125 22.796875 
z
" id="ArialMT-61"/>
      <path d="M 14.703125 0 
L 6.546875 0 
L 6.546875 71.578125 
L 15.328125 71.578125 
L 15.328125 46.046875 
Q 20.90625 53.03125 29.546875 53.03125 
Q 34.328125 53.03125 38.59375 51.09375 
Q 42.875 49.171875 45.625 45.671875 
Q 48.390625 42.1875 49.953125 37.25 
Q 51.515625 32.328125 51.515625 26.703125 
Q 51.515625 13.375 44.921875 6.09375 
Q 38.328125 -1.171875 29.109375 -1.171875 
Q 19.921875 -1.171875 14.703125 6.5 
z
M 14.59375 26.3125 
Q 14.59375 17 17.140625 12.84375 
Q 21.296875 6.0625 28.375 6.0625 
Q 34.125 6.0625 38.328125 11.0625 
Q 42.53125 16.0625 42.53125 25.984375 
Q 42.53125 36.140625 38.5 40.96875 
Q 34.46875 45.796875 28.765625 45.796875 
Q 23 45.796875 18.796875 40.796875 
Q 14.59375 35.796875 14.59375 26.3125 
z
" id="ArialMT-62"/>
      <path d="M 3.328125 25.921875 
Q 3.328125 40.328125 11.328125 47.265625 
Q 18.015625 53.03125 27.640625 53.03125 
Q 38.328125 53.03125 45.109375 46.015625 
Q 51.90625 39.015625 51.90625 26.65625 
Q 51.90625 16.65625 48.90625 10.90625 
Q 45.90625 5.171875 40.15625 2 
Q 34.421875 -1.171875 27.640625 -1.171875 
Q 16.75 -1.171875 10.03125 5.8125 
Q 3.328125 12.796875 3.328125 25.921875 
z
M 12.359375 25.921875 
Q 12.359375 15.96875 16.703125 11.015625 
Q 21.046875 6.0625 27.640625 6.0625 
Q 34.1875 6.0625 38.53125 11.03125 
Q 42.875 16.015625 42.875 26.21875 
Q 42.875 35.84375 38.5 40.796875 
Q 34.125 45.75 27.640625 45.75 
Q 21.046875 45.75 16.703125 40.8125 
Q 12.359375 35.890625 12.359375 25.921875 
z
" id="ArialMT-6f"/>
      <path d="M 6.390625 0 
L 6.390625 71.578125 
L 15.1875 71.578125 
L 15.1875 0 
z
" id="ArialMT-6c"/>
      <path d="M 40.578125 0 
L 40.578125 7.625 
Q 34.515625 -1.171875 24.125 -1.171875 
Q 19.53125 -1.171875 15.546875 0.578125 
Q 11.578125 2.34375 9.640625 5 
Q 7.71875 7.671875 6.9375 11.53125 
Q 6.390625 14.109375 6.390625 19.734375 
L 6.390625 51.859375 
L 15.1875 51.859375 
L 15.1875 23.09375 
Q 15.1875 16.21875 15.71875 13.8125 
Q 16.546875 10.359375 19.234375 8.375 
Q 21.921875 6.390625 25.875 6.390625 
Q 29.828125 6.390625 33.296875 8.421875 
Q 36.765625 10.453125 38.203125 13.9375 
Q 39.65625 17.4375 39.65625 24.078125 
L 39.65625 51.859375 
L 48.4375 51.859375 
L 48.4375 0 
z
" id="ArialMT-75"/>
      <path d="M 42.09375 16.703125 
L 51.171875 15.578125 
Q 49.03125 7.625 43.21875 3.21875 
Q 37.40625 -1.171875 28.375 -1.171875 
Q 17 -1.171875 10.328125 5.828125 
Q 3.65625 12.84375 3.65625 25.484375 
Q 3.65625 38.578125 10.390625 45.796875 
Q 17.140625 53.03125 27.875 53.03125 
Q 38.28125 53.03125 44.875 45.953125 
Q 51.46875 38.875 51.46875 26.03125 
Q 51.46875 25.25 51.421875 23.6875 
L 12.75 23.6875 
Q 13.234375 15.140625 17.578125 10.59375 
Q 21.921875 6.0625 28.421875 6.0625 
Q 33.25 6.0625 36.671875 8.59375 
Q 40.09375 11.140625 42.09375 16.703125 
z
M 13.234375 30.90625 
L 42.1875 30.90625 
Q 41.609375 37.453125 38.875 40.71875 
Q 34.671875 45.796875 27.984375 45.796875 
Q 21.921875 45.796875 17.796875 41.75 
Q 13.671875 37.703125 13.234375 30.90625 
z
" id="ArialMT-65"/>
      <path id="ArialMT-20"/>
      <path d="M 6.5 0 
L 6.5 51.859375 
L 14.40625 51.859375 
L 14.40625 44 
Q 17.4375 49.515625 20 51.265625 
Q 22.5625 53.03125 25.640625 53.03125 
Q 30.078125 53.03125 34.671875 50.203125 
L 31.640625 42.046875 
Q 28.421875 43.953125 25.203125 43.953125 
Q 22.3125 43.953125 20.015625 42.21875 
Q 17.71875 40.484375 16.75 37.40625 
Q 15.28125 32.71875 15.28125 27.15625 
L 15.28125 0 
z
" id="ArialMT-72"/>
     </defs>
     <g style="fill:#262626;" transform="translate(20.084062 171.444375)rotate(-90)scale(0.18 -0.18)">
      <use xlink:href="#ArialMT-61"/>
      <use x="55.615234" xlink:href="#ArialMT-62"/>
      <use x="111.230469" xlink:href="#ArialMT-73"/>
      <use x="161.230469" xlink:href="#ArialMT-6f"/>
      <use x="216.845703" xlink:href="#ArialMT-6c"/>
      <use x="239.0625" xlink:href="#ArialMT-75"/>
      <use x="294.677734" xlink:href="#ArialMT-74"/>
      <use x="322.460938" xlink:href="#ArialMT-65"/>
      <use x="378.076172" xlink:href="#ArialMT-20"/>
      <use x="405.859375" xlink:href="#ArialMT-65"/>
      <use x="461.474609" xlink:href="#ArialMT-72"/>
      <use x="494.775391" xlink:href="#ArialMT-72"/>
      <use x="528.076172" xlink:href="#ArialMT-6f"/>
      <use x="583.691406" xlink:href="#ArialMT-72"/>
     </g>
    </g>
   </g>
   <g id="line2d_119">
    <path clip-path="url(#pd2ef419668)" d="M 73.639744 17.083636 
L 73.639744 17.083636 
L 73.639744 17.083636 
L 73.639744 17.083636 
L 73.639744 17.083636 
L 73.639744 17.083636 
L 73.639744 17.083636 
L 73.639744 17.083636 
L 73.639744 17.083636 
L 73.639744 17.083636 
L 104.180606 17.083636 
L 104.180606 17.083636 
L 104.180606 17.083636 
L 104.180606 17.083636 
L 104.180606 17.083636 
L 104.180606 17.083636 
L 122.045864 40.538468 
L 122.045864 40.538468 
L 122.045864 40.538468 
L 122.045864 40.538468 
L 134.721467 24.397645 
L 134.721467 24.397645 
L 134.721467 24.397645 
L 134.721467 24.397645 
L 144.553428 37.792968 
L 144.553428 37.792968 
L 152.586726 33.011214 
L 152.586726 33.011214 
L 159.378782 43.817724 
L 159.378782 43.817724 
L 165.262328 36.406172 
L 165.262328 36.406172 
L 170.451984 45.155508 
L 175.09429 44.640195 
L 175.09429 44.640195 
L 179.293766 48.807559 
L 183.127587 45.819851 
L 186.654361 53.466188 
L 189.919643 48.338145 
L 192.959548 52.444983 
L 195.80319 54.002666 
L 198.47438 55.723332 
L 200.992846 53.146438 
L 205.635151 57.322917 
L 207.784902 61.75075 
L 211.793223 62.500776 
L 213.668448 61.396457 
L 217.195222 63.390079 
L 220.460505 62.93081 
L 223.50041 64.529749 
L 226.344051 65.321209 
L 230.292466 69.697054 
L 232.740937 70.289294 
L 236.176013 71.497172 
L 239.362544 72.606644 
L 242.334084 73.630906 
L 245.117819 74.580714 
L 248.575369 79.198909 
L 251.78123 79.153995 
L 254.769571 80.488795 
L 257.568045 82.230699 
L 260.833327 81.979335 
L 263.873232 84.551787 
L 267.264224 87.031331 
L 269.903405 87.55035 
L 273.351287 87.712035 
L 276.548835 88.531162 
L 279.529953 91.420083 
L 282.322091 91.48629 
L 285.670117 94.548705 
L 288.781609 94.520678 
L 291.687792 96.348066 
L 294.70686 98.551381 
L 297.805086 99.139095 
L 300.95365 100.377475 
L 304.128402 102.092766 
L 307.089697 102.818648 
L 310.276228 105.573895 
L 313.438923 107.434537 
L 316.389726 106.815584 
L 319.489053 108.384205 
L 322.540041 110.159106 
L 325.683255 111.161058 
L 328.752044 113.958473 
L 331.872721 115.532624 
L 334.904257 115.488913 
L 337.959784 117.95003 
L 341.02155 118.392008 
L 344.170114 119.72793 
L 347.197356 122.003721 
L 350.278614 122.875464 
L 353.390105 123.2749 
L 356.44028 125.81007 
L 359.494558 127.333735 
L 362.601477 128.123085 
L 365.678865 128.826509 
L 368.773133 130.85818 
L 371.81666 132.044089 
L 374.900486 133.598637 
L 378.003381 134.951031 
" style="fill:none;stroke:#4c72b0;stroke-linecap:round;stroke-width:2;"/>
   </g>
   <g id="line2d_120">
    <path clip-path="url(#pd2ef419668)" d="M 73.639744 41.848079 
L 73.639744 41.848079 
L 73.639744 41.848079 
L 73.639744 41.848079 
L 73.639744 41.848079 
L 73.639744 41.848079 
L 73.639744 17.083636 
L 73.639744 41.848079 
L 73.639744 41.848079 
L 73.639744 17.083636 
L 104.180606 41.848079 
L 104.180606 76.246404 
L 104.180606 41.848079 
L 104.180606 36.406172 
L 104.180606 76.246404 
L 104.180606 36.406172 
L 122.045864 105.561849 
L 122.045864 55.768749 
L 122.045864 105.561849 
L 122.045864 27.626991 
L 134.721467 81.343923 
L 134.721467 81.343923 
L 134.721467 48.4187 
L 134.721467 56.829149 
L 144.553428 45.785408 
L 144.553428 93.148761 
L 152.586726 44.493953 
L 152.586726 70.459227 
L 159.378782 79.21721 
L 159.378782 62.761856 
L 165.262328 76.246404 
L 165.262328 97.745383 
L 170.451984 63.410175 
L 175.09429 76.680709 
L 175.09429 92.135189 
L 179.293766 169.023281 
L 183.127587 70.459227 
L 186.654361 94.762051 
L 189.919643 79.21721 
L 192.959548 69.594243 
L 195.80319 104.504523 
L 198.47438 86.494549 
L 200.992846 84.432838 
L 205.635151 124.014833 
L 207.784902 74.21828 
L 211.793223 75.449105 
L 213.668448 95.056573 
L 217.195222 97.329686 
L 220.460505 99.406642 
L 223.50041 100.07654 
L 226.344051 89.346954 
L 230.292466 86.672558 
L 232.740937 101.055769 
L 236.176013 120.287357 
L 239.362544 101.10185 
L 242.334084 90.283084 
L 245.117819 100.177685 
L 248.575369 126.403218 
L 251.78123 116.117766 
L 254.769571 136.75128 
L 257.568045 101.273143 
L 260.833327 136.325683 
L 263.873232 115.005653 
L 267.264224 118.793414 
L 269.903405 114.549405 
L 273.351287 118.713256 
L 276.548835 129.29171 
L 279.529953 177.405191 
L 282.322091 134.307796 
L 285.670117 127.10698 
L 288.781609 125.294801 
L 291.687792 117.1634 
L 294.70686 135.680459 
L 297.805086 160.941488 
L 300.95365 135.815489 
L 304.128402 119.030292 
L 307.089697 135.632657 
L 310.276228 165.846505 
L 313.438923 138.440518 
L 316.389726 118.211164 
L 319.489053 153.872797 
L 322.540041 131.989657 
L 325.683255 141.893851 
L 328.752044 164.664895 
L 331.872721 137.284711 
L 334.904257 154.160567 
L 337.959784 126.849471 
L 341.02155 145.244404 
L 344.170114 150.587339 
L 347.197356 126.833796 
L 350.278614 169.238914 
L 353.390105 149.824578 
L 356.44028 142.417103 
L 359.494558 190.376363 
L 362.601477 177.927151 
L 365.678865 156.671433 
L 368.773133 197.833437 
L 371.81666 152.701138 
L 374.900486 214.756364 
L 378.003381 159.687907 
" style="fill:none;stroke:#55a868;stroke-linecap:round;stroke-width:2;"/>
   </g>
   <g id="line2d_121">
    <path clip-path="url(#pd2ef419668)" d="M 73.639744 43.193129 
L 73.639744 43.193129 
L 73.639744 43.193129 
L 73.639744 43.193129 
L 73.639744 43.193129 
L 73.639744 43.193129 
L 73.639744 43.193129 
L 73.639744 43.193129 
L 73.639744 43.193129 
L 73.639744 43.193129 
L 104.180606 56.423681 
L 104.180606 56.423681 
L 104.180606 56.423681 
L 104.180606 56.423681 
L 104.180606 56.423681 
L 104.180606 56.423681 
L 122.045864 64.163058 
L 122.045864 64.163058 
L 122.045864 64.163058 
L 122.045864 64.163058 
L 134.721467 69.654234 
L 134.721467 69.654234 
L 134.721467 69.654234 
L 134.721467 69.654234 
L 144.553428 73.91352 
L 144.553428 73.91352 
L 152.586726 77.393611 
L 152.586726 77.393611 
L 159.378782 80.335985 
L 159.378782 80.335985 
L 165.262328 82.884786 
L 165.262328 82.884786 
L 170.451984 85.132988 
L 175.09429 87.144073 
L 175.09429 87.144073 
L 179.293766 88.96332 
L 183.127587 90.624163 
L 186.654361 92.15199 
L 189.919643 93.566538 
L 192.959548 94.88345 
L 195.80319 96.115338 
L 198.47438 97.27252 
L 200.992846 98.36354 
L 205.635151 100.374625 
L 207.784902 101.305915 
L 211.793223 103.042352 
L 213.668448 103.854715 
L 217.195222 105.382543 
L 220.460505 106.79709 
L 223.50041 108.114002 
L 226.344051 109.345891 
L 230.292466 111.056377 
L 232.740937 112.117075 
L 236.176013 113.605177 
L 239.362544 114.985609 
L 242.334084 116.272905 
L 245.117819 117.478842 
L 248.575369 118.976681 
L 251.78123 120.365486 
L 254.769571 121.66006 
L 257.568045 122.872382 
L 260.833327 124.286929 
L 263.873232 125.603841 
L 267.264224 127.072846 
L 269.903405 128.216161 
L 273.351287 129.709812 
L 276.548835 131.095016 
L 279.529953 132.386461 
L 282.322091 133.596038 
L 285.670117 135.046431 
L 288.781609 136.394354 
L 291.687792 137.653337 
L 294.70686 138.961222 
L 297.805086 140.303399 
L 300.95365 141.667383 
L 304.128402 143.042711 
L 307.089697 144.325569 
L 310.276228 145.706 
L 313.438923 147.076106 
L 316.389726 148.354418 
L 319.489053 149.697072 
L 322.540041 151.018785 
L 325.683255 152.380451 
L 328.752044 153.709876 
L 331.872721 155.061779 
L 334.904257 156.375065 
L 337.959784 157.698744 
L 341.02155 159.025127 
L 344.170114 160.38911 
L 347.197356 161.700537 
L 350.278614 163.035363 
L 353.390105 164.383286 
L 356.44028 165.704647 
L 359.494558 167.027786 
L 362.601477 168.373728 
L 365.678865 169.706878 
L 368.773133 171.047341 
L 371.81666 172.365822 
L 374.900486 173.70176 
L 378.003381 175.04596 
" style="fill:none;stroke:#c44e52;stroke-dasharray:7.4,3.2;stroke-dashoffset:0;stroke-width:2;"/>
   </g>
   <g id="patch_3">
    <path d="M 58.421563 224.64 
L 58.421563 7.2 
" style="fill:none;"/>
   </g>
   <g id="patch_4">
    <path d="M 393.221563 224.64 
L 393.221563 7.2 
" style="fill:none;"/>
   </g>
   <g id="patch_5">
    <path d="M 58.421563 224.64 
L 393.221563 224.64 
" style="fill:none;"/>
   </g>
   <g id="patch_6">
    <path d="M 58.421563 7.2 
L 393.221563 7.2 
" style="fill:none;"/>
   </g>
   <g id="legend_1">
    <g id="line2d_122">
     <path d="M 67.421562 181.74 
L 87.421562 181.74 
" style="fill:none;stroke:#4c72b0;stroke-linecap:round;stroke-width:2;"/>
    </g>
    <g id="line2d_123"/>
    <g id="text_15">
     <!-- equi -->
     <defs>
      <path d="M 39.65625 -19.875 
L 39.65625 5.515625 
Q 37.59375 2.640625 33.90625 0.734375 
Q 30.21875 -1.171875 26.078125 -1.171875 
Q 16.84375 -1.171875 10.171875 6.203125 
Q 3.515625 13.578125 3.515625 26.421875 
Q 3.515625 34.234375 6.21875 40.421875 
Q 8.9375 46.625 14.078125 49.828125 
Q 19.234375 53.03125 25.390625 53.03125 
Q 35.015625 53.03125 40.53125 44.921875 
L 40.53125 51.859375 
L 48.4375 51.859375 
L 48.4375 -19.875 
z
M 12.546875 26.078125 
Q 12.546875 16.0625 16.75 11.0625 
Q 20.953125 6.0625 26.8125 6.0625 
Q 32.421875 6.0625 36.46875 10.8125 
Q 40.53125 15.578125 40.53125 25.296875 
Q 40.53125 35.640625 36.25 40.859375 
Q 31.984375 46.09375 26.21875 46.09375 
Q 20.515625 46.09375 16.53125 41.234375 
Q 12.546875 36.375 12.546875 26.078125 
z
" id="ArialMT-71"/>
      <path d="M 6.640625 61.46875 
L 6.640625 71.578125 
L 15.4375 71.578125 
L 15.4375 61.46875 
z
M 6.640625 0 
L 6.640625 51.859375 
L 15.4375 51.859375 
L 15.4375 0 
z
" id="ArialMT-69"/>
     </defs>
     <g style="fill:#262626;" transform="translate(95.421562 185.24)scale(0.1 -0.1)">
      <use xlink:href="#ArialMT-65"/>
      <use x="55.615234" xlink:href="#ArialMT-71"/>
      <use x="111.230469" xlink:href="#ArialMT-75"/>
      <use x="166.845703" xlink:href="#ArialMT-69"/>
     </g>
    </g>
    <g id="line2d_124">
     <path d="M 67.421562 195.885312 
L 87.421562 195.885312 
" style="fill:none;stroke:#55a868;stroke-linecap:round;stroke-width:2;"/>
    </g>
    <g id="line2d_125"/>
    <g id="text_16">
     <!-- MC -->
     <defs>
      <path d="M 7.421875 0 
L 7.421875 71.578125 
L 21.6875 71.578125 
L 38.625 20.90625 
Q 40.96875 13.8125 42.046875 10.296875 
Q 43.265625 14.203125 45.84375 21.78125 
L 62.984375 71.578125 
L 75.734375 71.578125 
L 75.734375 0 
L 66.609375 0 
L 66.609375 59.90625 
L 45.796875 0 
L 37.25 0 
L 16.546875 60.9375 
L 16.546875 0 
z
" id="ArialMT-4d"/>
      <path d="M 58.796875 25.09375 
L 68.265625 22.703125 
Q 65.28125 11.03125 57.546875 4.90625 
Q 49.8125 -1.21875 38.625 -1.21875 
Q 27.046875 -1.21875 19.796875 3.484375 
Q 12.546875 8.203125 8.765625 17.140625 
Q 4.984375 26.078125 4.984375 36.328125 
Q 4.984375 47.515625 9.25 55.828125 
Q 13.53125 64.15625 21.40625 68.46875 
Q 29.296875 72.796875 38.765625 72.796875 
Q 49.515625 72.796875 56.828125 67.328125 
Q 64.15625 61.859375 67.046875 51.953125 
L 57.71875 49.75 
Q 55.21875 57.5625 50.484375 61.125 
Q 45.75 64.703125 38.578125 64.703125 
Q 30.328125 64.703125 24.78125 60.734375 
Q 19.234375 56.78125 16.984375 50.109375 
Q 14.75 43.453125 14.75 36.375 
Q 14.75 27.25 17.40625 20.4375 
Q 20.0625 13.625 25.671875 10.25 
Q 31.296875 6.890625 37.84375 6.890625 
Q 45.796875 6.890625 51.3125 11.46875 
Q 56.84375 16.0625 58.796875 25.09375 
z
" id="ArialMT-43"/>
     </defs>
     <g style="fill:#262626;" transform="translate(95.421562 199.385312)scale(0.1 -0.1)">
      <use xlink:href="#ArialMT-4d"/>
      <use x="83.300781" xlink:href="#ArialMT-43"/>
     </g>
    </g>
    <g id="line2d_126">
     <path d="M 67.421562 210.1525 
L 87.421562 210.1525 
" style="fill:none;stroke:#c44e52;stroke-dasharray:7.4,3.2;stroke-dashoffset:0;stroke-width:2;"/>
    </g>
    <g id="line2d_127"/>
    <g id="text_17">
     <!-- -1/2 power -->
     <defs>
      <path d="M 3.171875 21.484375 
L 3.171875 30.328125 
L 30.171875 30.328125 
L 30.171875 21.484375 
z
" id="ArialMT-2d"/>
      <path d="M 0 -1.21875 
L 20.75 72.796875 
L 27.78125 72.796875 
L 7.078125 -1.21875 
z
" id="ArialMT-2f"/>
      <path d="M 16.15625 0 
L 0.296875 51.859375 
L 9.375 51.859375 
L 17.625 21.921875 
L 20.703125 10.796875 
Q 20.90625 11.625 23.390625 21.484375 
L 31.640625 51.859375 
L 40.671875 51.859375 
L 48.4375 21.78125 
L 51.03125 11.859375 
L 54 21.875 
L 62.890625 51.859375 
L 71.4375 51.859375 
L 55.21875 0 
L 46.09375 0 
L 37.84375 31.0625 
L 35.84375 39.890625 
L 25.34375 0 
z
" id="ArialMT-77"/>
     </defs>
     <g style="fill:#262626;" transform="translate(95.421562 213.6525)scale(0.1 -0.1)">
      <use xlink:href="#ArialMT-2d"/>
      <use x="33.300781" xlink:href="#ArialMT-31"/>
      <use x="88.916016" xlink:href="#ArialMT-2f"/>
      <use x="116.699219" xlink:href="#ArialMT-32"/>
      <use x="172.314453" xlink:href="#ArialMT-20"/>
      <use x="200.097656" xlink:href="#ArialMT-70"/>
      <use x="255.712891" xlink:href="#ArialMT-6f"/>
      <use x="311.328125" xlink:href="#ArialMT-77"/>
      <use x="383.544922" xlink:href="#ArialMT-65"/>
      <use x="439.160156" xlink:href="#ArialMT-72"/>
     </g>
    </g>
   </g>
  </g>
 </g>
 <defs>
  <clipPath id="pd2ef419668">
   <rect height="217.44" width="334.8" x="58.421563" y="7.2"/>
  </clipPath>
 </defs>
</svg>
