<?xml version="1.0" encoding="utf-8" standalone="no"?>
<!DOCTYPE svg PUBLIC "-//W3C//DTD SVG 1.1//EN"
  "http://www.w3.org/Graphics/SVG/1.1/DTD/svg11.dtd">
<!-- Created with matplotlib (http://matplotlib.org/) -->
<svg height="270pt" version="1.1" viewBox="0 0 400 270" width="400pt" xmlns="http://www.w3.org/2000/svg" xmlns:xlink="http://www.w3.org/1999/xlink">
 <defs>
  <style type="text/css">
*{stroke-linecap:butt;stroke-linejoin:round;}
  </style>
 </defs>
 <g id="figure_1">
  <g id="patch_1">
   <path d="M 0 270.275937 
L 400.445 270.275937 
L 400.445 0 
L 0 0 
z
" style="fill:none;"/>
  </g>
  <g id="axes_1">
   <g id="patch_2">
    <path d="M 58.445 224.64 
L 393.245 224.64 
L 393.245 7.2 
L 58.445 7.2 
z
" style="fill:#eaeaf2;"/>
   </g>
   <g id="matplotlib.axis_1">
    <g id="xtick_1">
     <g id="line2d_1">
      <path clip-path="url(#pb26d8b2dbb)" d="M 73.663182 224.64 
L 73.663182 7.2 
" style="fill:none;stroke:#ffffff;stroke-linecap:round;"/>
     </g>
     <g id="line2d_2"/>
     <g id="text_1">
      <!-- 0 -->
      <defs>
       <path d="M 4.15625 35.296875 
Q 4.15625 48 6.765625 55.734375 
Q 9.375 63.484375 14.515625 67.671875 
Q 19.671875 71.875 27.484375 71.875 
Q 33.25 71.875 37.59375 69.546875 
Q 41.9375 67.234375 44.765625 62.859375 
Q 47.609375 58.5 49.21875 52.21875 
Q 50.828125 45.953125 50.828125 35.296875 
Q 50.828125 22.703125 48.234375 14.96875 
Q 45.65625 7.234375 40.5 3 
Q 35.359375 -1.21875 27.484375 -1.21875 
Q 17.140625 -1.21875 11.234375 6.203125 
Q 4.15625 15.140625 4.15625 35.296875 
z
M 13.1875 35.296875 
Q 13.1875 17.671875 17.3125 11.828125 
Q 21.4375 6 27.484375 6 
Q 33.546875 6 37.671875 11.859375 
Q 41.796875 17.71875 41.796875 35.296875 
Q 41.796875 52.984375 37.671875 58.78125 
Q 33.546875 64.59375 27.390625 64.59375 
Q 21.34375 64.59375 17.71875 59.46875 
Q 13.1875 52.9375 13.1875 35.296875 
z
" id="ArialMT-30"/>
      </defs>
      <g style="fill:#262626;" transform="translate(70.326619 240.229375)scale(0.12 -0.12)">
       <use xlink:href="#ArialMT-30"/>
      </g>
     </g>
    </g>
    <g id="xtick_2">
     <g id="line2d_3">
      <path clip-path="url(#pb26d8b2dbb)" d="M 145.055317 224.64 
L 145.055317 7.2 
" style="fill:none;stroke:#ffffff;stroke-linecap:round;"/>
     </g>
     <g id="line2d_4"/>
     <g id="text_2">
      <!-- 1 -->
      <defs>
       <path d="M 37.25 0 
L 28.46875 0 
L 28.46875 56 
Q 25.296875 52.984375 20.140625 49.953125 
Q 14.984375 46.921875 10.890625 45.40625 
L 10.890625 53.90625 
Q 18.265625 57.375 23.78125 62.296875 
Q 29.296875 67.234375 31.59375 71.875 
L 37.25 71.875 
z
" id="ArialMT-31"/>
      </defs>
      <g style="fill:#262626;" transform="translate(141.718754 240.229375)scale(0.12 -0.12)">
       <use xlink:href="#ArialMT-31"/>
      </g>
     </g>
    </g>
    <g id="xtick_3">
     <g id="line2d_5">
      <path clip-path="url(#pb26d8b2dbb)" d="M 216.447451 224.64 
L 216.447451 7.2 
" style="fill:none;stroke:#ffffff;stroke-linecap:round;"/>
     </g>
     <g id="line2d_6"/>
     <g id="text_3">
      <!-- 2 -->
      <defs>
       <path d="M 50.34375 8.453125 
L 50.34375 0 
L 3.03125 0 
Q 2.9375 3.171875 4.046875 6.109375 
Q 5.859375 10.9375 9.828125 15.625 
Q 13.8125 20.3125 21.34375 26.46875 
Q 33.015625 36.03125 37.109375 41.625 
Q 41.21875 47.21875 41.21875 52.203125 
Q 41.21875 57.421875 37.46875 61 
Q 33.734375 64.59375 27.734375 64.59375 
Q 21.390625 64.59375 17.578125 60.78125 
Q 13.765625 56.984375 13.71875 50.25 
L 4.6875 51.171875 
Q 5.609375 61.28125 11.65625 66.578125 
Q 17.71875 71.875 27.9375 71.875 
Q 38.234375 71.875 44.234375 66.15625 
Q 50.25 60.453125 50.25 52 
Q 50.25 47.703125 48.484375 43.546875 
Q 46.734375 39.40625 42.65625 34.8125 
Q 38.578125 30.21875 29.109375 22.21875 
Q 21.1875 15.578125 18.9375 13.203125 
Q 16.703125 10.84375 15.234375 8.453125 
z
" id="ArialMT-32"/>
      </defs>
      <g style="fill:#262626;" transform="translate(213.110889 240.229375)scale(0.12 -0.12)">
       <use xlink:href="#ArialMT-32"/>
      </g>
     </g>
    </g>
    <g id="xtick_4">
     <g id="line2d_7">
      <path clip-path="url(#pb26d8b2dbb)" d="M 287.839586 224.64 
L 287.839586 7.2 
" style="fill:none;stroke:#ffffff;stroke-linecap:round;"/>
     </g>
     <g id="line2d_8"/>
     <g id="text_4">
      <!-- 3 -->
      <defs>
       <path d="M 4.203125 18.890625 
L 12.984375 20.0625 
Q 14.5 12.59375 18.140625 9.296875 
Q 21.78125 6 27 6 
Q 33.203125 6 37.46875 10.296875 
Q 41.75 14.59375 41.75 20.953125 
Q 41.75 27 37.796875 30.921875 
Q 33.84375 34.859375 27.734375 34.859375 
Q 25.25 34.859375 21.53125 33.890625 
L 22.515625 41.609375 
Q 23.390625 41.5 23.921875 41.5 
Q 29.546875 41.5 34.03125 44.421875 
Q 38.53125 47.359375 38.53125 53.46875 
Q 38.53125 58.296875 35.25 61.46875 
Q 31.984375 64.65625 26.8125 64.65625 
Q 21.6875 64.65625 18.265625 61.421875 
Q 14.84375 58.203125 13.875 51.765625 
L 5.078125 53.328125 
Q 6.6875 62.15625 12.390625 67.015625 
Q 18.109375 71.875 26.609375 71.875 
Q 32.46875 71.875 37.390625 69.359375 
Q 42.328125 66.84375 44.9375 62.5 
Q 47.5625 58.15625 47.5625 53.265625 
Q 47.5625 48.640625 45.0625 44.828125 
Q 42.578125 41.015625 37.703125 38.765625 
Q 44.046875 37.3125 47.5625 32.6875 
Q 51.078125 28.078125 51.078125 21.140625 
Q 51.078125 11.765625 44.234375 5.25 
Q 37.40625 -1.265625 26.953125 -1.265625 
Q 17.53125 -1.265625 11.296875 4.34375 
Q 5.078125 9.96875 4.203125 18.890625 
z
" id="ArialMT-33"/>
      </defs>
      <g style="fill:#262626;" transform="translate(284.503024 240.229375)scale(0.12 -0.12)">
       <use xlink:href="#ArialMT-33"/>
      </g>
     </g>
    </g>
    <g id="xtick_5">
     <g id="line2d_9">
      <path clip-path="url(#pb26d8b2dbb)" d="M 359.231721 224.64 
L 359.231721 7.2 
" style="fill:none;stroke:#ffffff;stroke-linecap:round;"/>
     </g>
     <g id="line2d_10"/>
     <g id="text_5">
      <!-- 4 -->
      <defs>
       <path d="M 32.328125 0 
L 32.328125 17.140625 
L 1.265625 17.140625 
L 1.265625 25.203125 
L 33.9375 71.578125 
L 41.109375 71.578125 
L 41.109375 25.203125 
L 50.78125 25.203125 
L 50.78125 17.140625 
L 41.109375 17.140625 
L 41.109375 0 
z
M 32.328125 25.203125 
L 32.328125 57.46875 
L 9.90625 25.203125 
z
" id="ArialMT-34"/>
      </defs>
      <g style="fill:#262626;" transform="translate(355.895159 240.229375)scale(0.12 -0.12)">
       <use xlink:href="#ArialMT-34"/>
      </g>
     </g>
    </g>
    <g id="text_6">
     <!-- x -->
     <defs>
      <path d="M 0.734375 0 
L 19.671875 26.953125 
L 2.15625 51.859375 
L 13.140625 51.859375 
L 21.09375 39.703125 
Q 23.34375 36.234375 24.703125 33.890625 
Q 26.859375 37.109375 28.65625 39.59375 
L 37.40625 51.859375 
L 47.90625 51.859375 
L 29.984375 27.4375 
L 49.265625 0 
L 38.484375 0 
L 27.828125 16.109375 
L 25 20.453125 
L 11.375 0 
z
" id="ArialMT-78"/>
     </defs>
     <g style="fill:#262626;" transform="translate(221.345 259.498437)scale(0.18 -0.18)">
      <use xlink:href="#ArialMT-78"/>
     </g>
    </g>
   </g>
   <g id="matplotlib.axis_2">
    <g id="ytick_1">
     <g id="line2d_11">
      <path clip-path="url(#pb26d8b2dbb)" d="M 58.445 224.64 
L 393.245 224.64 
" style="fill:none;stroke:#ffffff;stroke-linecap:round;"/>
     </g>
     <g id="line2d_12"/>
     <g id="text_7">
      <!-- 0.00 -->
      <defs>
       <path d="M 9.078125 0 
L 9.078125 10.015625 
L 19.09375 10.015625 
L 19.09375 0 
z
" id="ArialMT-2e"/>
      </defs>
      <g style="fill:#262626;" transform="translate(28.091875 228.934687)scale(0.12 -0.12)">
       <use xlink:href="#ArialMT-30"/>
       <use x="55.615234" xlink:href="#ArialMT-2e"/>
       <use x="83.398438" xlink:href="#ArialMT-30"/>
       <use x="139.013672" xlink:href="#ArialMT-30"/>
      </g>
     </g>
    </g>
    <g id="ytick_2">
     <g id="line2d_13">
      <path clip-path="url(#pb26d8b2dbb)" d="M 58.445 198.754286 
L 393.245 198.754286 
" style="fill:none;stroke:#ffffff;stroke-linecap:round;"/>
     </g>
     <g id="line2d_14"/>
     <g id="text_8">
      <!-- 0.25 -->
      <defs>
       <path d="M 4.15625 18.75 
L 13.375 19.53125 
Q 14.40625 12.796875 18.140625 9.390625 
Q 21.875 6 27.15625 6 
Q 33.5 6 37.890625 10.78125 
Q 42.28125 15.578125 42.28125 23.484375 
Q 42.28125 31 38.0625 35.34375 
Q 33.84375 39.703125 27 39.703125 
Q 22.75 39.703125 19.328125 37.765625 
Q 15.921875 35.84375 13.96875 32.765625 
L 5.71875 33.84375 
L 12.640625 70.609375 
L 48.25 70.609375 
L 48.25 62.203125 
L 19.671875 62.203125 
L 15.828125 42.96875 
Q 22.265625 47.46875 29.34375 47.46875 
Q 38.71875 47.46875 45.15625 40.96875 
Q 51.609375 34.46875 51.609375 24.265625 
Q 51.609375 14.546875 45.953125 7.46875 
Q 39.0625 -1.21875 27.15625 -1.21875 
Q 17.390625 -1.21875 11.203125 4.25 
Q 5.03125 9.71875 4.15625 18.75 
z
" id="ArialMT-35"/>
      </defs>
      <g style="fill:#262626;" transform="translate(28.091875 203.048973)scale(0.12 -0.12)">
       <use xlink:href="#ArialMT-30"/>
       <use x="55.615234" xlink:href="#ArialMT-2e"/>
       <use x="83.398438" xlink:href="#ArialMT-32"/>
       <use x="139.013672" xlink:href="#ArialMT-35"/>
      </g>
     </g>
    </g>
    <g id="ytick_3">
     <g id="line2d_15">
      <path clip-path="url(#pb26d8b2dbb)" d="M 58.445 172.868571 
L 393.245 172.868571 
" style="fill:none;stroke:#ffffff;stroke-linecap:round;"/>
     </g>
     <g id="line2d_16"/>
     <g id="text_9">
      <!-- 0.50 -->
      <g style="fill:#262626;" transform="translate(28.091875 177.163259)scale(0.12 -0.12)">
       <use xlink:href="#ArialMT-30"/>
       <use x="55.615234" xlink:href="#ArialMT-2e"/>
       <use x="83.398438" xlink:href="#ArialMT-35"/>
       <use x="139.013672" xlink:href="#ArialMT-30"/>
      </g>
     </g>
    </g>
    <g id="ytick_4">
     <g id="line2d_17">
      <path clip-path="url(#pb26d8b2dbb)" d="M 58.445 146.982857 
L 393.245 146.982857 
" style="fill:none;stroke:#ffffff;stroke-linecap:round;"/>
     </g>
     <g id="line2d_18"/>
     <g id="text_10">
      <!-- 0.75 -->
      <defs>
       <path d="M 4.734375 62.203125 
L 4.734375 70.65625 
L 51.078125 70.65625 
L 51.078125 63.8125 
Q 44.234375 56.546875 37.515625 44.484375 
Q 30.8125 32.421875 27.15625 19.671875 
Q 24.515625 10.6875 23.78125 0 
L 14.75 0 
Q 14.890625 8.453125 18.0625 20.40625 
Q 21.234375 32.375 27.171875 43.484375 
Q 33.109375 54.59375 39.796875 62.203125 
z
" id="ArialMT-37"/>
      </defs>
      <g style="fill:#262626;" transform="translate(28.091875 151.277545)scale(0.12 -0.12)">
       <use xlink:href="#ArialMT-30"/>
       <use x="55.615234" xlink:href="#ArialMT-2e"/>
       <use x="83.398438" xlink:href="#ArialMT-37"/>
       <use x="139.013672" xlink:href="#ArialMT-35"/>
      </g>
     </g>
    </g>
    <g id="ytick_5">
     <g id="line2d_19">
      <path clip-path="url(#pb26d8b2dbb)" d="M 58.445 121.097143 
L 393.245 121.097143 
" style="fill:none;stroke:#ffffff;stroke-linecap:round;"/>
     </g>
     <g id="line2d_20"/>
     <g id="text_11">
      <!-- 1.00 -->
      <g style="fill:#262626;" transform="translate(28.091875 125.39183)scale(0.12 -0.12)">
       <use xlink:href="#ArialMT-31"/>
       <use x="55.615234" xlink:href="#ArialMT-2e"/>
       <use x="83.398438" xlink:href="#ArialMT-30"/>
       <use x="139.013672" xlink:href="#ArialMT-30"/>
      </g>
     </g>
    </g>
    <g id="ytick_6">
     <g id="line2d_21">
      <path clip-path="url(#pb26d8b2dbb)" d="M 58.445 95.211429 
L 393.245 95.211429 
" style="fill:none;stroke:#ffffff;stroke-linecap:round;"/>
     </g>
     <g id="line2d_22"/>
     <g id="text_12">
      <!-- 1.25 -->
      <g style="fill:#262626;" transform="translate(28.091875 99.506116)scale(0.12 -0.12)">
       <use xlink:href="#ArialMT-31"/>
       <use x="55.615234" xlink:href="#ArialMT-2e"/>
       <use x="83.398438" xlink:href="#ArialMT-32"/>
       <use x="139.013672" xlink:href="#ArialMT-35"/>
      </g>
     </g>
    </g>
    <g id="ytick_7">
     <g id="line2d_23">
      <path clip-path="url(#pb26d8b2dbb)" d="M 58.445 69.325714 
L 393.245 69.325714 
" style="fill:none;stroke:#ffffff;stroke-linecap:round;"/>
     </g>
     <g id="line2d_24"/>
     <g id="text_13">
      <!-- 1.50 -->
      <g style="fill:#262626;" transform="translate(28.091875 73.620402)scale(0.12 -0.12)">
       <use xlink:href="#ArialMT-31"/>
       <use x="55.615234" xlink:href="#ArialMT-2e"/>
       <use x="83.398438" xlink:href="#ArialMT-35"/>
       <use x="139.013672" xlink:href="#ArialMT-30"/>
      </g>
     </g>
    </g>
    <g id="ytick_8">
     <g id="line2d_25">
      <path clip-path="url(#pb26d8b2dbb)" d="M 58.445 43.44 
L 393.245 43.44 
" style="fill:none;stroke:#ffffff;stroke-linecap:round;"/>
     </g>
     <g id="line2d_26"/>
     <g id="text_14">
      <!-- 1.75 -->
      <g style="fill:#262626;" transform="translate(28.091875 47.734687)scale(0.12 -0.12)">
       <use xlink:href="#ArialMT-31"/>
       <use x="55.615234" xlink:href="#ArialMT-2e"/>
       <use x="83.398438" xlink:href="#ArialMT-37"/>
       <use x="139.013672" xlink:href="#ArialMT-35"/>
      </g>
     </g>
    </g>
    <g id="ytick_9">
     <g id="line2d_27">
      <path clip-path="url(#pb26d8b2dbb)" d="M 58.445 17.554286 
L 393.245 17.554286 
" style="fill:none;stroke:#ffffff;stroke-linecap:round;"/>
     </g>
     <g id="line2d_28"/>
     <g id="text_15">
      <!-- 2.00 -->
      <g style="fill:#262626;" transform="translate(28.091875 21.848973)scale(0.12 -0.12)">
       <use xlink:href="#ArialMT-32"/>
       <use x="55.615234" xlink:href="#ArialMT-2e"/>
       <use x="83.398438" xlink:href="#ArialMT-30"/>
       <use x="139.013672" xlink:href="#ArialMT-30"/>
      </g>
     </g>
    </g>
    <g id="text_16">
     <!-- p(x) -->
     <defs>
      <path d="M 6.59375 -19.875 
L 6.59375 51.859375 
L 14.59375 51.859375 
L 14.59375 45.125 
Q 17.4375 49.078125 21 51.046875 
Q 24.5625 53.03125 29.640625 53.03125 
Q 36.28125 53.03125 41.359375 49.609375 
Q 46.4375 46.1875 49.015625 39.953125 
Q 51.609375 33.734375 51.609375 26.3125 
Q 51.609375 18.359375 48.75 11.984375 
Q 45.90625 5.609375 40.453125 2.21875 
Q 35.015625 -1.171875 29 -1.171875 
Q 24.609375 -1.171875 21.109375 0.6875 
Q 17.625 2.546875 15.375 5.375 
L 15.375 -19.875 
z
M 14.546875 25.640625 
Q 14.546875 15.625 18.59375 10.84375 
Q 22.65625 6.0625 28.421875 6.0625 
Q 34.28125 6.0625 38.453125 11.015625 
Q 42.625 15.96875 42.625 26.375 
Q 42.625 36.28125 38.546875 41.203125 
Q 34.46875 46.140625 28.8125 46.140625 
Q 23.1875 46.140625 18.859375 40.890625 
Q 14.546875 35.640625 14.546875 25.640625 
z
" id="ArialMT-70"/>
      <path d="M 23.390625 -21.046875 
Q 16.109375 -11.859375 11.078125 0.4375 
Q 6.0625 12.75 6.0625 25.921875 
Q 6.0625 37.546875 9.8125 48.1875 
Q 14.203125 60.546875 23.390625 72.796875 
L 29.6875 72.796875 
Q 23.78125 62.640625 21.875 58.296875 
Q 18.890625 51.5625 17.1875 44.234375 
Q 15.09375 35.109375 15.09375 25.875 
Q 15.09375 2.390625 29.6875 -21.046875 
z
" id="ArialMT-28"/>
      <path d="M 12.359375 -21.046875 
L 6.0625 -21.046875 
Q 20.65625 2.390625 20.65625 25.875 
Q 20.65625 35.0625 18.5625 44.09375 
Q 16.890625 51.421875 13.921875 58.15625 
Q 12.015625 62.546875 6.0625 72.796875 
L 12.359375 72.796875 
Q 21.53125 60.546875 25.921875 48.1875 
Q 29.6875 37.546875 29.6875 25.921875 
Q 29.6875 12.75 24.625 0.4375 
Q 19.578125 -11.859375 12.359375 -21.046875 
z
" id="ArialMT-29"/>
     </defs>
     <g style="fill:#262626;" transform="translate(20.303438 131.418281)rotate(-90)scale(0.18 -0.18)">
      <use xlink:href="#ArialMT-70"/>
      <use x="55.615234" xlink:href="#ArialMT-28"/>
      <use x="88.916016" xlink:href="#ArialMT-78"/>
      <use x="138.916016" xlink:href="#ArialMT-29"/>
     </g>
    </g>
   </g>
   <g id="patch_3">
    <path clip-path="url(#pb26d8b2dbb)" d="M 73.672238 224.64 
L 88.889967 224.64 
L 88.889967 61.61935 
L 73.672238 61.61935 
z
" style="fill:#008000;opacity:0.65;"/>
   </g>
   <g id="patch_4">
    <path clip-path="url(#pb26d8b2dbb)" d="M 88.889967 224.64 
L 104.107696 224.64 
L 104.107696 111.069595 
L 88.889967 111.069595 
z
" style="fill:#008000;opacity:0.65;"/>
   </g>
   <g id="patch_5">
    <path clip-path="url(#pb26d8b2dbb)" d="M 104.107696 224.64 
L 119.325425 224.64 
L 119.325425 152.553396 
L 104.107696 152.553396 
z
" style="fill:#008000;opacity:0.65;"/>
   </g>
   <g id="patch_6">
    <path clip-path="url(#pb26d8b2dbb)" d="M 119.325425 224.64 
L 134.543154 224.64 
L 134.543154 177.715701 
L 119.325425 177.715701 
z
" style="fill:#008000;opacity:0.65;"/>
   </g>
   <g id="patch_7">
    <path clip-path="url(#pb26d8b2dbb)" d="M 134.543154 224.64 
L 149.760883 224.64 
L 149.760883 193.842893 
L 134.543154 193.842893 
z
" style="fill:#008000;opacity:0.65;"/>
   </g>
   <g id="patch_8">
    <path clip-path="url(#pb26d8b2dbb)" d="M 149.760883 224.64 
L 164.978612 224.64 
L 164.978612 202.878006 
L 149.760883 202.878006 
z
" style="fill:#008000;opacity:0.65;"/>
   </g>
   <g id="patch_9">
    <path clip-path="url(#pb26d8b2dbb)" d="M 164.978612 224.64 
L 180.196341 224.64 
L 180.196341 210.164388 
L 164.978612 210.164388 
z
" style="fill:#008000;opacity:0.65;"/>
   </g>
   <g id="patch_10">
    <path clip-path="url(#pb26d8b2dbb)" d="M 180.196341 224.64 
L 195.41407 224.64 
L 195.41407 217.159315 
L 180.196341 217.159315 
z
" style="fill:#008000;opacity:0.65;"/>
   </g>
   <g id="patch_11">
    <path clip-path="url(#pb26d8b2dbb)" d="M 195.41407 224.64 
L 210.631799 224.64 
L 210.631799 219.005198 
L 195.41407 219.005198 
z
" style="fill:#008000;opacity:0.65;"/>
   </g>
   <g id="patch_12">
    <path clip-path="url(#pb26d8b2dbb)" d="M 210.631799 224.64 
L 225.849528 224.64 
L 225.849528 220.462474 
L 210.631799 220.462474 
z
" style="fill:#008000;opacity:0.65;"/>
   </g>
   <g id="patch_13">
    <path clip-path="url(#pb26d8b2dbb)" d="M 225.849528 224.64 
L 241.067257 224.64 
L 241.067257 222.696965 
L 225.849528 222.696965 
z
" style="fill:#008000;opacity:0.65;"/>
   </g>
   <g id="patch_14">
    <path clip-path="url(#pb26d8b2dbb)" d="M 241.067257 224.64 
L 256.284986 224.64 
L 256.284986 223.862786 
L 241.067257 223.862786 
z
" style="fill:#008000;opacity:0.65;"/>
   </g>
   <g id="patch_15">
    <path clip-path="url(#pb26d8b2dbb)" d="M 256.284986 224.64 
L 271.502715 224.64 
L 271.502715 223.571331 
L 256.284986 223.571331 
z
" style="fill:#008000;opacity:0.65;"/>
   </g>
   <g id="patch_16">
    <path clip-path="url(#pb26d8b2dbb)" d="M 271.502715 224.64 
L 286.720444 224.64 
L 286.720444 224.057089 
L 271.502715 224.057089 
z
" style="fill:#008000;opacity:0.65;"/>
   </g>
   <g id="patch_17">
    <path clip-path="url(#pb26d8b2dbb)" d="M 286.720444 224.64 
L 301.938173 224.64 
L 301.938173 224.251393 
L 286.720444 224.251393 
z
" style="fill:#008000;opacity:0.65;"/>
   </g>
   <g id="patch_18">
    <path clip-path="url(#pb26d8b2dbb)" d="M 301.938173 224.64 
L 317.155902 224.64 
L 317.155902 224.154241 
L 301.938173 224.154241 
z
" style="fill:#008000;opacity:0.65;"/>
   </g>
   <g id="patch_19">
    <path clip-path="url(#pb26d8b2dbb)" d="M 317.155902 224.64 
L 332.373631 224.64 
L 332.373631 224.445696 
L 317.155902 224.445696 
z
" style="fill:#008000;opacity:0.65;"/>
   </g>
   <g id="patch_20">
    <path clip-path="url(#pb26d8b2dbb)" d="M 332.373631 224.64 
L 347.59136 224.64 
L 347.59136 224.542848 
L 332.373631 224.542848 
z
" style="fill:#008000;opacity:0.65;"/>
   </g>
   <g id="patch_21">
    <path clip-path="url(#pb26d8b2dbb)" d="M 347.59136 224.64 
L 362.809089 224.64 
L 362.809089 224.542848 
L 347.59136 224.542848 
z
" style="fill:#008000;opacity:0.65;"/>
   </g>
   <g id="patch_22">
    <path clip-path="url(#pb26d8b2dbb)" d="M 362.809089 224.64 
L 378.026818 224.64 
L 378.026818 224.445696 
L 362.809089 224.445696 
z
" style="fill:#008000;opacity:0.65;"/>
   </g>
   <g id="line2d_29">
    <path clip-path="url(#pb26d8b2dbb)" d="M 73.663182 17.554286 
L 76.664653 34.254931 
L 79.666124 49.608734 
L 82.667595 63.724315 
L 85.669066 76.701529 
L 88.670537 88.632182 
L 91.672009 99.600676 
L 94.67348 109.684603 
L 97.674951 118.955302 
L 100.676422 127.478356 
L 103.677893 135.314058 
L 106.679364 142.517843 
L 109.680835 149.14067 
L 112.682307 155.229393 
L 115.683778 160.827084 
L 118.685249 165.973344 
L 121.68672 170.704578 
L 124.938314 175.40049 
L 128.189907 179.68755 
L 131.441501 183.601356 
L 134.693095 187.174404 
L 137.944689 190.436363 
L 141.446405 193.632352 
L 144.948121 196.529708 
L 148.69996 199.334274 
L 152.451799 201.859029 
L 156.453761 204.275087 
L 160.455722 206.434908 
L 164.707806 208.479302 
L 169.210013 210.394286 
L 173.962342 212.170035 
L 178.964794 213.800652 
L 184.217369 215.283833 
L 189.970188 216.676453 
L 196.223253 217.956115 
L 202.976563 219.108217 
L 210.480241 220.156966 
L 218.734287 221.082462 
L 227.988823 221.894922 
L 238.744094 222.609041 
L 251.250224 223.209309 
L 266.25758 223.700364 
L 285.266897 224.088324 
L 310.529279 224.368149 
L 323.535654 224.451162 
L 323.535654 224.451162 
" style="fill:none;stroke:#0000ff;stroke-linecap:round;stroke-width:2;"/>
   </g>
   <g id="patch_23">
    <path d="M 58.445 224.64 
L 58.445 7.2 
" style="fill:none;"/>
   </g>
   <g id="patch_24">
    <path d="M 393.245 224.64 
L 393.245 7.2 
" style="fill:none;"/>
   </g>
   <g id="patch_25">
    <path d="M 58.445 224.64 
L 393.245 224.64 
" style="fill:none;"/>
   </g>
   <g id="patch_26">
    <path d="M 58.445 7.2 
L 393.245 7.2 
" style="fill:none;"/>
   </g>
  </g>
 </g>
 <defs>
  <clipPath id="pb26d8b2dbb">
   <rect height="217.44" width="334.8" x="58.445" y="7.2"/>
  </clipPath>
 </defs>
</svg>
