<?xml version="1.0" encoding="utf-8" standalone="no"?>
<!DOCTYPE svg PUBLIC "-//W3C//DTD SVG 1.1//EN"
  "http://www.w3.org/Graphics/SVG/1.1/DTD/svg11.dtd">
<!-- Created with matplotlib (http://matplotlib.org/) -->
<svg height="270pt" version="1.1" viewBox="0 0 393 270" width="393pt" xmlns="http://www.w3.org/2000/svg" xmlns:xlink="http://www.w3.org/1999/xlink">
 <defs>
  <style type="text/css">
*{stroke-linecap:butt;stroke-linejoin:round;}
  </style>
 </defs>
 <g id="figure_1">
  <g id="patch_1">
   <path d="M 0 270.275937 
L 393.771875 270.275937 
L 393.771875 0 
L 0 0 
z
" style="fill:none;"/>
  </g>
  <g id="axes_1">
   <g id="patch_2">
    <path d="M 51.771875 224.64 
L 386.571875 224.64 
L 386.571875 7.2 
L 51.771875 7.2 
z
" style="fill:#eaeaf2;"/>
   </g>
   <g id="matplotlib.axis_1">
    <g id="xtick_1">
     <g id="line2d_1">
      <path clip-path="url(#pd5ba23901f)" d="M 79.671875 224.64 
L 79.671875 7.2 
" style="fill:none;stroke:#ffffff;stroke-linecap:round;"/>
     </g>
     <g id="line2d_2"/>
     <g id="text_1">
      <!-- 0.0 -->
      <defs>
       <path d="M 4.15625 35.296875 
Q 4.15625 48 6.765625 55.734375 
Q 9.375 63.484375 14.515625 67.671875 
Q 19.671875 71.875 27.484375 71.875 
Q 33.25 71.875 37.59375 69.546875 
Q 41.9375 67.234375 44.765625 62.859375 
Q 47.609375 58.5 49.21875 52.21875 
Q 50.828125 45.953125 50.828125 35.296875 
Q 50.828125 22.703125 48.234375 14.96875 
Q 45.65625 7.234375 40.5 3 
Q 35.359375 -1.21875 27.484375 -1.21875 
Q 17.140625 -1.21875 11.234375 6.203125 
Q 4.15625 15.140625 4.15625 35.296875 
z
M 13.1875 35.296875 
Q 13.1875 17.671875 17.3125 11.828125 
Q 21.4375 6 27.484375 6 
Q 33.546875 6 37.671875 11.859375 
Q 41.796875 17.71875 41.796875 35.296875 
Q 41.796875 52.984375 37.671875 58.78125 
Q 33.546875 64.59375 27.390625 64.59375 
Q 21.34375 64.59375 17.71875 59.46875 
Q 13.1875 52.9375 13.1875 35.296875 
z
" id="ArialMT-30"/>
       <path d="M 9.078125 0 
L 9.078125 10.015625 
L 19.09375 10.015625 
L 19.09375 0 
z
" id="ArialMT-2e"/>
      </defs>
      <g style="fill:#262626;" transform="translate(71.331875 240.229375)scale(0.12 -0.12)">
       <use xlink:href="#ArialMT-30"/>
       <use x="55.615234" xlink:href="#ArialMT-2e"/>
       <use x="83.398438" xlink:href="#ArialMT-30"/>
      </g>
     </g>
    </g>
    <g id="xtick_2">
     <g id="line2d_3">
      <path clip-path="url(#pd5ba23901f)" d="M 135.471875 224.64 
L 135.471875 7.2 
" style="fill:none;stroke:#ffffff;stroke-linecap:round;"/>
     </g>
     <g id="line2d_4"/>
     <g id="text_2">
      <!-- 0.2 -->
      <defs>
       <path d="M 50.34375 8.453125 
L 50.34375 0 
L 3.03125 0 
Q 2.9375 3.171875 4.046875 6.109375 
Q 5.859375 10.9375 9.828125 15.625 
Q 13.8125 20.3125 21.34375 26.46875 
Q 33.015625 36.03125 37.109375 41.625 
Q 41.21875 47.21875 41.21875 52.203125 
Q 41.21875 57.421875 37.46875 61 
Q 33.734375 64.59375 27.734375 64.59375 
Q 21.390625 64.59375 17.578125 60.78125 
Q 13.765625 56.984375 13.71875 50.25 
L 4.6875 51.171875 
Q 5.609375 61.28125 11.65625 66.578125 
Q 17.71875 71.875 27.9375 71.875 
Q 38.234375 71.875 44.234375 66.15625 
Q 50.25 60.453125 50.25 52 
Q 50.25 47.703125 48.484375 43.546875 
Q 46.734375 39.40625 42.65625 34.8125 
Q 38.578125 30.21875 29.109375 22.21875 
Q 21.1875 15.578125 18.9375 13.203125 
Q 16.703125 10.84375 15.234375 8.453125 
z
" id="ArialMT-32"/>
      </defs>
      <g style="fill:#262626;" transform="translate(127.131875 240.229375)scale(0.12 -0.12)">
       <use xlink:href="#ArialMT-30"/>
       <use x="55.615234" xlink:href="#ArialMT-2e"/>
       <use x="83.398438" xlink:href="#ArialMT-32"/>
      </g>
     </g>
    </g>
    <g id="xtick_3">
     <g id="line2d_5">
      <path clip-path="url(#pd5ba23901f)" d="M 191.271875 224.64 
L 191.271875 7.2 
" style="fill:none;stroke:#ffffff;stroke-linecap:round;"/>
     </g>
     <g id="line2d_6"/>
     <g id="text_3">
      <!-- 0.4 -->
      <defs>
       <path d="M 32.328125 0 
L 32.328125 17.140625 
L 1.265625 17.140625 
L 1.265625 25.203125 
L 33.9375 71.578125 
L 41.109375 71.578125 
L 41.109375 25.203125 
L 50.78125 25.203125 
L 50.78125 17.140625 
L 41.109375 17.140625 
L 41.109375 0 
z
M 32.328125 25.203125 
L 32.328125 57.46875 
L 9.90625 25.203125 
z
" id="ArialMT-34"/>
      </defs>
      <g style="fill:#262626;" transform="translate(182.931875 240.229375)scale(0.12 -0.12)">
       <use xlink:href="#ArialMT-30"/>
       <use x="55.615234" xlink:href="#ArialMT-2e"/>
       <use x="83.398438" xlink:href="#ArialMT-34"/>
      </g>
     </g>
    </g>
    <g id="xtick_4">
     <g id="line2d_7">
      <path clip-path="url(#pd5ba23901f)" d="M 247.071875 224.64 
L 247.071875 7.2 
" style="fill:none;stroke:#ffffff;stroke-linecap:round;"/>
     </g>
     <g id="line2d_8"/>
     <g id="text_4">
      <!-- 0.6 -->
      <defs>
       <path d="M 49.75 54.046875 
L 41.015625 53.375 
Q 39.84375 58.546875 37.703125 60.890625 
Q 34.125 64.65625 28.90625 64.65625 
Q 24.703125 64.65625 21.53125 62.3125 
Q 17.390625 59.28125 14.984375 53.46875 
Q 12.59375 47.65625 12.5 36.921875 
Q 15.671875 41.75 20.265625 44.09375 
Q 24.859375 46.4375 29.890625 46.4375 
Q 38.671875 46.4375 44.84375 39.96875 
Q 51.03125 33.5 51.03125 23.25 
Q 51.03125 16.5 48.125 10.71875 
Q 45.21875 4.9375 40.140625 1.859375 
Q 35.0625 -1.21875 28.609375 -1.21875 
Q 17.625 -1.21875 10.6875 6.859375 
Q 3.765625 14.9375 3.765625 33.5 
Q 3.765625 54.25 11.421875 63.671875 
Q 18.109375 71.875 29.4375 71.875 
Q 37.890625 71.875 43.28125 67.140625 
Q 48.6875 62.40625 49.75 54.046875 
z
M 13.875 23.1875 
Q 13.875 18.65625 15.796875 14.5 
Q 17.71875 10.359375 21.1875 8.171875 
Q 24.65625 6 28.46875 6 
Q 34.03125 6 38.03125 10.484375 
Q 42.046875 14.984375 42.046875 22.703125 
Q 42.046875 30.125 38.078125 34.390625 
Q 34.125 38.671875 28.125 38.671875 
Q 22.171875 38.671875 18.015625 34.390625 
Q 13.875 30.125 13.875 23.1875 
z
" id="ArialMT-36"/>
      </defs>
      <g style="fill:#262626;" transform="translate(238.731875 240.229375)scale(0.12 -0.12)">
       <use xlink:href="#ArialMT-30"/>
       <use x="55.615234" xlink:href="#ArialMT-2e"/>
       <use x="83.398438" xlink:href="#ArialMT-36"/>
      </g>
     </g>
    </g>
    <g id="xtick_5">
     <g id="line2d_9">
      <path clip-path="url(#pd5ba23901f)" d="M 302.871875 224.64 
L 302.871875 7.2 
" style="fill:none;stroke:#ffffff;stroke-linecap:round;"/>
     </g>
     <g id="line2d_10"/>
     <g id="text_5">
      <!-- 0.8 -->
      <defs>
       <path d="M 17.671875 38.8125 
Q 12.203125 40.828125 9.5625 44.53125 
Q 6.9375 48.25 6.9375 53.421875 
Q 6.9375 61.234375 12.546875 66.546875 
Q 18.171875 71.875 27.484375 71.875 
Q 36.859375 71.875 42.578125 66.421875 
Q 48.296875 60.984375 48.296875 53.171875 
Q 48.296875 48.1875 45.671875 44.5 
Q 43.0625 40.828125 37.75 38.8125 
Q 44.34375 36.671875 47.78125 31.875 
Q 51.21875 27.09375 51.21875 20.453125 
Q 51.21875 11.28125 44.71875 5.03125 
Q 38.234375 -1.21875 27.640625 -1.21875 
Q 17.046875 -1.21875 10.546875 5.046875 
Q 4.046875 11.328125 4.046875 20.703125 
Q 4.046875 27.6875 7.59375 32.390625 
Q 11.140625 37.109375 17.671875 38.8125 
z
M 15.921875 53.71875 
Q 15.921875 48.640625 19.1875 45.40625 
Q 22.46875 42.1875 27.6875 42.1875 
Q 32.765625 42.1875 36.015625 45.375 
Q 39.265625 48.578125 39.265625 53.21875 
Q 39.265625 58.0625 35.90625 61.359375 
Q 32.5625 64.65625 27.59375 64.65625 
Q 22.5625 64.65625 19.234375 61.421875 
Q 15.921875 58.203125 15.921875 53.71875 
z
M 13.09375 20.65625 
Q 13.09375 16.890625 14.875 13.375 
Q 16.65625 9.859375 20.171875 7.921875 
Q 23.6875 6 27.734375 6 
Q 34.03125 6 38.125 10.046875 
Q 42.234375 14.109375 42.234375 20.359375 
Q 42.234375 26.703125 38.015625 30.859375 
Q 33.796875 35.015625 27.4375 35.015625 
Q 21.234375 35.015625 17.15625 30.90625 
Q 13.09375 26.8125 13.09375 20.65625 
z
" id="ArialMT-38"/>
      </defs>
      <g style="fill:#262626;" transform="translate(294.531875 240.229375)scale(0.12 -0.12)">
       <use xlink:href="#ArialMT-30"/>
       <use x="55.615234" xlink:href="#ArialMT-2e"/>
       <use x="83.398438" xlink:href="#ArialMT-38"/>
      </g>
     </g>
    </g>
    <g id="xtick_6">
     <g id="line2d_11">
      <path clip-path="url(#pd5ba23901f)" d="M 358.671875 224.64 
L 358.671875 7.2 
" style="fill:none;stroke:#ffffff;stroke-linecap:round;"/>
     </g>
     <g id="line2d_12"/>
     <g id="text_6">
      <!-- 1.0 -->
      <defs>
       <path d="M 37.25 0 
L 28.46875 0 
L 28.46875 56 
Q 25.296875 52.984375 20.140625 49.953125 
Q 14.984375 46.921875 10.890625 45.40625 
L 10.890625 53.90625 
Q 18.265625 57.375 23.78125 62.296875 
Q 29.296875 67.234375 31.59375 71.875 
L 37.25 71.875 
z
" id="ArialMT-31"/>
      </defs>
      <g style="fill:#262626;" transform="translate(350.331875 240.229375)scale(0.12 -0.12)">
       <use xlink:href="#ArialMT-31"/>
       <use x="55.615234" xlink:href="#ArialMT-2e"/>
       <use x="83.398438" xlink:href="#ArialMT-30"/>
      </g>
     </g>
    </g>
    <g id="text_7">
     <!-- x -->
     <defs>
      <path d="M 0.734375 0 
L 19.671875 26.953125 
L 2.15625 51.859375 
L 13.140625 51.859375 
L 21.09375 39.703125 
Q 23.34375 36.234375 24.703125 33.890625 
Q 26.859375 37.109375 28.65625 39.59375 
L 37.40625 51.859375 
L 47.90625 51.859375 
L 29.984375 27.4375 
L 49.265625 0 
L 38.484375 0 
L 27.828125 16.109375 
L 25 20.453125 
L 11.375 0 
z
" id="ArialMT-78"/>
     </defs>
     <g style="fill:#262626;" transform="translate(214.671875 259.498437)scale(0.18 -0.18)">
      <use xlink:href="#ArialMT-78"/>
     </g>
    </g>
   </g>
   <g id="matplotlib.axis_2">
    <g id="ytick_1">
     <g id="line2d_13">
      <path clip-path="url(#pd5ba23901f)" d="M 51.771875 222.681081 
L 386.571875 222.681081 
" style="fill:none;stroke:#ffffff;stroke-linecap:round;"/>
     </g>
     <g id="line2d_14"/>
     <g id="text_8">
      <!-- 0.0 -->
      <g style="fill:#262626;" transform="translate(28.091875 226.975769)scale(0.12 -0.12)">
       <use xlink:href="#ArialMT-30"/>
       <use x="55.615234" xlink:href="#ArialMT-2e"/>
       <use x="83.398438" xlink:href="#ArialMT-30"/>
      </g>
     </g>
    </g>
    <g id="ytick_2">
     <g id="line2d_15">
      <path clip-path="url(#pd5ba23901f)" d="M 51.771875 183.502703 
L 386.571875 183.502703 
" style="fill:none;stroke:#ffffff;stroke-linecap:round;"/>
     </g>
     <g id="line2d_16"/>
     <g id="text_9">
      <!-- 0.2 -->
      <g style="fill:#262626;" transform="translate(28.091875 187.79739)scale(0.12 -0.12)">
       <use xlink:href="#ArialMT-30"/>
       <use x="55.615234" xlink:href="#ArialMT-2e"/>
       <use x="83.398438" xlink:href="#ArialMT-32"/>
      </g>
     </g>
    </g>
    <g id="ytick_3">
     <g id="line2d_17">
      <path clip-path="url(#pd5ba23901f)" d="M 51.771875 144.324324 
L 386.571875 144.324324 
" style="fill:none;stroke:#ffffff;stroke-linecap:round;"/>
     </g>
     <g id="line2d_18"/>
     <g id="text_10">
      <!-- 0.4 -->
      <g style="fill:#262626;" transform="translate(28.091875 148.619012)scale(0.12 -0.12)">
       <use xlink:href="#ArialMT-30"/>
       <use x="55.615234" xlink:href="#ArialMT-2e"/>
       <use x="83.398438" xlink:href="#ArialMT-34"/>
      </g>
     </g>
    </g>
    <g id="ytick_4">
     <g id="line2d_19">
      <path clip-path="url(#pd5ba23901f)" d="M 51.771875 105.145946 
L 386.571875 105.145946 
" style="fill:none;stroke:#ffffff;stroke-linecap:round;"/>
     </g>
     <g id="line2d_20"/>
     <g id="text_11">
      <!-- 0.6 -->
      <g style="fill:#262626;" transform="translate(28.091875 109.440633)scale(0.12 -0.12)">
       <use xlink:href="#ArialMT-30"/>
       <use x="55.615234" xlink:href="#ArialMT-2e"/>
       <use x="83.398438" xlink:href="#ArialMT-36"/>
      </g>
     </g>
    </g>
    <g id="ytick_5">
     <g id="line2d_21">
      <path clip-path="url(#pd5ba23901f)" d="M 51.771875 65.967568 
L 386.571875 65.967568 
" style="fill:none;stroke:#ffffff;stroke-linecap:round;"/>
     </g>
     <g id="line2d_22"/>
     <g id="text_12">
      <!-- 0.8 -->
      <g style="fill:#262626;" transform="translate(28.091875 70.262255)scale(0.12 -0.12)">
       <use xlink:href="#ArialMT-30"/>
       <use x="55.615234" xlink:href="#ArialMT-2e"/>
       <use x="83.398438" xlink:href="#ArialMT-38"/>
      </g>
     </g>
    </g>
    <g id="ytick_6">
     <g id="line2d_23">
      <path clip-path="url(#pd5ba23901f)" d="M 51.771875 26.789189 
L 386.571875 26.789189 
" style="fill:none;stroke:#ffffff;stroke-linecap:round;"/>
     </g>
     <g id="line2d_24"/>
     <g id="text_13">
      <!-- 1.0 -->
      <g style="fill:#262626;" transform="translate(28.091875 31.083877)scale(0.12 -0.12)">
       <use xlink:href="#ArialMT-31"/>
       <use x="55.615234" xlink:href="#ArialMT-2e"/>
       <use x="83.398438" xlink:href="#ArialMT-30"/>
      </g>
     </g>
    </g>
    <g id="text_14">
     <!-- u(x) -->
     <defs>
      <path d="M 40.578125 0 
L 40.578125 7.625 
Q 34.515625 -1.171875 24.125 -1.171875 
Q 19.53125 -1.171875 15.546875 0.578125 
Q 11.578125 2.34375 9.640625 5 
Q 7.71875 7.671875 6.9375 11.53125 
Q 6.390625 14.109375 6.390625 19.734375 
L 6.390625 51.859375 
L 15.1875 51.859375 
L 15.1875 23.09375 
Q 15.1875 16.21875 15.71875 13.8125 
Q 16.546875 10.359375 19.234375 8.375 
Q 21.921875 6.390625 25.875 6.390625 
Q 29.828125 6.390625 33.296875 8.421875 
Q 36.765625 10.453125 38.203125 13.9375 
Q 39.65625 17.4375 39.65625 24.078125 
L 39.65625 51.859375 
L 48.4375 51.859375 
L 48.4375 0 
z
" id="ArialMT-75"/>
      <path d="M 23.390625 -21.046875 
Q 16.109375 -11.859375 11.078125 0.4375 
Q 6.0625 12.75 6.0625 25.921875 
Q 6.0625 37.546875 9.8125 48.1875 
Q 14.203125 60.546875 23.390625 72.796875 
L 29.6875 72.796875 
Q 23.78125 62.640625 21.875 58.296875 
Q 18.890625 51.5625 17.1875 44.234375 
Q 15.09375 35.109375 15.09375 25.875 
Q 15.09375 2.390625 29.6875 -21.046875 
z
" id="ArialMT-28"/>
      <path d="M 12.359375 -21.046875 
L 6.0625 -21.046875 
Q 20.65625 2.390625 20.65625 25.875 
Q 20.65625 35.0625 18.5625 44.09375 
Q 16.890625 51.421875 13.921875 58.15625 
Q 12.015625 62.546875 6.0625 72.796875 
L 12.359375 72.796875 
Q 21.53125 60.546875 25.921875 48.1875 
Q 29.6875 37.546875 29.6875 25.921875 
Q 29.6875 12.75 24.625 0.4375 
Q 19.578125 -11.859375 12.359375 -21.046875 
z
" id="ArialMT-29"/>
     </defs>
     <g style="fill:#262626;" transform="translate(20.303438 131.418281)rotate(-90)scale(0.18 -0.18)">
      <use xlink:href="#ArialMT-75"/>
      <use x="55.615234" xlink:href="#ArialMT-28"/>
      <use x="88.916016" xlink:href="#ArialMT-78"/>
      <use x="138.916016" xlink:href="#ArialMT-29"/>
     </g>
    </g>
   </g>
   <g id="PolyCollection_1">
    <path clip-path="url(#pd5ba23901f)" d="M 51.771875 222.681081 
L 51.771875 222.681081 
L 52.10701 222.681081 
L 52.442145 222.681081 
L 52.77728 222.681081 
L 53.112416 222.681081 
L 53.447551 222.681081 
L 53.782686 222.681081 
L 54.117821 222.681081 
L 54.452956 222.681081 
L 54.788091 222.681081 
L 55.123226 222.681081 
L 55.458361 222.681081 
L 55.793497 222.681081 
L 56.128632 222.681081 
L 56.463767 222.681081 
L 56.798902 222.681081 
L 57.134037 222.681081 
L 57.469172 222.681081 
L 57.804307 222.681081 
L 58.139443 222.681081 
L 58.474578 222.681081 
L 58.809713 222.681081 
L 59.144848 222.681081 
L 59.479983 222.681081 
L 59.815118 222.681081 
L 60.150253 222.681081 
L 60.485389 222.681081 
L 60.820524 222.681081 
L 61.155659 222.681081 
L 61.490794 222.681081 
L 61.825929 222.681081 
L 62.161064 222.681081 
L 62.496199 222.681081 
L 62.831334 222.681081 
L 63.16647 222.681081 
L 63.501605 222.681081 
L 63.83674 222.681081 
L 64.171875 222.681081 
L 64.50701 222.681081 
L 64.842145 222.681081 
L 65.17728 222.681081 
L 65.512416 222.681081 
L 65.847551 222.681081 
L 66.182686 222.681081 
L 66.517821 222.681081 
L 66.852956 222.681081 
L 67.188091 222.681081 
L 67.523226 222.681081 
L 67.858361 222.681081 
L 68.193497 222.681081 
L 68.528632 222.681081 
L 68.863767 222.681081 
L 69.198902 222.681081 
L 69.534037 222.681081 
L 69.869172 222.681081 
L 70.204307 222.681081 
L 70.539443 222.681081 
L 70.874578 222.681081 
L 71.209713 222.681081 
L 71.544848 222.681081 
L 71.879983 222.681081 
L 72.215118 222.681081 
L 72.550253 222.681081 
L 72.885389 222.681081 
L 73.220524 222.681081 
L 73.555659 222.681081 
L 73.890794 222.681081 
L 74.225929 222.681081 
L 74.561064 222.681081 
L 74.896199 222.681081 
L 75.231334 222.681081 
L 75.56647 222.681081 
L 75.901605 222.681081 
L 76.23674 222.681081 
L 76.571875 222.681081 
L 76.90701 222.681081 
L 77.242145 222.681081 
L 77.57728 222.681081 
L 77.912416 222.681081 
L 78.247551 222.681081 
L 78.582686 222.681081 
L 78.917821 222.681081 
L 79.252956 222.681081 
L 79.588091 222.681081 
L 79.923226 222.681081 
L 80.258361 222.681081 
L 80.593497 222.681081 
L 80.928632 222.681081 
L 81.263767 222.681081 
L 81.598902 222.681081 
L 81.934037 222.681081 
L 82.269172 222.681081 
L 82.604307 222.681081 
L 82.939443 222.681081 
L 83.274578 222.681081 
L 83.609713 222.681081 
L 83.944848 222.681081 
L 84.279983 222.681081 
L 84.615118 222.681081 
L 84.950253 222.681081 
L 85.285389 222.681081 
L 85.620524 222.681081 
L 85.955659 222.681081 
L 86.290794 222.681081 
L 86.625929 222.681081 
L 86.961064 222.681081 
L 87.296199 222.681081 
L 87.631334 222.681081 
L 87.96647 222.681081 
L 88.301605 222.681081 
L 88.63674 222.681081 
L 88.971875 222.681081 
L 89.30701 222.681081 
L 89.642145 222.681081 
L 89.97728 222.681081 
L 90.312416 222.681081 
L 90.647551 222.681081 
L 90.982686 222.681081 
L 91.317821 222.681081 
L 91.652956 222.681081 
L 91.988091 222.681081 
L 92.323226 222.681081 
L 92.658361 222.681081 
L 92.993497 222.681081 
L 93.328632 222.681081 
L 93.663767 222.681081 
L 93.998902 222.681081 
L 94.334037 222.681081 
L 94.669172 222.681081 
L 95.004307 222.681081 
L 95.339443 222.681081 
L 95.674578 222.681081 
L 96.009713 222.681081 
L 96.344848 222.681081 
L 96.679983 222.681081 
L 97.015118 222.681081 
L 97.350253 222.681081 
L 97.685389 222.681081 
L 98.020524 222.681081 
L 98.355659 222.681081 
L 98.690794 222.681081 
L 99.025929 222.681081 
L 99.361064 222.681081 
L 99.696199 222.681081 
L 100.031334 222.681081 
L 100.36647 222.681081 
L 100.701605 222.681081 
L 101.03674 222.681081 
L 101.371875 222.681081 
L 101.70701 222.681081 
L 102.042145 222.681081 
L 102.37728 222.681081 
L 102.712416 222.681081 
L 103.047551 222.681081 
L 103.382686 222.681081 
L 103.717821 222.681081 
L 104.052956 222.681081 
L 104.388091 222.681081 
L 104.723226 222.681081 
L 105.058361 222.681081 
L 105.393497 222.681081 
L 105.728632 222.681081 
L 106.063767 222.681081 
L 106.398902 222.681081 
L 106.734037 222.681081 
L 107.069172 222.681081 
L 107.404307 222.681081 
L 107.739443 222.681081 
L 108.074578 222.681081 
L 108.409713 222.681081 
L 108.744848 222.681081 
L 109.079983 222.681081 
L 109.415118 222.681081 
L 109.750253 222.681081 
L 110.085389 222.681081 
L 110.420524 222.681081 
L 110.755659 222.681081 
L 111.090794 222.681081 
L 111.425929 222.681081 
L 111.761064 222.681081 
L 112.096199 222.681081 
L 112.431334 222.681081 
L 112.76647 222.681081 
L 113.101605 222.681081 
L 113.43674 222.681081 
L 113.771875 222.681081 
L 114.10701 222.681081 
L 114.442145 222.681081 
L 114.77728 222.681081 
L 115.112416 222.681081 
L 115.447551 222.681081 
L 115.782686 222.681081 
L 116.117821 222.681081 
L 116.452956 222.681081 
L 116.788091 222.681081 
L 117.123226 222.681081 
L 117.458361 222.681081 
L 117.793497 222.681081 
L 118.128632 222.681081 
L 118.463767 222.681081 
L 118.798902 222.681081 
L 119.134037 222.681081 
L 119.469172 222.681081 
L 119.804307 222.681081 
L 120.139443 222.681081 
L 120.474578 222.681081 
L 120.809713 222.681081 
L 121.144848 222.681081 
L 121.479983 222.681081 
L 121.815118 222.681081 
L 122.150253 222.681081 
L 122.485389 222.681081 
L 122.820524 222.681081 
L 123.155659 222.681081 
L 123.490794 222.681081 
L 123.825929 222.681081 
L 124.161064 222.681081 
L 124.496199 222.681081 
L 124.831334 222.681081 
L 125.16647 222.681081 
L 125.501605 222.681081 
L 125.83674 222.681081 
L 126.171875 222.681081 
L 126.50701 222.681081 
L 126.842145 222.681081 
L 127.17728 222.681081 
L 127.512416 222.681081 
L 127.847551 222.681081 
L 128.182686 222.681081 
L 128.517821 222.681081 
L 128.852956 222.681081 
L 129.188091 222.681081 
L 129.523226 222.681081 
L 129.858361 222.681081 
L 130.193497 222.681081 
L 130.528632 222.681081 
L 130.863767 222.681081 
L 131.198902 222.681081 
L 131.534037 222.681081 
L 131.869172 222.681081 
L 132.204307 222.681081 
L 132.539443 222.681081 
L 132.874578 222.681081 
L 133.209713 222.681081 
L 133.544848 222.681081 
L 133.879983 222.681081 
L 134.215118 222.681081 
L 134.550253 222.681081 
L 134.885389 222.681081 
L 135.220524 222.681081 
L 135.555659 222.681081 
L 135.890794 222.681081 
L 136.225929 222.681081 
L 136.561064 222.681081 
L 136.896199 222.681081 
L 137.231334 222.681081 
L 137.56647 222.681081 
L 137.901605 222.681081 
L 138.23674 222.681081 
L 138.571875 222.681081 
L 138.90701 222.681081 
L 139.242145 222.681081 
L 139.57728 222.681081 
L 139.912416 222.681081 
L 140.247551 222.681081 
L 140.582686 222.681081 
L 140.917821 222.681081 
L 141.252956 222.681081 
L 141.588091 222.681081 
L 141.923226 222.681081 
L 142.258361 222.681081 
L 142.593497 222.681081 
L 142.928632 222.681081 
L 143.263767 222.681081 
L 143.598902 222.681081 
L 143.934037 222.681081 
L 144.269172 222.681081 
L 144.604307 222.681081 
L 144.939443 222.681081 
L 145.274578 222.681081 
L 145.609713 222.681081 
L 145.944848 222.681081 
L 146.279983 222.681081 
L 146.615118 222.681081 
L 146.950253 222.681081 
L 147.285389 222.681081 
L 147.620524 222.681081 
L 147.955659 222.681081 
L 148.290794 222.681081 
L 148.625929 222.681081 
L 148.961064 222.681081 
L 149.296199 222.681081 
L 149.631334 222.681081 
L 149.96647 222.681081 
L 150.301605 222.681081 
L 150.63674 222.681081 
L 150.971875 222.681081 
L 151.30701 222.681081 
L 151.642145 222.681081 
L 151.97728 222.681081 
L 152.312416 222.681081 
L 152.647551 222.681081 
L 152.982686 222.681081 
L 153.317821 222.681081 
L 153.652956 222.681081 
L 153.988091 222.681081 
L 154.323226 222.681081 
L 154.658361 222.681081 
L 154.993497 222.681081 
L 155.328632 222.681081 
L 155.663767 222.681081 
L 155.998902 222.681081 
L 156.334037 222.681081 
L 156.669172 222.681081 
L 157.004307 222.681081 
L 157.339443 222.681081 
L 157.674578 222.681081 
L 158.009713 222.681081 
L 158.344848 222.681081 
L 158.679983 222.681081 
L 159.015118 222.681081 
L 159.350253 222.681081 
L 159.685389 222.681081 
L 160.020524 222.681081 
L 160.355659 222.681081 
L 160.690794 222.681081 
L 161.025929 222.681081 
L 161.361064 222.681081 
L 161.696199 222.681081 
L 162.031334 222.681081 
L 162.36647 222.681081 
L 162.701605 222.681081 
L 163.03674 222.681081 
L 163.371875 222.681081 
L 163.70701 222.681081 
L 164.042145 222.681081 
L 164.37728 222.681081 
L 164.712416 222.681081 
L 165.047551 222.681081 
L 165.382686 222.681081 
L 165.717821 222.681081 
L 166.052956 222.681081 
L 166.388091 222.681081 
L 166.723226 222.681081 
L 167.058361 222.681081 
L 167.393497 222.681081 
L 167.728632 222.681081 
L 168.063767 222.681081 
L 168.398902 222.681081 
L 168.734037 222.681081 
L 169.069172 222.681081 
L 169.404307 222.681081 
L 169.739443 222.681081 
L 170.074578 222.681081 
L 170.409713 222.681081 
L 170.744848 222.681081 
L 171.079983 222.681081 
L 171.415118 222.681081 
L 171.750253 222.681081 
L 172.085389 222.681081 
L 172.420524 222.681081 
L 172.755659 222.681081 
L 173.090794 222.681081 
L 173.425929 222.681081 
L 173.761064 222.681081 
L 174.096199 222.681081 
L 174.431334 222.681081 
L 174.76647 222.681081 
L 175.101605 222.681081 
L 175.43674 222.681081 
L 175.771875 222.681081 
L 176.10701 222.681081 
L 176.442145 222.681081 
L 176.77728 222.681081 
L 177.112416 222.681081 
L 177.447551 222.681081 
L 177.782686 222.681081 
L 178.117821 222.681081 
L 178.452956 222.681081 
L 178.788091 222.681081 
L 179.123226 222.681081 
L 179.458361 222.681081 
L 179.793497 222.681081 
L 180.128632 222.681081 
L 180.463767 222.681081 
L 180.798902 222.681081 
L 181.134037 222.681081 
L 181.469172 222.681081 
L 181.804307 222.681081 
L 182.139443 222.681081 
L 182.474578 222.681081 
L 182.809713 222.681081 
L 183.144848 222.681081 
L 183.479983 222.681081 
L 183.815118 222.681081 
L 184.150253 222.681081 
L 184.485389 222.681081 
L 184.820524 222.681081 
L 185.155659 222.681081 
L 185.490794 222.681081 
L 185.825929 222.681081 
L 186.161064 222.681081 
L 186.496199 222.681081 
L 186.831334 222.681081 
L 187.16647 222.681081 
L 187.501605 222.681081 
L 187.83674 222.681081 
L 188.171875 222.681081 
L 188.50701 222.681081 
L 188.842145 222.681081 
L 189.17728 222.681081 
L 189.512416 222.681081 
L 189.847551 222.681081 
L 190.182686 222.681081 
L 190.517821 222.681081 
L 190.852956 222.681081 
L 191.188091 222.681081 
L 191.523226 222.681081 
L 191.858361 222.681081 
L 192.193497 222.681081 
L 192.528632 222.681081 
L 192.863767 222.681081 
L 193.198902 222.681081 
L 193.534037 222.681081 
L 193.869172 222.681081 
L 194.204307 222.681081 
L 194.539443 222.681081 
L 194.874578 222.681081 
L 195.209713 222.681081 
L 195.544848 222.681081 
L 195.879983 222.681081 
L 196.215118 222.681081 
L 196.550253 222.681081 
L 196.885389 222.681081 
L 197.220524 222.681081 
L 197.555659 222.681081 
L 197.890794 222.681081 
L 198.225929 222.681081 
L 198.561064 222.681081 
L 198.896199 222.681081 
L 199.231334 222.681081 
L 199.56647 222.681081 
L 199.901605 222.681081 
L 200.23674 222.681081 
L 200.571875 222.681081 
L 200.90701 222.681081 
L 201.242145 222.681081 
L 201.57728 222.681081 
L 201.912416 222.681081 
L 202.247551 222.681081 
L 202.582686 222.681081 
L 202.917821 222.681081 
L 203.252956 222.681081 
L 203.588091 222.681081 
L 203.923226 222.681081 
L 204.258361 222.681081 
L 204.593497 222.681081 
L 204.928632 222.681081 
L 205.263767 222.681081 
L 205.598902 222.681081 
L 205.934037 222.681081 
L 206.269172 222.681081 
L 206.604307 222.681081 
L 206.939443 222.681081 
L 207.274578 222.681081 
L 207.609713 222.681081 
L 207.944848 222.681081 
L 208.279983 222.681081 
L 208.615118 222.681081 
L 208.950253 222.681081 
L 209.285389 222.681081 
L 209.620524 222.681081 
L 209.955659 222.681081 
L 210.290794 222.681081 
L 210.625929 222.681081 
L 210.961064 222.681081 
L 211.296199 222.681081 
L 211.631334 222.681081 
L 211.96647 222.681081 
L 212.301605 222.681081 
L 212.63674 222.681081 
L 212.971875 222.681081 
L 213.30701 222.681081 
L 213.642145 222.681081 
L 213.97728 222.681081 
L 214.312416 222.681081 
L 214.647551 222.681081 
L 214.982686 222.681081 
L 215.317821 222.681081 
L 215.652956 222.681081 
L 215.988091 222.681081 
L 216.323226 222.681081 
L 216.658361 222.681081 
L 216.993497 222.681081 
L 217.328632 222.681081 
L 217.663767 222.681081 
L 217.998902 222.681081 
L 218.334037 222.681081 
L 218.669172 222.681081 
L 219.004307 222.681081 
L 219.339443 222.681081 
L 219.674578 222.681081 
L 220.009713 222.681081 
L 220.344848 222.681081 
L 220.679983 222.681081 
L 221.015118 222.681081 
L 221.350253 222.681081 
L 221.685389 222.681081 
L 222.020524 222.681081 
L 222.355659 222.681081 
L 222.690794 222.681081 
L 223.025929 222.681081 
L 223.361064 222.681081 
L 223.696199 222.681081 
L 224.031334 222.681081 
L 224.36647 222.681081 
L 224.701605 222.681081 
L 225.03674 222.681081 
L 225.371875 222.681081 
L 225.70701 222.681081 
L 226.042145 222.681081 
L 226.37728 222.681081 
L 226.712416 222.681081 
L 227.047551 222.681081 
L 227.382686 222.681081 
L 227.717821 222.681081 
L 228.052956 222.681081 
L 228.388091 222.681081 
L 228.723226 222.681081 
L 229.058361 222.681081 
L 229.393497 222.681081 
L 229.728632 222.681081 
L 230.063767 222.681081 
L 230.398902 222.681081 
L 230.734037 222.681081 
L 231.069172 222.681081 
L 231.404307 222.681081 
L 231.739443 222.681081 
L 232.074578 222.681081 
L 232.409713 222.681081 
L 232.744848 222.681081 
L 233.079983 222.681081 
L 233.415118 222.681081 
L 233.750253 222.681081 
L 234.085389 222.681081 
L 234.420524 222.681081 
L 234.755659 222.681081 
L 235.090794 222.681081 
L 235.425929 222.681081 
L 235.761064 222.681081 
L 236.096199 222.681081 
L 236.431334 222.681081 
L 236.76647 222.681081 
L 237.101605 222.681081 
L 237.43674 222.681081 
L 237.771875 222.681081 
L 238.10701 222.681081 
L 238.442145 222.681081 
L 238.77728 222.681081 
L 239.112416 222.681081 
L 239.447551 222.681081 
L 239.782686 222.681081 
L 240.117821 222.681081 
L 240.452956 222.681081 
L 240.788091 222.681081 
L 241.123226 222.681081 
L 241.458361 222.681081 
L 241.793497 222.681081 
L 242.128632 222.681081 
L 242.463767 222.681081 
L 242.798902 222.681081 
L 243.134037 222.681081 
L 243.469172 222.681081 
L 243.804307 222.681081 
L 244.139443 222.681081 
L 244.474578 222.681081 
L 244.809713 222.681081 
L 245.144848 222.681081 
L 245.479983 222.681081 
L 245.815118 222.681081 
L 246.150253 222.681081 
L 246.485389 222.681081 
L 246.820524 222.681081 
L 247.155659 222.681081 
L 247.490794 222.681081 
L 247.825929 222.681081 
L 248.161064 222.681081 
L 248.496199 222.681081 
L 248.831334 222.681081 
L 249.16647 222.681081 
L 249.501605 222.681081 
L 249.83674 222.681081 
L 250.171875 222.681081 
L 250.50701 222.681081 
L 250.842145 222.681081 
L 251.17728 222.681081 
L 251.512416 222.681081 
L 251.847551 222.681081 
L 252.182686 222.681081 
L 252.517821 222.681081 
L 252.852956 222.681081 
L 253.188091 222.681081 
L 253.523226 222.681081 
L 253.858361 222.681081 
L 254.193497 222.681081 
L 254.528632 222.681081 
L 254.863767 222.681081 
L 255.198902 222.681081 
L 255.534037 222.681081 
L 255.869172 222.681081 
L 256.204307 222.681081 
L 256.539443 222.681081 
L 256.874578 222.681081 
L 257.209713 222.681081 
L 257.544848 222.681081 
L 257.879983 222.681081 
L 258.215118 222.681081 
L 258.550253 222.681081 
L 258.885389 222.681081 
L 259.220524 222.681081 
L 259.555659 222.681081 
L 259.890794 222.681081 
L 260.225929 222.681081 
L 260.561064 222.681081 
L 260.896199 222.681081 
L 261.231334 222.681081 
L 261.56647 222.681081 
L 261.901605 222.681081 
L 262.23674 222.681081 
L 262.571875 222.681081 
L 262.90701 222.681081 
L 263.242145 222.681081 
L 263.57728 222.681081 
L 263.912416 222.681081 
L 264.247551 222.681081 
L 264.582686 222.681081 
L 264.917821 222.681081 
L 265.252956 222.681081 
L 265.588091 222.681081 
L 265.923226 222.681081 
L 266.258361 222.681081 
L 266.593497 222.681081 
L 266.928632 222.681081 
L 267.263767 222.681081 
L 267.598902 222.681081 
L 267.934037 222.681081 
L 268.269172 222.681081 
L 268.604307 222.681081 
L 268.939443 222.681081 
L 269.274578 222.681081 
L 269.609713 222.681081 
L 269.944848 222.681081 
L 270.279983 222.681081 
L 270.615118 222.681081 
L 270.950253 222.681081 
L 271.285389 222.681081 
L 271.620524 222.681081 
L 271.955659 222.681081 
L 272.290794 222.681081 
L 272.625929 222.681081 
L 272.961064 222.681081 
L 273.296199 222.681081 
L 273.631334 222.681081 
L 273.96647 222.681081 
L 274.301605 222.681081 
L 274.63674 222.681081 
L 274.971875 222.681081 
L 275.30701 222.681081 
L 275.642145 222.681081 
L 275.97728 222.681081 
L 276.312416 222.681081 
L 276.647551 222.681081 
L 276.982686 222.681081 
L 277.317821 222.681081 
L 277.652956 222.681081 
L 277.988091 222.681081 
L 278.323226 222.681081 
L 278.658361 222.681081 
L 278.993497 222.681081 
L 279.328632 222.681081 
L 279.663767 222.681081 
L 279.998902 222.681081 
L 280.334037 222.681081 
L 280.669172 222.681081 
L 281.004307 222.681081 
L 281.339443 222.681081 
L 281.674578 222.681081 
L 282.009713 222.681081 
L 282.344848 222.681081 
L 282.679983 222.681081 
L 283.015118 222.681081 
L 283.350253 222.681081 
L 283.685389 222.681081 
L 284.020524 222.681081 
L 284.355659 222.681081 
L 284.690794 222.681081 
L 285.025929 222.681081 
L 285.361064 222.681081 
L 285.696199 222.681081 
L 286.031334 222.681081 
L 286.36647 222.681081 
L 286.701605 222.681081 
L 287.03674 222.681081 
L 287.371875 222.681081 
L 287.70701 222.681081 
L 288.042145 222.681081 
L 288.37728 222.681081 
L 288.712416 222.681081 
L 289.047551 222.681081 
L 289.382686 222.681081 
L 289.717821 222.681081 
L 290.052956 222.681081 
L 290.388091 222.681081 
L 290.723226 222.681081 
L 291.058361 222.681081 
L 291.393497 222.681081 
L 291.728632 222.681081 
L 292.063767 222.681081 
L 292.398902 222.681081 
L 292.734037 222.681081 
L 293.069172 222.681081 
L 293.404307 222.681081 
L 293.739443 222.681081 
L 294.074578 222.681081 
L 294.409713 222.681081 
L 294.744848 222.681081 
L 295.079983 222.681081 
L 295.415118 222.681081 
L 295.750253 222.681081 
L 296.085389 222.681081 
L 296.420524 222.681081 
L 296.755659 222.681081 
L 297.090794 222.681081 
L 297.425929 222.681081 
L 297.761064 222.681081 
L 298.096199 222.681081 
L 298.431334 222.681081 
L 298.76647 222.681081 
L 299.101605 222.681081 
L 299.43674 222.681081 
L 299.771875 222.681081 
L 300.10701 222.681081 
L 300.442145 222.681081 
L 300.77728 222.681081 
L 301.112416 222.681081 
L 301.447551 222.681081 
L 301.782686 222.681081 
L 302.117821 222.681081 
L 302.452956 222.681081 
L 302.788091 222.681081 
L 303.123226 222.681081 
L 303.458361 222.681081 
L 303.793497 222.681081 
L 304.128632 222.681081 
L 304.463767 222.681081 
L 304.798902 222.681081 
L 305.134037 222.681081 
L 305.469172 222.681081 
L 305.804307 222.681081 
L 306.139443 222.681081 
L 306.474578 222.681081 
L 306.809713 222.681081 
L 307.144848 222.681081 
L 307.479983 222.681081 
L 307.815118 222.681081 
L 308.150253 222.681081 
L 308.485389 222.681081 
L 308.820524 222.681081 
L 309.155659 222.681081 
L 309.490794 222.681081 
L 309.825929 222.681081 
L 310.161064 222.681081 
L 310.496199 222.681081 
L 310.831334 222.681081 
L 311.16647 222.681081 
L 311.501605 222.681081 
L 311.83674 222.681081 
L 312.171875 222.681081 
L 312.50701 222.681081 
L 312.842145 222.681081 
L 313.17728 222.681081 
L 313.512416 222.681081 
L 313.847551 222.681081 
L 314.182686 222.681081 
L 314.517821 222.681081 
L 314.852956 222.681081 
L 315.188091 222.681081 
L 315.523226 222.681081 
L 315.858361 222.681081 
L 316.193497 222.681081 
L 316.528632 222.681081 
L 316.863767 222.681081 
L 317.198902 222.681081 
L 317.534037 222.681081 
L 317.869172 222.681081 
L 318.204307 222.681081 
L 318.539443 222.681081 
L 318.874578 222.681081 
L 319.209713 222.681081 
L 319.544848 222.681081 
L 319.879983 222.681081 
L 320.215118 222.681081 
L 320.550253 222.681081 
L 320.885389 222.681081 
L 321.220524 222.681081 
L 321.555659 222.681081 
L 321.890794 222.681081 
L 322.225929 222.681081 
L 322.561064 222.681081 
L 322.896199 222.681081 
L 323.231334 222.681081 
L 323.56647 222.681081 
L 323.901605 222.681081 
L 324.23674 222.681081 
L 324.571875 222.681081 
L 324.90701 222.681081 
L 325.242145 222.681081 
L 325.57728 222.681081 
L 325.912416 222.681081 
L 326.247551 222.681081 
L 326.582686 222.681081 
L 326.917821 222.681081 
L 327.252956 222.681081 
L 327.588091 222.681081 
L 327.923226 222.681081 
L 328.258361 222.681081 
L 328.593497 222.681081 
L 328.928632 222.681081 
L 329.263767 222.681081 
L 329.598902 222.681081 
L 329.934037 222.681081 
L 330.269172 222.681081 
L 330.604307 222.681081 
L 330.939443 222.681081 
L 331.274578 222.681081 
L 331.609713 222.681081 
L 331.944848 222.681081 
L 332.279983 222.681081 
L 332.615118 222.681081 
L 332.950253 222.681081 
L 333.285389 222.681081 
L 333.620524 222.681081 
L 333.955659 222.681081 
L 334.290794 222.681081 
L 334.625929 222.681081 
L 334.961064 222.681081 
L 335.296199 222.681081 
L 335.631334 222.681081 
L 335.96647 222.681081 
L 336.301605 222.681081 
L 336.63674 222.681081 
L 336.971875 222.681081 
L 337.30701 222.681081 
L 337.642145 222.681081 
L 337.97728 222.681081 
L 338.312416 222.681081 
L 338.647551 222.681081 
L 338.982686 222.681081 
L 339.317821 222.681081 
L 339.652956 222.681081 
L 339.988091 222.681081 
L 340.323226 222.681081 
L 340.658361 222.681081 
L 340.993497 222.681081 
L 341.328632 222.681081 
L 341.663767 222.681081 
L 341.998902 222.681081 
L 342.334037 222.681081 
L 342.669172 222.681081 
L 343.004307 222.681081 
L 343.339443 222.681081 
L 343.674578 222.681081 
L 344.009713 222.681081 
L 344.344848 222.681081 
L 344.679983 222.681081 
L 345.015118 222.681081 
L 345.350253 222.681081 
L 345.685389 222.681081 
L 346.020524 222.681081 
L 346.355659 222.681081 
L 346.690794 222.681081 
L 347.025929 222.681081 
L 347.361064 222.681081 
L 347.696199 222.681081 
L 348.031334 222.681081 
L 348.36647 222.681081 
L 348.701605 222.681081 
L 349.03674 222.681081 
L 349.371875 222.681081 
L 349.70701 222.681081 
L 350.042145 222.681081 
L 350.37728 222.681081 
L 350.712416 222.681081 
L 351.047551 222.681081 
L 351.382686 222.681081 
L 351.717821 222.681081 
L 352.052956 222.681081 
L 352.388091 222.681081 
L 352.723226 222.681081 
L 353.058361 222.681081 
L 353.393497 222.681081 
L 353.728632 222.681081 
L 354.063767 222.681081 
L 354.398902 222.681081 
L 354.734037 222.681081 
L 355.069172 222.681081 
L 355.404307 222.681081 
L 355.739443 222.681081 
L 356.074578 222.681081 
L 356.409713 222.681081 
L 356.744848 222.681081 
L 357.079983 222.681081 
L 357.415118 222.681081 
L 357.750253 222.681081 
L 358.085389 222.681081 
L 358.420524 222.681081 
L 358.755659 222.681081 
L 359.090794 222.681081 
L 359.425929 222.681081 
L 359.761064 222.681081 
L 360.096199 222.681081 
L 360.431334 222.681081 
L 360.76647 222.681081 
L 361.101605 222.681081 
L 361.43674 222.681081 
L 361.771875 222.681081 
L 362.10701 222.681081 
L 362.442145 222.681081 
L 362.77728 222.681081 
L 363.112416 222.681081 
L 363.447551 222.681081 
L 363.782686 222.681081 
L 364.117821 222.681081 
L 364.452956 222.681081 
L 364.788091 222.681081 
L 365.123226 222.681081 
L 365.458361 222.681081 
L 365.793497 222.681081 
L 366.128632 222.681081 
L 366.463767 222.681081 
L 366.798902 222.681081 
L 367.134037 222.681081 
L 367.469172 222.681081 
L 367.804307 222.681081 
L 368.139443 222.681081 
L 368.474578 222.681081 
L 368.809713 222.681081 
L 369.144848 222.681081 
L 369.479983 222.681081 
L 369.815118 222.681081 
L 370.150253 222.681081 
L 370.485389 222.681081 
L 370.820524 222.681081 
L 371.155659 222.681081 
L 371.490794 222.681081 
L 371.825929 222.681081 
L 372.161064 222.681081 
L 372.496199 222.681081 
L 372.831334 222.681081 
L 373.16647 222.681081 
L 373.501605 222.681081 
L 373.83674 222.681081 
L 374.171875 222.681081 
L 374.50701 222.681081 
L 374.842145 222.681081 
L 375.17728 222.681081 
L 375.512416 222.681081 
L 375.847551 222.681081 
L 376.182686 222.681081 
L 376.517821 222.681081 
L 376.852956 222.681081 
L 377.188091 222.681081 
L 377.523226 222.681081 
L 377.858361 222.681081 
L 378.193497 222.681081 
L 378.528632 222.681081 
L 378.863767 222.681081 
L 379.198902 222.681081 
L 379.534037 222.681081 
L 379.869172 222.681081 
L 380.204307 222.681081 
L 380.539443 222.681081 
L 380.874578 222.681081 
L 381.209713 222.681081 
L 381.544848 222.681081 
L 381.879983 222.681081 
L 382.215118 222.681081 
L 382.550253 222.681081 
L 382.885389 222.681081 
L 383.220524 222.681081 
L 383.555659 222.681081 
L 383.890794 222.681081 
L 384.225929 222.681081 
L 384.561064 222.681081 
L 384.896199 222.681081 
L 385.231334 222.681081 
L 385.56647 222.681081 
L 385.901605 222.681081 
L 386.23674 222.681081 
L 386.571875 222.681081 
L 386.571875 222.681081 
L 386.571875 222.681081 
L 386.23674 222.681081 
L 385.901605 222.681081 
L 385.56647 222.681081 
L 385.231334 222.681081 
L 384.896199 222.681081 
L 384.561064 222.681081 
L 384.225929 222.681081 
L 383.890794 222.681081 
L 383.555659 222.681081 
L 383.220524 222.681081 
L 382.885389 222.681081 
L 382.550253 222.681081 
L 382.215118 222.681081 
L 381.879983 222.681081 
L 381.544848 222.681081 
L 381.209713 222.681081 
L 380.874578 222.681081 
L 380.539443 222.681081 
L 380.204307 222.681081 
L 379.869172 222.681081 
L 379.534037 222.681081 
L 379.198902 222.681081 
L 378.863767 222.681081 
L 378.528632 222.681081 
L 378.193497 222.681081 
L 377.858361 222.681081 
L 377.523226 222.681081 
L 377.188091 222.681081 
L 376.852956 222.681081 
L 376.517821 222.681081 
L 376.182686 222.681081 
L 375.847551 222.681081 
L 375.512416 222.681081 
L 375.17728 222.681081 
L 374.842145 222.681081 
L 374.50701 222.681081 
L 374.171875 222.681081 
L 373.83674 222.681081 
L 373.501605 222.681081 
L 373.16647 222.681081 
L 372.831334 222.681081 
L 372.496199 222.681081 
L 372.161064 222.681081 
L 371.825929 222.681081 
L 371.490794 222.681081 
L 371.155659 222.681081 
L 370.820524 222.681081 
L 370.485389 222.681081 
L 370.150253 222.681081 
L 369.815118 222.681081 
L 369.479983 222.681081 
L 369.144848 222.681081 
L 368.809713 222.681081 
L 368.474578 222.681081 
L 368.139443 222.681081 
L 367.804307 222.681081 
L 367.469172 222.681081 
L 367.134037 222.681081 
L 366.798902 222.681081 
L 366.463767 222.681081 
L 366.128632 222.681081 
L 365.793497 222.681081 
L 365.458361 222.681081 
L 365.123226 222.681081 
L 364.788091 222.681081 
L 364.452956 222.681081 
L 364.117821 222.681081 
L 363.782686 222.681081 
L 363.447551 222.681081 
L 363.112416 222.681081 
L 362.77728 222.681081 
L 362.442145 222.681081 
L 362.10701 222.681081 
L 361.771875 222.681081 
L 361.43674 222.681081 
L 361.101605 222.681081 
L 360.76647 222.681081 
L 360.431334 222.681081 
L 360.096199 222.681081 
L 359.761064 222.681081 
L 359.425929 222.681081 
L 359.090794 222.681081 
L 358.755659 222.681081 
L 358.420524 26.789189 
L 358.085389 26.789189 
L 357.750253 26.789189 
L 357.415118 26.789189 
L 357.079983 26.789189 
L 356.744848 26.789189 
L 356.409713 26.789189 
L 356.074578 26.789189 
L 355.739443 26.789189 
L 355.404307 26.789189 
L 355.069172 26.789189 
L 354.734037 26.789189 
L 354.398902 26.789189 
L 354.063767 26.789189 
L 353.728632 26.789189 
L 353.393497 26.789189 
L 353.058361 26.789189 
L 352.723226 26.789189 
L 352.388091 26.789189 
L 352.052956 26.789189 
L 351.717821 26.789189 
L 351.382686 26.789189 
L 351.047551 26.789189 
L 350.712416 26.789189 
L 350.37728 26.789189 
L 350.042145 26.789189 
L 349.70701 26.789189 
L 349.371875 26.789189 
L 349.03674 26.789189 
L 348.701605 26.789189 
L 348.36647 26.789189 
L 348.031334 26.789189 
L 347.696199 26.789189 
L 347.361064 26.789189 
L 347.025929 26.789189 
L 346.690794 26.789189 
L 346.355659 26.789189 
L 346.020524 26.789189 
L 345.685389 26.789189 
L 345.350253 26.789189 
L 345.015118 26.789189 
L 344.679983 26.789189 
L 344.344848 26.789189 
L 344.009713 26.789189 
L 343.674578 26.789189 
L 343.339443 26.789189 
L 343.004307 26.789189 
L 342.669172 26.789189 
L 342.334037 26.789189 
L 341.998902 26.789189 
L 341.663767 26.789189 
L 341.328632 26.789189 
L 340.993497 26.789189 
L 340.658361 26.789189 
L 340.323226 26.789189 
L 339.988091 26.789189 
L 339.652956 26.789189 
L 339.317821 26.789189 
L 338.982686 26.789189 
L 338.647551 26.789189 
L 338.312416 26.789189 
L 337.97728 26.789189 
L 337.642145 26.789189 
L 337.30701 26.789189 
L 336.971875 26.789189 
L 336.63674 26.789189 
L 336.301605 26.789189 
L 335.96647 26.789189 
L 335.631334 26.789189 
L 335.296199 26.789189 
L 334.961064 26.789189 
L 334.625929 26.789189 
L 334.290794 26.789189 
L 333.955659 26.789189 
L 333.620524 26.789189 
L 333.285389 26.789189 
L 332.950253 26.789189 
L 332.615118 26.789189 
L 332.279983 26.789189 
L 331.944848 26.789189 
L 331.609713 26.789189 
L 331.274578 26.789189 
L 330.939443 26.789189 
L 330.604307 26.789189 
L 330.269172 26.789189 
L 329.934037 26.789189 
L 329.598902 26.789189 
L 329.263767 26.789189 
L 328.928632 26.789189 
L 328.593497 26.789189 
L 328.258361 26.789189 
L 327.923226 26.789189 
L 327.588091 26.789189 
L 327.252956 26.789189 
L 326.917821 26.789189 
L 326.582686 26.789189 
L 326.247551 26.789189 
L 325.912416 26.789189 
L 325.57728 26.789189 
L 325.242145 26.789189 
L 324.90701 26.789189 
L 324.571875 26.789189 
L 324.23674 26.789189 
L 323.901605 26.789189 
L 323.56647 26.789189 
L 323.231334 26.789189 
L 322.896199 26.789189 
L 322.561064 26.789189 
L 322.225929 26.789189 
L 321.890794 26.789189 
L 321.555659 26.789189 
L 321.220524 26.789189 
L 320.885389 26.789189 
L 320.550253 26.789189 
L 320.215118 26.789189 
L 319.879983 26.789189 
L 319.544848 26.789189 
L 319.209713 26.789189 
L 318.874578 26.789189 
L 318.539443 26.789189 
L 318.204307 26.789189 
L 317.869172 26.789189 
L 317.534037 26.789189 
L 317.198902 26.789189 
L 316.863767 26.789189 
L 316.528632 26.789189 
L 316.193497 26.789189 
L 315.858361 26.789189 
L 315.523226 26.789189 
L 315.188091 26.789189 
L 314.852956 26.789189 
L 314.517821 26.789189 
L 314.182686 26.789189 
L 313.847551 26.789189 
L 313.512416 26.789189 
L 313.17728 26.789189 
L 312.842145 26.789189 
L 312.50701 26.789189 
L 312.171875 26.789189 
L 311.83674 26.789189 
L 311.501605 26.789189 
L 311.16647 26.789189 
L 310.831334 26.789189 
L 310.496199 26.789189 
L 310.161064 26.789189 
L 309.825929 26.789189 
L 309.490794 26.789189 
L 309.155659 26.789189 
L 308.820524 26.789189 
L 308.485389 26.789189 
L 308.150253 26.789189 
L 307.815118 26.789189 
L 307.479983 26.789189 
L 307.144848 26.789189 
L 306.809713 26.789189 
L 306.474578 26.789189 
L 306.139443 26.789189 
L 305.804307 26.789189 
L 305.469172 26.789189 
L 305.134037 26.789189 
L 304.798902 26.789189 
L 304.463767 26.789189 
L 304.128632 26.789189 
L 303.793497 26.789189 
L 303.458361 26.789189 
L 303.123226 26.789189 
L 302.788091 26.789189 
L 302.452956 26.789189 
L 302.117821 26.789189 
L 301.782686 26.789189 
L 301.447551 26.789189 
L 301.112416 26.789189 
L 300.77728 26.789189 
L 300.442145 26.789189 
L 300.10701 26.789189 
L 299.771875 26.789189 
L 299.43674 26.789189 
L 299.101605 26.789189 
L 298.76647 26.789189 
L 298.431334 26.789189 
L 298.096199 26.789189 
L 297.761064 26.789189 
L 297.425929 26.789189 
L 297.090794 26.789189 
L 296.755659 26.789189 
L 296.420524 26.789189 
L 296.085389 26.789189 
L 295.750253 26.789189 
L 295.415118 26.789189 
L 295.079983 26.789189 
L 294.744848 26.789189 
L 294.409713 26.789189 
L 294.074578 26.789189 
L 293.739443 26.789189 
L 293.404307 26.789189 
L 293.069172 26.789189 
L 292.734037 26.789189 
L 292.398902 26.789189 
L 292.063767 26.789189 
L 291.728632 26.789189 
L 291.393497 26.789189 
L 291.058361 26.789189 
L 290.723226 26.789189 
L 290.388091 26.789189 
L 290.052956 26.789189 
L 289.717821 26.789189 
L 289.382686 26.789189 
L 289.047551 26.789189 
L 288.712416 26.789189 
L 288.37728 26.789189 
L 288.042145 26.789189 
L 287.70701 26.789189 
L 287.371875 26.789189 
L 287.03674 26.789189 
L 286.701605 26.789189 
L 286.36647 26.789189 
L 286.031334 26.789189 
L 285.696199 26.789189 
L 285.361064 26.789189 
L 285.025929 26.789189 
L 284.690794 26.789189 
L 284.355659 26.789189 
L 284.020524 26.789189 
L 283.685389 26.789189 
L 283.350253 26.789189 
L 283.015118 26.789189 
L 282.679983 26.789189 
L 282.344848 26.789189 
L 282.009713 26.789189 
L 281.674578 26.789189 
L 281.339443 26.789189 
L 281.004307 26.789189 
L 280.669172 26.789189 
L 280.334037 26.789189 
L 279.998902 26.789189 
L 279.663767 26.789189 
L 279.328632 26.789189 
L 278.993497 26.789189 
L 278.658361 26.789189 
L 278.323226 26.789189 
L 277.988091 26.789189 
L 277.652956 26.789189 
L 277.317821 26.789189 
L 276.982686 26.789189 
L 276.647551 26.789189 
L 276.312416 26.789189 
L 275.97728 26.789189 
L 275.642145 26.789189 
L 275.30701 26.789189 
L 274.971875 26.789189 
L 274.63674 26.789189 
L 274.301605 26.789189 
L 273.96647 26.789189 
L 273.631334 26.789189 
L 273.296199 26.789189 
L 272.961064 26.789189 
L 272.625929 26.789189 
L 272.290794 26.789189 
L 271.955659 26.789189 
L 271.620524 26.789189 
L 271.285389 26.789189 
L 270.950253 26.789189 
L 270.615118 26.789189 
L 270.279983 26.789189 
L 269.944848 26.789189 
L 269.609713 26.789189 
L 269.274578 26.789189 
L 268.939443 26.789189 
L 268.604307 26.789189 
L 268.269172 26.789189 
L 267.934037 26.789189 
L 267.598902 26.789189 
L 267.263767 26.789189 
L 266.928632 26.789189 
L 266.593497 26.789189 
L 266.258361 26.789189 
L 265.923226 26.789189 
L 265.588091 26.789189 
L 265.252956 26.789189 
L 264.917821 26.789189 
L 264.582686 26.789189 
L 264.247551 26.789189 
L 263.912416 26.789189 
L 263.57728 26.789189 
L 263.242145 26.789189 
L 262.90701 26.789189 
L 262.571875 26.789189 
L 262.23674 26.789189 
L 261.901605 26.789189 
L 261.56647 26.789189 
L 261.231334 26.789189 
L 260.896199 26.789189 
L 260.561064 26.789189 
L 260.225929 26.789189 
L 259.890794 26.789189 
L 259.555659 26.789189 
L 259.220524 26.789189 
L 258.885389 26.789189 
L 258.550253 26.789189 
L 258.215118 26.789189 
L 257.879983 26.789189 
L 257.544848 26.789189 
L 257.209713 26.789189 
L 256.874578 26.789189 
L 256.539443 26.789189 
L 256.204307 26.789189 
L 255.869172 26.789189 
L 255.534037 26.789189 
L 255.198902 26.789189 
L 254.863767 26.789189 
L 254.528632 26.789189 
L 254.193497 26.789189 
L 253.858361 26.789189 
L 253.523226 26.789189 
L 253.188091 26.789189 
L 252.852956 26.789189 
L 252.517821 26.789189 
L 252.182686 26.789189 
L 251.847551 26.789189 
L 251.512416 26.789189 
L 251.17728 26.789189 
L 250.842145 26.789189 
L 250.50701 26.789189 
L 250.171875 26.789189 
L 249.83674 26.789189 
L 249.501605 26.789189 
L 249.16647 26.789189 
L 248.831334 26.789189 
L 248.496199 26.789189 
L 248.161064 26.789189 
L 247.825929 26.789189 
L 247.490794 26.789189 
L 247.155659 26.789189 
L 246.820524 26.789189 
L 246.485389 26.789189 
L 246.150253 26.789189 
L 245.815118 26.789189 
L 245.479983 26.789189 
L 245.144848 26.789189 
L 244.809713 26.789189 
L 244.474578 26.789189 
L 244.139443 26.789189 
L 243.804307 26.789189 
L 243.469172 26.789189 
L 243.134037 26.789189 
L 242.798902 26.789189 
L 242.463767 26.789189 
L 242.128632 26.789189 
L 241.793497 26.789189 
L 241.458361 26.789189 
L 241.123226 26.789189 
L 240.788091 26.789189 
L 240.452956 26.789189 
L 240.117821 26.789189 
L 239.782686 26.789189 
L 239.447551 26.789189 
L 239.112416 26.789189 
L 238.77728 26.789189 
L 238.442145 26.789189 
L 238.10701 26.789189 
L 237.771875 26.789189 
L 237.43674 26.789189 
L 237.101605 26.789189 
L 236.76647 26.789189 
L 236.431334 26.789189 
L 236.096199 26.789189 
L 235.761064 26.789189 
L 235.425929 26.789189 
L 235.090794 26.789189 
L 234.755659 26.789189 
L 234.420524 26.789189 
L 234.085389 26.789189 
L 233.750253 26.789189 
L 233.415118 26.789189 
L 233.079983 26.789189 
L 232.744848 26.789189 
L 232.409713 26.789189 
L 232.074578 26.789189 
L 231.739443 26.789189 
L 231.404307 26.789189 
L 231.069172 26.789189 
L 230.734037 26.789189 
L 230.398902 26.789189 
L 230.063767 26.789189 
L 229.728632 26.789189 
L 229.393497 26.789189 
L 229.058361 26.789189 
L 228.723226 26.789189 
L 228.388091 26.789189 
L 228.052956 26.789189 
L 227.717821 26.789189 
L 227.382686 26.789189 
L 227.047551 26.789189 
L 226.712416 26.789189 
L 226.37728 26.789189 
L 226.042145 26.789189 
L 225.70701 26.789189 
L 225.371875 26.789189 
L 225.03674 26.789189 
L 224.701605 26.789189 
L 224.36647 26.789189 
L 224.031334 26.789189 
L 223.696199 26.789189 
L 223.361064 26.789189 
L 223.025929 26.789189 
L 222.690794 26.789189 
L 222.355659 26.789189 
L 222.020524 26.789189 
L 221.685389 26.789189 
L 221.350253 26.789189 
L 221.015118 26.789189 
L 220.679983 26.789189 
L 220.344848 26.789189 
L 220.009713 26.789189 
L 219.674578 26.789189 
L 219.339443 26.789189 
L 219.004307 26.789189 
L 218.669172 26.789189 
L 218.334037 26.789189 
L 217.998902 26.789189 
L 217.663767 26.789189 
L 217.328632 26.789189 
L 216.993497 26.789189 
L 216.658361 26.789189 
L 216.323226 26.789189 
L 215.988091 26.789189 
L 215.652956 26.789189 
L 215.317821 26.789189 
L 214.982686 26.789189 
L 214.647551 26.789189 
L 214.312416 26.789189 
L 213.97728 26.789189 
L 213.642145 26.789189 
L 213.30701 26.789189 
L 212.971875 26.789189 
L 212.63674 26.789189 
L 212.301605 26.789189 
L 211.96647 26.789189 
L 211.631334 26.789189 
L 211.296199 26.789189 
L 210.961064 26.789189 
L 210.625929 26.789189 
L 210.290794 26.789189 
L 209.955659 26.789189 
L 209.620524 26.789189 
L 209.285389 26.789189 
L 208.950253 26.789189 
L 208.615118 26.789189 
L 208.279983 26.789189 
L 207.944848 26.789189 
L 207.609713 26.789189 
L 207.274578 26.789189 
L 206.939443 26.789189 
L 206.604307 26.789189 
L 206.269172 26.789189 
L 205.934037 26.789189 
L 205.598902 26.789189 
L 205.263767 26.789189 
L 204.928632 26.789189 
L 204.593497 26.789189 
L 204.258361 26.789189 
L 203.923226 26.789189 
L 203.588091 26.789189 
L 203.252956 26.789189 
L 202.917821 26.789189 
L 202.582686 26.789189 
L 202.247551 26.789189 
L 201.912416 26.789189 
L 201.57728 26.789189 
L 201.242145 26.789189 
L 200.90701 26.789189 
L 200.571875 26.789189 
L 200.23674 26.789189 
L 199.901605 26.789189 
L 199.56647 26.789189 
L 199.231334 26.789189 
L 198.896199 26.789189 
L 198.561064 26.789189 
L 198.225929 26.789189 
L 197.890794 26.789189 
L 197.555659 26.789189 
L 197.220524 26.789189 
L 196.885389 26.789189 
L 196.550253 26.789189 
L 196.215118 26.789189 
L 195.879983 26.789189 
L 195.544848 26.789189 
L 195.209713 26.789189 
L 194.874578 26.789189 
L 194.539443 26.789189 
L 194.204307 26.789189 
L 193.869172 26.789189 
L 193.534037 26.789189 
L 193.198902 26.789189 
L 192.863767 26.789189 
L 192.528632 26.789189 
L 192.193497 26.789189 
L 191.858361 26.789189 
L 191.523226 26.789189 
L 191.188091 26.789189 
L 190.852956 26.789189 
L 190.517821 26.789189 
L 190.182686 26.789189 
L 189.847551 26.789189 
L 189.512416 26.789189 
L 189.17728 26.789189 
L 188.842145 26.789189 
L 188.50701 26.789189 
L 188.171875 26.789189 
L 187.83674 26.789189 
L 187.501605 26.789189 
L 187.16647 26.789189 
L 186.831334 26.789189 
L 186.496199 26.789189 
L 186.161064 26.789189 
L 185.825929 26.789189 
L 185.490794 26.789189 
L 185.155659 26.789189 
L 184.820524 26.789189 
L 184.485389 26.789189 
L 184.150253 26.789189 
L 183.815118 26.789189 
L 183.479983 26.789189 
L 183.144848 26.789189 
L 182.809713 26.789189 
L 182.474578 26.789189 
L 182.139443 26.789189 
L 181.804307 26.789189 
L 181.469172 26.789189 
L 181.134037 26.789189 
L 180.798902 26.789189 
L 180.463767 26.789189 
L 180.128632 26.789189 
L 179.793497 26.789189 
L 179.458361 26.789189 
L 179.123226 26.789189 
L 178.788091 26.789189 
L 178.452956 26.789189 
L 178.117821 26.789189 
L 177.782686 26.789189 
L 177.447551 26.789189 
L 177.112416 26.789189 
L 176.77728 26.789189 
L 176.442145 26.789189 
L 176.10701 26.789189 
L 175.771875 26.789189 
L 175.43674 26.789189 
L 175.101605 26.789189 
L 174.76647 26.789189 
L 174.431334 26.789189 
L 174.096199 26.789189 
L 173.761064 26.789189 
L 173.425929 26.789189 
L 173.090794 26.789189 
L 172.755659 26.789189 
L 172.420524 26.789189 
L 172.085389 26.789189 
L 171.750253 26.789189 
L 171.415118 26.789189 
L 171.079983 26.789189 
L 170.744848 26.789189 
L 170.409713 26.789189 
L 170.074578 26.789189 
L 169.739443 26.789189 
L 169.404307 26.789189 
L 169.069172 26.789189 
L 168.734037 26.789189 
L 168.398902 26.789189 
L 168.063767 26.789189 
L 167.728632 26.789189 
L 167.393497 26.789189 
L 167.058361 26.789189 
L 166.723226 26.789189 
L 166.388091 26.789189 
L 166.052956 26.789189 
L 165.717821 26.789189 
L 165.382686 26.789189 
L 165.047551 26.789189 
L 164.712416 26.789189 
L 164.37728 26.789189 
L 164.042145 26.789189 
L 163.70701 26.789189 
L 163.371875 26.789189 
L 163.03674 26.789189 
L 162.701605 26.789189 
L 162.36647 26.789189 
L 162.031334 26.789189 
L 161.696199 26.789189 
L 161.361064 26.789189 
L 161.025929 26.789189 
L 160.690794 26.789189 
L 160.355659 26.789189 
L 160.020524 26.789189 
L 159.685389 26.789189 
L 159.350253 26.789189 
L 159.015118 26.789189 
L 158.679983 26.789189 
L 158.344848 26.789189 
L 158.009713 26.789189 
L 157.674578 26.789189 
L 157.339443 26.789189 
L 157.004307 26.789189 
L 156.669172 26.789189 
L 156.334037 26.789189 
L 155.998902 26.789189 
L 155.663767 26.789189 
L 155.328632 26.789189 
L 154.993497 26.789189 
L 154.658361 26.789189 
L 154.323226 26.789189 
L 153.988091 26.789189 
L 153.652956 26.789189 
L 153.317821 26.789189 
L 152.982686 26.789189 
L 152.647551 26.789189 
L 152.312416 26.789189 
L 151.97728 26.789189 
L 151.642145 26.789189 
L 151.30701 26.789189 
L 150.971875 26.789189 
L 150.63674 26.789189 
L 150.301605 26.789189 
L 149.96647 26.789189 
L 149.631334 26.789189 
L 149.296199 26.789189 
L 148.961064 26.789189 
L 148.625929 26.789189 
L 148.290794 26.789189 
L 147.955659 26.789189 
L 147.620524 26.789189 
L 147.285389 26.789189 
L 146.950253 26.789189 
L 146.615118 26.789189 
L 146.279983 26.789189 
L 145.944848 26.789189 
L 145.609713 26.789189 
L 145.274578 26.789189 
L 144.939443 26.789189 
L 144.604307 26.789189 
L 144.269172 26.789189 
L 143.934037 26.789189 
L 143.598902 26.789189 
L 143.263767 26.789189 
L 142.928632 26.789189 
L 142.593497 26.789189 
L 142.258361 26.789189 
L 141.923226 26.789189 
L 141.588091 26.789189 
L 141.252956 26.789189 
L 140.917821 26.789189 
L 140.582686 26.789189 
L 140.247551 26.789189 
L 139.912416 26.789189 
L 139.57728 26.789189 
L 139.242145 26.789189 
L 138.90701 26.789189 
L 138.571875 26.789189 
L 138.23674 26.789189 
L 137.901605 26.789189 
L 137.56647 26.789189 
L 137.231334 26.789189 
L 136.896199 26.789189 
L 136.561064 26.789189 
L 136.225929 26.789189 
L 135.890794 26.789189 
L 135.555659 26.789189 
L 135.220524 26.789189 
L 134.885389 26.789189 
L 134.550253 26.789189 
L 134.215118 26.789189 
L 133.879983 26.789189 
L 133.544848 26.789189 
L 133.209713 26.789189 
L 132.874578 26.789189 
L 132.539443 26.789189 
L 132.204307 26.789189 
L 131.869172 26.789189 
L 131.534037 26.789189 
L 131.198902 26.789189 
L 130.863767 26.789189 
L 130.528632 26.789189 
L 130.193497 26.789189 
L 129.858361 26.789189 
L 129.523226 26.789189 
L 129.188091 26.789189 
L 128.852956 26.789189 
L 128.517821 26.789189 
L 128.182686 26.789189 
L 127.847551 26.789189 
L 127.512416 26.789189 
L 127.17728 26.789189 
L 126.842145 26.789189 
L 126.50701 26.789189 
L 126.171875 26.789189 
L 125.83674 26.789189 
L 125.501605 26.789189 
L 125.16647 26.789189 
L 124.831334 26.789189 
L 124.496199 26.789189 
L 124.161064 26.789189 
L 123.825929 26.789189 
L 123.490794 26.789189 
L 123.155659 26.789189 
L 122.820524 26.789189 
L 122.485389 26.789189 
L 122.150253 26.789189 
L 121.815118 26.789189 
L 121.479983 26.789189 
L 121.144848 26.789189 
L 120.809713 26.789189 
L 120.474578 26.789189 
L 120.139443 26.789189 
L 119.804307 26.789189 
L 119.469172 26.789189 
L 119.134037 26.789189 
L 118.798902 26.789189 
L 118.463767 26.789189 
L 118.128632 26.789189 
L 117.793497 26.789189 
L 117.458361 26.789189 
L 117.123226 26.789189 
L 116.788091 26.789189 
L 116.452956 26.789189 
L 116.117821 26.789189 
L 115.782686 26.789189 
L 115.447551 26.789189 
L 115.112416 26.789189 
L 114.77728 26.789189 
L 114.442145 26.789189 
L 114.10701 26.789189 
L 113.771875 26.789189 
L 113.43674 26.789189 
L 113.101605 26.789189 
L 112.76647 26.789189 
L 112.431334 26.789189 
L 112.096199 26.789189 
L 111.761064 26.789189 
L 111.425929 26.789189 
L 111.090794 26.789189 
L 110.755659 26.789189 
L 110.420524 26.789189 
L 110.085389 26.789189 
L 109.750253 26.789189 
L 109.415118 26.789189 
L 109.079983 26.789189 
L 108.744848 26.789189 
L 108.409713 26.789189 
L 108.074578 26.789189 
L 107.739443 26.789189 
L 107.404307 26.789189 
L 107.069172 26.789189 
L 106.734037 26.789189 
L 106.398902 26.789189 
L 106.063767 26.789189 
L 105.728632 26.789189 
L 105.393497 26.789189 
L 105.058361 26.789189 
L 104.723226 26.789189 
L 104.388091 26.789189 
L 104.052956 26.789189 
L 103.717821 26.789189 
L 103.382686 26.789189 
L 103.047551 26.789189 
L 102.712416 26.789189 
L 102.37728 26.789189 
L 102.042145 26.789189 
L 101.70701 26.789189 
L 101.371875 26.789189 
L 101.03674 26.789189 
L 100.701605 26.789189 
L 100.36647 26.789189 
L 100.031334 26.789189 
L 99.696199 26.789189 
L 99.361064 26.789189 
L 99.025929 26.789189 
L 98.690794 26.789189 
L 98.355659 26.789189 
L 98.020524 26.789189 
L 97.685389 26.789189 
L 97.350253 26.789189 
L 97.015118 26.789189 
L 96.679983 26.789189 
L 96.344848 26.789189 
L 96.009713 26.789189 
L 95.674578 26.789189 
L 95.339443 26.789189 
L 95.004307 26.789189 
L 94.669172 26.789189 
L 94.334037 26.789189 
L 93.998902 26.789189 
L 93.663767 26.789189 
L 93.328632 26.789189 
L 92.993497 26.789189 
L 92.658361 26.789189 
L 92.323226 26.789189 
L 91.988091 26.789189 
L 91.652956 26.789189 
L 91.317821 26.789189 
L 90.982686 26.789189 
L 90.647551 26.789189 
L 90.312416 26.789189 
L 89.97728 26.789189 
L 89.642145 26.789189 
L 89.30701 26.789189 
L 88.971875 26.789189 
L 88.63674 26.789189 
L 88.301605 26.789189 
L 87.96647 26.789189 
L 87.631334 26.789189 
L 87.296199 26.789189 
L 86.961064 26.789189 
L 86.625929 26.789189 
L 86.290794 26.789189 
L 85.955659 26.789189 
L 85.620524 26.789189 
L 85.285389 26.789189 
L 84.950253 26.789189 
L 84.615118 26.789189 
L 84.279983 26.789189 
L 83.944848 26.789189 
L 83.609713 26.789189 
L 83.274578 26.789189 
L 82.939443 26.789189 
L 82.604307 26.789189 
L 82.269172 26.789189 
L 81.934037 26.789189 
L 81.598902 26.789189 
L 81.263767 26.789189 
L 80.928632 26.789189 
L 80.593497 26.789189 
L 80.258361 26.789189 
L 79.923226 26.789189 
L 79.588091 222.681081 
L 79.252956 222.681081 
L 78.917821 222.681081 
L 78.582686 222.681081 
L 78.247551 222.681081 
L 77.912416 222.681081 
L 77.57728 222.681081 
L 77.242145 222.681081 
L 76.90701 222.681081 
L 76.571875 222.681081 
L 76.23674 222.681081 
L 75.901605 222.681081 
L 75.56647 222.681081 
L 75.231334 222.681081 
L 74.896199 222.681081 
L 74.561064 222.681081 
L 74.225929 222.681081 
L 73.890794 222.681081 
L 73.555659 222.681081 
L 73.220524 222.681081 
L 72.885389 222.681081 
L 72.550253 222.681081 
L 72.215118 222.681081 
L 71.879983 222.681081 
L 71.544848 222.681081 
L 71.209713 222.681081 
L 70.874578 222.681081 
L 70.539443 222.681081 
L 70.204307 222.681081 
L 69.869172 222.681081 
L 69.534037 222.681081 
L 69.198902 222.681081 
L 68.863767 222.681081 
L 68.528632 222.681081 
L 68.193497 222.681081 
L 67.858361 222.681081 
L 67.523226 222.681081 
L 67.188091 222.681081 
L 66.852956 222.681081 
L 66.517821 222.681081 
L 66.182686 222.681081 
L 65.847551 222.681081 
L 65.512416 222.681081 
L 65.17728 222.681081 
L 64.842145 222.681081 
L 64.50701 222.681081 
L 64.171875 222.681081 
L 63.83674 222.681081 
L 63.501605 222.681081 
L 63.16647 222.681081 
L 62.831334 222.681081 
L 62.496199 222.681081 
L 62.161064 222.681081 
L 61.825929 222.681081 
L 61.490794 222.681081 
L 61.155659 222.681081 
L 60.820524 222.681081 
L 60.485389 222.681081 
L 60.150253 222.681081 
L 59.815118 222.681081 
L 59.479983 222.681081 
L 59.144848 222.681081 
L 58.809713 222.681081 
L 58.474578 222.681081 
L 58.139443 222.681081 
L 57.804307 222.681081 
L 57.469172 222.681081 
L 57.134037 222.681081 
L 56.798902 222.681081 
L 56.463767 222.681081 
L 56.128632 222.681081 
L 55.793497 222.681081 
L 55.458361 222.681081 
L 55.123226 222.681081 
L 54.788091 222.681081 
L 54.452956 222.681081 
L 54.117821 222.681081 
L 53.782686 222.681081 
L 53.447551 222.681081 
L 53.112416 222.681081 
L 52.77728 222.681081 
L 52.442145 222.681081 
L 52.10701 222.681081 
L 51.771875 222.681081 
z
" style="fill:#4c72b0;fill-opacity:0.2;"/>
   </g>
   <g id="line2d_25">
    <path clip-path="url(#pd5ba23901f)" d="M 51.771875 222.681081 
L 79.588091 222.681081 
L 79.923226 26.789189 
L 358.420524 26.789189 
L 358.755659 222.681081 
L 386.571875 222.681081 
L 386.571875 222.681081 
" style="fill:none;stroke:#4c72b0;stroke-linecap:round;stroke-width:2;"/>
   </g>
   <g id="patch_3">
    <path d="M 51.771875 224.64 
L 51.771875 7.2 
" style="fill:none;"/>
   </g>
   <g id="patch_4">
    <path d="M 386.571875 224.64 
L 386.571875 7.2 
" style="fill:none;"/>
   </g>
   <g id="patch_5">
    <path d="M 51.771875 224.64 
L 386.571875 224.64 
" style="fill:none;"/>
   </g>
   <g id="patch_6">
    <path d="M 51.771875 7.2 
L 386.571875 7.2 
" style="fill:none;"/>
   </g>
  </g>
 </g>
 <defs>
  <clipPath id="pd5ba23901f">
   <rect height="217.44" width="334.8" x="51.771875" y="7.2"/>
  </clipPath>
 </defs>
</svg>
