<?xml version="1.0" encoding="utf-8" standalone="no"?>
<!DOCTYPE svg PUBLIC "-//W3C//DTD SVG 1.1//EN"
  "http://www.w3.org/Graphics/SVG/1.1/DTD/svg11.dtd">
<!-- Created with matplotlib (http://matplotlib.org/) -->
<svg height="270pt" version="1.1" viewBox="0 0 400 270" width="400pt" xmlns="http://www.w3.org/2000/svg" xmlns:xlink="http://www.w3.org/1999/xlink">
 <defs>
  <style type="text/css">
*{stroke-linecap:butt;stroke-linejoin:round;}
  </style>
 </defs>
 <g id="figure_1">
  <g id="patch_1">
   <path d="M 0 270.275937 
L 400.014687 270.275937 
L 400.014687 0 
L 0 0 
z
" style="fill:none;"/>
  </g>
  <g id="axes_1">
   <g id="patch_2">
    <path d="M 58.014688 224.64 
L 392.814687 224.64 
L 392.814687 7.2 
L 58.014688 7.2 
z
" style="fill:#eaeaf2;"/>
   </g>
   <g id="matplotlib.axis_1">
    <g id="xtick_1">
     <g id="line2d_1"/>
     <g id="text_1">
      <!-- 0.0 -->
      <defs>
       <path d="M 4.15625 35.296875 
Q 4.15625 48 6.765625 55.734375 
Q 9.375 63.484375 14.515625 67.671875 
Q 19.671875 71.875 27.484375 71.875 
Q 33.25 71.875 37.59375 69.546875 
Q 41.9375 67.234375 44.765625 62.859375 
Q 47.609375 58.5 49.21875 52.21875 
Q 50.828125 45.953125 50.828125 35.296875 
Q 50.828125 22.703125 48.234375 14.96875 
Q 45.65625 7.234375 40.5 3 
Q 35.359375 -1.21875 27.484375 -1.21875 
Q 17.140625 -1.21875 11.234375 6.203125 
Q 4.15625 15.140625 4.15625 35.296875 
z
M 13.1875 35.296875 
Q 13.1875 17.671875 17.3125 11.828125 
Q 21.4375 6 27.484375 6 
Q 33.546875 6 37.671875 11.859375 
Q 41.796875 17.71875 41.796875 35.296875 
Q 41.796875 52.984375 37.671875 58.78125 
Q 33.546875 64.59375 27.390625 64.59375 
Q 21.34375 64.59375 17.71875 59.46875 
Q 13.1875 52.9375 13.1875 35.296875 
z
" id="ArialMT-30"/>
       <path d="M 9.078125 0 
L 9.078125 10.015625 
L 19.09375 10.015625 
L 19.09375 0 
z
" id="ArialMT-2e"/>
      </defs>
      <g style="fill:#262626;" transform="translate(64.892869 240.229375)scale(0.12 -0.12)">
       <use xlink:href="#ArialMT-30"/>
       <use x="55.615234" xlink:href="#ArialMT-2e"/>
       <use x="83.398438" xlink:href="#ArialMT-30"/>
      </g>
     </g>
    </g>
    <g id="xtick_2">
     <g id="line2d_2"/>
     <g id="text_2">
      <!-- 0.5 -->
      <defs>
       <path d="M 4.15625 18.75 
L 13.375 19.53125 
Q 14.40625 12.796875 18.140625 9.390625 
Q 21.875 6 27.15625 6 
Q 33.5 6 37.890625 10.78125 
Q 42.28125 15.578125 42.28125 23.484375 
Q 42.28125 31 38.0625 35.34375 
Q 33.84375 39.703125 27 39.703125 
Q 22.75 39.703125 19.328125 37.765625 
Q 15.921875 35.84375 13.96875 32.765625 
L 5.71875 33.84375 
L 12.640625 70.609375 
L 48.25 70.609375 
L 48.25 62.203125 
L 19.671875 62.203125 
L 15.828125 42.96875 
Q 22.265625 47.46875 29.34375 47.46875 
Q 38.71875 47.46875 45.15625 40.96875 
Q 51.609375 34.46875 51.609375 24.265625 
Q 51.609375 14.546875 45.953125 7.46875 
Q 39.0625 -1.21875 27.15625 -1.21875 
Q 17.390625 -1.21875 11.203125 4.25 
Q 5.03125 9.71875 4.15625 18.75 
z
" id="ArialMT-35"/>
      </defs>
      <g style="fill:#262626;" transform="translate(113.333847 240.229375)scale(0.12 -0.12)">
       <use xlink:href="#ArialMT-30"/>
       <use x="55.615234" xlink:href="#ArialMT-2e"/>
       <use x="83.398438" xlink:href="#ArialMT-35"/>
      </g>
     </g>
    </g>
    <g id="xtick_3">
     <g id="line2d_3"/>
     <g id="text_3">
      <!-- 1.0 -->
      <defs>
       <path d="M 37.25 0 
L 28.46875 0 
L 28.46875 56 
Q 25.296875 52.984375 20.140625 49.953125 
Q 14.984375 46.921875 10.890625 45.40625 
L 10.890625 53.90625 
Q 18.265625 57.375 23.78125 62.296875 
Q 29.296875 67.234375 31.59375 71.875 
L 37.25 71.875 
z
" id="ArialMT-31"/>
      </defs>
      <g style="fill:#262626;" transform="translate(161.774824 240.229375)scale(0.12 -0.12)">
       <use xlink:href="#ArialMT-31"/>
       <use x="55.615234" xlink:href="#ArialMT-2e"/>
       <use x="83.398438" xlink:href="#ArialMT-30"/>
      </g>
     </g>
    </g>
    <g id="xtick_4">
     <g id="line2d_4"/>
     <g id="text_4">
      <!-- 1.5 -->
      <g style="fill:#262626;" transform="translate(210.215801 240.229375)scale(0.12 -0.12)">
       <use xlink:href="#ArialMT-31"/>
       <use x="55.615234" xlink:href="#ArialMT-2e"/>
       <use x="83.398438" xlink:href="#ArialMT-35"/>
      </g>
     </g>
    </g>
    <g id="xtick_5">
     <g id="line2d_5"/>
     <g id="text_5">
      <!-- 2.0 -->
      <defs>
       <path d="M 50.34375 8.453125 
L 50.34375 0 
L 3.03125 0 
Q 2.9375 3.171875 4.046875 6.109375 
Q 5.859375 10.9375 9.828125 15.625 
Q 13.8125 20.3125 21.34375 26.46875 
Q 33.015625 36.03125 37.109375 41.625 
Q 41.21875 47.21875 41.21875 52.203125 
Q 41.21875 57.421875 37.46875 61 
Q 33.734375 64.59375 27.734375 64.59375 
Q 21.390625 64.59375 17.578125 60.78125 
Q 13.765625 56.984375 13.71875 50.25 
L 4.6875 51.171875 
Q 5.609375 61.28125 11.65625 66.578125 
Q 17.71875 71.875 27.9375 71.875 
Q 38.234375 71.875 44.234375 66.15625 
Q 50.25 60.453125 50.25 52 
Q 50.25 47.703125 48.484375 43.546875 
Q 46.734375 39.40625 42.65625 34.8125 
Q 38.578125 30.21875 29.109375 22.21875 
Q 21.1875 15.578125 18.9375 13.203125 
Q 16.703125 10.84375 15.234375 8.453125 
z
" id="ArialMT-32"/>
      </defs>
      <g style="fill:#262626;" transform="translate(258.656778 240.229375)scale(0.12 -0.12)">
       <use xlink:href="#ArialMT-32"/>
       <use x="55.615234" xlink:href="#ArialMT-2e"/>
       <use x="83.398438" xlink:href="#ArialMT-30"/>
      </g>
     </g>
    </g>
    <g id="xtick_6">
     <g id="line2d_6"/>
     <g id="text_6">
      <!-- 2.5 -->
      <g style="fill:#262626;" transform="translate(307.097755 240.229375)scale(0.12 -0.12)">
       <use xlink:href="#ArialMT-32"/>
       <use x="55.615234" xlink:href="#ArialMT-2e"/>
       <use x="83.398438" xlink:href="#ArialMT-35"/>
      </g>
     </g>
    </g>
    <g id="xtick_7">
     <g id="line2d_7"/>
     <g id="text_7">
      <!-- 3.0 -->
      <defs>
       <path d="M 4.203125 18.890625 
L 12.984375 20.0625 
Q 14.5 12.59375 18.140625 9.296875 
Q 21.78125 6 27 6 
Q 33.203125 6 37.46875 10.296875 
Q 41.75 14.59375 41.75 20.953125 
Q 41.75 27 37.796875 30.921875 
Q 33.84375 34.859375 27.734375 34.859375 
Q 25.25 34.859375 21.53125 33.890625 
L 22.515625 41.609375 
Q 23.390625 41.5 23.921875 41.5 
Q 29.546875 41.5 34.03125 44.421875 
Q 38.53125 47.359375 38.53125 53.46875 
Q 38.53125 58.296875 35.25 61.46875 
Q 31.984375 64.65625 26.8125 64.65625 
Q 21.6875 64.65625 18.265625 61.421875 
Q 14.84375 58.203125 13.875 51.765625 
L 5.078125 53.328125 
Q 6.6875 62.15625 12.390625 67.015625 
Q 18.109375 71.875 26.609375 71.875 
Q 32.46875 71.875 37.390625 69.359375 
Q 42.328125 66.84375 44.9375 62.5 
Q 47.5625 58.15625 47.5625 53.265625 
Q 47.5625 48.640625 45.0625 44.828125 
Q 42.578125 41.015625 37.703125 38.765625 
Q 44.046875 37.3125 47.5625 32.6875 
Q 51.078125 28.078125 51.078125 21.140625 
Q 51.078125 11.765625 44.234375 5.25 
Q 37.40625 -1.265625 26.953125 -1.265625 
Q 17.53125 -1.265625 11.296875 4.34375 
Q 5.078125 9.96875 4.203125 18.890625 
z
" id="ArialMT-33"/>
      </defs>
      <g style="fill:#262626;" transform="translate(355.538733 240.229375)scale(0.12 -0.12)">
       <use xlink:href="#ArialMT-33"/>
       <use x="55.615234" xlink:href="#ArialMT-2e"/>
       <use x="83.398438" xlink:href="#ArialMT-30"/>
      </g>
     </g>
    </g>
    <g id="text_8">
     <!-- x -->
     <defs>
      <path d="M 0.734375 0 
L 19.671875 26.953125 
L 2.15625 51.859375 
L 13.140625 51.859375 
L 21.09375 39.703125 
Q 23.34375 36.234375 24.703125 33.890625 
Q 26.859375 37.109375 28.65625 39.59375 
L 37.40625 51.859375 
L 47.90625 51.859375 
L 29.984375 27.4375 
L 49.265625 0 
L 38.484375 0 
L 27.828125 16.109375 
L 25 20.453125 
L 11.375 0 
z
" id="ArialMT-78"/>
     </defs>
     <g style="fill:#262626;" transform="translate(220.914688 259.498437)scale(0.18 -0.18)">
      <use xlink:href="#ArialMT-78"/>
     </g>
    </g>
   </g>
   <g id="matplotlib.axis_2">
    <g id="ytick_1">
     <g id="line2d_8"/>
     <g id="text_9">
      <!-- 0.00 -->
      <g style="fill:#262626;" transform="translate(27.661563 219.051051)scale(0.12 -0.12)">
       <use xlink:href="#ArialMT-30"/>
       <use x="55.615234" xlink:href="#ArialMT-2e"/>
       <use x="83.398438" xlink:href="#ArialMT-30"/>
       <use x="139.013672" xlink:href="#ArialMT-30"/>
      </g>
     </g>
    </g>
    <g id="ytick_2">
     <g id="line2d_9"/>
     <g id="text_10">
      <!-- 0.25 -->
      <g style="fill:#262626;" transform="translate(27.661563 191.88318)scale(0.12 -0.12)">
       <use xlink:href="#ArialMT-30"/>
       <use x="55.615234" xlink:href="#ArialMT-2e"/>
       <use x="83.398438" xlink:href="#ArialMT-32"/>
       <use x="139.013672" xlink:href="#ArialMT-35"/>
      </g>
     </g>
    </g>
    <g id="ytick_3">
     <g id="line2d_10"/>
     <g id="text_11">
      <!-- 0.50 -->
      <g style="fill:#262626;" transform="translate(27.661563 164.715309)scale(0.12 -0.12)">
       <use xlink:href="#ArialMT-30"/>
       <use x="55.615234" xlink:href="#ArialMT-2e"/>
       <use x="83.398438" xlink:href="#ArialMT-35"/>
       <use x="139.013672" xlink:href="#ArialMT-30"/>
      </g>
     </g>
    </g>
    <g id="ytick_4">
     <g id="line2d_11"/>
     <g id="text_12">
      <!-- 0.75 -->
      <defs>
       <path d="M 4.734375 62.203125 
L 4.734375 70.65625 
L 51.078125 70.65625 
L 51.078125 63.8125 
Q 44.234375 56.546875 37.515625 44.484375 
Q 30.8125 32.421875 27.15625 19.671875 
Q 24.515625 10.6875 23.78125 0 
L 14.75 0 
Q 14.890625 8.453125 18.0625 20.40625 
Q 21.234375 32.375 27.171875 43.484375 
Q 33.109375 54.59375 39.796875 62.203125 
z
" id="ArialMT-37"/>
      </defs>
      <g style="fill:#262626;" transform="translate(27.661563 137.547438)scale(0.12 -0.12)">
       <use xlink:href="#ArialMT-30"/>
       <use x="55.615234" xlink:href="#ArialMT-2e"/>
       <use x="83.398438" xlink:href="#ArialMT-37"/>
       <use x="139.013672" xlink:href="#ArialMT-35"/>
      </g>
     </g>
    </g>
    <g id="ytick_5">
     <g id="line2d_12"/>
     <g id="text_13">
      <!-- 1.00 -->
      <g style="fill:#262626;" transform="translate(27.661563 110.379568)scale(0.12 -0.12)">
       <use xlink:href="#ArialMT-31"/>
       <use x="55.615234" xlink:href="#ArialMT-2e"/>
       <use x="83.398438" xlink:href="#ArialMT-30"/>
       <use x="139.013672" xlink:href="#ArialMT-30"/>
      </g>
     </g>
    </g>
    <g id="ytick_6">
     <g id="line2d_13"/>
     <g id="text_14">
      <!-- 1.25 -->
      <g style="fill:#262626;" transform="translate(27.661563 83.211697)scale(0.12 -0.12)">
       <use xlink:href="#ArialMT-31"/>
       <use x="55.615234" xlink:href="#ArialMT-2e"/>
       <use x="83.398438" xlink:href="#ArialMT-32"/>
       <use x="139.013672" xlink:href="#ArialMT-35"/>
      </g>
     </g>
    </g>
    <g id="ytick_7">
     <g id="line2d_14"/>
     <g id="text_15">
      <!-- 1.50 -->
      <g style="fill:#262626;" transform="translate(27.661563 56.043826)scale(0.12 -0.12)">
       <use xlink:href="#ArialMT-31"/>
       <use x="55.615234" xlink:href="#ArialMT-2e"/>
       <use x="83.398438" xlink:href="#ArialMT-35"/>
       <use x="139.013672" xlink:href="#ArialMT-30"/>
      </g>
     </g>
    </g>
    <g id="ytick_8">
     <g id="line2d_15"/>
     <g id="text_16">
      <!-- 1.75 -->
      <g style="fill:#262626;" transform="translate(27.661563 28.875955)scale(0.12 -0.12)">
       <use xlink:href="#ArialMT-31"/>
       <use x="55.615234" xlink:href="#ArialMT-2e"/>
       <use x="83.398438" xlink:href="#ArialMT-37"/>
       <use x="139.013672" xlink:href="#ArialMT-35"/>
      </g>
     </g>
    </g>
    <g id="text_17">
     <!-- x sin x -->
     <defs>
      <path id="ArialMT-20"/>
      <path d="M 3.078125 15.484375 
L 11.765625 16.84375 
Q 12.5 11.625 15.84375 8.84375 
Q 19.1875 6.0625 25.203125 6.0625 
Q 31.25 6.0625 34.171875 8.515625 
Q 37.109375 10.984375 37.109375 14.3125 
Q 37.109375 17.28125 34.515625 19 
Q 32.71875 20.171875 25.53125 21.96875 
Q 15.875 24.421875 12.140625 26.203125 
Q 8.40625 27.984375 6.46875 31.125 
Q 4.546875 34.28125 4.546875 38.09375 
Q 4.546875 41.546875 6.125 44.5 
Q 7.71875 47.46875 10.453125 49.421875 
Q 12.5 50.921875 16.03125 51.96875 
Q 19.578125 53.03125 23.640625 53.03125 
Q 29.734375 53.03125 34.34375 51.265625 
Q 38.96875 49.515625 41.15625 46.5 
Q 43.359375 43.5 44.1875 38.484375 
L 35.59375 37.3125 
Q 35.015625 41.3125 32.203125 43.546875 
Q 29.390625 45.796875 24.265625 45.796875 
Q 18.21875 45.796875 15.625 43.796875 
Q 13.03125 41.796875 13.03125 39.109375 
Q 13.03125 37.40625 14.109375 36.03125 
Q 15.1875 34.625 17.484375 33.6875 
Q 18.796875 33.203125 25.25 31.453125 
Q 34.578125 28.953125 38.25 27.359375 
Q 41.9375 25.78125 44.03125 22.75 
Q 46.140625 19.734375 46.140625 15.234375 
Q 46.140625 10.84375 43.578125 6.953125 
Q 41.015625 3.078125 36.171875 0.953125 
Q 31.34375 -1.171875 25.25 -1.171875 
Q 15.140625 -1.171875 9.84375 3.03125 
Q 4.546875 7.234375 3.078125 15.484375 
z
" id="ArialMT-73"/>
      <path d="M 6.640625 61.46875 
L 6.640625 71.578125 
L 15.4375 71.578125 
L 15.4375 61.46875 
z
M 6.640625 0 
L 6.640625 51.859375 
L 15.4375 51.859375 
L 15.4375 0 
z
" id="ArialMT-69"/>
      <path d="M 6.59375 0 
L 6.59375 51.859375 
L 14.5 51.859375 
L 14.5 44.484375 
Q 20.21875 53.03125 31 53.03125 
Q 35.6875 53.03125 39.625 51.34375 
Q 43.5625 49.65625 45.515625 46.921875 
Q 47.46875 44.1875 48.25 40.4375 
Q 48.734375 37.984375 48.734375 31.890625 
L 48.734375 0 
L 39.9375 0 
L 39.9375 31.546875 
Q 39.9375 36.921875 38.90625 39.578125 
Q 37.890625 42.234375 35.28125 43.8125 
Q 32.671875 45.40625 29.15625 45.40625 
Q 23.53125 45.40625 19.453125 41.84375 
Q 15.375 38.28125 15.375 28.328125 
L 15.375 0 
z
" id="ArialMT-6e"/>
     </defs>
     <g style="fill:#262626;" transform="translate(20.084063 141.425156)rotate(-90)scale(0.18 -0.18)">
      <use xlink:href="#ArialMT-78"/>
      <use x="50" xlink:href="#ArialMT-20"/>
      <use x="77.783203" xlink:href="#ArialMT-73"/>
      <use x="127.783203" xlink:href="#ArialMT-69"/>
      <use x="150" xlink:href="#ArialMT-6e"/>
      <use x="205.615234" xlink:href="#ArialMT-20"/>
      <use x="233.398438" xlink:href="#ArialMT-78"/>
     </g>
    </g>
   </g>
   <g id="PolyCollection_1">
    <path clip-path="url(#p84134c4113)" d="M 73.232869 106.08488 
L 73.232869 214.756364 
L 79.444372 214.756364 
L 85.655875 214.756364 
L 91.867378 214.756364 
L 98.07888 214.756364 
L 104.290383 214.756364 
L 110.501886 214.756364 
L 116.713389 214.756364 
L 122.924892 214.756364 
L 129.136394 214.756364 
L 135.347897 214.756364 
L 141.5594 214.756364 
L 147.770903 214.756364 
L 153.982405 214.756364 
L 160.193908 214.756364 
L 166.405411 214.756364 
L 172.616914 214.756364 
L 178.828417 214.756364 
L 185.039919 214.756364 
L 191.251422 214.756364 
L 197.462925 214.756364 
L 203.674428 214.756364 
L 209.885931 214.756364 
L 216.097433 214.756364 
L 222.308936 214.756364 
L 228.520439 214.756364 
L 234.731942 214.756364 
L 240.943444 214.756364 
L 247.154947 214.756364 
L 253.36645 214.756364 
L 259.577953 214.756364 
L 265.789456 214.756364 
L 272.000958 214.756364 
L 278.212461 214.756364 
L 284.423964 214.756364 
L 290.635467 214.756364 
L 296.84697 214.756364 
L 303.058472 214.756364 
L 309.269975 214.756364 
L 315.481478 214.756364 
L 321.692981 214.756364 
L 327.904483 214.756364 
L 334.115986 214.756364 
L 340.327489 214.756364 
L 346.538992 214.756364 
L 352.750495 214.756364 
L 358.961997 214.756364 
L 365.1735 214.756364 
L 371.385003 214.756364 
L 377.596506 214.756364 
L 377.596506 106.08488 
L 377.596506 106.08488 
L 371.385003 106.08488 
L 365.1735 106.08488 
L 358.961997 106.08488 
L 352.750495 106.08488 
L 346.538992 106.08488 
L 340.327489 106.08488 
L 334.115986 106.08488 
L 327.904483 106.08488 
L 321.692981 106.08488 
L 315.481478 106.08488 
L 309.269975 106.08488 
L 303.058472 106.08488 
L 296.84697 106.08488 
L 290.635467 106.08488 
L 284.423964 106.08488 
L 278.212461 106.08488 
L 272.000958 106.08488 
L 265.789456 106.08488 
L 259.577953 106.08488 
L 253.36645 106.08488 
L 247.154947 106.08488 
L 240.943444 106.08488 
L 234.731942 106.08488 
L 228.520439 106.08488 
L 222.308936 106.08488 
L 216.097433 106.08488 
L 209.885931 106.08488 
L 203.674428 106.08488 
L 197.462925 106.08488 
L 191.251422 106.08488 
L 185.039919 106.08488 
L 178.828417 106.08488 
L 172.616914 106.08488 
L 166.405411 106.08488 
L 160.193908 106.08488 
L 153.982405 106.08488 
L 147.770903 106.08488 
L 141.5594 106.08488 
L 135.347897 106.08488 
L 129.136394 106.08488 
L 122.924892 106.08488 
L 116.713389 106.08488 
L 110.501886 106.08488 
L 104.290383 106.08488 
L 98.07888 106.08488 
L 91.867378 106.08488 
L 85.655875 106.08488 
L 79.444372 106.08488 
L 73.232869 106.08488 
z
" style="fill:#008000;fill-opacity:0.2;"/>
   </g>
   <g id="PolyCollection_2">
    <path clip-path="url(#p84134c4113)" d="M 73.232869 214.756364 
L 73.232869 214.756364 
L 79.444372 214.756364 
L 85.655875 214.756364 
L 91.867378 214.756364 
L 98.07888 214.756364 
L 104.290383 214.756364 
L 110.501886 214.756364 
L 116.713389 214.756364 
L 122.924892 214.756364 
L 129.136394 214.756364 
L 135.347897 214.756364 
L 141.5594 214.756364 
L 147.770903 214.756364 
L 153.982405 214.756364 
L 160.193908 214.756364 
L 166.405411 214.756364 
L 172.616914 214.756364 
L 178.828417 214.756364 
L 185.039919 214.756364 
L 191.251422 214.756364 
L 197.462925 214.756364 
L 203.674428 214.756364 
L 209.885931 214.756364 
L 216.097433 214.756364 
L 222.308936 214.756364 
L 228.520439 214.756364 
L 234.731942 214.756364 
L 240.943444 214.756364 
L 247.154947 214.756364 
L 253.36645 214.756364 
L 259.577953 214.756364 
L 265.789456 214.756364 
L 272.000958 214.756364 
L 278.212461 214.756364 
L 284.423964 214.756364 
L 290.635467 214.756364 
L 296.84697 214.756364 
L 303.058472 214.756364 
L 309.269975 214.756364 
L 315.481478 214.756364 
L 321.692981 214.756364 
L 327.904483 214.756364 
L 334.115986 214.756364 
L 340.327489 214.756364 
L 346.538992 214.756364 
L 352.750495 214.756364 
L 358.961997 214.756364 
L 365.1735 214.756364 
L 371.385003 214.756364 
L 377.596506 214.756364 
L 377.596506 214.756364 
L 377.596506 214.756364 
L 371.385003 193.329094 
L 365.1735 172.880842 
L 358.961997 153.490138 
L 352.750495 135.227529 
L 346.538992 118.155325 
L 340.327489 102.327395 
L 334.115986 87.789014 
L 327.904483 74.576757 
L 321.692981 62.718443 
L 315.481478 52.233134 
L 309.269975 43.131171 
L 303.058472 35.414275 
L 296.84697 29.075678 
L 290.635467 24.100315 
L 284.423964 20.465052 
L 278.212461 18.138962 
L 272.000958 17.083636 
L 265.789456 17.253546 
L 259.577953 18.596429 
L 253.36645 21.053719 
L 247.154947 24.561001 
L 240.943444 29.048504 
L 234.731942 34.441611 
L 228.520439 40.6614 
L 222.308936 47.625199 
L 216.097433 55.24716 
L 209.885931 63.438848 
L 203.674428 72.109841 
L 197.462925 81.168333 
L 191.251422 90.521739 
L 185.039919 100.077308 
L 178.828417 109.742727 
L 172.616914 119.426714 
L 166.405411 129.039609 
L 160.193908 138.493944 
L 153.982405 147.705005 
L 147.770903 156.591362 
L 141.5594 165.075387 
L 135.347897 173.083741 
L 129.136394 180.547832 
L 122.924892 187.404245 
L 116.713389 193.595139 
L 110.501886 199.068601 
L 104.290383 203.778973 
L 98.07888 207.687134 
L 91.867378 210.76074 
L 85.655875 212.974427 
L 79.444372 214.309962 
L 73.232869 214.756364 
z
" style="fill:#0000ff;fill-opacity:0.2;"/>
   </g>
   <g id="line2d_16">
    <path clip-path="url(#p84134c4113)" d="M 73.232869 214.756364 
L 79.444372 214.309962 
L 85.655875 212.974427 
L 91.867378 210.76074 
L 98.07888 207.687134 
L 104.290383 203.778973 
L 110.501886 199.068601 
L 116.713389 193.595139 
L 122.924892 187.404245 
L 129.136394 180.547832 
L 135.347897 173.083741 
L 141.5594 165.075387 
L 147.770903 156.591362 
L 153.982405 147.705005 
L 160.193908 138.493944 
L 166.405411 129.039609 
L 172.616914 119.426714 
L 178.828417 109.742727 
L 185.039919 100.077308 
L 191.251422 90.521739 
L 197.462925 81.168333 
L 203.674428 72.109841 
L 209.885931 63.438848 
L 216.097433 55.24716 
L 222.308936 47.625199 
L 228.520439 40.6614 
L 234.731942 34.441611 
L 240.943444 29.048504 
L 247.154947 24.561001 
L 253.36645 21.053719 
L 259.577953 18.596429 
L 265.789456 17.253546 
L 272.000958 17.083636 
L 278.212461 18.138962 
L 284.423964 20.465052 
L 290.635467 24.100315 
L 296.84697 29.075678 
L 303.058472 35.414275 
L 309.269975 43.131171 
L 315.481478 52.233134 
L 321.692981 62.718443 
L 327.904483 74.576757 
L 334.115986 87.789014 
L 340.327489 102.327395 
L 346.538992 118.155325 
L 352.750495 135.227529 
L 358.961997 153.490138 
L 365.1735 172.880842 
L 371.385003 193.329094 
L 377.596506 214.756364 
" style="fill:none;stroke:#4c72b0;stroke-linecap:round;stroke-width:2;"/>
   </g>
   <g id="line2d_17">
    <path clip-path="url(#p84134c4113)" d="M 73.232869 106.08488 
L 79.444372 106.08488 
L 85.655875 106.08488 
L 91.867378 106.08488 
L 98.07888 106.08488 
L 104.290383 106.08488 
L 110.501886 106.08488 
L 116.713389 106.08488 
L 122.924892 106.08488 
L 129.136394 106.08488 
L 135.347897 106.08488 
L 141.5594 106.08488 
L 147.770903 106.08488 
L 153.982405 106.08488 
L 160.193908 106.08488 
L 166.405411 106.08488 
L 172.616914 106.08488 
L 178.828417 106.08488 
L 185.039919 106.08488 
L 191.251422 106.08488 
L 197.462925 106.08488 
L 203.674428 106.08488 
L 209.885931 106.08488 
L 216.097433 106.08488 
L 222.308936 106.08488 
L 228.520439 106.08488 
L 234.731942 106.08488 
L 240.943444 106.08488 
L 247.154947 106.08488 
L 253.36645 106.08488 
L 259.577953 106.08488 
L 265.789456 106.08488 
L 272.000958 106.08488 
L 278.212461 106.08488 
L 284.423964 106.08488 
L 290.635467 106.08488 
L 296.84697 106.08488 
L 303.058472 106.08488 
L 309.269975 106.08488 
L 315.481478 106.08488 
L 321.692981 106.08488 
L 327.904483 106.08488 
L 334.115986 106.08488 
L 340.327489 106.08488 
L 346.538992 106.08488 
L 352.750495 106.08488 
L 358.961997 106.08488 
L 365.1735 106.08488 
L 371.385003 106.08488 
L 377.596506 106.08488 
" style="fill:none;stroke:#55a868;stroke-linecap:round;stroke-width:2;"/>
   </g>
   <g id="patch_3">
    <path d="M 58.014688 224.64 
L 58.014688 7.2 
" style="fill:none;"/>
   </g>
   <g id="patch_4">
    <path d="M 392.814687 224.64 
L 392.814687 7.2 
" style="fill:none;"/>
   </g>
   <g id="patch_5">
    <path d="M 58.014688 224.64 
L 392.814687 224.64 
" style="fill:none;"/>
   </g>
   <g id="patch_6">
    <path d="M 58.014688 7.2 
L 392.814687 7.2 
" style="fill:none;"/>
   </g>
  </g>
 </g>
 <defs>
  <clipPath id="p84134c4113">
   <rect height="217.44" width="334.8" x="58.014688" y="7.2"/>
  </clipPath>
 </defs>
</svg>
