<?xml version="1.0" encoding="utf-8" standalone="no"?>
<!DOCTYPE svg PUBLIC "-//W3C//DTD SVG 1.1//EN"
  "http://www.w3.org/Graphics/SVG/1.1/DTD/svg11.dtd">
<!-- Created with matplotlib (http://matplotlib.org/) -->
<svg height="308pt" version="1.1" viewBox="0 0 410 308" width="410pt" xmlns="http://www.w3.org/2000/svg" xmlns:xlink="http://www.w3.org/1999/xlink">
 <defs>
  <style type="text/css">
*{stroke-linecap:butt;stroke-linejoin:round;}
  </style>
 </defs>
 <g id="figure_1">
  <g id="patch_1">
   <path d="M 0 308.432625 
L 410.055938 308.432625 
L 410.055938 0 
L 0 0 
z
" style="fill:#ffffff;"/>
  </g>
  <g id="axes_1">
   <g id="patch_2">
    <path d="M 42.235938 276.812 
L 399.355937 276.812 
L 399.355937 10.7 
L 42.235938 10.7 
z
" style="fill:#ffffff;"/>
   </g>
   <g id="patch_3">
    <path clip-path="url(#pcd29ada768)" d="M 86.875937 276.812 
L 86.875937 92.825231 
L 354.715937 92.825231 
L 354.715937 276.812 
" style="fill:#1f77b4;opacity:0.2;stroke:#000000;stroke-linejoin:miter;stroke-width:3;"/>
   </g>
   <g id="PolyCollection_1">
    <path clip-path="url(#pcd29ada768)" d="M -2.404062 276.812 
L -2.404062 276.812 
L -0.911086 276.812 
L 0.581891 276.812 
L 2.074867 276.812 
L 3.567844 276.812 
L 5.06082 276.812 
L 6.553797 276.811999 
L 8.046774 276.811999 
L 9.53975 276.811999 
L 11.032727 276.811999 
L 12.525703 276.811998 
L 14.01868 276.811998 
L 15.511657 276.811997 
L 17.004633 276.811996 
L 18.49761 276.811994 
L 19.990586 276.811992 
L 21.483563 276.811989 
L 22.97654 276.811985 
L 24.469516 276.81198 
L 25.962493 276.811974 
L 27.455469 276.811965 
L 28.948446 276.811954 
L 30.441422 276.811939 
L 31.934399 276.811919 
L 33.427376 276.811894 
L 34.920352 276.811861 
L 36.413329 276.811818 
L 37.906305 276.811762 
L 39.399282 276.81169 
L 40.892259 276.811598 
L 42.385235 276.81148 
L 43.878212 276.811328 
L 45.371188 276.811134 
L 46.864165 276.810888 
L 48.357142 276.810576 
L 49.850118 276.81018 
L 51.343095 276.809681 
L 52.836071 276.809052 
L 54.329048 276.808263 
L 55.822024 276.807276 
L 57.315001 276.806043 
L 58.807978 276.804508 
L 60.300954 276.802604 
L 61.793931 276.800245 
L 63.286907 276.797334 
L 64.779884 276.793751 
L 66.272861 276.789352 
L 67.765837 276.783966 
L 69.258814 276.777392 
L 70.75179 276.76939 
L 72.244767 276.759675 
L 73.737744 276.747915 
L 75.23072 276.73372 
L 76.723697 276.716634 
L 78.216673 276.696125 
L 79.70965 276.671578 
L 81.202626 276.642281 
L 82.695603 276.607414 
L 84.18858 276.566036 
L 85.681556 276.51707 
L 87.174533 276.459292 
L 88.667509 276.39131 
L 90.160486 276.311552 
L 91.653463 276.218247 
L 93.146439 276.109408 
L 94.639416 275.982817 
L 96.132392 275.836003 
L 97.625369 275.666233 
L 99.118346 275.470488 
L 100.611322 275.245454 
L 102.104299 274.987509 
L 103.597275 274.692709 
L 105.090252 274.356784 
L 106.583228 273.975133 
L 108.076205 273.542822 
L 109.569182 273.054592 
L 111.062158 272.504867 
L 112.555135 271.887769 
L 114.048111 271.197141 
L 115.541088 270.42658 
L 117.034065 269.569469 
L 118.527041 268.619029 
L 120.020018 267.568367 
L 121.512994 266.410542 
L 123.005971 265.138638 
L 124.498948 263.745842 
L 125.991924 262.225534 
L 127.484901 260.571384 
L 128.977877 258.777457 
L 130.470854 256.838324 
L 131.96383 254.749175 
L 133.456807 252.505944 
L 134.949784 250.105431 
L 136.44276 247.54542 
L 137.935737 244.824807 
L 139.428713 241.943715 
L 140.92169 238.903608 
L 142.414667 235.707395 
L 143.907643 232.359521 
L 145.40062 228.86605 
L 146.893596 225.234728 
L 148.386573 221.475029 
L 149.87955 217.598181 
L 151.372526 213.617167 
L 152.865503 209.546708 
L 154.358479 205.403212 
L 155.851456 201.204701 
L 157.344432 196.97071 
L 158.837409 192.72216 
L 160.330386 188.481194 
L 161.823362 184.271 
L 163.316339 180.115598 
L 164.809315 176.039605 
L 166.302292 172.06798 
L 167.795269 168.225747 
L 169.288245 164.537707 
L 170.781222 161.028126 
L 172.274198 157.720428 
L 173.767175 154.636867 
L 175.260152 151.798215 
L 176.753128 149.223435 
L 178.246105 146.929377 
L 179.739081 144.930475 
L 181.232058 143.238465 
L 182.725034 141.862123 
L 184.218011 140.807025 
L 185.710988 140.075339 
L 187.203964 139.665644 
L 188.696941 139.572793 
L 190.189917 139.787806 
L 191.682894 140.297811 
L 193.175871 141.086033 
L 194.668847 142.131825 
L 196.161824 143.410754 
L 197.6548 144.894744 
L 199.147777 146.552271 
L 200.640754 148.348616 
L 202.13373 150.246179 
L 203.626707 152.204859 
L 205.119683 154.18248 
L 206.61266 156.135297 
L 208.105636 158.01854 
L 209.598613 159.787029 
L 211.09159 161.395835 
L 212.584566 162.800978 
L 214.077543 163.960178 
L 215.570519 164.833617 
L 217.063496 165.384727 
L 218.556473 165.580974 
L 220.049449 165.394633 
L 221.542426 164.803531 
L 223.035402 163.791734 
L 224.528379 162.350174 
L 226.021356 160.477183 
L 227.514332 158.17892 
L 229.007309 155.469667 
L 230.500285 152.371985 
L 231.993262 148.916709 
L 233.486239 145.142773 
L 234.979215 141.096853 
L 236.472192 136.832831 
L 237.965168 132.411078 
L 239.458145 127.897564 
L 240.951121 123.362807 
L 242.444098 118.88068 
L 243.937075 114.527097 
L 245.430051 110.378615 
L 246.923028 106.510969 
L 248.416004 102.997593 
L 249.908981 99.908151 
L 251.401958 97.307124 
L 252.894934 95.252488 
L 254.387911 93.794522 
L 255.880887 92.974775 
L 257.373864 92.825231 
L 258.866841 93.367675 
L 260.359817 94.613302 
L 261.852794 96.562566 
L 263.34577 99.205266 
L 264.838747 102.520879 
L 266.331723 106.479121 
L 267.8247 111.040709 
L 269.317677 116.15832 
L 270.810653 121.777694 
L 272.30363 127.83886 
L 273.796606 134.277452 
L 275.289583 141.026066 
L 276.78256 148.015625 
L 278.275536 155.176723 
L 279.768513 162.440899 
L 281.261489 169.741827 
L 282.754466 177.016383 
L 284.247443 184.205576 
L 285.740419 191.255328 
L 287.233396 198.117085 
L 288.726372 204.748264 
L 290.219349 211.112536 
L 291.712325 217.179948 
L 293.205302 222.926894 
L 294.698279 228.335953 
L 296.191255 233.395609 
L 297.684232 238.09987 
L 299.177208 242.447805 
L 300.670185 246.443029 
L 302.163162 250.093139 
L 303.656138 253.409136 
L 305.149115 256.404837 
L 306.642091 259.096304 
L 308.135068 261.501293 
L 309.628045 263.638739 
L 311.121021 265.528291 
L 312.613998 267.189881 
L 314.106974 268.643366 
L 315.599951 269.908207 
L 317.092927 271.003213 
L 318.585904 271.946334 
L 320.078881 272.754505 
L 321.571857 273.443532 
L 323.064834 274.028024 
L 324.55781 274.52136 
L 326.050787 274.935681 
L 327.543764 275.281919 
L 329.03674 275.569832 
L 330.529717 275.808068 
L 332.022693 276.004233 
L 333.51567 276.164968 
L 335.008647 276.296032 
L 336.501623 276.402383 
L 337.9946 276.488264 
L 339.487576 276.557281 
L 340.980553 276.612479 
L 342.473529 276.656413 
L 343.966506 276.691214 
L 345.459483 276.71865 
L 346.952459 276.740175 
L 348.445436 276.756984 
L 349.938412 276.770047 
L 351.431389 276.780151 
L 352.924366 276.78793 
L 354.417342 276.79389 
L 355.910319 276.798435 
L 357.403295 276.801885 
L 358.896272 276.804491 
L 360.389249 276.80645 
L 361.882225 276.807917 
L 363.375202 276.809009 
L 364.868178 276.809819 
L 366.361155 276.810417 
L 367.854131 276.810856 
L 369.347108 276.811177 
L 370.840085 276.81141 
L 372.333061 276.81158 
L 373.826038 276.811702 
L 375.319014 276.811789 
L 376.811991 276.811852 
L 378.304968 276.811896 
L 379.797944 276.811928 
L 381.290921 276.81195 
L 382.783897 276.811965 
L 384.276874 276.811976 
L 385.769851 276.811984 
L 387.262827 276.811989 
L 388.755804 276.811992 
L 390.24878 276.811995 
L 391.741757 276.811997 
L 393.234733 276.811998 
L 394.72771 276.811998 
L 396.220687 276.811999 
L 397.713663 276.811999 
L 399.20664 276.812 
L 400.699616 276.812 
L 402.192593 276.812 
L 403.68557 276.812 
L 405.178546 276.812 
L 406.671523 276.812 
L 408.164499 276.812 
L 409.657476 276.812 
L 411.150453 276.812 
L 412.643429 276.812 
L 414.136406 276.812 
L 415.629382 276.812 
L 417.122359 276.812 
L 418.615335 276.812 
L 420.108312 276.812 
L 421.601289 276.812 
L 423.094265 276.812 
L 424.587242 276.812 
L 426.080218 276.812 
L 427.573195 276.812 
L 429.066172 276.812 
L 430.559148 276.812 
L 432.052125 276.812 
L 433.545101 276.812 
L 435.038078 276.812 
L 436.531055 276.812 
L 438.024031 276.812 
L 439.517008 276.812 
L 441.009984 276.812 
L 442.502961 276.812 
L 443.995937 276.812 
L 443.995937 276.812 
L 443.995937 276.812 
L 442.502961 276.812 
L 441.009984 276.812 
L 439.517008 276.812 
L 438.024031 276.812 
L 436.531055 276.812 
L 435.038078 276.812 
L 433.545101 276.812 
L 432.052125 276.812 
L 430.559148 276.812 
L 429.066172 276.812 
L 427.573195 276.812 
L 426.080218 276.812 
L 424.587242 276.812 
L 423.094265 276.812 
L 421.601289 276.812 
L 420.108312 276.812 
L 418.615335 276.812 
L 417.122359 276.812 
L 415.629382 276.812 
L 414.136406 276.812 
L 412.643429 276.812 
L 411.150453 276.812 
L 409.657476 276.812 
L 408.164499 276.812 
L 406.671523 276.812 
L 405.178546 276.812 
L 403.68557 276.812 
L 402.192593 276.812 
L 400.699616 276.812 
L 399.20664 276.812 
L 397.713663 276.812 
L 396.220687 276.812 
L 394.72771 276.812 
L 393.234733 276.812 
L 391.741757 276.812 
L 390.24878 276.812 
L 388.755804 276.812 
L 387.262827 276.812 
L 385.769851 276.812 
L 384.276874 276.812 
L 382.783897 276.812 
L 381.290921 276.812 
L 379.797944 276.812 
L 378.304968 276.812 
L 376.811991 276.812 
L 375.319014 276.812 
L 373.826038 276.812 
L 372.333061 276.812 
L 370.840085 276.812 
L 369.347108 276.812 
L 367.854131 276.812 
L 366.361155 276.812 
L 364.868178 276.812 
L 363.375202 276.812 
L 361.882225 276.812 
L 360.389249 276.812 
L 358.896272 276.812 
L 357.403295 276.812 
L 355.910319 276.812 
L 354.417342 276.812 
L 352.924366 276.812 
L 351.431389 276.812 
L 349.938412 276.812 
L 348.445436 276.812 
L 346.952459 276.812 
L 345.459483 276.812 
L 343.966506 276.812 
L 342.473529 276.812 
L 340.980553 276.812 
L 339.487576 276.812 
L 337.9946 276.812 
L 336.501623 276.812 
L 335.008647 276.812 
L 333.51567 276.812 
L 332.022693 276.812 
L 330.529717 276.812 
L 329.03674 276.812 
L 327.543764 276.812 
L 326.050787 276.812 
L 324.55781 276.812 
L 323.064834 276.812 
L 321.571857 276.812 
L 320.078881 276.812 
L 318.585904 276.812 
L 317.092927 276.812 
L 315.599951 276.812 
L 314.106974 276.812 
L 312.613998 276.812 
L 311.121021 276.812 
L 309.628045 276.812 
L 308.135068 276.812 
L 306.642091 276.812 
L 305.149115 276.812 
L 303.656138 276.812 
L 302.163162 276.812 
L 300.670185 276.812 
L 299.177208 276.812 
L 297.684232 276.812 
L 296.191255 276.812 
L 294.698279 276.812 
L 293.205302 276.812 
L 291.712325 276.812 
L 290.219349 276.812 
L 288.726372 276.812 
L 287.233396 276.812 
L 285.740419 276.812 
L 284.247443 276.812 
L 282.754466 276.812 
L 281.261489 276.812 
L 279.768513 276.812 
L 278.275536 276.812 
L 276.78256 276.812 
L 275.289583 276.812 
L 273.796606 276.812 
L 272.30363 276.812 
L 270.810653 276.812 
L 269.317677 276.812 
L 267.8247 276.812 
L 266.331723 276.812 
L 264.838747 276.812 
L 263.34577 276.812 
L 261.852794 276.812 
L 260.359817 276.812 
L 258.866841 276.812 
L 257.373864 276.812 
L 255.880887 276.812 
L 254.387911 276.812 
L 252.894934 276.812 
L 251.401958 276.812 
L 249.908981 276.812 
L 248.416004 276.812 
L 246.923028 276.812 
L 245.430051 276.812 
L 243.937075 276.812 
L 242.444098 276.812 
L 240.951121 276.812 
L 239.458145 276.812 
L 237.965168 276.812 
L 236.472192 276.812 
L 234.979215 276.812 
L 233.486239 276.812 
L 231.993262 276.812 
L 230.500285 276.812 
L 229.007309 276.812 
L 227.514332 276.812 
L 226.021356 276.812 
L 224.528379 276.812 
L 223.035402 276.812 
L 221.542426 276.812 
L 220.049449 276.812 
L 218.556473 276.812 
L 217.063496 276.812 
L 215.570519 276.812 
L 214.077543 276.812 
L 212.584566 276.812 
L 211.09159 276.812 
L 209.598613 276.812 
L 208.105636 276.812 
L 206.61266 276.812 
L 205.119683 276.812 
L 203.626707 276.812 
L 202.13373 276.812 
L 200.640754 276.812 
L 199.147777 276.812 
L 197.6548 276.812 
L 196.161824 276.812 
L 194.668847 276.812 
L 193.175871 276.812 
L 191.682894 276.812 
L 190.189917 276.812 
L 188.696941 276.812 
L 187.203964 276.812 
L 185.710988 276.812 
L 184.218011 276.812 
L 182.725034 276.812 
L 181.232058 276.812 
L 179.739081 276.812 
L 178.246105 276.812 
L 176.753128 276.812 
L 175.260152 276.812 
L 173.767175 276.812 
L 172.274198 276.812 
L 170.781222 276.812 
L 169.288245 276.812 
L 167.795269 276.812 
L 166.302292 276.812 
L 164.809315 276.812 
L 163.316339 276.812 
L 161.823362 276.812 
L 160.330386 276.812 
L 158.837409 276.812 
L 157.344432 276.812 
L 155.851456 276.812 
L 154.358479 276.812 
L 152.865503 276.812 
L 151.372526 276.812 
L 149.87955 276.812 
L 148.386573 276.812 
L 146.893596 276.812 
L 145.40062 276.812 
L 143.907643 276.812 
L 142.414667 276.812 
L 140.92169 276.812 
L 139.428713 276.812 
L 137.935737 276.812 
L 136.44276 276.812 
L 134.949784 276.812 
L 133.456807 276.812 
L 131.96383 276.812 
L 130.470854 276.812 
L 128.977877 276.812 
L 127.484901 276.812 
L 125.991924 276.812 
L 124.498948 276.812 
L 123.005971 276.812 
L 121.512994 276.812 
L 120.020018 276.812 
L 118.527041 276.812 
L 117.034065 276.812 
L 115.541088 276.812 
L 114.048111 276.812 
L 112.555135 276.812 
L 111.062158 276.812 
L 109.569182 276.812 
L 108.076205 276.812 
L 106.583228 276.812 
L 105.090252 276.812 
L 103.597275 276.812 
L 102.104299 276.812 
L 100.611322 276.812 
L 99.118346 276.812 
L 97.625369 276.812 
L 96.132392 276.812 
L 94.639416 276.812 
L 93.146439 276.812 
L 91.653463 276.812 
L 90.160486 276.812 
L 88.667509 276.812 
L 87.174533 276.812 
L 85.681556 276.812 
L 84.18858 276.812 
L 82.695603 276.812 
L 81.202626 276.812 
L 79.70965 276.812 
L 78.216673 276.812 
L 76.723697 276.812 
L 75.23072 276.812 
L 73.737744 276.812 
L 72.244767 276.812 
L 70.75179 276.812 
L 69.258814 276.812 
L 67.765837 276.812 
L 66.272861 276.812 
L 64.779884 276.812 
L 63.286907 276.812 
L 61.793931 276.812 
L 60.300954 276.812 
L 58.807978 276.812 
L 57.315001 276.812 
L 55.822024 276.812 
L 54.329048 276.812 
L 52.836071 276.812 
L 51.343095 276.812 
L 49.850118 276.812 
L 48.357142 276.812 
L 46.864165 276.812 
L 45.371188 276.812 
L 43.878212 276.812 
L 42.385235 276.812 
L 40.892259 276.812 
L 39.399282 276.812 
L 37.906305 276.812 
L 36.413329 276.812 
L 34.920352 276.812 
L 33.427376 276.812 
L 31.934399 276.812 
L 30.441422 276.812 
L 28.948446 276.812 
L 27.455469 276.812 
L 25.962493 276.812 
L 24.469516 276.812 
L 22.97654 276.812 
L 21.483563 276.812 
L 19.990586 276.812 
L 18.49761 276.812 
L 17.004633 276.812 
L 15.511657 276.812 
L 14.01868 276.812 
L 12.525703 276.812 
L 11.032727 276.812 
L 9.53975 276.812 
L 8.046774 276.812 
L 6.553797 276.812 
L 5.06082 276.812 
L 3.567844 276.812 
L 2.074867 276.812 
L 0.581891 276.812 
L -0.911086 276.812 
L -2.404062 276.812 
z
" style="fill:#ffbf96;stroke:#ffbf96;"/>
   </g>
   <g id="line2d_1">
    <path clip-path="url(#pcd29ada768)" d="M -1 276.812 
L 76.723697 276.716634 
L 85.681556 276.51707 
L 91.653463 276.218247 
L 96.132392 275.836003 
L 100.611322 275.245454 
L 103.597275 274.692709 
L 106.583228 273.975133 
L 109.569182 273.054592 
L 112.555135 271.887769 
L 115.541088 270.42658 
L 118.527041 268.619029 
L 121.512994 266.410542 
L 124.498948 263.745842 
L 127.484901 260.571384 
L 130.470854 256.838324 
L 133.456807 252.505944 
L 136.44276 247.54542 
L 139.428713 241.943715 
L 142.414667 235.707395 
L 145.40062 228.86605 
L 148.386573 221.475029 
L 152.865503 209.546708 
L 158.837409 192.72216 
L 164.809315 176.039605 
L 167.795269 168.225747 
L 170.781222 161.028126 
L 173.767175 154.636867 
L 175.260152 151.798215 
L 176.753128 149.223435 
L 178.246105 146.929377 
L 179.739081 144.930475 
L 181.232058 143.238465 
L 182.725034 141.862123 
L 184.218011 140.807025 
L 185.710988 140.075339 
L 187.203964 139.665644 
L 188.696941 139.572793 
L 190.189917 139.787806 
L 191.682894 140.297811 
L 193.175871 141.086033 
L 194.668847 142.131825 
L 196.161824 143.410754 
L 197.6548 144.894744 
L 200.640754 148.348616 
L 205.119683 154.18248 
L 208.105636 158.01854 
L 211.09159 161.395835 
L 212.584566 162.800978 
L 214.077543 163.960178 
L 215.570519 164.833617 
L 217.063496 165.384727 
L 218.556473 165.580974 
L 220.049449 165.394633 
L 221.542426 164.803531 
L 223.035402 163.791734 
L 224.528379 162.350174 
L 226.021356 160.477183 
L 227.514332 158.17892 
L 229.007309 155.469667 
L 230.500285 152.371985 
L 231.993262 148.916709 
L 234.979215 141.096853 
L 237.965168 132.411078 
L 243.937075 114.527097 
L 246.923028 106.510969 
L 248.416004 102.997593 
L 249.908981 99.908151 
L 251.401958 97.307124 
L 252.894934 95.252488 
L 254.387911 93.794522 
L 255.880887 92.974775 
L 257.373864 92.825231 
L 258.866841 93.367675 
L 260.359817 94.613302 
L 261.852794 96.562566 
L 263.34577 99.205266 
L 264.838747 102.520879 
L 266.331723 106.479121 
L 267.8247 111.040709 
L 269.317677 116.15832 
L 270.810653 121.777694 
L 273.796606 134.277452 
L 276.78256 148.015625 
L 287.233396 198.117085 
L 290.219349 211.112536 
L 293.205302 222.926894 
L 296.191255 233.395609 
L 299.177208 242.447805 
L 300.670185 246.443029 
L 302.163162 250.093139 
L 303.656138 253.409136 
L 305.149115 256.404837 
L 306.642091 259.096304 
L 308.135068 261.501293 
L 309.628045 263.638739 
L 311.121021 265.528291 
L 312.613998 267.189881 
L 314.106974 268.643366 
L 315.599951 269.908207 
L 317.092927 271.003213 
L 318.585904 271.946334 
L 321.571857 273.443532 
L 324.55781 274.52136 
L 327.543764 275.281919 
L 330.529717 275.808068 
L 335.008647 276.296032 
L 340.980553 276.612479 
L 349.938412 276.770047 
L 372.333061 276.81158 
L 411.055938 276.812 
L 411.055938 276.812 
" style="fill:none;stroke:#ff7f0e;stroke-linecap:square;stroke-width:2;"/>
   </g>
   <g id="matplotlib.axis_1">
    <g id="xtick_1">
     <g id="line2d_2">
      <defs>
       <path d="M 0 0 
L 0 3.5 
" id="m1797fbe667" style="stroke:#000000;stroke-width:0.8;"/>
      </defs>
      <g>
       <use style="stroke:#000000;stroke-width:0.8;" x="86.875937" xlink:href="#m1797fbe667" y="276.812"/>
      </g>
     </g>
     <g id="text_1">
      <!-- $x_{min}$ -->
      <defs>
       <path d="M 60.015625 54.6875 
L 34.90625 27.875 
L 50.296875 0 
L 39.984375 0 
L 28.421875 21.6875 
L 8.296875 0 
L -2.59375 0 
L 24.3125 28.8125 
L 10.015625 54.6875 
L 20.3125 54.6875 
L 30.8125 34.90625 
L 49.125 54.6875 
z
" id="DejaVuSans-Oblique-78"/>
       <path d="M 89.796875 33.015625 
L 83.40625 0 
L 74.421875 0 
L 80.71875 32.71875 
Q 81.109375 34.8125 81.296875 36.328125 
Q 81.5 37.84375 81.5 38.921875 
Q 81.5 43.3125 79.046875 45.75 
Q 76.609375 48.1875 72.21875 48.1875 
Q 65.671875 48.1875 60.546875 43.28125 
Q 55.421875 38.375 53.90625 30.515625 
L 47.90625 0 
L 38.921875 0 
L 45.3125 32.71875 
Q 45.703125 34.515625 45.890625 36.046875 
Q 46.09375 37.59375 46.09375 38.8125 
Q 46.09375 43.265625 43.65625 45.71875 
Q 41.21875 48.1875 36.921875 48.1875 
Q 30.28125 48.1875 25.140625 43.28125 
Q 20.015625 38.375 18.5 30.515625 
L 12.5 0 
L 3.515625 0 
L 14.203125 54.6875 
L 23.1875 54.6875 
L 21.484375 46.1875 
Q 25.140625 50.984375 30.046875 53.484375 
Q 34.96875 56 40.578125 56 
Q 46.53125 56 50.359375 52.875 
Q 54.203125 49.75 54.984375 44.1875 
Q 59.078125 49.953125 64.46875 52.96875 
Q 69.875 56 75.875 56 
Q 82.90625 56 86.734375 51.953125 
Q 90.578125 47.90625 90.578125 40.484375 
Q 90.578125 38.875 90.375 36.9375 
Q 90.1875 35.015625 89.796875 33.015625 
z
" id="DejaVuSans-Oblique-6d"/>
       <path d="M 18.3125 75.984375 
L 27.296875 75.984375 
L 25.09375 64.59375 
L 16.109375 64.59375 
z
M 14.203125 54.6875 
L 23.1875 54.6875 
L 12.5 0 
L 3.515625 0 
z
" id="DejaVuSans-Oblique-69"/>
       <path d="M 55.71875 33.015625 
L 49.3125 0 
L 40.28125 0 
L 46.6875 32.671875 
Q 47.125 34.96875 47.359375 36.71875 
Q 47.609375 38.484375 47.609375 39.5 
Q 47.609375 43.609375 45.015625 45.890625 
Q 42.4375 48.1875 37.796875 48.1875 
Q 30.5625 48.1875 25.34375 43.375 
Q 20.125 38.578125 18.5 30.328125 
L 12.5 0 
L 3.515625 0 
L 14.109375 54.6875 
L 23.09375 54.6875 
L 21.296875 46.09375 
Q 25.046875 50.828125 30.3125 53.40625 
Q 35.59375 56 41.40625 56 
Q 48.640625 56 52.609375 52.09375 
Q 56.59375 48.1875 56.59375 41.109375 
Q 56.59375 39.359375 56.375 37.359375 
Q 56.15625 35.359375 55.71875 33.015625 
z
" id="DejaVuSans-Oblique-6e"/>
      </defs>
      <g transform="translate(69.415937 297.489187)scale(0.18 -0.18)">
       <use transform="translate(0 0.3125)" xlink:href="#DejaVuSans-Oblique-78"/>
       <use transform="translate(59.179688 -16.09375)scale(0.7)" xlink:href="#DejaVuSans-Oblique-6d"/>
       <use transform="translate(127.368164 -16.09375)scale(0.7)" xlink:href="#DejaVuSans-Oblique-69"/>
       <use transform="translate(146.816406 -16.09375)scale(0.7)" xlink:href="#DejaVuSans-Oblique-6e"/>
      </g>
     </g>
    </g>
    <g id="xtick_2">
     <g id="line2d_3">
      <g>
       <use style="stroke:#000000;stroke-width:0.8;" x="354.715937" xlink:href="#m1797fbe667" y="276.812"/>
      </g>
     </g>
     <g id="text_2">
      <!-- $x_{max}$ -->
      <defs>
       <path d="M 53.71875 31.203125 
L 47.609375 0 
L 38.625 0 
L 40.28125 8.296875 
Q 36.328125 3.421875 31.265625 1 
Q 26.21875 -1.421875 20.015625 -1.421875 
Q 13.03125 -1.421875 8.5625 2.84375 
Q 4.109375 7.125 4.109375 13.8125 
Q 4.109375 23.390625 11.75 28.953125 
Q 19.390625 34.515625 32.8125 34.515625 
L 45.3125 34.515625 
L 45.796875 36.921875 
Q 45.90625 37.3125 45.953125 37.765625 
Q 46 38.234375 46 39.203125 
Q 46 43.5625 42.453125 45.96875 
Q 38.921875 48.390625 32.515625 48.390625 
Q 28.125 48.390625 23.5 47.265625 
Q 18.890625 46.140625 14.015625 43.890625 
L 15.578125 52.203125 
Q 20.65625 54.109375 25.515625 55.046875 
Q 30.375 56 34.90625 56 
Q 44.578125 56 49.625 51.796875 
Q 54.6875 47.609375 54.6875 39.59375 
Q 54.6875 37.984375 54.4375 35.8125 
Q 54.203125 33.640625 53.71875 31.203125 
z
M 44 27.484375 
L 35.015625 27.484375 
Q 23.96875 27.484375 18.671875 24.53125 
Q 13.375 21.578125 13.375 15.375 
Q 13.375 11.078125 16.078125 8.640625 
Q 18.796875 6.203125 23.578125 6.203125 
Q 30.90625 6.203125 36.375 11.453125 
Q 41.84375 16.703125 43.609375 25.484375 
z
" id="DejaVuSans-Oblique-61"/>
      </defs>
      <g transform="translate(335.365937 297.489187)scale(0.18 -0.18)">
       <use transform="translate(0 0.3125)" xlink:href="#DejaVuSans-Oblique-78"/>
       <use transform="translate(59.179688 -16.09375)scale(0.7)" xlink:href="#DejaVuSans-Oblique-6d"/>
       <use transform="translate(127.368164 -16.09375)scale(0.7)" xlink:href="#DejaVuSans-Oblique-61"/>
       <use transform="translate(170.263672 -16.09375)scale(0.7)" xlink:href="#DejaVuSans-Oblique-78"/>
      </g>
     </g>
    </g>
    <g id="text_3">
     <!-- x -->
     <defs>
      <path d="M 54.890625 54.6875 
L 35.109375 28.078125 
L 55.90625 0 
L 45.3125 0 
L 29.390625 21.484375 
L 13.484375 0 
L 2.875 0 
L 24.125 28.609375 
L 4.6875 54.6875 
L 15.28125 54.6875 
L 29.78125 35.203125 
L 44.28125 54.6875 
z
" id="DejaVuSans-78"/>
     </defs>
     <g transform="translate(215.469063 294.909812)scale(0.18 -0.18)">
      <use xlink:href="#DejaVuSans-78"/>
     </g>
    </g>
   </g>
   <g id="matplotlib.axis_2">
    <g id="text_4">
     <!-- f(x) -->
     <defs>
      <path d="M 37.109375 75.984375 
L 37.109375 68.5 
L 28.515625 68.5 
Q 23.6875 68.5 21.796875 66.546875 
Q 19.921875 64.59375 19.921875 59.515625 
L 19.921875 54.6875 
L 34.71875 54.6875 
L 34.71875 47.703125 
L 19.921875 47.703125 
L 19.921875 0 
L 10.890625 0 
L 10.890625 47.703125 
L 2.296875 47.703125 
L 2.296875 54.6875 
L 10.890625 54.6875 
L 10.890625 58.5 
Q 10.890625 67.625 15.140625 71.796875 
Q 19.390625 75.984375 28.609375 75.984375 
z
" id="DejaVuSans-66"/>
      <path d="M 31 75.875 
Q 24.46875 64.65625 21.28125 53.65625 
Q 18.109375 42.671875 18.109375 31.390625 
Q 18.109375 20.125 21.3125 9.0625 
Q 24.515625 -2 31 -13.1875 
L 23.1875 -13.1875 
Q 15.875 -1.703125 12.234375 9.375 
Q 8.59375 20.453125 8.59375 31.390625 
Q 8.59375 42.28125 12.203125 53.3125 
Q 15.828125 64.359375 23.1875 75.875 
z
" id="DejaVuSans-28"/>
      <path d="M 8.015625 75.875 
L 15.828125 75.875 
Q 23.140625 64.359375 26.78125 53.3125 
Q 30.421875 42.28125 30.421875 31.390625 
Q 30.421875 20.453125 26.78125 9.375 
Q 23.140625 -1.703125 15.828125 -13.1875 
L 8.015625 -13.1875 
Q 14.5 -2 17.703125 9.0625 
Q 20.90625 20.125 20.90625 31.390625 
Q 20.90625 42.671875 17.703125 53.65625 
Q 14.5 64.65625 8.015625 75.875 
z
" id="DejaVuSans-29"/>
     </defs>
     <g transform="translate(7.2 140.012563)scale(0.18 -0.18)">
      <use xlink:href="#DejaVuSans-66"/>
      <use x="35.205078" xlink:href="#DejaVuSans-28"/>
      <use x="74.21875" xlink:href="#DejaVuSans-78"/>
      <use x="133.398438" xlink:href="#DejaVuSans-29"/>
     </g>
    </g>
   </g>
   <g id="patch_4">
    <path d="M 42.235938 276.812 
L 42.235938 10.7 
" style="fill:none;stroke:#000000;stroke-linecap:square;stroke-linejoin:miter;stroke-width:0.8;"/>
   </g>
   <g id="patch_5">
    <path d="M 399.355937 276.812 
L 399.355937 10.7 
" style="fill:none;stroke:#000000;stroke-linecap:square;stroke-linejoin:miter;stroke-width:0.8;"/>
   </g>
   <g id="patch_6">
    <path d="M 42.235938 276.812 
L 399.355937 276.812 
" style="fill:none;stroke:#000000;stroke-linecap:square;stroke-linejoin:miter;stroke-width:0.8;"/>
   </g>
   <g id="patch_7">
    <path d="M 42.235938 10.7 
L 399.355937 10.7 
" style="fill:none;stroke:#000000;stroke-linecap:square;stroke-linejoin:miter;stroke-width:0.8;"/>
   </g>
  </g>
 </g>
 <defs>
  <clipPath id="pcd29ada768">
   <rect height="266.112" width="357.12" x="42.235938" y="10.7"/>
  </clipPath>
 </defs>
</svg>
