<?xml version="1.0" encoding="utf-8" standalone="no"?>
<!DOCTYPE svg PUBLIC "-//W3C//DTD SVG 1.1//EN"
  "http://www.w3.org/Graphics/SVG/1.1/DTD/svg11.dtd">
<!-- Created with matplotlib (http://matplotlib.org/) -->
<svg height="270pt" version="1.1" viewBox="0 0 383 270" width="383pt" xmlns="http://www.w3.org/2000/svg" xmlns:xlink="http://www.w3.org/1999/xlink">
 <defs>
  <style type="text/css">
*{stroke-linecap:butt;stroke-linejoin:round;}
  </style>
 </defs>
 <g id="figure_1">
  <g id="patch_1">
   <path d="M 0 270.275937 
L 383.765 270.275937 
L 383.765 0 
L 0 0 
z
" style="fill:none;"/>
  </g>
  <g id="axes_1">
   <g id="patch_2">
    <path d="M 41.765 106.036364 
L 376.565 106.036364 
L 376.565 7.2 
L 41.765 7.2 
z
" style="fill:#eaeaf2;"/>
   </g>
   <g id="matplotlib.axis_1">
    <g id="xtick_1">
     <g id="line2d_1">
      <path clip-path="url(#pf9d9ec67c9)" d="M 71.476688 106.036364 
L 71.476688 7.2 
" style="fill:none;stroke:#ffffff;stroke-linecap:round;"/>
     </g>
     <g id="line2d_2"/>
    </g>
    <g id="xtick_2">
     <g id="line2d_3">
      <path clip-path="url(#pf9d9ec67c9)" d="M 143.944221 106.036364 
L 143.944221 7.2 
" style="fill:none;stroke:#ffffff;stroke-linecap:round;"/>
     </g>
     <g id="line2d_4"/>
    </g>
    <g id="xtick_3">
     <g id="line2d_5">
      <path clip-path="url(#pf9d9ec67c9)" d="M 216.411753 106.036364 
L 216.411753 7.2 
" style="fill:none;stroke:#ffffff;stroke-linecap:round;"/>
     </g>
     <g id="line2d_6"/>
    </g>
    <g id="xtick_4">
     <g id="line2d_7">
      <path clip-path="url(#pf9d9ec67c9)" d="M 288.879286 106.036364 
L 288.879286 7.2 
" style="fill:none;stroke:#ffffff;stroke-linecap:round;"/>
     </g>
     <g id="line2d_8"/>
    </g>
    <g id="xtick_5">
     <g id="line2d_9">
      <path clip-path="url(#pf9d9ec67c9)" d="M 361.346818 106.036364 
L 361.346818 7.2 
" style="fill:none;stroke:#ffffff;stroke-linecap:round;"/>
     </g>
     <g id="line2d_10"/>
    </g>
   </g>
   <g id="matplotlib.axis_2">
    <g id="ytick_1">
     <g id="line2d_11">
      <path clip-path="url(#pf9d9ec67c9)" d="M 41.765 106.036364 
L 376.565 106.036364 
" style="fill:none;stroke:#ffffff;stroke-linecap:round;"/>
     </g>
     <g id="line2d_12"/>
     <g id="text_1">
      <!-- 0 -->
      <defs>
       <path d="M 4.15625 35.296875 
Q 4.15625 48 6.765625 55.734375 
Q 9.375 63.484375 14.515625 67.671875 
Q 19.671875 71.875 27.484375 71.875 
Q 33.25 71.875 37.59375 69.546875 
Q 41.9375 67.234375 44.765625 62.859375 
Q 47.609375 58.5 49.21875 52.21875 
Q 50.828125 45.953125 50.828125 35.296875 
Q 50.828125 22.703125 48.234375 14.96875 
Q 45.65625 7.234375 40.5 3 
Q 35.359375 -1.21875 27.484375 -1.21875 
Q 17.140625 -1.21875 11.234375 6.203125 
Q 4.15625 15.140625 4.15625 35.296875 
z
M 13.1875 35.296875 
Q 13.1875 17.671875 17.3125 11.828125 
Q 21.4375 6 27.484375 6 
Q 33.546875 6 37.671875 11.859375 
Q 41.796875 17.71875 41.796875 35.296875 
Q 41.796875 52.984375 37.671875 58.78125 
Q 33.546875 64.59375 27.390625 64.59375 
Q 21.34375 64.59375 17.71875 59.46875 
Q 13.1875 52.9375 13.1875 35.296875 
z
" id="ArialMT-30"/>
      </defs>
      <g style="fill:#262626;" transform="translate(28.091875 110.331051)scale(0.12 -0.12)">
       <use xlink:href="#ArialMT-30"/>
      </g>
     </g>
    </g>
    <g id="ytick_2">
     <g id="line2d_13">
      <path clip-path="url(#pf9d9ec67c9)" d="M 41.765 58.971429 
L 376.565 58.971429 
" style="fill:none;stroke:#ffffff;stroke-linecap:round;"/>
     </g>
     <g id="line2d_14"/>
     <g id="text_2">
      <!-- 1 -->
      <defs>
       <path d="M 37.25 0 
L 28.46875 0 
L 28.46875 56 
Q 25.296875 52.984375 20.140625 49.953125 
Q 14.984375 46.921875 10.890625 45.40625 
L 10.890625 53.90625 
Q 18.265625 57.375 23.78125 62.296875 
Q 29.296875 67.234375 31.59375 71.875 
L 37.25 71.875 
z
" id="ArialMT-31"/>
      </defs>
      <g style="fill:#262626;" transform="translate(28.091875 63.266116)scale(0.12 -0.12)">
       <use xlink:href="#ArialMT-31"/>
      </g>
     </g>
    </g>
    <g id="ytick_3">
     <g id="line2d_15">
      <path clip-path="url(#pf9d9ec67c9)" d="M 41.765 11.906494 
L 376.565 11.906494 
" style="fill:none;stroke:#ffffff;stroke-linecap:round;"/>
     </g>
     <g id="line2d_16"/>
     <g id="text_3">
      <!-- 2 -->
      <defs>
       <path d="M 50.34375 8.453125 
L 50.34375 0 
L 3.03125 0 
Q 2.9375 3.171875 4.046875 6.109375 
Q 5.859375 10.9375 9.828125 15.625 
Q 13.8125 20.3125 21.34375 26.46875 
Q 33.015625 36.03125 37.109375 41.625 
Q 41.21875 47.21875 41.21875 52.203125 
Q 41.21875 57.421875 37.46875 61 
Q 33.734375 64.59375 27.734375 64.59375 
Q 21.390625 64.59375 17.578125 60.78125 
Q 13.765625 56.984375 13.71875 50.25 
L 4.6875 51.171875 
Q 5.609375 61.28125 11.65625 66.578125 
Q 17.71875 71.875 27.9375 71.875 
Q 38.234375 71.875 44.234375 66.15625 
Q 50.25 60.453125 50.25 52 
Q 50.25 47.703125 48.484375 43.546875 
Q 46.734375 39.40625 42.65625 34.8125 
Q 38.578125 30.21875 29.109375 22.21875 
Q 21.1875 15.578125 18.9375 13.203125 
Q 16.703125 10.84375 15.234375 8.453125 
z
" id="ArialMT-32"/>
      </defs>
      <g style="fill:#262626;" transform="translate(28.091875 16.201181)scale(0.12 -0.12)">
       <use xlink:href="#ArialMT-32"/>
      </g>
     </g>
    </g>
    <g id="text_4">
     <!-- g(u) -->
     <defs>
      <path d="M 4.984375 -4.296875 
L 13.53125 -5.5625 
Q 14.0625 -9.515625 16.5 -11.328125 
Q 19.78125 -13.765625 25.4375 -13.765625 
Q 31.546875 -13.765625 34.859375 -11.328125 
Q 38.1875 -8.890625 39.359375 -4.5 
Q 40.046875 -1.8125 39.984375 6.78125 
Q 34.234375 0 25.640625 0 
Q 14.9375 0 9.078125 7.71875 
Q 3.21875 15.4375 3.21875 26.21875 
Q 3.21875 33.640625 5.90625 39.90625 
Q 8.59375 46.1875 13.6875 49.609375 
Q 18.796875 53.03125 25.6875 53.03125 
Q 34.859375 53.03125 40.828125 45.609375 
L 40.828125 51.859375 
L 48.921875 51.859375 
L 48.921875 7.03125 
Q 48.921875 -5.078125 46.453125 -10.125 
Q 44 -15.1875 38.640625 -18.109375 
Q 33.296875 -21.046875 25.484375 -21.046875 
Q 16.21875 -21.046875 10.5 -16.875 
Q 4.78125 -12.703125 4.984375 -4.296875 
z
M 12.25 26.859375 
Q 12.25 16.65625 16.296875 11.96875 
Q 20.359375 7.28125 26.46875 7.28125 
Q 32.515625 7.28125 36.609375 11.9375 
Q 40.71875 16.609375 40.71875 26.5625 
Q 40.71875 36.078125 36.5 40.90625 
Q 32.28125 45.75 26.3125 45.75 
Q 20.453125 45.75 16.34375 40.984375 
Q 12.25 36.234375 12.25 26.859375 
z
" id="ArialMT-67"/>
      <path d="M 23.390625 -21.046875 
Q 16.109375 -11.859375 11.078125 0.4375 
Q 6.0625 12.75 6.0625 25.921875 
Q 6.0625 37.546875 9.8125 48.1875 
Q 14.203125 60.546875 23.390625 72.796875 
L 29.6875 72.796875 
Q 23.78125 62.640625 21.875 58.296875 
Q 18.890625 51.5625 17.1875 44.234375 
Q 15.09375 35.109375 15.09375 25.875 
Q 15.09375 2.390625 29.6875 -21.046875 
z
" id="ArialMT-28"/>
      <path d="M 40.578125 0 
L 40.578125 7.625 
Q 34.515625 -1.171875 24.125 -1.171875 
Q 19.53125 -1.171875 15.546875 0.578125 
Q 11.578125 2.34375 9.640625 5 
Q 7.71875 7.671875 6.9375 11.53125 
Q 6.390625 14.109375 6.390625 19.734375 
L 6.390625 51.859375 
L 15.1875 51.859375 
L 15.1875 23.09375 
Q 15.1875 16.21875 15.71875 13.8125 
Q 16.546875 10.359375 19.234375 8.375 
Q 21.921875 6.390625 25.875 6.390625 
Q 29.828125 6.390625 33.296875 8.421875 
Q 36.765625 10.453125 38.203125 13.9375 
Q 39.65625 17.4375 39.65625 24.078125 
L 39.65625 51.859375 
L 48.4375 51.859375 
L 48.4375 0 
z
" id="ArialMT-75"/>
      <path d="M 12.359375 -21.046875 
L 6.0625 -21.046875 
Q 20.65625 2.390625 20.65625 25.875 
Q 20.65625 35.0625 18.5625 44.09375 
Q 16.890625 51.421875 13.921875 58.15625 
Q 12.015625 62.546875 6.0625 72.796875 
L 12.359375 72.796875 
Q 21.53125 60.546875 25.921875 48.1875 
Q 29.6875 37.546875 29.6875 25.921875 
Q 29.6875 12.75 24.625 0.4375 
Q 19.578125 -11.859375 12.359375 -21.046875 
z
" id="ArialMT-29"/>
     </defs>
     <g style="fill:#262626;" transform="translate(20.303438 72.621307)rotate(-90)scale(0.18 -0.18)">
      <use xlink:href="#ArialMT-67"/>
      <use x="55.615234" xlink:href="#ArialMT-28"/>
      <use x="88.916016" xlink:href="#ArialMT-75"/>
      <use x="144.53125" xlink:href="#ArialMT-29"/>
     </g>
    </g>
   </g>
   <g id="PolyCollection_1">
    <path clip-path="url(#pf9d9ec67c9)" d="M 56.983182 106.036364 
L 56.983182 106.036364 
L 57.157278 106.036364 
L 57.331374 106.036364 
L 57.50547 106.036364 
L 57.679567 106.036364 
L 57.853663 106.036364 
L 58.027759 106.036364 
L 58.201855 106.036364 
L 58.375951 106.036364 
L 58.550047 106.036364 
L 58.724144 106.036364 
L 58.89824 106.036364 
L 59.072336 106.036364 
L 59.246432 106.036364 
L 59.420528 106.036364 
L 59.594624 106.036364 
L 59.768721 106.036364 
L 59.942817 106.036364 
L 60.116913 106.036364 
L 60.291009 106.036364 
L 60.465105 106.036364 
L 60.639201 106.036364 
L 60.813298 106.036364 
L 60.987394 106.036364 
L 61.16149 106.036364 
L 61.335586 106.036364 
L 61.509682 106.036364 
L 61.683779 106.036364 
L 61.857875 106.036364 
L 62.031971 106.036364 
L 62.206067 106.036364 
L 62.380163 106.036364 
L 62.554259 106.036364 
L 62.728356 106.036364 
L 62.902452 106.036364 
L 63.076548 106.036364 
L 63.250644 106.036364 
L 63.42474 106.036364 
L 63.598836 106.036364 
L 63.772933 106.036364 
L 63.947029 106.036364 
L 64.121125 106.036364 
L 64.295221 106.036364 
L 64.469317 106.036364 
L 64.643413 106.036364 
L 64.81751 106.036364 
L 64.991606 106.036364 
L 65.165702 106.036364 
L 65.339798 106.036364 
L 65.513894 106.036364 
L 65.687991 106.036364 
L 65.862087 106.036364 
L 66.036183 106.036364 
L 66.210279 106.036364 
L 66.384375 106.036364 
L 66.558471 106.036364 
L 66.732568 106.036364 
L 66.906664 106.036364 
L 67.08076 106.036364 
L 67.254856 106.036364 
L 67.428952 106.036364 
L 67.603048 106.036364 
L 67.777145 106.036364 
L 67.951241 106.036364 
L 68.125337 106.036364 
L 68.299433 106.036364 
L 68.473529 106.036364 
L 68.647625 106.036364 
L 68.821722 106.036364 
L 68.995818 106.036364 
L 69.169914 106.036364 
L 69.34401 106.036364 
L 69.518106 106.036364 
L 69.692203 106.036364 
L 69.866299 106.036364 
L 70.040395 106.036364 
L 70.214491 106.036364 
L 70.388587 106.036364 
L 70.562683 106.036364 
L 70.73678 106.036364 
L 70.910876 106.036364 
L 71.084972 106.036364 
L 71.259068 106.036364 
L 71.433164 106.036364 
L 71.60726 106.036364 
L 71.781357 106.036364 
L 71.955453 106.036364 
L 72.129549 106.036364 
L 72.303645 106.036364 
L 72.477741 106.036364 
L 72.651837 106.036364 
L 72.825934 106.036364 
L 73.00003 106.036364 
L 73.174126 106.036364 
L 73.348222 106.036364 
L 73.522318 106.036364 
L 73.696415 106.036364 
L 73.870511 106.036364 
L 74.044607 106.036364 
L 74.218703 106.036364 
L 74.392799 106.036364 
L 74.566895 106.036364 
L 74.740992 106.036364 
L 74.915088 106.036364 
L 75.089184 106.036364 
L 75.26328 106.036364 
L 75.437376 106.036364 
L 75.611472 106.036364 
L 75.785569 106.036364 
L 75.959665 106.036364 
L 76.133761 106.036364 
L 76.307857 106.036364 
L 76.481953 106.036364 
L 76.656049 106.036364 
L 76.830146 106.036364 
L 77.004242 106.036364 
L 77.178338 106.036364 
L 77.352434 106.036364 
L 77.52653 106.036364 
L 77.700627 106.036364 
L 77.874723 106.036364 
L 78.048819 106.036364 
L 78.222915 106.036364 
L 78.397011 106.036364 
L 78.571107 106.036364 
L 78.745204 106.036364 
L 78.9193 106.036364 
L 79.093396 106.036364 
L 79.267492 106.036364 
L 79.441588 106.036364 
L 79.615684 106.036364 
L 79.789781 106.036364 
L 79.963877 106.036364 
L 80.137973 106.036364 
L 80.312069 106.036364 
L 80.486165 106.036364 
L 80.660261 106.036364 
L 80.834358 106.036364 
L 81.008454 106.036364 
L 81.18255 106.036364 
L 81.356646 106.036364 
L 81.530742 106.036364 
L 81.704839 106.036364 
L 81.878935 106.036364 
L 82.053031 106.036364 
L 82.227127 106.036364 
L 82.401223 106.036364 
L 82.575319 106.036364 
L 82.749416 106.036364 
L 82.923512 106.036364 
L 83.097608 106.036364 
L 83.271704 106.036364 
L 83.4458 106.036364 
L 83.619896 106.036364 
L 83.793993 106.036364 
L 83.968089 106.036364 
L 84.142185 106.036364 
L 84.316281 106.036364 
L 84.490377 106.036364 
L 84.664473 106.036364 
L 84.83857 106.036364 
L 85.012666 106.036364 
L 85.186762 106.036364 
L 85.360858 106.036364 
L 85.534954 106.036364 
L 85.709051 106.036364 
L 85.883147 106.036364 
L 86.057243 106.036364 
L 86.231339 106.036364 
L 86.405435 106.036364 
L 86.579531 106.036364 
L 86.753628 106.036364 
L 86.927724 106.036364 
L 87.10182 106.036364 
L 87.275916 106.036364 
L 87.450012 106.036364 
L 87.624108 106.036364 
L 87.798205 106.036364 
L 87.972301 106.036364 
L 88.146397 106.036364 
L 88.320493 106.036364 
L 88.494589 106.036364 
L 88.668686 106.036364 
L 88.842782 106.036364 
L 89.016878 106.036364 
L 89.190974 106.036364 
L 89.36507 106.036364 
L 89.539166 106.036364 
L 89.713263 106.036364 
L 89.887359 106.036364 
L 90.061455 106.036364 
L 90.235551 106.036364 
L 90.409647 106.036364 
L 90.583743 106.036364 
L 90.75784 106.036364 
L 90.931936 106.036364 
L 91.106032 106.036364 
L 91.280128 106.036364 
L 91.454224 106.036364 
L 91.62832 106.036364 
L 91.802417 106.036364 
L 91.976513 106.036364 
L 92.150609 106.036364 
L 92.324705 106.036364 
L 92.498801 106.036364 
L 92.672898 106.036364 
L 92.846994 106.036364 
L 93.02109 106.036364 
L 93.195186 106.036364 
L 93.369282 106.036364 
L 93.543378 106.036364 
L 93.717475 106.036364 
L 93.891571 106.036364 
L 94.065667 106.036364 
L 94.239763 106.036364 
L 94.413859 106.036364 
L 94.587955 106.036364 
L 94.762052 106.036364 
L 94.936148 106.036364 
L 95.110244 106.036364 
L 95.28434 106.036364 
L 95.458436 106.036364 
L 95.632532 106.036364 
L 95.806629 106.036364 
L 95.980725 106.036364 
L 96.154821 106.036364 
L 96.328917 106.036364 
L 96.503013 106.036364 
L 96.67711 106.036364 
L 96.851206 106.036364 
L 97.025302 106.036364 
L 97.199398 106.036364 
L 97.373494 106.036364 
L 97.54759 106.036364 
L 97.721687 106.036364 
L 97.895783 106.036364 
L 98.069879 106.036364 
L 98.243975 106.036364 
L 98.418071 106.036364 
L 98.592167 106.036364 
L 98.766264 106.036364 
L 98.94036 106.036364 
L 99.114456 106.036364 
L 99.288552 106.036364 
L 99.462648 106.036364 
L 99.636744 106.036364 
L 99.810841 106.036364 
L 99.984937 106.036364 
L 100.159033 106.036364 
L 100.333129 106.036364 
L 100.507225 106.036364 
L 100.681322 106.036364 
L 100.855418 106.036364 
L 101.029514 106.036364 
L 101.20361 106.036364 
L 101.377706 106.036364 
L 101.551802 106.036364 
L 101.725899 106.036364 
L 101.899995 106.036364 
L 102.074091 106.036364 
L 102.248187 106.036364 
L 102.422283 106.036364 
L 102.596379 106.036364 
L 102.770476 106.036364 
L 102.944572 106.036364 
L 103.118668 106.036364 
L 103.292764 106.036364 
L 103.46686 106.036364 
L 103.640956 106.036364 
L 103.815053 106.036364 
L 103.989149 106.036364 
L 104.163245 106.036364 
L 104.337341 106.036364 
L 104.511437 106.036364 
L 104.685534 106.036364 
L 104.85963 106.036364 
L 105.033726 106.036364 
L 105.207822 106.036364 
L 105.381918 106.036364 
L 105.556014 106.036364 
L 105.730111 106.036364 
L 105.904207 106.036364 
L 106.078303 106.036364 
L 106.252399 106.036364 
L 106.426495 106.036364 
L 106.600591 106.036364 
L 106.774688 106.036364 
L 106.948784 106.036364 
L 107.12288 106.036364 
L 107.296976 106.036364 
L 107.471072 106.036364 
L 107.645168 106.036364 
L 107.819265 106.036364 
L 107.993361 106.036364 
L 108.167457 106.036364 
L 108.341553 106.036364 
L 108.515649 106.036364 
L 108.689746 106.036364 
L 108.863842 106.036364 
L 109.037938 106.036364 
L 109.212034 106.036364 
L 109.38613 106.036364 
L 109.560226 106.036364 
L 109.734323 106.036364 
L 109.908419 106.036364 
L 110.082515 106.036364 
L 110.256611 106.036364 
L 110.430707 106.036364 
L 110.604803 106.036364 
L 110.7789 106.036364 
L 110.952996 106.036364 
L 111.127092 106.036364 
L 111.301188 106.036364 
L 111.475284 106.036364 
L 111.64938 106.036364 
L 111.823477 106.036364 
L 111.997573 106.036364 
L 112.171669 106.036364 
L 112.345765 106.036364 
L 112.519861 106.036364 
L 112.693958 106.036364 
L 112.868054 106.036364 
L 113.04215 106.036364 
L 113.216246 106.036364 
L 113.390342 106.036364 
L 113.564438 106.036364 
L 113.738535 106.036364 
L 113.912631 106.036364 
L 114.086727 106.036364 
L 114.260823 106.036364 
L 114.434919 106.036364 
L 114.609015 106.036364 
L 114.783112 106.036364 
L 114.957208 106.036364 
L 115.131304 106.036364 
L 115.3054 106.036364 
L 115.479496 106.036364 
L 115.653592 106.036364 
L 115.827689 106.036364 
L 116.001785 106.036364 
L 116.175881 106.036364 
L 116.349977 106.036364 
L 116.524073 106.036364 
L 116.69817 106.036364 
L 116.872266 106.036364 
L 117.046362 106.036364 
L 117.220458 106.036364 
L 117.394554 106.036364 
L 117.56865 106.036364 
L 117.742747 106.036364 
L 117.916843 106.036364 
L 118.090939 106.036364 
L 118.265035 106.036364 
L 118.439131 106.036364 
L 118.613227 106.036364 
L 118.787324 106.036364 
L 118.96142 106.036364 
L 119.135516 106.036364 
L 119.309612 106.036364 
L 119.483708 106.036364 
L 119.657804 106.036364 
L 119.831901 106.036364 
L 120.005997 106.036364 
L 120.180093 106.036364 
L 120.354189 106.036364 
L 120.528285 106.036364 
L 120.702382 106.036364 
L 120.876478 106.036364 
L 121.050574 106.036364 
L 121.22467 106.036364 
L 121.398766 106.036364 
L 121.572862 106.036364 
L 121.746959 106.036364 
L 121.921055 106.036364 
L 122.095151 106.036364 
L 122.269247 106.036364 
L 122.443343 106.036364 
L 122.617439 106.036364 
L 122.791536 106.036364 
L 122.965632 106.036364 
L 123.139728 106.036364 
L 123.313824 106.036364 
L 123.48792 106.036364 
L 123.662016 106.036364 
L 123.836113 106.036364 
L 124.010209 106.036364 
L 124.184305 106.036364 
L 124.358401 106.036364 
L 124.532497 106.036364 
L 124.706594 106.036364 
L 124.88069 106.036364 
L 125.054786 106.036364 
L 125.228882 106.036364 
L 125.402978 106.036364 
L 125.577074 106.036364 
L 125.751171 106.036364 
L 125.925267 106.036364 
L 126.099363 106.036364 
L 126.273459 106.036364 
L 126.447555 106.036364 
L 126.621651 106.036364 
L 126.795748 106.036364 
L 126.969844 106.036364 
L 127.14394 106.036364 
L 127.318036 106.036364 
L 127.492132 106.036364 
L 127.666229 106.036364 
L 127.840325 106.036364 
L 128.014421 106.036364 
L 128.188517 106.036364 
L 128.362613 106.036364 
L 128.536709 106.036364 
L 128.710806 106.036364 
L 128.884902 106.036364 
L 129.058998 106.036364 
L 129.233094 106.036364 
L 129.40719 106.036364 
L 129.581286 106.036364 
L 129.755383 106.036364 
L 129.929479 106.036364 
L 129.929479 58.971429 
L 129.929479 58.971429 
L 129.755383 58.971429 
L 129.581286 58.971429 
L 129.40719 58.971429 
L 129.233094 58.971429 
L 129.058998 58.971429 
L 128.884902 58.971429 
L 128.710806 58.971429 
L 128.536709 58.971429 
L 128.362613 58.971429 
L 128.188517 58.971429 
L 128.014421 58.971429 
L 127.840325 58.971429 
L 127.666229 58.971429 
L 127.492132 58.971429 
L 127.318036 58.971429 
L 127.14394 58.971429 
L 126.969844 58.971429 
L 126.795748 58.971429 
L 126.621651 58.971429 
L 126.447555 58.971429 
L 126.273459 58.971429 
L 126.099363 58.971429 
L 125.925267 58.971429 
L 125.751171 58.971429 
L 125.577074 58.971429 
L 125.402978 58.971429 
L 125.228882 58.971429 
L 125.054786 58.971429 
L 124.88069 58.971429 
L 124.706594 58.971429 
L 124.532497 58.971429 
L 124.358401 58.971429 
L 124.184305 58.971429 
L 124.010209 58.971429 
L 123.836113 58.971429 
L 123.662016 58.971429 
L 123.48792 58.971429 
L 123.313824 58.971429 
L 123.139728 58.971429 
L 122.965632 58.971429 
L 122.791536 58.971429 
L 122.617439 58.971429 
L 122.443343 58.971429 
L 122.269247 58.971429 
L 122.095151 58.971429 
L 121.921055 58.971429 
L 121.746959 58.971429 
L 121.572862 58.971429 
L 121.398766 58.971429 
L 121.22467 58.971429 
L 121.050574 58.971429 
L 120.876478 58.971429 
L 120.702382 58.971429 
L 120.528285 58.971429 
L 120.354189 58.971429 
L 120.180093 58.971429 
L 120.005997 58.971429 
L 119.831901 58.971429 
L 119.657804 58.971429 
L 119.483708 58.971429 
L 119.309612 58.971429 
L 119.135516 58.971429 
L 118.96142 58.971429 
L 118.787324 58.971429 
L 118.613227 58.971429 
L 118.439131 58.971429 
L 118.265035 58.971429 
L 118.090939 58.971429 
L 117.916843 58.971429 
L 117.742747 58.971429 
L 117.56865 58.971429 
L 117.394554 58.971429 
L 117.220458 58.971429 
L 117.046362 58.971429 
L 116.872266 58.971429 
L 116.69817 58.971429 
L 116.524073 58.971429 
L 116.349977 58.971429 
L 116.175881 58.971429 
L 116.001785 58.971429 
L 115.827689 58.971429 
L 115.653592 58.971429 
L 115.479496 58.971429 
L 115.3054 58.971429 
L 115.131304 58.971429 
L 114.957208 58.971429 
L 114.783112 58.971429 
L 114.609015 58.971429 
L 114.434919 58.971429 
L 114.260823 58.971429 
L 114.086727 58.971429 
L 113.912631 58.971429 
L 113.738535 58.971429 
L 113.564438 58.971429 
L 113.390342 58.971429 
L 113.216246 58.971429 
L 113.04215 58.971429 
L 112.868054 58.971429 
L 112.693958 58.971429 
L 112.519861 58.971429 
L 112.345765 58.971429 
L 112.171669 58.971429 
L 111.997573 58.971429 
L 111.823477 58.971429 
L 111.64938 58.971429 
L 111.475284 58.971429 
L 111.301188 58.971429 
L 111.127092 58.971429 
L 110.952996 58.971429 
L 110.7789 58.971429 
L 110.604803 58.971429 
L 110.430707 58.971429 
L 110.256611 58.971429 
L 110.082515 58.971429 
L 109.908419 58.971429 
L 109.734323 58.971429 
L 109.560226 58.971429 
L 109.38613 58.971429 
L 109.212034 58.971429 
L 109.037938 58.971429 
L 108.863842 58.971429 
L 108.689746 58.971429 
L 108.515649 58.971429 
L 108.341553 58.971429 
L 108.167457 58.971429 
L 107.993361 58.971429 
L 107.819265 58.971429 
L 107.645168 58.971429 
L 107.471072 58.971429 
L 107.296976 58.971429 
L 107.12288 58.971429 
L 106.948784 58.971429 
L 106.774688 58.971429 
L 106.600591 58.971429 
L 106.426495 58.971429 
L 106.252399 58.971429 
L 106.078303 58.971429 
L 105.904207 58.971429 
L 105.730111 58.971429 
L 105.556014 58.971429 
L 105.381918 58.971429 
L 105.207822 58.971429 
L 105.033726 58.971429 
L 104.85963 58.971429 
L 104.685534 58.971429 
L 104.511437 58.971429 
L 104.337341 58.971429 
L 104.163245 58.971429 
L 103.989149 58.971429 
L 103.815053 58.971429 
L 103.640956 58.971429 
L 103.46686 58.971429 
L 103.292764 58.971429 
L 103.118668 58.971429 
L 102.944572 58.971429 
L 102.770476 58.971429 
L 102.596379 58.971429 
L 102.422283 58.971429 
L 102.248187 58.971429 
L 102.074091 58.971429 
L 101.899995 58.971429 
L 101.725899 58.971429 
L 101.551802 58.971429 
L 101.377706 58.971429 
L 101.20361 58.971429 
L 101.029514 58.971429 
L 100.855418 58.971429 
L 100.681322 58.971429 
L 100.507225 58.971429 
L 100.333129 58.971429 
L 100.159033 58.971429 
L 99.984937 58.971429 
L 99.810841 58.971429 
L 99.636744 58.971429 
L 99.462648 58.971429 
L 99.288552 58.971429 
L 99.114456 58.971429 
L 98.94036 58.971429 
L 98.766264 58.971429 
L 98.592167 58.971429 
L 98.418071 58.971429 
L 98.243975 58.971429 
L 98.069879 58.971429 
L 97.895783 58.971429 
L 97.721687 58.971429 
L 97.54759 58.971429 
L 97.373494 58.971429 
L 97.199398 58.971429 
L 97.025302 58.971429 
L 96.851206 58.971429 
L 96.67711 58.971429 
L 96.503013 58.971429 
L 96.328917 58.971429 
L 96.154821 58.971429 
L 95.980725 58.971429 
L 95.806629 58.971429 
L 95.632532 58.971429 
L 95.458436 58.971429 
L 95.28434 58.971429 
L 95.110244 58.971429 
L 94.936148 58.971429 
L 94.762052 58.971429 
L 94.587955 58.971429 
L 94.413859 58.971429 
L 94.239763 58.971429 
L 94.065667 58.971429 
L 93.891571 58.971429 
L 93.717475 58.971429 
L 93.543378 58.971429 
L 93.369282 58.971429 
L 93.195186 58.971429 
L 93.02109 58.971429 
L 92.846994 58.971429 
L 92.672898 58.971429 
L 92.498801 58.971429 
L 92.324705 58.971429 
L 92.150609 58.971429 
L 91.976513 58.971429 
L 91.802417 58.971429 
L 91.62832 58.971429 
L 91.454224 58.971429 
L 91.280128 58.971429 
L 91.106032 58.971429 
L 90.931936 58.971429 
L 90.75784 58.971429 
L 90.583743 58.971429 
L 90.409647 58.971429 
L 90.235551 58.971429 
L 90.061455 58.971429 
L 89.887359 58.971429 
L 89.713263 58.971429 
L 89.539166 58.971429 
L 89.36507 58.971429 
L 89.190974 58.971429 
L 89.016878 58.971429 
L 88.842782 58.971429 
L 88.668686 58.971429 
L 88.494589 58.971429 
L 88.320493 58.971429 
L 88.146397 58.971429 
L 87.972301 58.971429 
L 87.798205 58.971429 
L 87.624108 58.971429 
L 87.450012 58.971429 
L 87.275916 58.971429 
L 87.10182 58.971429 
L 86.927724 58.971429 
L 86.753628 58.971429 
L 86.579531 58.971429 
L 86.405435 58.971429 
L 86.231339 58.971429 
L 86.057243 58.971429 
L 85.883147 58.971429 
L 85.709051 58.971429 
L 85.534954 58.971429 
L 85.360858 58.971429 
L 85.186762 58.971429 
L 85.012666 58.971429 
L 84.83857 58.971429 
L 84.664473 58.971429 
L 84.490377 58.971429 
L 84.316281 58.971429 
L 84.142185 58.971429 
L 83.968089 58.971429 
L 83.793993 58.971429 
L 83.619896 58.971429 
L 83.4458 58.971429 
L 83.271704 58.971429 
L 83.097608 58.971429 
L 82.923512 58.971429 
L 82.749416 58.971429 
L 82.575319 58.971429 
L 82.401223 58.971429 
L 82.227127 58.971429 
L 82.053031 58.971429 
L 81.878935 58.971429 
L 81.704839 58.971429 
L 81.530742 58.971429 
L 81.356646 58.971429 
L 81.18255 58.971429 
L 81.008454 58.971429 
L 80.834358 58.971429 
L 80.660261 58.971429 
L 80.486165 58.971429 
L 80.312069 58.971429 
L 80.137973 58.971429 
L 79.963877 58.971429 
L 79.789781 58.971429 
L 79.615684 58.971429 
L 79.441588 58.971429 
L 79.267492 58.971429 
L 79.093396 58.971429 
L 78.9193 58.971429 
L 78.745204 58.971429 
L 78.571107 58.971429 
L 78.397011 58.971429 
L 78.222915 58.971429 
L 78.048819 58.971429 
L 77.874723 58.971429 
L 77.700627 58.971429 
L 77.52653 58.971429 
L 77.352434 58.971429 
L 77.178338 58.971429 
L 77.004242 58.971429 
L 76.830146 58.971429 
L 76.656049 58.971429 
L 76.481953 58.971429 
L 76.307857 58.971429 
L 76.133761 58.971429 
L 75.959665 58.971429 
L 75.785569 58.971429 
L 75.611472 58.971429 
L 75.437376 58.971429 
L 75.26328 58.971429 
L 75.089184 58.971429 
L 74.915088 58.971429 
L 74.740992 58.971429 
L 74.566895 58.971429 
L 74.392799 58.971429 
L 74.218703 58.971429 
L 74.044607 58.971429 
L 73.870511 58.971429 
L 73.696415 58.971429 
L 73.522318 58.971429 
L 73.348222 58.971429 
L 73.174126 58.971429 
L 73.00003 58.971429 
L 72.825934 58.971429 
L 72.651837 58.971429 
L 72.477741 58.971429 
L 72.303645 58.971429 
L 72.129549 58.971429 
L 71.955453 58.971429 
L 71.781357 58.971429 
L 71.60726 58.971429 
L 71.433164 106.036364 
L 71.259068 106.036364 
L 71.084972 106.036364 
L 70.910876 106.036364 
L 70.73678 106.036364 
L 70.562683 106.036364 
L 70.388587 106.036364 
L 70.214491 106.036364 
L 70.040395 106.036364 
L 69.866299 106.036364 
L 69.692203 106.036364 
L 69.518106 106.036364 
L 69.34401 106.036364 
L 69.169914 106.036364 
L 68.995818 106.036364 
L 68.821722 106.036364 
L 68.647625 106.036364 
L 68.473529 106.036364 
L 68.299433 106.036364 
L 68.125337 106.036364 
L 67.951241 106.036364 
L 67.777145 106.036364 
L 67.603048 106.036364 
L 67.428952 106.036364 
L 67.254856 106.036364 
L 67.08076 106.036364 
L 66.906664 106.036364 
L 66.732568 106.036364 
L 66.558471 106.036364 
L 66.384375 106.036364 
L 66.210279 106.036364 
L 66.036183 106.036364 
L 65.862087 106.036364 
L 65.687991 106.036364 
L 65.513894 106.036364 
L 65.339798 106.036364 
L 65.165702 106.036364 
L 64.991606 106.036364 
L 64.81751 106.036364 
L 64.643413 106.036364 
L 64.469317 106.036364 
L 64.295221 106.036364 
L 64.121125 106.036364 
L 63.947029 106.036364 
L 63.772933 106.036364 
L 63.598836 106.036364 
L 63.42474 106.036364 
L 63.250644 106.036364 
L 63.076548 106.036364 
L 62.902452 106.036364 
L 62.728356 106.036364 
L 62.554259 106.036364 
L 62.380163 106.036364 
L 62.206067 106.036364 
L 62.031971 106.036364 
L 61.857875 106.036364 
L 61.683779 106.036364 
L 61.509682 106.036364 
L 61.335586 106.036364 
L 61.16149 106.036364 
L 60.987394 106.036364 
L 60.813298 106.036364 
L 60.639201 106.036364 
L 60.465105 106.036364 
L 60.291009 106.036364 
L 60.116913 106.036364 
L 59.942817 106.036364 
L 59.768721 106.036364 
L 59.594624 106.036364 
L 59.420528 106.036364 
L 59.246432 106.036364 
L 59.072336 106.036364 
L 58.89824 106.036364 
L 58.724144 106.036364 
L 58.550047 106.036364 
L 58.375951 106.036364 
L 58.201855 106.036364 
L 58.027759 106.036364 
L 57.853663 106.036364 
L 57.679567 106.036364 
L 57.50547 106.036364 
L 57.331374 106.036364 
L 57.157278 106.036364 
L 56.983182 106.036364 
z
" style="fill:#0000ff;fill-opacity:0.2;"/>
   </g>
   <g id="line2d_17">
    <path clip-path="url(#pf9d9ec67c9)" d="M 56.983182 106.036364 
L 71.433164 106.036364 
L 71.60726 58.971429 
L 216.281181 58.971429 
L 216.455277 106.036364 
L 230.90526 106.036364 
L 230.90526 106.036364 
" style="fill:none;stroke:#4c72b0;stroke-linecap:round;stroke-width:2;"/>
   </g>
   <g id="patch_3">
    <path d="M 41.765 106.036364 
L 41.765 7.2 
" style="fill:none;"/>
   </g>
   <g id="patch_4">
    <path d="M 376.565 106.036364 
L 376.565 7.2 
" style="fill:none;"/>
   </g>
   <g id="patch_5">
    <path d="M 41.765 106.036364 
L 376.565 106.036364 
" style="fill:none;"/>
   </g>
   <g id="patch_6">
    <path d="M 41.765 7.2 
L 376.565 7.2 
" style="fill:none;"/>
   </g>
  </g>
  <g id="axes_2">
   <g id="patch_7">
    <path d="M 41.765 224.64 
L 376.565 224.64 
L 376.565 125.803636 
L 41.765 125.803636 
z
" style="fill:#eaeaf2;"/>
   </g>
   <g id="matplotlib.axis_3">
    <g id="xtick_6">
     <g id="line2d_18">
      <path clip-path="url(#pc6d3140287)" d="M 71.476688 224.64 
L 71.476688 125.803636 
" style="fill:none;stroke:#ffffff;stroke-linecap:round;"/>
     </g>
     <g id="line2d_19"/>
     <g id="text_5">
      <!-- 0.0 -->
      <defs>
       <path d="M 9.078125 0 
L 9.078125 10.015625 
L 19.09375 10.015625 
L 19.09375 0 
z
" id="ArialMT-2e"/>
      </defs>
      <g style="fill:#262626;" transform="translate(63.136688 240.229375)scale(0.12 -0.12)">
       <use xlink:href="#ArialMT-30"/>
       <use x="55.615234" xlink:href="#ArialMT-2e"/>
       <use x="83.398438" xlink:href="#ArialMT-30"/>
      </g>
     </g>
    </g>
    <g id="xtick_7">
     <g id="line2d_20">
      <path clip-path="url(#pc6d3140287)" d="M 143.944221 224.64 
L 143.944221 125.803636 
" style="fill:none;stroke:#ffffff;stroke-linecap:round;"/>
     </g>
     <g id="line2d_21"/>
     <g id="text_6">
      <!-- 0.5 -->
      <defs>
       <path d="M 4.15625 18.75 
L 13.375 19.53125 
Q 14.40625 12.796875 18.140625 9.390625 
Q 21.875 6 27.15625 6 
Q 33.5 6 37.890625 10.78125 
Q 42.28125 15.578125 42.28125 23.484375 
Q 42.28125 31 38.0625 35.34375 
Q 33.84375 39.703125 27 39.703125 
Q 22.75 39.703125 19.328125 37.765625 
Q 15.921875 35.84375 13.96875 32.765625 
L 5.71875 33.84375 
L 12.640625 70.609375 
L 48.25 70.609375 
L 48.25 62.203125 
L 19.671875 62.203125 
L 15.828125 42.96875 
Q 22.265625 47.46875 29.34375 47.46875 
Q 38.71875 47.46875 45.15625 40.96875 
Q 51.609375 34.46875 51.609375 24.265625 
Q 51.609375 14.546875 45.953125 7.46875 
Q 39.0625 -1.21875 27.15625 -1.21875 
Q 17.390625 -1.21875 11.203125 4.25 
Q 5.03125 9.71875 4.15625 18.75 
z
" id="ArialMT-35"/>
      </defs>
      <g style="fill:#262626;" transform="translate(135.604221 240.229375)scale(0.12 -0.12)">
       <use xlink:href="#ArialMT-30"/>
       <use x="55.615234" xlink:href="#ArialMT-2e"/>
       <use x="83.398438" xlink:href="#ArialMT-35"/>
      </g>
     </g>
    </g>
    <g id="xtick_8">
     <g id="line2d_22">
      <path clip-path="url(#pc6d3140287)" d="M 216.411753 224.64 
L 216.411753 125.803636 
" style="fill:none;stroke:#ffffff;stroke-linecap:round;"/>
     </g>
     <g id="line2d_23"/>
     <g id="text_7">
      <!-- 1.0 -->
      <g style="fill:#262626;" transform="translate(208.071753 240.229375)scale(0.12 -0.12)">
       <use xlink:href="#ArialMT-31"/>
       <use x="55.615234" xlink:href="#ArialMT-2e"/>
       <use x="83.398438" xlink:href="#ArialMT-30"/>
      </g>
     </g>
    </g>
    <g id="xtick_9">
     <g id="line2d_24">
      <path clip-path="url(#pc6d3140287)" d="M 288.879286 224.64 
L 288.879286 125.803636 
" style="fill:none;stroke:#ffffff;stroke-linecap:round;"/>
     </g>
     <g id="line2d_25"/>
     <g id="text_8">
      <!-- 1.5 -->
      <g style="fill:#262626;" transform="translate(280.539286 240.229375)scale(0.12 -0.12)">
       <use xlink:href="#ArialMT-31"/>
       <use x="55.615234" xlink:href="#ArialMT-2e"/>
       <use x="83.398438" xlink:href="#ArialMT-35"/>
      </g>
     </g>
    </g>
    <g id="xtick_10">
     <g id="line2d_26">
      <path clip-path="url(#pc6d3140287)" d="M 361.346818 224.64 
L 361.346818 125.803636 
" style="fill:none;stroke:#ffffff;stroke-linecap:round;"/>
     </g>
     <g id="line2d_27"/>
     <g id="text_9">
      <!-- 2.0 -->
      <g style="fill:#262626;" transform="translate(353.006818 240.229375)scale(0.12 -0.12)">
       <use xlink:href="#ArialMT-32"/>
       <use x="55.615234" xlink:href="#ArialMT-2e"/>
       <use x="83.398438" xlink:href="#ArialMT-30"/>
      </g>
     </g>
    </g>
    <g id="text_10">
     <!-- x -->
     <defs>
      <path d="M 0.734375 0 
L 19.671875 26.953125 
L 2.15625 51.859375 
L 13.140625 51.859375 
L 21.09375 39.703125 
Q 23.34375 36.234375 24.703125 33.890625 
Q 26.859375 37.109375 28.65625 39.59375 
L 37.40625 51.859375 
L 47.90625 51.859375 
L 29.984375 27.4375 
L 49.265625 0 
L 38.484375 0 
L 27.828125 16.109375 
L 25 20.453125 
L 11.375 0 
z
" id="ArialMT-78"/>
     </defs>
     <g style="fill:#262626;" transform="translate(204.665 259.498437)scale(0.18 -0.18)">
      <use xlink:href="#ArialMT-78"/>
     </g>
    </g>
   </g>
   <g id="matplotlib.axis_4">
    <g id="ytick_4">
     <g id="line2d_28">
      <path clip-path="url(#pc6d3140287)" d="M 41.765 224.64 
L 376.565 224.64 
" style="fill:none;stroke:#ffffff;stroke-linecap:round;"/>
     </g>
     <g id="line2d_29"/>
     <g id="text_11">
      <!-- 0 -->
      <g style="fill:#262626;" transform="translate(28.091875 228.934687)scale(0.12 -0.12)">
       <use xlink:href="#ArialMT-30"/>
      </g>
     </g>
    </g>
    <g id="ytick_5">
     <g id="line2d_30">
      <path clip-path="url(#pc6d3140287)" d="M 41.765 177.575065 
L 376.565 177.575065 
" style="fill:none;stroke:#ffffff;stroke-linecap:round;"/>
     </g>
     <g id="line2d_31"/>
     <g id="text_12">
      <!-- 1 -->
      <g style="fill:#262626;" transform="translate(28.091875 181.869752)scale(0.12 -0.12)">
       <use xlink:href="#ArialMT-31"/>
      </g>
     </g>
    </g>
    <g id="ytick_6">
     <g id="line2d_32">
      <path clip-path="url(#pc6d3140287)" d="M 41.765 130.51013 
L 376.565 130.51013 
" style="fill:none;stroke:#ffffff;stroke-linecap:round;"/>
     </g>
     <g id="line2d_33"/>
     <g id="text_13">
      <!-- 2 -->
      <g style="fill:#262626;" transform="translate(28.091875 134.804817)scale(0.12 -0.12)">
       <use xlink:href="#ArialMT-32"/>
      </g>
     </g>
    </g>
    <g id="text_14">
     <!-- f(x) -->
     <defs>
      <path d="M 8.6875 0 
L 8.6875 45.015625 
L 0.921875 45.015625 
L 0.921875 51.859375 
L 8.6875 51.859375 
L 8.6875 57.375 
Q 8.6875 62.59375 9.625 65.140625 
Q 10.890625 68.5625 14.078125 70.671875 
Q 17.28125 72.796875 23.046875 72.796875 
Q 26.765625 72.796875 31.25 71.921875 
L 29.9375 64.265625 
Q 27.203125 64.75 24.75 64.75 
Q 20.75 64.75 19.09375 63.03125 
Q 17.4375 61.328125 17.4375 56.640625 
L 17.4375 51.859375 
L 27.546875 51.859375 
L 27.546875 45.015625 
L 17.4375 45.015625 
L 17.4375 0 
z
" id="ArialMT-66"/>
     </defs>
     <g style="fill:#262626;" transform="translate(20.303438 188.215568)rotate(-90)scale(0.18 -0.18)">
      <use xlink:href="#ArialMT-66"/>
      <use x="27.783203" xlink:href="#ArialMT-28"/>
      <use x="61.083984" xlink:href="#ArialMT-78"/>
      <use x="111.083984" xlink:href="#ArialMT-29"/>
     </g>
    </g>
   </g>
   <g id="PolyCollection_2">
    <path clip-path="url(#pc6d3140287)" d="M 56.983182 224.64 
L 56.983182 224.64 
L 57.28785 224.64 
L 57.592518 224.64 
L 57.897187 224.64 
L 58.201855 224.64 
L 58.506523 224.64 
L 58.811192 224.64 
L 59.11586 224.64 
L 59.420528 224.64 
L 59.725197 224.64 
L 60.029865 224.64 
L 60.334533 224.64 
L 60.639201 224.64 
L 60.94387 224.64 
L 61.248538 224.64 
L 61.553206 224.64 
L 61.857875 224.64 
L 62.162543 224.64 
L 62.467211 224.64 
L 62.77188 224.64 
L 63.076548 224.64 
L 63.381216 224.64 
L 63.685885 224.64 
L 63.990553 224.64 
L 64.295221 224.64 
L 64.599889 224.64 
L 64.904558 224.64 
L 65.209226 224.64 
L 65.513894 224.64 
L 65.818563 224.64 
L 66.123231 224.64 
L 66.427899 224.64 
L 66.732568 224.64 
L 67.037236 224.64 
L 67.341904 224.64 
L 67.646572 224.64 
L 67.951241 224.64 
L 68.255909 224.64 
L 68.560577 224.64 
L 68.865246 224.64 
L 69.169914 224.64 
L 69.474582 224.64 
L 69.779251 224.64 
L 70.083919 224.64 
L 70.388587 224.64 
L 70.693256 224.64 
L 70.997924 224.64 
L 71.302592 224.64 
L 71.60726 224.64 
L 71.911929 224.64 
L 72.216597 224.64 
L 72.521265 224.64 
L 72.825934 224.64 
L 73.130602 224.64 
L 73.43527 224.64 
L 73.739939 224.64 
L 74.044607 224.64 
L 74.349275 224.64 
L 74.653943 224.64 
L 74.958612 224.64 
L 75.26328 224.64 
L 75.567948 224.64 
L 75.872617 224.64 
L 76.177285 224.64 
L 76.481953 224.64 
L 76.786622 224.64 
L 77.09129 224.64 
L 77.395958 224.64 
L 77.700627 224.64 
L 78.005295 224.64 
L 78.309963 224.64 
L 78.614631 224.64 
L 78.9193 224.64 
L 79.223968 224.64 
L 79.528636 224.64 
L 79.833305 224.64 
L 80.137973 224.64 
L 80.442641 224.64 
L 80.74731 224.64 
L 81.051978 224.64 
L 81.356646 224.64 
L 81.661314 224.64 
L 81.965983 224.64 
L 82.270651 224.64 
L 82.575319 224.64 
L 82.879988 224.64 
L 83.184656 224.64 
L 83.489324 224.64 
L 83.793993 224.64 
L 84.098661 224.64 
L 84.403329 224.64 
L 84.707998 224.64 
L 85.012666 224.64 
L 85.317334 224.64 
L 85.622002 224.64 
L 85.926671 224.64 
L 86.231339 224.64 
L 86.536007 224.64 
L 86.840676 224.64 
L 87.145344 224.64 
L 87.450012 224.64 
L 87.754681 224.64 
L 88.059349 224.64 
L 88.364017 224.64 
L 88.668686 224.64 
L 88.973354 224.64 
L 89.278022 224.64 
L 89.58269 224.64 
L 89.887359 224.64 
L 90.192027 224.64 
L 90.496695 224.64 
L 90.801364 224.64 
L 91.106032 224.64 
L 91.4107 224.64 
L 91.715369 224.64 
L 92.020037 224.64 
L 92.324705 224.64 
L 92.629373 224.64 
L 92.934042 224.64 
L 93.23871 224.64 
L 93.543378 224.64 
L 93.848047 224.64 
L 94.152715 224.64 
L 94.457383 224.64 
L 94.762052 224.64 
L 95.06672 224.64 
L 95.371388 224.64 
L 95.676057 224.64 
L 95.980725 224.64 
L 96.285393 224.64 
L 96.590061 224.64 
L 96.89473 224.64 
L 97.199398 224.64 
L 97.504066 224.64 
L 97.808735 224.64 
L 98.113403 224.64 
L 98.418071 224.64 
L 98.72274 224.64 
L 99.027408 224.64 
L 99.332076 224.64 
L 99.332076 160.549827 
L 99.332076 160.549827 
L 99.027408 160.279812 
L 98.72274 160.008659 
L 98.418071 159.736364 
L 98.113403 159.462921 
L 97.808735 159.188326 
L 97.504066 158.912575 
L 97.199398 158.635662 
L 96.89473 158.357582 
L 96.590061 158.07833 
L 96.285393 157.797903 
L 95.980725 157.516293 
L 95.676057 157.233497 
L 95.371388 156.94951 
L 95.06672 156.664326 
L 94.762052 156.377941 
L 94.457383 156.090349 
L 94.152715 155.801546 
L 93.848047 155.511526 
L 93.543378 155.220284 
L 93.23871 154.927815 
L 92.934042 154.634114 
L 92.629373 154.339175 
L 92.324705 154.042994 
L 92.020037 153.745565 
L 91.715369 153.446883 
L 91.4107 153.146942 
L 91.106032 152.845738 
L 90.801364 152.543265 
L 90.496695 152.239518 
L 90.192027 151.93449 
L 89.887359 151.628178 
L 89.58269 151.320575 
L 89.278022 151.011677 
L 88.973354 150.701476 
L 88.668686 150.389969 
L 88.364017 150.07715 
L 88.059349 149.763013 
L 87.754681 149.447552 
L 87.450012 149.130762 
L 87.145344 148.812638 
L 86.840676 148.493173 
L 86.536007 148.172362 
L 86.231339 147.8502 
L 85.926671 147.52668 
L 85.622002 147.201798 
L 85.317334 146.875546 
L 85.012666 146.54792 
L 84.707998 146.218914 
L 84.403329 145.888522 
L 84.098661 145.556738 
L 83.793993 145.223556 
L 83.489324 144.88897 
L 83.184656 144.552974 
L 82.879988 144.215563 
L 82.575319 143.876731 
L 82.270651 143.536471 
L 81.965983 143.194777 
L 81.661314 142.851644 
L 81.356646 142.507065 
L 81.051978 142.161035 
L 80.74731 141.813546 
L 80.442641 141.464594 
L 80.137973 141.114172 
L 79.833305 140.762273 
L 79.528636 140.408891 
L 79.223968 140.054021 
L 78.9193 139.697656 
L 78.614631 139.339789 
L 78.309963 138.980415 
L 78.005295 138.619526 
L 77.700627 138.257117 
L 77.395958 137.893181 
L 77.09129 137.527712 
L 76.786622 137.160704 
L 76.481953 136.792149 
L 76.177285 136.422041 
L 75.872617 136.050374 
L 75.567948 135.677141 
L 75.26328 135.302336 
L 74.958612 134.925951 
L 74.653943 134.547981 
L 74.349275 134.168418 
L 74.044607 133.787257 
L 73.739939 133.404489 
L 73.43527 133.020109 
L 73.130602 132.634109 
L 72.825934 132.246484 
L 72.521265 131.857225 
L 72.216597 131.466326 
L 71.911929 131.07378 
L 71.60726 130.679581 
L 71.302592 224.64 
L 70.997924 224.64 
L 70.693256 224.64 
L 70.388587 224.64 
L 70.083919 224.64 
L 69.779251 224.64 
L 69.474582 224.64 
L 69.169914 224.64 
L 68.865246 224.64 
L 68.560577 224.64 
L 68.255909 224.64 
L 67.951241 224.64 
L 67.646572 224.64 
L 67.341904 224.64 
L 67.037236 224.64 
L 66.732568 224.64 
L 66.427899 224.64 
L 66.123231 224.64 
L 65.818563 224.64 
L 65.513894 224.64 
L 65.209226 224.64 
L 64.904558 224.64 
L 64.599889 224.64 
L 64.295221 224.64 
L 63.990553 224.64 
L 63.685885 224.64 
L 63.381216 224.64 
L 63.076548 224.64 
L 62.77188 224.64 
L 62.467211 224.64 
L 62.162543 224.64 
L 61.857875 224.64 
L 61.553206 224.64 
L 61.248538 224.64 
L 60.94387 224.64 
L 60.639201 224.64 
L 60.334533 224.64 
L 60.029865 224.64 
L 59.725197 224.64 
L 59.420528 224.64 
L 59.11586 224.64 
L 58.811192 224.64 
L 58.506523 224.64 
L 58.201855 224.64 
L 57.897187 224.64 
L 57.592518 224.64 
L 57.28785 224.64 
L 56.983182 224.64 
z
" style="fill:#008000;fill-opacity:0.2;"/>
   </g>
   <g id="line2d_34">
    <path clip-path="url(#pc6d3140287)" d="M 56.983182 224.64 
L 71.302592 224.64 
L 71.60726 130.679581 
L 76.177285 136.422041 
L 80.74731 141.813546 
L 85.317334 146.875546 
L 90.192027 151.93449 
L 95.06672 156.664326 
L 99.941413 161.086464 
L 104.816106 165.220921 
L 109.995467 169.319481 
L 115.174828 173.135333 
L 120.658857 176.889156 
L 126.142887 180.369388 
L 131.626916 183.59597 
L 137.415614 186.747033 
L 143.50898 189.802952 
L 149.602346 192.612422 
L 156.000381 195.318851 
L 162.703084 197.909197 
L 169.710455 200.37294 
L 177.022494 202.702029 
L 184.639201 204.890783 
L 192.560577 206.935753 
L 201.09129 208.901864 
L 209.926671 210.708327 
L 219.371388 212.410702 
L 229.425442 213.994941 
L 240.088833 215.451537 
L 251.666229 216.808227 
L 264.157629 218.048265 
L 277.867703 219.184483 
L 293.101118 220.218773 
L 310.162543 221.146229 
L 329.356646 221.959196 
L 351.292764 222.659372 
L 361.346818 222.915951 
L 361.346818 222.915951 
" style="fill:none;stroke:#008000;stroke-linecap:round;stroke-width:2;"/>
   </g>
   <g id="patch_8">
    <path d="M 41.765 224.64 
L 41.765 125.803636 
" style="fill:none;"/>
   </g>
   <g id="patch_9">
    <path d="M 376.565 224.64 
L 376.565 125.803636 
" style="fill:none;"/>
   </g>
   <g id="patch_10">
    <path d="M 41.765 224.64 
L 376.565 224.64 
" style="fill:none;"/>
   </g>
   <g id="patch_11">
    <path d="M 41.765 125.803636 
L 376.565 125.803636 
" style="fill:none;"/>
   </g>
  </g>
 </g>
 <defs>
  <clipPath id="pf9d9ec67c9">
   <rect height="98.836364" width="334.8" x="41.765" y="7.2"/>
  </clipPath>
  <clipPath id="pc6d3140287">
   <rect height="98.836364" width="334.8" x="41.765" y="125.803636"/>
  </clipPath>
 </defs>
</svg>
