<?xml version="1.0" encoding="utf-8" standalone="no"?>
<!DOCTYPE svg PUBLIC "-//W3C//DTD SVG 1.1//EN"
  "http://www.w3.org/Graphics/SVG/1.1/DTD/svg11.dtd">
<!-- Created with matplotlib (http://matplotlib.org/) -->
<svg height="290pt" version="1.1" viewBox="0 0 379 290" width="379pt" xmlns="http://www.w3.org/2000/svg" xmlns:xlink="http://www.w3.org/1999/xlink">
 <defs>
  <style type="text/css">
*{stroke-linecap:butt;stroke-linejoin:round;}
  </style>
 </defs>
 <g id="figure_1">
  <g id="patch_1">
   <path d="M 0 290.650937 
L 379.553125 290.650937 
L 379.553125 0 
L 0 0 
z
" style="fill:none;"/>
  </g>
  <g id="axes_1">
   <g id="patch_2">
    <path d="M 37.553125 91.527941 
L 372.353125 91.527941 
L 372.353125 27.575 
L 37.553125 27.575 
z
" style="fill:#eaeaf2;"/>
   </g>
   <g id="matplotlib.axis_1">
    <g id="xtick_1">
     <g id="line2d_1">
      <path clip-path="url(#p6428de3844)" d="M 52.771307 91.527941 
L 52.771307 27.575 
" style="fill:none;stroke:#ffffff;stroke-linecap:round;"/>
     </g>
     <g id="line2d_2"/>
    </g>
    <g id="xtick_2">
     <g id="line2d_3">
      <path clip-path="url(#p6428de3844)" d="M 128.862216 91.527941 
L 128.862216 27.575 
" style="fill:none;stroke:#ffffff;stroke-linecap:round;"/>
     </g>
     <g id="line2d_4"/>
    </g>
    <g id="xtick_3">
     <g id="line2d_5">
      <path clip-path="url(#p6428de3844)" d="M 204.953125 91.527941 
L 204.953125 27.575 
" style="fill:none;stroke:#ffffff;stroke-linecap:round;"/>
     </g>
     <g id="line2d_6"/>
    </g>
    <g id="xtick_4">
     <g id="line2d_7">
      <path clip-path="url(#p6428de3844)" d="M 281.044034 91.527941 
L 281.044034 27.575 
" style="fill:none;stroke:#ffffff;stroke-linecap:round;"/>
     </g>
     <g id="line2d_8"/>
    </g>
    <g id="xtick_5">
     <g id="line2d_9">
      <path clip-path="url(#p6428de3844)" d="M 357.134943 91.527941 
L 357.134943 27.575 
" style="fill:none;stroke:#ffffff;stroke-linecap:round;"/>
     </g>
     <g id="line2d_10"/>
    </g>
   </g>
   <g id="matplotlib.axis_2">
    <g id="ytick_1">
     <g id="line2d_11">
      <path clip-path="url(#p6428de3844)" d="M 37.553125 88.482563 
L 372.353125 88.482563 
" style="fill:none;stroke:#ffffff;stroke-linecap:round;"/>
     </g>
     <g id="line2d_12"/>
     <g id="text_1">
      <!-- 0.00 -->
      <defs>
       <path d="M 4.15625 35.296875 
Q 4.15625 48 6.765625 55.734375 
Q 9.375 63.484375 14.515625 67.671875 
Q 19.671875 71.875 27.484375 71.875 
Q 33.25 71.875 37.59375 69.546875 
Q 41.9375 67.234375 44.765625 62.859375 
Q 47.609375 58.5 49.21875 52.21875 
Q 50.828125 45.953125 50.828125 35.296875 
Q 50.828125 22.703125 48.234375 14.96875 
Q 45.65625 7.234375 40.5 3 
Q 35.359375 -1.21875 27.484375 -1.21875 
Q 17.140625 -1.21875 11.234375 6.203125 
Q 4.15625 15.140625 4.15625 35.296875 
z
M 13.1875 35.296875 
Q 13.1875 17.671875 17.3125 11.828125 
Q 21.4375 6 27.484375 6 
Q 33.546875 6 37.671875 11.859375 
Q 41.796875 17.71875 41.796875 35.296875 
Q 41.796875 52.984375 37.671875 58.78125 
Q 33.546875 64.59375 27.390625 64.59375 
Q 21.34375 64.59375 17.71875 59.46875 
Q 13.1875 52.9375 13.1875 35.296875 
z
" id="ArialMT-30"/>
       <path d="M 9.078125 0 
L 9.078125 10.015625 
L 19.09375 10.015625 
L 19.09375 0 
z
" id="ArialMT-2e"/>
      </defs>
      <g style="fill:#262626;" transform="translate(7.2 92.777251)scale(0.12 -0.12)">
       <use xlink:href="#ArialMT-30"/>
       <use x="55.615234" xlink:href="#ArialMT-2e"/>
       <use x="83.398438" xlink:href="#ArialMT-30"/>
       <use x="139.013672" xlink:href="#ArialMT-30"/>
      </g>
     </g>
    </g>
    <g id="ytick_2">
     <g id="line2d_13">
      <path clip-path="url(#p6428de3844)" d="M 37.553125 50.415336 
L 372.353125 50.415336 
" style="fill:none;stroke:#ffffff;stroke-linecap:round;"/>
     </g>
     <g id="line2d_14"/>
     <g id="text_2">
      <!-- 0.25 -->
      <defs>
       <path d="M 50.34375 8.453125 
L 50.34375 0 
L 3.03125 0 
Q 2.9375 3.171875 4.046875 6.109375 
Q 5.859375 10.9375 9.828125 15.625 
Q 13.8125 20.3125 21.34375 26.46875 
Q 33.015625 36.03125 37.109375 41.625 
Q 41.21875 47.21875 41.21875 52.203125 
Q 41.21875 57.421875 37.46875 61 
Q 33.734375 64.59375 27.734375 64.59375 
Q 21.390625 64.59375 17.578125 60.78125 
Q 13.765625 56.984375 13.71875 50.25 
L 4.6875 51.171875 
Q 5.609375 61.28125 11.65625 66.578125 
Q 17.71875 71.875 27.9375 71.875 
Q 38.234375 71.875 44.234375 66.15625 
Q 50.25 60.453125 50.25 52 
Q 50.25 47.703125 48.484375 43.546875 
Q 46.734375 39.40625 42.65625 34.8125 
Q 38.578125 30.21875 29.109375 22.21875 
Q 21.1875 15.578125 18.9375 13.203125 
Q 16.703125 10.84375 15.234375 8.453125 
z
" id="ArialMT-32"/>
       <path d="M 4.15625 18.75 
L 13.375 19.53125 
Q 14.40625 12.796875 18.140625 9.390625 
Q 21.875 6 27.15625 6 
Q 33.5 6 37.890625 10.78125 
Q 42.28125 15.578125 42.28125 23.484375 
Q 42.28125 31 38.0625 35.34375 
Q 33.84375 39.703125 27 39.703125 
Q 22.75 39.703125 19.328125 37.765625 
Q 15.921875 35.84375 13.96875 32.765625 
L 5.71875 33.84375 
L 12.640625 70.609375 
L 48.25 70.609375 
L 48.25 62.203125 
L 19.671875 62.203125 
L 15.828125 42.96875 
Q 22.265625 47.46875 29.34375 47.46875 
Q 38.71875 47.46875 45.15625 40.96875 
Q 51.609375 34.46875 51.609375 24.265625 
Q 51.609375 14.546875 45.953125 7.46875 
Q 39.0625 -1.21875 27.15625 -1.21875 
Q 17.390625 -1.21875 11.203125 4.25 
Q 5.03125 9.71875 4.15625 18.75 
z
" id="ArialMT-35"/>
      </defs>
      <g style="fill:#262626;" transform="translate(7.2 54.710024)scale(0.12 -0.12)">
       <use xlink:href="#ArialMT-30"/>
       <use x="55.615234" xlink:href="#ArialMT-2e"/>
       <use x="83.398438" xlink:href="#ArialMT-32"/>
       <use x="139.013672" xlink:href="#ArialMT-35"/>
      </g>
     </g>
    </g>
   </g>
   <g id="line2d_15">
    <defs>
     <path d="M 0 3.5 
C 0.928211 3.5 1.81853 3.131218 2.474874 2.474874 
C 3.131218 1.81853 3.5 0.928211 3.5 0 
C 3.5 -0.928211 3.131218 -1.81853 2.474874 -2.474874 
C 1.81853 -3.131218 0.928211 -3.5 0 -3.5 
C -0.928211 -3.5 -1.81853 -3.131218 -2.474874 -2.474874 
C -3.131218 -1.81853 -3.5 -0.928211 -3.5 0 
C -3.5 0.928211 -3.131218 1.81853 -2.474874 2.474874 
C -1.81853 3.131218 -0.928211 3.5 0 3.5 
z
" id="m8dedb37bd6"/>
    </defs>
    <g clip-path="url(#p6428de3844)">
     <use style="fill:#4c72b0;" x="52.771307" xlink:href="#m8dedb37bd6" y="69.970219"/>
     <use style="fill:#4c72b0;" x="67.989489" xlink:href="#m8dedb37bd6" y="47.34402"/>
     <use style="fill:#4c72b0;" x="83.20767" xlink:href="#m8dedb37bd6" y="45.058545"/>
     <use style="fill:#4c72b0;" x="98.425852" xlink:href="#m8dedb37bd6" y="59.533218"/>
     <use style="fill:#4c72b0;" x="113.644034" xlink:href="#m8dedb37bd6" y="74.812039"/>
     <use style="fill:#4c72b0;" x="128.862216" xlink:href="#m8dedb37bd6" y="83.621932"/>
     <use style="fill:#4c72b0;" x="144.080398" xlink:href="#m8dedb37bd6" y="87.132388"/>
     <use style="fill:#4c72b0;" x="159.29858" xlink:href="#m8dedb37bd6" y="88.182524"/>
     <use style="fill:#4c72b0;" x="174.516761" xlink:href="#m8dedb37bd6" y="88.428389"/>
     <use style="fill:#4c72b0;" x="189.734943" xlink:href="#m8dedb37bd6" y="88.474537"/>
     <use style="fill:#4c72b0;" x="204.953125" xlink:href="#m8dedb37bd6" y="88.481582"/>
     <use style="fill:#4c72b0;" x="220.171307" xlink:href="#m8dedb37bd6" y="88.482464"/>
     <use style="fill:#4c72b0;" x="235.389489" xlink:href="#m8dedb37bd6" y="88.482555"/>
     <use style="fill:#4c72b0;" x="250.60767" xlink:href="#m8dedb37bd6" y="88.482562"/>
     <use style="fill:#4c72b0;" x="265.825852" xlink:href="#m8dedb37bd6" y="88.482563"/>
     <use style="fill:#4c72b0;" x="281.044034" xlink:href="#m8dedb37bd6" y="88.482563"/>
     <use style="fill:#4c72b0;" x="296.262216" xlink:href="#m8dedb37bd6" y="88.482563"/>
     <use style="fill:#4c72b0;" x="311.480398" xlink:href="#m8dedb37bd6" y="88.482563"/>
     <use style="fill:#4c72b0;" x="326.69858" xlink:href="#m8dedb37bd6" y="88.482563"/>
     <use style="fill:#4c72b0;" x="341.916761" xlink:href="#m8dedb37bd6" y="88.482563"/>
     <use style="fill:#4c72b0;" x="357.134943" xlink:href="#m8dedb37bd6" y="88.482563"/>
    </g>
   </g>
   <g id="patch_3">
    <path d="M 37.553125 91.527941 
L 37.553125 27.575 
" style="fill:none;"/>
   </g>
   <g id="patch_4">
    <path d="M 372.353125 91.527941 
L 372.353125 27.575 
" style="fill:none;"/>
   </g>
   <g id="patch_5">
    <path d="M 37.553125 91.527941 
L 372.353125 91.527941 
" style="fill:none;"/>
   </g>
   <g id="patch_6">
    <path d="M 37.553125 27.575 
L 372.353125 27.575 
" style="fill:none;"/>
   </g>
   <g id="text_3">
    <!-- N = 10; p = 0.1, 0.2, 0.3 -->
    <defs>
     <path d="M 7.625 0 
L 7.625 71.578125 
L 17.328125 71.578125 
L 54.9375 15.375 
L 54.9375 71.578125 
L 64.015625 71.578125 
L 64.015625 0 
L 54.296875 0 
L 16.703125 56.25 
L 16.703125 0 
z
" id="ArialMT-4e"/>
     <path id="ArialMT-20"/>
     <path d="M 52.828125 42.09375 
L 5.5625 42.09375 
L 5.5625 50.296875 
L 52.828125 50.296875 
z
M 52.828125 20.359375 
L 5.5625 20.359375 
L 5.5625 28.5625 
L 52.828125 28.5625 
z
" id="ArialMT-3d"/>
     <path d="M 37.25 0 
L 28.46875 0 
L 28.46875 56 
Q 25.296875 52.984375 20.140625 49.953125 
Q 14.984375 46.921875 10.890625 45.40625 
L 10.890625 53.90625 
Q 18.265625 57.375 23.78125 62.296875 
Q 29.296875 67.234375 31.59375 71.875 
L 37.25 71.875 
z
" id="ArialMT-31"/>
     <path d="M 8.890625 41.84375 
L 8.890625 51.859375 
L 18.890625 51.859375 
L 18.890625 41.84375 
z
M 8.890625 0 
L 8.890625 10.015625 
L 18.890625 10.015625 
L 18.890625 0 
Q 18.890625 -5.515625 16.9375 -8.90625 
Q 14.984375 -12.3125 10.75 -14.15625 
L 8.296875 -10.40625 
Q 11.078125 -9.1875 12.390625 -6.8125 
Q 13.71875 -4.4375 13.875 0 
z
" id="ArialMT-3b"/>
     <path d="M 6.59375 -19.875 
L 6.59375 51.859375 
L 14.59375 51.859375 
L 14.59375 45.125 
Q 17.4375 49.078125 21 51.046875 
Q 24.5625 53.03125 29.640625 53.03125 
Q 36.28125 53.03125 41.359375 49.609375 
Q 46.4375 46.1875 49.015625 39.953125 
Q 51.609375 33.734375 51.609375 26.3125 
Q 51.609375 18.359375 48.75 11.984375 
Q 45.90625 5.609375 40.453125 2.21875 
Q 35.015625 -1.171875 29 -1.171875 
Q 24.609375 -1.171875 21.109375 0.6875 
Q 17.625 2.546875 15.375 5.375 
L 15.375 -19.875 
z
M 14.546875 25.640625 
Q 14.546875 15.625 18.59375 10.84375 
Q 22.65625 6.0625 28.421875 6.0625 
Q 34.28125 6.0625 38.453125 11.015625 
Q 42.625 15.96875 42.625 26.375 
Q 42.625 36.28125 38.546875 41.203125 
Q 34.46875 46.140625 28.8125 46.140625 
Q 23.1875 46.140625 18.859375 40.890625 
Q 14.546875 35.640625 14.546875 25.640625 
z
" id="ArialMT-70"/>
     <path d="M 8.890625 0 
L 8.890625 10.015625 
L 18.890625 10.015625 
L 18.890625 0 
Q 18.890625 -5.515625 16.9375 -8.90625 
Q 14.984375 -12.3125 10.75 -14.15625 
L 8.296875 -10.40625 
Q 11.078125 -9.1875 12.390625 -6.8125 
Q 13.71875 -4.4375 13.875 0 
z
" id="ArialMT-2c"/>
     <path d="M 4.203125 18.890625 
L 12.984375 20.0625 
Q 14.5 12.59375 18.140625 9.296875 
Q 21.78125 6 27 6 
Q 33.203125 6 37.46875 10.296875 
Q 41.75 14.59375 41.75 20.953125 
Q 41.75 27 37.796875 30.921875 
Q 33.84375 34.859375 27.734375 34.859375 
Q 25.25 34.859375 21.53125 33.890625 
L 22.515625 41.609375 
Q 23.390625 41.5 23.921875 41.5 
Q 29.546875 41.5 34.03125 44.421875 
Q 38.53125 47.359375 38.53125 53.46875 
Q 38.53125 58.296875 35.25 61.46875 
Q 31.984375 64.65625 26.8125 64.65625 
Q 21.6875 64.65625 18.265625 61.421875 
Q 14.84375 58.203125 13.875 51.765625 
L 5.078125 53.328125 
Q 6.6875 62.15625 12.390625 67.015625 
Q 18.109375 71.875 26.609375 71.875 
Q 32.46875 71.875 37.390625 69.359375 
Q 42.328125 66.84375 44.9375 62.5 
Q 47.5625 58.15625 47.5625 53.265625 
Q 47.5625 48.640625 45.0625 44.828125 
Q 42.578125 41.015625 37.703125 38.765625 
Q 44.046875 37.3125 47.5625 32.6875 
Q 51.078125 28.078125 51.078125 21.140625 
Q 51.078125 11.765625 44.234375 5.25 
Q 37.40625 -1.265625 26.953125 -1.265625 
Q 17.53125 -1.265625 11.296875 4.34375 
Q 5.078125 9.96875 4.203125 18.890625 
z
" id="ArialMT-33"/>
    </defs>
    <g style="fill:#262626;" transform="translate(99.885938 21.575)scale(0.2 -0.2)">
     <use xlink:href="#ArialMT-4e"/>
     <use x="72.216797" xlink:href="#ArialMT-20"/>
     <use x="100" xlink:href="#ArialMT-3d"/>
     <use x="158.398438" xlink:href="#ArialMT-20"/>
     <use x="186.181641" xlink:href="#ArialMT-31"/>
     <use x="241.796875" xlink:href="#ArialMT-30"/>
     <use x="297.412109" xlink:href="#ArialMT-3b"/>
     <use x="325.195312" xlink:href="#ArialMT-20"/>
     <use x="352.978516" xlink:href="#ArialMT-70"/>
     <use x="408.59375" xlink:href="#ArialMT-20"/>
     <use x="436.376953" xlink:href="#ArialMT-3d"/>
     <use x="494.775391" xlink:href="#ArialMT-20"/>
     <use x="522.558594" xlink:href="#ArialMT-30"/>
     <use x="578.173828" xlink:href="#ArialMT-2e"/>
     <use x="605.957031" xlink:href="#ArialMT-31"/>
     <use x="661.572266" xlink:href="#ArialMT-2c"/>
     <use x="689.355469" xlink:href="#ArialMT-20"/>
     <use x="717.138672" xlink:href="#ArialMT-30"/>
     <use x="772.753906" xlink:href="#ArialMT-2e"/>
     <use x="800.537109" xlink:href="#ArialMT-32"/>
     <use x="856.152344" xlink:href="#ArialMT-2c"/>
     <use x="883.935547" xlink:href="#ArialMT-20"/>
     <use x="911.71875" xlink:href="#ArialMT-30"/>
     <use x="967.333984" xlink:href="#ArialMT-2e"/>
     <use x="995.117188" xlink:href="#ArialMT-33"/>
    </g>
   </g>
  </g>
  <g id="axes_2">
   <g id="patch_7">
    <path d="M 37.553125 168.271471 
L 372.353125 168.271471 
L 372.353125 104.318529 
L 37.553125 104.318529 
z
" style="fill:#eaeaf2;"/>
   </g>
   <g id="matplotlib.axis_3">
    <g id="xtick_6">
     <g id="line2d_16">
      <path clip-path="url(#p8cb459b0c3)" d="M 52.771307 168.271471 
L 52.771307 104.318529 
" style="fill:none;stroke:#ffffff;stroke-linecap:round;"/>
     </g>
     <g id="line2d_17"/>
    </g>
    <g id="xtick_7">
     <g id="line2d_18">
      <path clip-path="url(#p8cb459b0c3)" d="M 128.862216 168.271471 
L 128.862216 104.318529 
" style="fill:none;stroke:#ffffff;stroke-linecap:round;"/>
     </g>
     <g id="line2d_19"/>
    </g>
    <g id="xtick_8">
     <g id="line2d_20">
      <path clip-path="url(#p8cb459b0c3)" d="M 204.953125 168.271471 
L 204.953125 104.318529 
" style="fill:none;stroke:#ffffff;stroke-linecap:round;"/>
     </g>
     <g id="line2d_21"/>
    </g>
    <g id="xtick_9">
     <g id="line2d_22">
      <path clip-path="url(#p8cb459b0c3)" d="M 281.044034 168.271471 
L 281.044034 104.318529 
" style="fill:none;stroke:#ffffff;stroke-linecap:round;"/>
     </g>
     <g id="line2d_23"/>
    </g>
    <g id="xtick_10">
     <g id="line2d_24">
      <path clip-path="url(#p8cb459b0c3)" d="M 357.134943 168.271471 
L 357.134943 104.318529 
" style="fill:none;stroke:#ffffff;stroke-linecap:round;"/>
     </g>
     <g id="line2d_25"/>
    </g>
   </g>
   <g id="matplotlib.axis_4">
    <g id="ytick_3">
     <g id="line2d_26">
      <path clip-path="url(#p8cb459b0c3)" d="M 37.553125 165.226092 
L 372.353125 165.226092 
" style="fill:none;stroke:#ffffff;stroke-linecap:round;"/>
     </g>
     <g id="line2d_27"/>
     <g id="text_4">
      <!-- 0.00 -->
      <g style="fill:#262626;" transform="translate(7.2 169.52078)scale(0.12 -0.12)">
       <use xlink:href="#ArialMT-30"/>
       <use x="55.615234" xlink:href="#ArialMT-2e"/>
       <use x="83.398438" xlink:href="#ArialMT-30"/>
       <use x="139.013672" xlink:href="#ArialMT-30"/>
      </g>
     </g>
    </g>
    <g id="ytick_4">
     <g id="line2d_28">
      <path clip-path="url(#p8cb459b0c3)" d="M 37.553125 127.158866 
L 372.353125 127.158866 
" style="fill:none;stroke:#ffffff;stroke-linecap:round;"/>
     </g>
     <g id="line2d_29"/>
     <g id="text_5">
      <!-- 0.25 -->
      <g style="fill:#262626;" transform="translate(7.2 131.453553)scale(0.12 -0.12)">
       <use xlink:href="#ArialMT-30"/>
       <use x="55.615234" xlink:href="#ArialMT-2e"/>
       <use x="83.398438" xlink:href="#ArialMT-32"/>
       <use x="139.013672" xlink:href="#ArialMT-35"/>
      </g>
     </g>
    </g>
   </g>
   <g id="line2d_30">
    <g clip-path="url(#p8cb459b0c3)">
     <use style="fill:#4c72b0;" x="52.771307" xlink:href="#m8dedb37bd6" y="163.470551"/>
     <use style="fill:#4c72b0;" x="67.989489" xlink:href="#m8dedb37bd6" y="156.448388"/>
     <use style="fill:#4c72b0;" x="83.20767" xlink:href="#m8dedb37bd6" y="144.379043"/>
     <use style="fill:#4c72b0;" x="98.425852" xlink:href="#m8dedb37bd6" y="133.955519"/>
     <use style="fill:#4c72b0;" x="113.644034" xlink:href="#m8dedb37bd6" y="132.001108"/>
     <use style="fill:#4c72b0;" x="128.862216" xlink:href="#m8dedb37bd6" y="138.646105"/>
     <use style="fill:#4c72b0;" x="144.080398" xlink:href="#m8dedb37bd6" y="148.6136"/>
     <use style="fill:#4c72b0;" x="159.29858" xlink:href="#m8dedb37bd6" y="156.919846"/>
     <use style="fill:#4c72b0;" x="174.516761" xlink:href="#m8dedb37bd6" y="161.85168"/>
     <use style="fill:#4c72b0;" x="189.734943" xlink:href="#m8dedb37bd6" y="164.101288"/>
     <use style="fill:#4c72b0;" x="204.953125" xlink:href="#m8dedb37bd6" y="164.916771"/>
     <use style="fill:#4c72b0;" x="220.171307" xlink:href="#m8dedb37bd6" y="165.155792"/>
     <use style="fill:#4c72b0;" x="235.389489" xlink:href="#m8dedb37bd6" y="165.212911"/>
     <use style="fill:#4c72b0;" x="250.60767" xlink:href="#m8dedb37bd6" y="165.224065"/>
     <use style="fill:#4c72b0;" x="265.825852" xlink:href="#m8dedb37bd6" y="165.225839"/>
     <use style="fill:#4c72b0;" x="281.044034" xlink:href="#m8dedb37bd6" y="165.226067"/>
     <use style="fill:#4c72b0;" x="296.262216" xlink:href="#m8dedb37bd6" y="165.22609"/>
     <use style="fill:#4c72b0;" x="311.480398" xlink:href="#m8dedb37bd6" y="165.226092"/>
     <use style="fill:#4c72b0;" x="326.69858" xlink:href="#m8dedb37bd6" y="165.226092"/>
     <use style="fill:#4c72b0;" x="341.916761" xlink:href="#m8dedb37bd6" y="165.226092"/>
     <use style="fill:#4c72b0;" x="357.134943" xlink:href="#m8dedb37bd6" y="165.226092"/>
    </g>
   </g>
   <g id="patch_8">
    <path d="M 37.553125 168.271471 
L 37.553125 104.318529 
" style="fill:none;"/>
   </g>
   <g id="patch_9">
    <path d="M 372.353125 168.271471 
L 372.353125 104.318529 
" style="fill:none;"/>
   </g>
   <g id="patch_10">
    <path d="M 37.553125 168.271471 
L 372.353125 168.271471 
" style="fill:none;"/>
   </g>
   <g id="patch_11">
    <path d="M 37.553125 104.318529 
L 372.353125 104.318529 
" style="fill:none;"/>
   </g>
  </g>
  <g id="axes_3">
   <g id="patch_12">
    <path d="M 37.553125 245.015 
L 372.353125 245.015 
L 372.353125 181.062059 
L 37.553125 181.062059 
z
" style="fill:#eaeaf2;"/>
   </g>
   <g id="matplotlib.axis_5">
    <g id="xtick_11">
     <g id="line2d_31">
      <path clip-path="url(#p77abfa78f9)" d="M 52.771307 245.015 
L 52.771307 181.062059 
" style="fill:none;stroke:#ffffff;stroke-linecap:round;"/>
     </g>
     <g id="line2d_32"/>
     <g id="text_6">
      <!-- 0 -->
      <g style="fill:#262626;" transform="translate(49.434744 260.604375)scale(0.12 -0.12)">
       <use xlink:href="#ArialMT-30"/>
      </g>
     </g>
    </g>
    <g id="xtick_12">
     <g id="line2d_33">
      <path clip-path="url(#p77abfa78f9)" d="M 128.862216 245.015 
L 128.862216 181.062059 
" style="fill:none;stroke:#ffffff;stroke-linecap:round;"/>
     </g>
     <g id="line2d_34"/>
     <g id="text_7">
      <!-- 5 -->
      <g style="fill:#262626;" transform="translate(125.525653 260.604375)scale(0.12 -0.12)">
       <use xlink:href="#ArialMT-35"/>
      </g>
     </g>
    </g>
    <g id="xtick_13">
     <g id="line2d_35">
      <path clip-path="url(#p77abfa78f9)" d="M 204.953125 245.015 
L 204.953125 181.062059 
" style="fill:none;stroke:#ffffff;stroke-linecap:round;"/>
     </g>
     <g id="line2d_36"/>
     <g id="text_8">
      <!-- 10 -->
      <g style="fill:#262626;" transform="translate(198.28 260.604375)scale(0.12 -0.12)">
       <use xlink:href="#ArialMT-31"/>
       <use x="55.615234" xlink:href="#ArialMT-30"/>
      </g>
     </g>
    </g>
    <g id="xtick_14">
     <g id="line2d_37">
      <path clip-path="url(#p77abfa78f9)" d="M 281.044034 245.015 
L 281.044034 181.062059 
" style="fill:none;stroke:#ffffff;stroke-linecap:round;"/>
     </g>
     <g id="line2d_38"/>
     <g id="text_9">
      <!-- 15 -->
      <g style="fill:#262626;" transform="translate(274.370909 260.604375)scale(0.12 -0.12)">
       <use xlink:href="#ArialMT-31"/>
       <use x="55.615234" xlink:href="#ArialMT-35"/>
      </g>
     </g>
    </g>
    <g id="xtick_15">
     <g id="line2d_39">
      <path clip-path="url(#p77abfa78f9)" d="M 357.134943 245.015 
L 357.134943 181.062059 
" style="fill:none;stroke:#ffffff;stroke-linecap:round;"/>
     </g>
     <g id="line2d_40"/>
     <g id="text_10">
      <!-- 20 -->
      <g style="fill:#262626;" transform="translate(350.461818 260.604375)scale(0.12 -0.12)">
       <use xlink:href="#ArialMT-32"/>
       <use x="55.615234" xlink:href="#ArialMT-30"/>
      </g>
     </g>
    </g>
    <g id="text_11">
     <!-- n -->
     <defs>
      <path d="M 6.59375 0 
L 6.59375 51.859375 
L 14.5 51.859375 
L 14.5 44.484375 
Q 20.21875 53.03125 31 53.03125 
Q 35.6875 53.03125 39.625 51.34375 
Q 43.5625 49.65625 45.515625 46.921875 
Q 47.46875 44.1875 48.25 40.4375 
Q 48.734375 37.984375 48.734375 31.890625 
L 48.734375 0 
L 39.9375 0 
L 39.9375 31.546875 
Q 39.9375 36.921875 38.90625 39.578125 
Q 37.890625 42.234375 35.28125 43.8125 
Q 32.671875 45.40625 29.15625 45.40625 
Q 23.53125 45.40625 19.453125 41.84375 
Q 15.375 38.28125 15.375 28.328125 
L 15.375 0 
z
" id="ArialMT-6e"/>
     </defs>
     <g style="fill:#262626;" transform="translate(199.948281 279.873438)scale(0.18 -0.18)">
      <use xlink:href="#ArialMT-6e"/>
     </g>
    </g>
   </g>
   <g id="matplotlib.axis_6">
    <g id="ytick_5">
     <g id="line2d_41">
      <path clip-path="url(#p77abfa78f9)" d="M 37.553125 241.969622 
L 372.353125 241.969622 
" style="fill:none;stroke:#ffffff;stroke-linecap:round;"/>
     </g>
     <g id="line2d_42"/>
     <g id="text_12">
      <!-- 0.00 -->
      <g style="fill:#262626;" transform="translate(7.2 246.264309)scale(0.12 -0.12)">
       <use xlink:href="#ArialMT-30"/>
       <use x="55.615234" xlink:href="#ArialMT-2e"/>
       <use x="83.398438" xlink:href="#ArialMT-30"/>
       <use x="139.013672" xlink:href="#ArialMT-30"/>
      </g>
     </g>
    </g>
    <g id="ytick_6">
     <g id="line2d_43">
      <path clip-path="url(#p77abfa78f9)" d="M 37.553125 203.902395 
L 372.353125 203.902395 
" style="fill:none;stroke:#ffffff;stroke-linecap:round;"/>
     </g>
     <g id="line2d_44"/>
     <g id="text_13">
      <!-- 0.25 -->
      <g style="fill:#262626;" transform="translate(7.2 208.197082)scale(0.12 -0.12)">
       <use xlink:href="#ArialMT-30"/>
       <use x="55.615234" xlink:href="#ArialMT-2e"/>
       <use x="83.398438" xlink:href="#ArialMT-32"/>
       <use x="139.013672" xlink:href="#ArialMT-35"/>
      </g>
     </g>
    </g>
   </g>
   <g id="line2d_45">
    <g clip-path="url(#p77abfa78f9)">
     <use style="fill:#4c72b0;" x="52.771307" xlink:href="#m8dedb37bd6" y="241.848123"/>
     <use style="fill:#4c72b0;" x="67.989489" xlink:href="#m8dedb37bd6" y="240.928203"/>
     <use style="fill:#4c72b0;" x="83.20767" xlink:href="#m8dedb37bd6" y="237.729561"/>
     <use style="fill:#4c72b0;" x="98.425852" xlink:href="#m8dedb37bd6" y="231.066609"/>
     <use style="fill:#4c72b0;" x="113.644034" xlink:href="#m8dedb37bd6" y="222.110563"/>
     <use style="fill:#4c72b0;" x="128.862216" xlink:href="#m8dedb37bd6" y="214.734341"/>
     <use style="fill:#4c72b0;" x="144.080398" xlink:href="#m8dedb37bd6" y="212.788963"/>
     <use style="fill:#4c72b0;" x="159.29858" xlink:href="#m8dedb37bd6" y="216.957629"/>
     <use style="fill:#4c72b0;" x="174.516761" xlink:href="#m8dedb37bd6" y="224.550555"/>
     <use style="fill:#4c72b0;" x="189.734943" xlink:href="#m8dedb37bd6" y="232.01587"/>
     <use style="fill:#4c72b0;" x="204.953125" xlink:href="#m8dedb37bd6" y="237.277139"/>
     <use style="fill:#4c72b0;" x="220.171307" xlink:href="#m8dedb37bd6" y="240.141382"/>
     <use style="fill:#4c72b0;" x="235.389489" xlink:href="#m8dedb37bd6" y="241.381973"/>
     <use style="fill:#4c72b0;" x="250.60767" xlink:href="#m8dedb37bd6" y="241.814638"/>
     <use style="fill:#4c72b0;" x="265.825852" xlink:href="#m8dedb37bd6" y="241.936411"/>
     <use style="fill:#4c72b0;" x="281.044034" xlink:href="#m8dedb37bd6" y="241.963929"/>
     <use style="fill:#4c72b0;" x="296.262216" xlink:href="#m8dedb37bd6" y="241.968859"/>
     <use style="fill:#4c72b0;" x="311.480398" xlink:href="#m8dedb37bd6" y="241.969545"/>
     <use style="fill:#4c72b0;" x="326.69858" xlink:href="#m8dedb37bd6" y="241.969616"/>
     <use style="fill:#4c72b0;" x="341.916761" xlink:href="#m8dedb37bd6" y="241.969622"/>
     <use style="fill:#4c72b0;" x="357.134943" xlink:href="#m8dedb37bd6" y="241.969622"/>
    </g>
   </g>
   <g id="patch_13">
    <path d="M 37.553125 245.015 
L 37.553125 181.062059 
" style="fill:none;"/>
   </g>
   <g id="patch_14">
    <path d="M 372.353125 245.015 
L 372.353125 181.062059 
" style="fill:none;"/>
   </g>
   <g id="patch_15">
    <path d="M 37.553125 245.015 
L 372.353125 245.015 
" style="fill:none;"/>
   </g>
   <g id="patch_16">
    <path d="M 37.553125 181.062059 
L 372.353125 181.062059 
" style="fill:none;"/>
   </g>
  </g>
 </g>
 <defs>
  <clipPath id="p6428de3844">
   <rect height="63.952941" width="334.8" x="37.553125" y="27.575"/>
  </clipPath>
  <clipPath id="p8cb459b0c3">
   <rect height="63.952941" width="334.8" x="37.553125" y="104.318529"/>
  </clipPath>
  <clipPath id="p77abfa78f9">
   <rect height="63.952941" width="334.8" x="37.553125" y="181.062059"/>
  </clipPath>
 </defs>
</svg>
