<?xml version="1.0" encoding="utf-8" standalone="no"?>
<!DOCTYPE svg PUBLIC "-//W3C//DTD SVG 1.1//EN"
  "http://www.w3.org/Graphics/SVG/1.1/DTD/svg11.dtd">
<!-- Created with matplotlib (http://matplotlib.org/) -->
<svg height="249pt" version="1.1" viewBox="0 0 372 249" width="372pt" xmlns="http://www.w3.org/2000/svg" xmlns:xlink="http://www.w3.org/1999/xlink">
 <defs>
  <style type="text/css">
*{stroke-linecap:butt;stroke-linejoin:round;}
  </style>
 </defs>
 <g id="figure_1">
  <g id="patch_1">
   <path d="M 0 249.814375 
L 372.88 249.814375 
L 372.88 0 
L 0 0 
z
" style="fill:none;"/>
  </g>
  <g id="axes_1">
   <g id="patch_2">
    <path d="M 30.88 224.64 
L 365.68 224.64 
L 365.68 7.2 
L 30.88 7.2 
z
" style="fill:#eaeaf2;"/>
   </g>
   <g id="matplotlib.axis_1">
    <g id="xtick_1">
     <g id="line2d_1">
      <path clip-path="url(#p106507d5a0)" d="M 52.329512 224.64 
L 52.329512 7.2 
" style="fill:none;stroke:#ffffff;stroke-linecap:round;"/>
     </g>
     <g id="line2d_2"/>
     <g id="text_1">
      <!-- 0.5 -->
      <defs>
       <path d="M 4.15625 35.296875 
Q 4.15625 48 6.765625 55.734375 
Q 9.375 63.484375 14.515625 67.671875 
Q 19.671875 71.875 27.484375 71.875 
Q 33.25 71.875 37.59375 69.546875 
Q 41.9375 67.234375 44.765625 62.859375 
Q 47.609375 58.5 49.21875 52.21875 
Q 50.828125 45.953125 50.828125 35.296875 
Q 50.828125 22.703125 48.234375 14.96875 
Q 45.65625 7.234375 40.5 3 
Q 35.359375 -1.21875 27.484375 -1.21875 
Q 17.140625 -1.21875 11.234375 6.203125 
Q 4.15625 15.140625 4.15625 35.296875 
z
M 13.1875 35.296875 
Q 13.1875 17.671875 17.3125 11.828125 
Q 21.4375 6 27.484375 6 
Q 33.546875 6 37.671875 11.859375 
Q 41.796875 17.71875 41.796875 35.296875 
Q 41.796875 52.984375 37.671875 58.78125 
Q 33.546875 64.59375 27.390625 64.59375 
Q 21.34375 64.59375 17.71875 59.46875 
Q 13.1875 52.9375 13.1875 35.296875 
z
" id="ArialMT-30"/>
       <path d="M 9.078125 0 
L 9.078125 10.015625 
L 19.09375 10.015625 
L 19.09375 0 
z
" id="ArialMT-2e"/>
       <path d="M 4.15625 18.75 
L 13.375 19.53125 
Q 14.40625 12.796875 18.140625 9.390625 
Q 21.875 6 27.15625 6 
Q 33.5 6 37.890625 10.78125 
Q 42.28125 15.578125 42.28125 23.484375 
Q 42.28125 31 38.0625 35.34375 
Q 33.84375 39.703125 27 39.703125 
Q 22.75 39.703125 19.328125 37.765625 
Q 15.921875 35.84375 13.96875 32.765625 
L 5.71875 33.84375 
L 12.640625 70.609375 
L 48.25 70.609375 
L 48.25 62.203125 
L 19.671875 62.203125 
L 15.828125 42.96875 
Q 22.265625 47.46875 29.34375 47.46875 
Q 38.71875 47.46875 45.15625 40.96875 
Q 51.609375 34.46875 51.609375 24.265625 
Q 51.609375 14.546875 45.953125 7.46875 
Q 39.0625 -1.21875 27.15625 -1.21875 
Q 17.390625 -1.21875 11.203125 4.25 
Q 5.03125 9.71875 4.15625 18.75 
z
" id="ArialMT-35"/>
      </defs>
      <g style="fill:#262626;" transform="translate(43.989512 240.229375)scale(0.12 -0.12)">
       <use xlink:href="#ArialMT-30"/>
       <use x="55.615234" xlink:href="#ArialMT-2e"/>
       <use x="83.398438" xlink:href="#ArialMT-35"/>
      </g>
     </g>
    </g>
    <g id="xtick_2">
     <g id="line2d_3">
      <path clip-path="url(#p106507d5a0)" d="M 89.735418 224.64 
L 89.735418 7.2 
" style="fill:none;stroke:#ffffff;stroke-linecap:round;"/>
     </g>
     <g id="line2d_4"/>
     <g id="text_2">
      <!-- 1.0 -->
      <defs>
       <path d="M 37.25 0 
L 28.46875 0 
L 28.46875 56 
Q 25.296875 52.984375 20.140625 49.953125 
Q 14.984375 46.921875 10.890625 45.40625 
L 10.890625 53.90625 
Q 18.265625 57.375 23.78125 62.296875 
Q 29.296875 67.234375 31.59375 71.875 
L 37.25 71.875 
z
" id="ArialMT-31"/>
      </defs>
      <g style="fill:#262626;" transform="translate(81.395418 240.229375)scale(0.12 -0.12)">
       <use xlink:href="#ArialMT-31"/>
       <use x="55.615234" xlink:href="#ArialMT-2e"/>
       <use x="83.398438" xlink:href="#ArialMT-30"/>
      </g>
     </g>
    </g>
    <g id="xtick_3">
     <g id="line2d_5">
      <path clip-path="url(#p106507d5a0)" d="M 127.141325 224.64 
L 127.141325 7.2 
" style="fill:none;stroke:#ffffff;stroke-linecap:round;"/>
     </g>
     <g id="line2d_6"/>
     <g id="text_3">
      <!-- 1.5 -->
      <g style="fill:#262626;" transform="translate(118.801325 240.229375)scale(0.12 -0.12)">
       <use xlink:href="#ArialMT-31"/>
       <use x="55.615234" xlink:href="#ArialMT-2e"/>
       <use x="83.398438" xlink:href="#ArialMT-35"/>
      </g>
     </g>
    </g>
    <g id="xtick_4">
     <g id="line2d_7">
      <path clip-path="url(#p106507d5a0)" d="M 164.547231 224.64 
L 164.547231 7.2 
" style="fill:none;stroke:#ffffff;stroke-linecap:round;"/>
     </g>
     <g id="line2d_8"/>
     <g id="text_4">
      <!-- 2.0 -->
      <defs>
       <path d="M 50.34375 8.453125 
L 50.34375 0 
L 3.03125 0 
Q 2.9375 3.171875 4.046875 6.109375 
Q 5.859375 10.9375 9.828125 15.625 
Q 13.8125 20.3125 21.34375 26.46875 
Q 33.015625 36.03125 37.109375 41.625 
Q 41.21875 47.21875 41.21875 52.203125 
Q 41.21875 57.421875 37.46875 61 
Q 33.734375 64.59375 27.734375 64.59375 
Q 21.390625 64.59375 17.578125 60.78125 
Q 13.765625 56.984375 13.71875 50.25 
L 4.6875 51.171875 
Q 5.609375 61.28125 11.65625 66.578125 
Q 17.71875 71.875 27.9375 71.875 
Q 38.234375 71.875 44.234375 66.15625 
Q 50.25 60.453125 50.25 52 
Q 50.25 47.703125 48.484375 43.546875 
Q 46.734375 39.40625 42.65625 34.8125 
Q 38.578125 30.21875 29.109375 22.21875 
Q 21.1875 15.578125 18.9375 13.203125 
Q 16.703125 10.84375 15.234375 8.453125 
z
" id="ArialMT-32"/>
      </defs>
      <g style="fill:#262626;" transform="translate(156.207231 240.229375)scale(0.12 -0.12)">
       <use xlink:href="#ArialMT-32"/>
       <use x="55.615234" xlink:href="#ArialMT-2e"/>
       <use x="83.398438" xlink:href="#ArialMT-30"/>
      </g>
     </g>
    </g>
    <g id="xtick_5">
     <g id="line2d_9">
      <path clip-path="url(#p106507d5a0)" d="M 201.953137 224.64 
L 201.953137 7.2 
" style="fill:none;stroke:#ffffff;stroke-linecap:round;"/>
     </g>
     <g id="line2d_10"/>
     <g id="text_5">
      <!-- 2.5 -->
      <g style="fill:#262626;" transform="translate(193.613137 240.229375)scale(0.12 -0.12)">
       <use xlink:href="#ArialMT-32"/>
       <use x="55.615234" xlink:href="#ArialMT-2e"/>
       <use x="83.398438" xlink:href="#ArialMT-35"/>
      </g>
     </g>
    </g>
    <g id="xtick_6">
     <g id="line2d_11">
      <path clip-path="url(#p106507d5a0)" d="M 239.359044 224.64 
L 239.359044 7.2 
" style="fill:none;stroke:#ffffff;stroke-linecap:round;"/>
     </g>
     <g id="line2d_12"/>
     <g id="text_6">
      <!-- 3.0 -->
      <defs>
       <path d="M 4.203125 18.890625 
L 12.984375 20.0625 
Q 14.5 12.59375 18.140625 9.296875 
Q 21.78125 6 27 6 
Q 33.203125 6 37.46875 10.296875 
Q 41.75 14.59375 41.75 20.953125 
Q 41.75 27 37.796875 30.921875 
Q 33.84375 34.859375 27.734375 34.859375 
Q 25.25 34.859375 21.53125 33.890625 
L 22.515625 41.609375 
Q 23.390625 41.5 23.921875 41.5 
Q 29.546875 41.5 34.03125 44.421875 
Q 38.53125 47.359375 38.53125 53.46875 
Q 38.53125 58.296875 35.25 61.46875 
Q 31.984375 64.65625 26.8125 64.65625 
Q 21.6875 64.65625 18.265625 61.421875 
Q 14.84375 58.203125 13.875 51.765625 
L 5.078125 53.328125 
Q 6.6875 62.15625 12.390625 67.015625 
Q 18.109375 71.875 26.609375 71.875 
Q 32.46875 71.875 37.390625 69.359375 
Q 42.328125 66.84375 44.9375 62.5 
Q 47.5625 58.15625 47.5625 53.265625 
Q 47.5625 48.640625 45.0625 44.828125 
Q 42.578125 41.015625 37.703125 38.765625 
Q 44.046875 37.3125 47.5625 32.6875 
Q 51.078125 28.078125 51.078125 21.140625 
Q 51.078125 11.765625 44.234375 5.25 
Q 37.40625 -1.265625 26.953125 -1.265625 
Q 17.53125 -1.265625 11.296875 4.34375 
Q 5.078125 9.96875 4.203125 18.890625 
z
" id="ArialMT-33"/>
      </defs>
      <g style="fill:#262626;" transform="translate(231.019044 240.229375)scale(0.12 -0.12)">
       <use xlink:href="#ArialMT-33"/>
       <use x="55.615234" xlink:href="#ArialMT-2e"/>
       <use x="83.398438" xlink:href="#ArialMT-30"/>
      </g>
     </g>
    </g>
    <g id="xtick_7">
     <g id="line2d_13">
      <path clip-path="url(#p106507d5a0)" d="M 276.76495 224.64 
L 276.76495 7.2 
" style="fill:none;stroke:#ffffff;stroke-linecap:round;"/>
     </g>
     <g id="line2d_14"/>
     <g id="text_7">
      <!-- 3.5 -->
      <g style="fill:#262626;" transform="translate(268.42495 240.229375)scale(0.12 -0.12)">
       <use xlink:href="#ArialMT-33"/>
       <use x="55.615234" xlink:href="#ArialMT-2e"/>
       <use x="83.398438" xlink:href="#ArialMT-35"/>
      </g>
     </g>
    </g>
    <g id="xtick_8">
     <g id="line2d_15">
      <path clip-path="url(#p106507d5a0)" d="M 314.170856 224.64 
L 314.170856 7.2 
" style="fill:none;stroke:#ffffff;stroke-linecap:round;"/>
     </g>
     <g id="line2d_16"/>
     <g id="text_8">
      <!-- 4.0 -->
      <defs>
       <path d="M 32.328125 0 
L 32.328125 17.140625 
L 1.265625 17.140625 
L 1.265625 25.203125 
L 33.9375 71.578125 
L 41.109375 71.578125 
L 41.109375 25.203125 
L 50.78125 25.203125 
L 50.78125 17.140625 
L 41.109375 17.140625 
L 41.109375 0 
z
M 32.328125 25.203125 
L 32.328125 57.46875 
L 9.90625 25.203125 
z
" id="ArialMT-34"/>
      </defs>
      <g style="fill:#262626;" transform="translate(305.830856 240.229375)scale(0.12 -0.12)">
       <use xlink:href="#ArialMT-34"/>
       <use x="55.615234" xlink:href="#ArialMT-2e"/>
       <use x="83.398438" xlink:href="#ArialMT-30"/>
      </g>
     </g>
    </g>
    <g id="xtick_9">
     <g id="line2d_17">
      <path clip-path="url(#p106507d5a0)" d="M 351.576763 224.64 
L 351.576763 7.2 
" style="fill:none;stroke:#ffffff;stroke-linecap:round;"/>
     </g>
     <g id="line2d_18"/>
     <g id="text_9">
      <!-- 4.5 -->
      <g style="fill:#262626;" transform="translate(343.236763 240.229375)scale(0.12 -0.12)">
       <use xlink:href="#ArialMT-34"/>
       <use x="55.615234" xlink:href="#ArialMT-2e"/>
       <use x="83.398438" xlink:href="#ArialMT-35"/>
      </g>
     </g>
    </g>
   </g>
   <g id="matplotlib.axis_2">
    <g id="ytick_1">
     <g id="line2d_19">
      <path clip-path="url(#p106507d5a0)" d="M 30.88 224.64 
L 365.68 224.64 
" style="fill:none;stroke:#ffffff;stroke-linecap:round;"/>
     </g>
     <g id="line2d_20"/>
     <g id="text_10">
      <!-- 0.0 -->
      <g style="fill:#262626;" transform="translate(7.2 228.934687)scale(0.12 -0.12)">
       <use xlink:href="#ArialMT-30"/>
       <use x="55.615234" xlink:href="#ArialMT-2e"/>
       <use x="83.398438" xlink:href="#ArialMT-30"/>
      </g>
     </g>
    </g>
    <g id="ytick_2">
     <g id="line2d_21">
      <path clip-path="url(#p106507d5a0)" d="M 30.88 182.450861 
L 365.68 182.450861 
" style="fill:none;stroke:#ffffff;stroke-linecap:round;"/>
     </g>
     <g id="line2d_22"/>
     <g id="text_11">
      <!-- 0.2 -->
      <g style="fill:#262626;" transform="translate(7.2 186.745548)scale(0.12 -0.12)">
       <use xlink:href="#ArialMT-30"/>
       <use x="55.615234" xlink:href="#ArialMT-2e"/>
       <use x="83.398438" xlink:href="#ArialMT-32"/>
      </g>
     </g>
    </g>
    <g id="ytick_3">
     <g id="line2d_23">
      <path clip-path="url(#p106507d5a0)" d="M 30.88 140.261721 
L 365.68 140.261721 
" style="fill:none;stroke:#ffffff;stroke-linecap:round;"/>
     </g>
     <g id="line2d_24"/>
     <g id="text_12">
      <!-- 0.4 -->
      <g style="fill:#262626;" transform="translate(7.2 144.556409)scale(0.12 -0.12)">
       <use xlink:href="#ArialMT-30"/>
       <use x="55.615234" xlink:href="#ArialMT-2e"/>
       <use x="83.398438" xlink:href="#ArialMT-34"/>
      </g>
     </g>
    </g>
    <g id="ytick_4">
     <g id="line2d_25">
      <path clip-path="url(#p106507d5a0)" d="M 30.88 98.072582 
L 365.68 98.072582 
" style="fill:none;stroke:#ffffff;stroke-linecap:round;"/>
     </g>
     <g id="line2d_26"/>
     <g id="text_13">
      <!-- 0.6 -->
      <defs>
       <path d="M 49.75 54.046875 
L 41.015625 53.375 
Q 39.84375 58.546875 37.703125 60.890625 
Q 34.125 64.65625 28.90625 64.65625 
Q 24.703125 64.65625 21.53125 62.3125 
Q 17.390625 59.28125 14.984375 53.46875 
Q 12.59375 47.65625 12.5 36.921875 
Q 15.671875 41.75 20.265625 44.09375 
Q 24.859375 46.4375 29.890625 46.4375 
Q 38.671875 46.4375 44.84375 39.96875 
Q 51.03125 33.5 51.03125 23.25 
Q 51.03125 16.5 48.125 10.71875 
Q 45.21875 4.9375 40.140625 1.859375 
Q 35.0625 -1.21875 28.609375 -1.21875 
Q 17.625 -1.21875 10.6875 6.859375 
Q 3.765625 14.9375 3.765625 33.5 
Q 3.765625 54.25 11.421875 63.671875 
Q 18.109375 71.875 29.4375 71.875 
Q 37.890625 71.875 43.28125 67.140625 
Q 48.6875 62.40625 49.75 54.046875 
z
M 13.875 23.1875 
Q 13.875 18.65625 15.796875 14.5 
Q 17.71875 10.359375 21.1875 8.171875 
Q 24.65625 6 28.46875 6 
Q 34.03125 6 38.03125 10.484375 
Q 42.046875 14.984375 42.046875 22.703125 
Q 42.046875 30.125 38.078125 34.390625 
Q 34.125 38.671875 28.125 38.671875 
Q 22.171875 38.671875 18.015625 34.390625 
Q 13.875 30.125 13.875 23.1875 
z
" id="ArialMT-36"/>
      </defs>
      <g style="fill:#262626;" transform="translate(7.2 102.367269)scale(0.12 -0.12)">
       <use xlink:href="#ArialMT-30"/>
       <use x="55.615234" xlink:href="#ArialMT-2e"/>
       <use x="83.398438" xlink:href="#ArialMT-36"/>
      </g>
     </g>
    </g>
    <g id="ytick_5">
     <g id="line2d_27">
      <path clip-path="url(#p106507d5a0)" d="M 30.88 55.883442 
L 365.68 55.883442 
" style="fill:none;stroke:#ffffff;stroke-linecap:round;"/>
     </g>
     <g id="line2d_28"/>
     <g id="text_14">
      <!-- 0.8 -->
      <defs>
       <path d="M 17.671875 38.8125 
Q 12.203125 40.828125 9.5625 44.53125 
Q 6.9375 48.25 6.9375 53.421875 
Q 6.9375 61.234375 12.546875 66.546875 
Q 18.171875 71.875 27.484375 71.875 
Q 36.859375 71.875 42.578125 66.421875 
Q 48.296875 60.984375 48.296875 53.171875 
Q 48.296875 48.1875 45.671875 44.5 
Q 43.0625 40.828125 37.75 38.8125 
Q 44.34375 36.671875 47.78125 31.875 
Q 51.21875 27.09375 51.21875 20.453125 
Q 51.21875 11.28125 44.71875 5.03125 
Q 38.234375 -1.21875 27.640625 -1.21875 
Q 17.046875 -1.21875 10.546875 5.046875 
Q 4.046875 11.328125 4.046875 20.703125 
Q 4.046875 27.6875 7.59375 32.390625 
Q 11.140625 37.109375 17.671875 38.8125 
z
M 15.921875 53.71875 
Q 15.921875 48.640625 19.1875 45.40625 
Q 22.46875 42.1875 27.6875 42.1875 
Q 32.765625 42.1875 36.015625 45.375 
Q 39.265625 48.578125 39.265625 53.21875 
Q 39.265625 58.0625 35.90625 61.359375 
Q 32.5625 64.65625 27.59375 64.65625 
Q 22.5625 64.65625 19.234375 61.421875 
Q 15.921875 58.203125 15.921875 53.71875 
z
M 13.09375 20.65625 
Q 13.09375 16.890625 14.875 13.375 
Q 16.65625 9.859375 20.171875 7.921875 
Q 23.6875 6 27.734375 6 
Q 34.03125 6 38.125 10.046875 
Q 42.234375 14.109375 42.234375 20.359375 
Q 42.234375 26.703125 38.015625 30.859375 
Q 33.796875 35.015625 27.4375 35.015625 
Q 21.234375 35.015625 17.15625 30.90625 
Q 13.09375 26.8125 13.09375 20.65625 
z
" id="ArialMT-38"/>
      </defs>
      <g style="fill:#262626;" transform="translate(7.2 60.17813)scale(0.12 -0.12)">
       <use xlink:href="#ArialMT-30"/>
       <use x="55.615234" xlink:href="#ArialMT-2e"/>
       <use x="83.398438" xlink:href="#ArialMT-38"/>
      </g>
     </g>
    </g>
    <g id="ytick_6">
     <g id="line2d_29">
      <path clip-path="url(#p106507d5a0)" d="M 30.88 13.694303 
L 365.68 13.694303 
" style="fill:none;stroke:#ffffff;stroke-linecap:round;"/>
     </g>
     <g id="line2d_30"/>
     <g id="text_15">
      <!-- 1.0 -->
      <g style="fill:#262626;" transform="translate(7.2 17.98899)scale(0.12 -0.12)">
       <use xlink:href="#ArialMT-31"/>
       <use x="55.615234" xlink:href="#ArialMT-2e"/>
       <use x="83.398438" xlink:href="#ArialMT-30"/>
      </g>
     </g>
    </g>
   </g>
   <g id="patch_3">
    <path clip-path="url(#p106507d5a0)" d="M 41.817634 224.64 
L 41.817634 209.309404 
L 51.082184 209.309404 
L 51.082184 199.089007 
L 60.346734 199.089007 
L 60.346734 175.241413 
L 69.611283 175.241413 
L 69.611283 147.98702 
L 78.875833 147.98702 
L 78.875833 132.656424 
L 88.140383 132.656424 
L 88.140383 110.512229 
L 97.404933 110.512229 
L 97.404933 105.402031 
L 106.669482 105.402031 
L 106.669482 105.402031 
L 115.934032 105.402031 
L 115.934032 101.995232 
L 125.198582 101.995232 
L 125.198582 110.512229 
L 134.463132 110.512229 
L 134.463132 119.029227 
L 143.727681 119.029227 
L 143.727681 141.173421 
L 152.992231 141.173421 
L 152.992231 134.359823 
L 162.256781 134.359823 
L 162.256781 125.842825 
L 171.521331 125.842825 
L 171.521331 176.944812 
L 180.785881 176.944812 
L 180.785881 171.834614 
L 190.05043 171.834614 
L 190.05043 182.055011 
L 199.31498 182.055011 
L 199.31498 180.351611 
L 208.57953 180.351611 
L 208.57953 176.944812 
L 217.84408 176.944812 
L 217.84408 192.275408 
L 227.108629 192.275408 
L 227.108629 199.089007 
L 236.373179 199.089007 
L 236.373179 209.309404 
L 245.637729 209.309404 
L 245.637729 199.089007 
L 254.902279 199.089007 
L 254.902279 209.309404 
L 264.166828 209.309404 
L 264.166828 211.012804 
L 273.431378 211.012804 
L 273.431378 205.902605 
L 282.695928 205.902605 
L 282.695928 219.529801 
L 291.960478 219.529801 
L 291.960478 214.419603 
L 301.225027 214.419603 
L 301.225027 212.716203 
L 310.489577 212.716203 
L 310.489577 219.529801 
L 319.754127 219.529801 
L 319.754127 216.123002 
L 329.018677 216.123002 
L 329.018677 217.826402 
L 338.283226 217.826402 
L 338.283226 217.826402 
L 347.547776 217.826402 
L 347.547776 217.826402 
L 356.812326 217.826402 
L 356.812326 222.9366 
L 366.076876 222.9366 
L 366.076876 219.529801 
L 375.341425 219.529801 
L 375.341425 222.9366 
L 384.605975 222.9366 
L 384.605975 221.233201 
L 393.870525 221.233201 
L 393.870525 219.529801 
L 403.135075 219.529801 
L 403.135075 221.233201 
L 412.399625 221.233201 
L 412.399625 219.529801 
L 421.664174 219.529801 
L 421.664174 222.9366 
L 430.928724 222.9366 
L 430.928724 224.64 
L 440.193274 224.64 
L 440.193274 222.9366 
L 449.457824 222.9366 
L 449.457824 224.64 
L 458.722373 224.64 
L 458.722373 222.9366 
L 467.986923 222.9366 
L 467.986923 224.64 
L 477.251473 224.64 
L 477.251473 224.64 
L 486.516023 224.64 
L 486.516023 222.9366 
L 495.780572 222.9366 
L 495.780572 222.9366 
L 505.045122 222.9366 
L 505.045122 224.64 
L 495.780572 224.64 
L 495.780572 224.64 
L 486.516023 224.64 
L 486.516023 224.64 
L 477.251473 224.64 
L 477.251473 224.64 
L 467.986923 224.64 
L 467.986923 224.64 
L 458.722373 224.64 
L 458.722373 224.64 
L 449.457824 224.64 
L 449.457824 224.64 
L 440.193274 224.64 
L 440.193274 224.64 
L 430.928724 224.64 
L 430.928724 224.64 
L 421.664174 224.64 
L 421.664174 224.64 
L 412.399625 224.64 
L 412.399625 224.64 
L 403.135075 224.64 
L 403.135075 224.64 
L 393.870525 224.64 
L 393.870525 224.64 
L 384.605975 224.64 
L 384.605975 224.64 
L 375.341425 224.64 
L 375.341425 224.64 
L 366.076876 224.64 
L 366.076876 224.64 
L 356.812326 224.64 
L 356.812326 224.64 
L 347.547776 224.64 
L 347.547776 224.64 
L 338.283226 224.64 
L 338.283226 224.64 
L 329.018677 224.64 
L 329.018677 224.64 
L 319.754127 224.64 
L 319.754127 224.64 
L 310.489577 224.64 
L 310.489577 224.64 
L 301.225027 224.64 
L 301.225027 224.64 
L 291.960478 224.64 
L 291.960478 224.64 
L 282.695928 224.64 
L 282.695928 224.64 
L 273.431378 224.64 
L 273.431378 224.64 
L 264.166828 224.64 
L 264.166828 224.64 
L 254.902279 224.64 
L 254.902279 224.64 
L 245.637729 224.64 
L 245.637729 224.64 
L 236.373179 224.64 
L 236.373179 224.64 
L 227.108629 224.64 
L 227.108629 224.64 
L 217.84408 224.64 
L 217.84408 224.64 
L 208.57953 224.64 
L 208.57953 224.64 
L 199.31498 224.64 
L 199.31498 224.64 
L 190.05043 224.64 
L 190.05043 224.64 
L 180.785881 224.64 
L 180.785881 224.64 
L 171.521331 224.64 
L 171.521331 224.64 
L 162.256781 224.64 
L 162.256781 224.64 
L 152.992231 224.64 
L 152.992231 224.64 
L 143.727681 224.64 
L 143.727681 224.64 
L 134.463132 224.64 
L 134.463132 224.64 
L 125.198582 224.64 
L 125.198582 224.64 
L 115.934032 224.64 
L 115.934032 224.64 
L 106.669482 224.64 
L 106.669482 224.64 
L 97.404933 224.64 
L 97.404933 224.64 
L 88.140383 224.64 
L 88.140383 224.64 
L 78.875833 224.64 
L 78.875833 224.64 
L 69.611283 224.64 
L 69.611283 224.64 
L 60.346734 224.64 
L 60.346734 224.64 
L 51.082184 224.64 
L 51.082184 224.64 
z
" style="fill:#c44e52;opacity:0.4;"/>
   </g>
   <g id="line2d_31">
    <path clip-path="url(#p106507d5a0)" d="M 30.88 224.456231 
L 34.261818 223.961398 
L 37.643636 222.829424 
L 41.025455 220.761884 
L 44.407273 217.536206 
L 47.789091 213.050836 
L 51.170909 207.33359 
L 54.552727 200.523358 
L 57.934545 192.838406 
L 61.316364 184.541886 
L 64.698182 175.911117 
L 68.08 167.213659 
L 71.461818 158.690838 
L 74.843636 150.548 
L 78.225455 142.950196 
L 81.607273 136.021876 
L 84.989091 129.849283 
L 88.370909 124.484488 
L 91.752727 119.950232 
L 95.134545 116.245023 
L 98.516364 113.348056 
L 101.898182 111.22376 
L 105.28 109.82581 
L 108.661818 109.100572 
L 112.043636 108.989972 
L 115.425455 109.433836 
L 118.807273 110.371734 
L 122.189091 111.744403 
L 125.570909 113.49481 
L 128.952727 115.568903 
L 132.334545 117.916117 
L 135.716364 120.489676 
L 139.098182 123.24674 
L 142.48 126.148426 
L 145.861818 129.159736 
L 149.243636 132.249421 
L 152.625455 135.389796 
L 156.007273 138.556516 
L 159.389091 141.72835 
L 162.770909 144.886929 
L 166.152727 148.016505 
L 169.534545 151.103708 
L 172.916364 154.137314 
L 176.298182 157.108022 
L 179.68 160.008252 
L 183.061818 162.831944 
L 186.443636 165.574384 
L 189.825455 168.23204 
L 193.207273 170.802407 
L 196.589091 173.283879 
L 199.970909 175.675621 
L 203.352727 177.97746 
L 206.734545 180.189788 
L 210.116364 182.313474 
L 213.498182 184.349784 
L 216.88 186.300317 
L 220.261818 188.166938 
L 223.643636 189.951732 
L 227.025455 191.656951 
L 230.407273 193.284978 
L 233.789091 194.838291 
L 237.170909 196.319431 
L 240.552727 197.730979 
L 243.934545 199.075532 
L 247.316364 200.355683 
L 250.698182 201.57401 
L 254.08 202.733056 
L 257.461818 203.835325 
L 260.843636 204.883268 
L 264.225455 205.879277 
L 267.607273 206.825683 
L 270.989091 207.724745 
L 274.370909 208.578652 
L 277.752727 209.38952 
L 281.134545 210.159389 
L 284.516364 210.890223 
L 287.898182 211.58391 
L 291.28 212.242262 
L 294.661818 212.867018 
L 298.043636 213.45984 
L 301.425455 214.022322 
L 304.807273 214.555983 
L 308.189091 215.062278 
L 311.570909 215.54259 
L 314.952727 215.998243 
L 318.334545 216.430495 
L 321.716364 216.840544 
L 325.098182 217.229532 
L 328.48 217.598543 
L 331.861818 217.948609 
L 335.243636 218.280711 
L 338.625455 218.595779 
L 342.007273 218.894699 
L 345.389091 219.17831 
L 348.770909 219.447408 
L 352.152727 219.70275 
L 355.534545 219.945053 
L 358.916364 220.174996 
L 362.298182 220.393225 
L 365.68 220.600351 
" style="fill:none;stroke:#4c72b0;stroke-linecap:round;stroke-width:3;"/>
   </g>
   <g id="line2d_32">
    <path clip-path="url(#p106507d5a0)" d="M 30.88 224.635455 
L 34.261818 224.617773 
L 37.643636 224.564503 
L 41.025455 224.439944 
L 44.407273 224.196374 
L 47.789091 223.778651 
L 51.170909 223.129994 
L 54.552727 222.197493 
L 57.934545 220.936438 
L 61.316364 219.313131 
L 64.698182 217.30619 
L 68.08 214.906626 
L 71.461818 212.117001 
L 74.843636 208.949996 
L 78.225455 205.426675 
L 81.607273 201.574637 
L 84.989091 197.426233 
L 88.370909 193.016921 
L 91.752727 188.383833 
L 95.134545 183.564561 
L 98.516364 178.596174 
L 101.898182 173.514452 
L 105.28 168.353311 
L 108.661818 163.144393 
L 112.043636 157.916808 
L 115.425455 152.696983 
L 118.807273 147.508615 
L 122.189091 142.372691 
L 125.570909 137.307565 
L 128.952727 132.329078 
L 132.334545 127.450706 
L 135.716364 122.683723 
L 139.098182 118.037377 
L 142.48 113.51907 
L 145.861818 109.134535 
L 149.243636 104.888006 
L 152.625455 100.782388 
L 156.007273 96.819409 
L 159.389091 92.99977 
L 162.770909 89.323276 
L 166.152727 85.788963 
L 169.534545 82.395208 
L 172.916364 79.139836 
L 176.298182 76.020206 
L 179.68 73.033297 
L 183.061818 70.175782 
L 186.443636 67.444088 
L 189.825455 64.83446 
L 193.207273 62.343004 
L 196.589091 59.965735 
L 199.970909 57.698613 
L 203.352727 55.537576 
L 206.734545 53.478566 
L 210.116364 51.517555 
L 213.498182 49.650564 
L 216.88 47.873678 
L 220.261818 46.18306 
L 223.643636 44.574964 
L 227.025455 43.045741 
L 230.407273 41.591847 
L 233.789091 40.209849 
L 237.170909 38.896427 
L 240.552727 37.648376 
L 243.934545 36.462609 
L 247.316364 35.336156 
L 250.698182 34.266164 
L 254.08 33.249897 
L 257.461818 32.284731 
L 260.843636 31.368155 
L 264.225455 30.497769 
L 267.607273 29.671276 
L 270.989091 28.886487 
L 274.370909 28.14131 
L 277.752727 27.433753 
L 281.134545 26.761917 
L 284.516364 26.123992 
L 287.898182 25.518258 
L 291.28 24.943076 
L 294.661818 24.396889 
L 298.043636 23.878215 
L 301.425455 23.385648 
L 304.807273 22.917851 
L 308.189091 22.473554 
L 311.570909 22.05155 
L 314.952727 21.650697 
L 318.334545 21.269908 
L 321.716364 20.908152 
L 325.098182 20.564452 
L 328.48 20.237881 
L 331.861818 19.927558 
L 335.243636 19.63265 
L 338.625455 19.352367 
L 342.007273 19.085957 
L 345.389091 18.832711 
L 348.770909 18.591954 
L 352.152727 18.363048 
L 355.534545 18.145388 
L 358.916364 17.938398 
L 362.298182 17.741536 
L 365.68 17.554286 
" style="fill:none;stroke:#55a868;stroke-linecap:round;stroke-width:3;"/>
   </g>
   <g id="patch_4">
    <path d="M 30.88 224.64 
L 30.88 7.2 
" style="fill:none;"/>
   </g>
   <g id="patch_5">
    <path d="M 365.68 224.64 
L 365.68 7.2 
" style="fill:none;"/>
   </g>
   <g id="patch_6">
    <path d="M 30.88 224.64 
L 365.68 224.64 
" style="fill:none;"/>
   </g>
   <g id="patch_7">
    <path d="M 30.88 7.2 
L 365.68 7.2 
" style="fill:none;"/>
   </g>
   <g id="legend_1">
    <g id="line2d_33">
     <path d="M 39.88 19.979687 
L 59.88 19.979687 
" style="fill:none;stroke:#4c72b0;stroke-linecap:round;stroke-width:3;"/>
    </g>
    <g id="line2d_34"/>
    <g id="text_16">
     <!-- pdf -->
     <defs>
      <path d="M 6.59375 -19.875 
L 6.59375 51.859375 
L 14.59375 51.859375 
L 14.59375 45.125 
Q 17.4375 49.078125 21 51.046875 
Q 24.5625 53.03125 29.640625 53.03125 
Q 36.28125 53.03125 41.359375 49.609375 
Q 46.4375 46.1875 49.015625 39.953125 
Q 51.609375 33.734375 51.609375 26.3125 
Q 51.609375 18.359375 48.75 11.984375 
Q 45.90625 5.609375 40.453125 2.21875 
Q 35.015625 -1.171875 29 -1.171875 
Q 24.609375 -1.171875 21.109375 0.6875 
Q 17.625 2.546875 15.375 5.375 
L 15.375 -19.875 
z
M 14.546875 25.640625 
Q 14.546875 15.625 18.59375 10.84375 
Q 22.65625 6.0625 28.421875 6.0625 
Q 34.28125 6.0625 38.453125 11.015625 
Q 42.625 15.96875 42.625 26.375 
Q 42.625 36.28125 38.546875 41.203125 
Q 34.46875 46.140625 28.8125 46.140625 
Q 23.1875 46.140625 18.859375 40.890625 
Q 14.546875 35.640625 14.546875 25.640625 
z
" id="ArialMT-70"/>
      <path d="M 40.234375 0 
L 40.234375 6.546875 
Q 35.296875 -1.171875 25.734375 -1.171875 
Q 19.53125 -1.171875 14.328125 2.25 
Q 9.125 5.671875 6.265625 11.796875 
Q 3.421875 17.921875 3.421875 25.875 
Q 3.421875 33.640625 6 39.96875 
Q 8.59375 46.296875 13.765625 49.65625 
Q 18.953125 53.03125 25.34375 53.03125 
Q 30.03125 53.03125 33.6875 51.046875 
Q 37.359375 49.078125 39.65625 45.90625 
L 39.65625 71.578125 
L 48.390625 71.578125 
L 48.390625 0 
z
M 12.453125 25.875 
Q 12.453125 15.921875 16.640625 10.984375 
Q 20.84375 6.0625 26.5625 6.0625 
Q 32.328125 6.0625 36.34375 10.765625 
Q 40.375 15.484375 40.375 25.140625 
Q 40.375 35.796875 36.265625 40.765625 
Q 32.171875 45.75 26.171875 45.75 
Q 20.3125 45.75 16.375 40.96875 
Q 12.453125 36.1875 12.453125 25.875 
z
" id="ArialMT-64"/>
      <path d="M 8.6875 0 
L 8.6875 45.015625 
L 0.921875 45.015625 
L 0.921875 51.859375 
L 8.6875 51.859375 
L 8.6875 57.375 
Q 8.6875 62.59375 9.625 65.140625 
Q 10.890625 68.5625 14.078125 70.671875 
Q 17.28125 72.796875 23.046875 72.796875 
Q 26.765625 72.796875 31.25 71.921875 
L 29.9375 64.265625 
Q 27.203125 64.75 24.75 64.75 
Q 20.75 64.75 19.09375 63.03125 
Q 17.4375 61.328125 17.4375 56.640625 
L 17.4375 51.859375 
L 27.546875 51.859375 
L 27.546875 45.015625 
L 17.4375 45.015625 
L 17.4375 0 
z
" id="ArialMT-66"/>
     </defs>
     <g style="fill:#262626;" transform="translate(67.88 23.479687)scale(0.1 -0.1)">
      <use xlink:href="#ArialMT-70"/>
      <use x="55.615234" xlink:href="#ArialMT-64"/>
      <use x="111.230469" xlink:href="#ArialMT-66"/>
     </g>
    </g>
    <g id="line2d_35">
     <path d="M 39.88 34.125 
L 59.88 34.125 
" style="fill:none;stroke:#55a868;stroke-linecap:round;stroke-width:3;"/>
    </g>
    <g id="line2d_36"/>
    <g id="text_17">
     <!-- cdf -->
     <defs>
      <path d="M 40.4375 19 
L 49.078125 17.875 
Q 47.65625 8.9375 41.8125 3.875 
Q 35.984375 -1.171875 27.484375 -1.171875 
Q 16.84375 -1.171875 10.375 5.78125 
Q 3.90625 12.75 3.90625 25.734375 
Q 3.90625 34.125 6.6875 40.421875 
Q 9.46875 46.734375 15.15625 49.875 
Q 20.84375 53.03125 27.546875 53.03125 
Q 35.984375 53.03125 41.359375 48.75 
Q 46.734375 44.484375 48.25 36.625 
L 39.703125 35.296875 
Q 38.484375 40.53125 35.375 43.15625 
Q 32.28125 45.796875 27.875 45.796875 
Q 21.234375 45.796875 17.078125 41.03125 
Q 12.9375 36.28125 12.9375 25.984375 
Q 12.9375 15.53125 16.9375 10.796875 
Q 20.953125 6.0625 27.390625 6.0625 
Q 32.5625 6.0625 36.03125 9.234375 
Q 39.5 12.40625 40.4375 19 
z
" id="ArialMT-63"/>
     </defs>
     <g style="fill:#262626;" transform="translate(67.88 37.625)scale(0.1 -0.1)">
      <use xlink:href="#ArialMT-63"/>
      <use x="50" xlink:href="#ArialMT-64"/>
      <use x="105.615234" xlink:href="#ArialMT-66"/>
     </g>
    </g>
   </g>
  </g>
 </g>
 <defs>
  <clipPath id="p106507d5a0">
   <rect height="217.44" width="334.8" x="30.88" y="7.2"/>
  </clipPath>
 </defs>
</svg>
