<?xml version="1.0" encoding="utf-8" standalone="no"?>
<!DOCTYPE svg PUBLIC "-//W3C//DTD SVG 1.1//EN"
  "http://www.w3.org/Graphics/SVG/1.1/DTD/svg11.dtd">
<!-- Created with matplotlib (http://matplotlib.org/) -->
<svg height="249pt" version="1.1" viewBox="0 0 379 249" width="379pt" xmlns="http://www.w3.org/2000/svg" xmlns:xlink="http://www.w3.org/1999/xlink">
 <defs>
  <style type="text/css">
*{stroke-linecap:butt;stroke-linejoin:round;}
  </style>
 </defs>
 <g id="figure_1">
  <g id="patch_1">
   <path d="M 0 249.814375 
L 379.553125 249.814375 
L 379.553125 0 
L 0 0 
z
" style="fill:none;"/>
  </g>
  <g id="axes_1">
   <g id="patch_2">
    <path d="M 37.553125 224.64 
L 372.353125 224.64 
L 372.353125 7.2 
L 37.553125 7.2 
z
" style="fill:#eaeaf2;"/>
   </g>
   <g id="matplotlib.axis_1">
    <g id="xtick_1">
     <g id="line2d_1">
      <path clip-path="url(#p7b224e16cb)" d="M 52.771307 224.64 
L 52.771307 7.2 
" style="fill:none;stroke:#ffffff;stroke-linecap:round;"/>
     </g>
     <g id="line2d_2"/>
     <g id="text_1">
      <!-- 0 -->
      <defs>
       <path d="M 4.15625 35.296875 
Q 4.15625 48 6.765625 55.734375 
Q 9.375 63.484375 14.515625 67.671875 
Q 19.671875 71.875 27.484375 71.875 
Q 33.25 71.875 37.59375 69.546875 
Q 41.9375 67.234375 44.765625 62.859375 
Q 47.609375 58.5 49.21875 52.21875 
Q 50.828125 45.953125 50.828125 35.296875 
Q 50.828125 22.703125 48.234375 14.96875 
Q 45.65625 7.234375 40.5 3 
Q 35.359375 -1.21875 27.484375 -1.21875 
Q 17.140625 -1.21875 11.234375 6.203125 
Q 4.15625 15.140625 4.15625 35.296875 
z
M 13.1875 35.296875 
Q 13.1875 17.671875 17.3125 11.828125 
Q 21.4375 6 27.484375 6 
Q 33.546875 6 37.671875 11.859375 
Q 41.796875 17.71875 41.796875 35.296875 
Q 41.796875 52.984375 37.671875 58.78125 
Q 33.546875 64.59375 27.390625 64.59375 
Q 21.34375 64.59375 17.71875 59.46875 
Q 13.1875 52.9375 13.1875 35.296875 
z
" id="ArialMT-30"/>
      </defs>
      <g style="fill:#262626;" transform="translate(49.434744 240.229375)scale(0.12 -0.12)">
       <use xlink:href="#ArialMT-30"/>
      </g>
     </g>
    </g>
    <g id="xtick_2">
     <g id="line2d_3">
      <path clip-path="url(#p7b224e16cb)" d="M 114.25891 224.64 
L 114.25891 7.2 
" style="fill:none;stroke:#ffffff;stroke-linecap:round;"/>
     </g>
     <g id="line2d_4"/>
     <g id="text_2">
      <!-- 20 -->
      <defs>
       <path d="M 50.34375 8.453125 
L 50.34375 0 
L 3.03125 0 
Q 2.9375 3.171875 4.046875 6.109375 
Q 5.859375 10.9375 9.828125 15.625 
Q 13.8125 20.3125 21.34375 26.46875 
Q 33.015625 36.03125 37.109375 41.625 
Q 41.21875 47.21875 41.21875 52.203125 
Q 41.21875 57.421875 37.46875 61 
Q 33.734375 64.59375 27.734375 64.59375 
Q 21.390625 64.59375 17.578125 60.78125 
Q 13.765625 56.984375 13.71875 50.25 
L 4.6875 51.171875 
Q 5.609375 61.28125 11.65625 66.578125 
Q 17.71875 71.875 27.9375 71.875 
Q 38.234375 71.875 44.234375 66.15625 
Q 50.25 60.453125 50.25 52 
Q 50.25 47.703125 48.484375 43.546875 
Q 46.734375 39.40625 42.65625 34.8125 
Q 38.578125 30.21875 29.109375 22.21875 
Q 21.1875 15.578125 18.9375 13.203125 
Q 16.703125 10.84375 15.234375 8.453125 
z
" id="ArialMT-32"/>
      </defs>
      <g style="fill:#262626;" transform="translate(107.585785 240.229375)scale(0.12 -0.12)">
       <use xlink:href="#ArialMT-32"/>
       <use x="55.615234" xlink:href="#ArialMT-30"/>
      </g>
     </g>
    </g>
    <g id="xtick_3">
     <g id="line2d_5">
      <path clip-path="url(#p7b224e16cb)" d="M 175.746513 224.64 
L 175.746513 7.2 
" style="fill:none;stroke:#ffffff;stroke-linecap:round;"/>
     </g>
     <g id="line2d_6"/>
     <g id="text_3">
      <!-- 40 -->
      <defs>
       <path d="M 32.328125 0 
L 32.328125 17.140625 
L 1.265625 17.140625 
L 1.265625 25.203125 
L 33.9375 71.578125 
L 41.109375 71.578125 
L 41.109375 25.203125 
L 50.78125 25.203125 
L 50.78125 17.140625 
L 41.109375 17.140625 
L 41.109375 0 
z
M 32.328125 25.203125 
L 32.328125 57.46875 
L 9.90625 25.203125 
z
" id="ArialMT-34"/>
      </defs>
      <g style="fill:#262626;" transform="translate(169.073388 240.229375)scale(0.12 -0.12)">
       <use xlink:href="#ArialMT-34"/>
       <use x="55.615234" xlink:href="#ArialMT-30"/>
      </g>
     </g>
    </g>
    <g id="xtick_4">
     <g id="line2d_7">
      <path clip-path="url(#p7b224e16cb)" d="M 237.234117 224.64 
L 237.234117 7.2 
" style="fill:none;stroke:#ffffff;stroke-linecap:round;"/>
     </g>
     <g id="line2d_8"/>
     <g id="text_4">
      <!-- 60 -->
      <defs>
       <path d="M 49.75 54.046875 
L 41.015625 53.375 
Q 39.84375 58.546875 37.703125 60.890625 
Q 34.125 64.65625 28.90625 64.65625 
Q 24.703125 64.65625 21.53125 62.3125 
Q 17.390625 59.28125 14.984375 53.46875 
Q 12.59375 47.65625 12.5 36.921875 
Q 15.671875 41.75 20.265625 44.09375 
Q 24.859375 46.4375 29.890625 46.4375 
Q 38.671875 46.4375 44.84375 39.96875 
Q 51.03125 33.5 51.03125 23.25 
Q 51.03125 16.5 48.125 10.71875 
Q 45.21875 4.9375 40.140625 1.859375 
Q 35.0625 -1.21875 28.609375 -1.21875 
Q 17.625 -1.21875 10.6875 6.859375 
Q 3.765625 14.9375 3.765625 33.5 
Q 3.765625 54.25 11.421875 63.671875 
Q 18.109375 71.875 29.4375 71.875 
Q 37.890625 71.875 43.28125 67.140625 
Q 48.6875 62.40625 49.75 54.046875 
z
M 13.875 23.1875 
Q 13.875 18.65625 15.796875 14.5 
Q 17.71875 10.359375 21.1875 8.171875 
Q 24.65625 6 28.46875 6 
Q 34.03125 6 38.03125 10.484375 
Q 42.046875 14.984375 42.046875 22.703125 
Q 42.046875 30.125 38.078125 34.390625 
Q 34.125 38.671875 28.125 38.671875 
Q 22.171875 38.671875 18.015625 34.390625 
Q 13.875 30.125 13.875 23.1875 
z
" id="ArialMT-36"/>
      </defs>
      <g style="fill:#262626;" transform="translate(230.560992 240.229375)scale(0.12 -0.12)">
       <use xlink:href="#ArialMT-36"/>
       <use x="55.615234" xlink:href="#ArialMT-30"/>
      </g>
     </g>
    </g>
    <g id="xtick_5">
     <g id="line2d_9">
      <path clip-path="url(#p7b224e16cb)" d="M 298.72172 224.64 
L 298.72172 7.2 
" style="fill:none;stroke:#ffffff;stroke-linecap:round;"/>
     </g>
     <g id="line2d_10"/>
     <g id="text_5">
      <!-- 80 -->
      <defs>
       <path d="M 17.671875 38.8125 
Q 12.203125 40.828125 9.5625 44.53125 
Q 6.9375 48.25 6.9375 53.421875 
Q 6.9375 61.234375 12.546875 66.546875 
Q 18.171875 71.875 27.484375 71.875 
Q 36.859375 71.875 42.578125 66.421875 
Q 48.296875 60.984375 48.296875 53.171875 
Q 48.296875 48.1875 45.671875 44.5 
Q 43.0625 40.828125 37.75 38.8125 
Q 44.34375 36.671875 47.78125 31.875 
Q 51.21875 27.09375 51.21875 20.453125 
Q 51.21875 11.28125 44.71875 5.03125 
Q 38.234375 -1.21875 27.640625 -1.21875 
Q 17.046875 -1.21875 10.546875 5.046875 
Q 4.046875 11.328125 4.046875 20.703125 
Q 4.046875 27.6875 7.59375 32.390625 
Q 11.140625 37.109375 17.671875 38.8125 
z
M 15.921875 53.71875 
Q 15.921875 48.640625 19.1875 45.40625 
Q 22.46875 42.1875 27.6875 42.1875 
Q 32.765625 42.1875 36.015625 45.375 
Q 39.265625 48.578125 39.265625 53.21875 
Q 39.265625 58.0625 35.90625 61.359375 
Q 32.5625 64.65625 27.59375 64.65625 
Q 22.5625 64.65625 19.234375 61.421875 
Q 15.921875 58.203125 15.921875 53.71875 
z
M 13.09375 20.65625 
Q 13.09375 16.890625 14.875 13.375 
Q 16.65625 9.859375 20.171875 7.921875 
Q 23.6875 6 27.734375 6 
Q 34.03125 6 38.125 10.046875 
Q 42.234375 14.109375 42.234375 20.359375 
Q 42.234375 26.703125 38.015625 30.859375 
Q 33.796875 35.015625 27.4375 35.015625 
Q 21.234375 35.015625 17.15625 30.90625 
Q 13.09375 26.8125 13.09375 20.65625 
z
" id="ArialMT-38"/>
      </defs>
      <g style="fill:#262626;" transform="translate(292.048595 240.229375)scale(0.12 -0.12)">
       <use xlink:href="#ArialMT-38"/>
       <use x="55.615234" xlink:href="#ArialMT-30"/>
      </g>
     </g>
    </g>
    <g id="xtick_6">
     <g id="line2d_11">
      <path clip-path="url(#p7b224e16cb)" d="M 360.209323 224.64 
L 360.209323 7.2 
" style="fill:none;stroke:#ffffff;stroke-linecap:round;"/>
     </g>
     <g id="line2d_12"/>
     <g id="text_6">
      <!-- 100 -->
      <defs>
       <path d="M 37.25 0 
L 28.46875 0 
L 28.46875 56 
Q 25.296875 52.984375 20.140625 49.953125 
Q 14.984375 46.921875 10.890625 45.40625 
L 10.890625 53.90625 
Q 18.265625 57.375 23.78125 62.296875 
Q 29.296875 67.234375 31.59375 71.875 
L 37.25 71.875 
z
" id="ArialMT-31"/>
      </defs>
      <g style="fill:#262626;" transform="translate(350.199636 240.229375)scale(0.12 -0.12)">
       <use xlink:href="#ArialMT-31"/>
       <use x="55.615234" xlink:href="#ArialMT-30"/>
       <use x="111.230469" xlink:href="#ArialMT-30"/>
      </g>
     </g>
    </g>
   </g>
   <g id="matplotlib.axis_2">
    <g id="ytick_1">
     <g id="line2d_13">
      <path clip-path="url(#p7b224e16cb)" d="M 37.553125 217.894026 
L 372.353125 217.894026 
" style="fill:none;stroke:#ffffff;stroke-linecap:round;"/>
     </g>
     <g id="line2d_14"/>
     <g id="text_7">
      <!-- 3.00 -->
      <defs>
       <path d="M 4.203125 18.890625 
L 12.984375 20.0625 
Q 14.5 12.59375 18.140625 9.296875 
Q 21.78125 6 27 6 
Q 33.203125 6 37.46875 10.296875 
Q 41.75 14.59375 41.75 20.953125 
Q 41.75 27 37.796875 30.921875 
Q 33.84375 34.859375 27.734375 34.859375 
Q 25.25 34.859375 21.53125 33.890625 
L 22.515625 41.609375 
Q 23.390625 41.5 23.921875 41.5 
Q 29.546875 41.5 34.03125 44.421875 
Q 38.53125 47.359375 38.53125 53.46875 
Q 38.53125 58.296875 35.25 61.46875 
Q 31.984375 64.65625 26.8125 64.65625 
Q 21.6875 64.65625 18.265625 61.421875 
Q 14.84375 58.203125 13.875 51.765625 
L 5.078125 53.328125 
Q 6.6875 62.15625 12.390625 67.015625 
Q 18.109375 71.875 26.609375 71.875 
Q 32.46875 71.875 37.390625 69.359375 
Q 42.328125 66.84375 44.9375 62.5 
Q 47.5625 58.15625 47.5625 53.265625 
Q 47.5625 48.640625 45.0625 44.828125 
Q 42.578125 41.015625 37.703125 38.765625 
Q 44.046875 37.3125 47.5625 32.6875 
Q 51.078125 28.078125 51.078125 21.140625 
Q 51.078125 11.765625 44.234375 5.25 
Q 37.40625 -1.265625 26.953125 -1.265625 
Q 17.53125 -1.265625 11.296875 4.34375 
Q 5.078125 9.96875 4.203125 18.890625 
z
" id="ArialMT-33"/>
       <path d="M 9.078125 0 
L 9.078125 10.015625 
L 19.09375 10.015625 
L 19.09375 0 
z
" id="ArialMT-2e"/>
      </defs>
      <g style="fill:#262626;" transform="translate(7.2 222.188713)scale(0.12 -0.12)">
       <use xlink:href="#ArialMT-33"/>
       <use x="55.615234" xlink:href="#ArialMT-2e"/>
       <use x="83.398438" xlink:href="#ArialMT-30"/>
       <use x="139.013672" xlink:href="#ArialMT-30"/>
      </g>
     </g>
    </g>
    <g id="ytick_2">
     <g id="line2d_15">
      <path clip-path="url(#p7b224e16cb)" d="M 37.553125 178.673247 
L 372.353125 178.673247 
" style="fill:none;stroke:#ffffff;stroke-linecap:round;"/>
     </g>
     <g id="line2d_16"/>
     <g id="text_8">
      <!-- 3.05 -->
      <defs>
       <path d="M 4.15625 18.75 
L 13.375 19.53125 
Q 14.40625 12.796875 18.140625 9.390625 
Q 21.875 6 27.15625 6 
Q 33.5 6 37.890625 10.78125 
Q 42.28125 15.578125 42.28125 23.484375 
Q 42.28125 31 38.0625 35.34375 
Q 33.84375 39.703125 27 39.703125 
Q 22.75 39.703125 19.328125 37.765625 
Q 15.921875 35.84375 13.96875 32.765625 
L 5.71875 33.84375 
L 12.640625 70.609375 
L 48.25 70.609375 
L 48.25 62.203125 
L 19.671875 62.203125 
L 15.828125 42.96875 
Q 22.265625 47.46875 29.34375 47.46875 
Q 38.71875 47.46875 45.15625 40.96875 
Q 51.609375 34.46875 51.609375 24.265625 
Q 51.609375 14.546875 45.953125 7.46875 
Q 39.0625 -1.21875 27.15625 -1.21875 
Q 17.390625 -1.21875 11.203125 4.25 
Q 5.03125 9.71875 4.15625 18.75 
z
" id="ArialMT-35"/>
      </defs>
      <g style="fill:#262626;" transform="translate(7.2 182.967934)scale(0.12 -0.12)">
       <use xlink:href="#ArialMT-33"/>
       <use x="55.615234" xlink:href="#ArialMT-2e"/>
       <use x="83.398438" xlink:href="#ArialMT-30"/>
       <use x="139.013672" xlink:href="#ArialMT-35"/>
      </g>
     </g>
    </g>
    <g id="ytick_3">
     <g id="line2d_17">
      <path clip-path="url(#p7b224e16cb)" d="M 37.553125 139.452468 
L 372.353125 139.452468 
" style="fill:none;stroke:#ffffff;stroke-linecap:round;"/>
     </g>
     <g id="line2d_18"/>
     <g id="text_9">
      <!-- 3.10 -->
      <g style="fill:#262626;" transform="translate(7.2 143.747155)scale(0.12 -0.12)">
       <use xlink:href="#ArialMT-33"/>
       <use x="55.615234" xlink:href="#ArialMT-2e"/>
       <use x="83.398438" xlink:href="#ArialMT-31"/>
       <use x="139.013672" xlink:href="#ArialMT-30"/>
      </g>
     </g>
    </g>
    <g id="ytick_4">
     <g id="line2d_19">
      <path clip-path="url(#p7b224e16cb)" d="M 37.553125 100.231688 
L 372.353125 100.231688 
" style="fill:none;stroke:#ffffff;stroke-linecap:round;"/>
     </g>
     <g id="line2d_20"/>
     <g id="text_10">
      <!-- 3.15 -->
      <g style="fill:#262626;" transform="translate(7.2 104.526376)scale(0.12 -0.12)">
       <use xlink:href="#ArialMT-33"/>
       <use x="55.615234" xlink:href="#ArialMT-2e"/>
       <use x="83.398438" xlink:href="#ArialMT-31"/>
       <use x="139.013672" xlink:href="#ArialMT-35"/>
      </g>
     </g>
    </g>
    <g id="ytick_5">
     <g id="line2d_21">
      <path clip-path="url(#p7b224e16cb)" d="M 37.553125 61.010909 
L 372.353125 61.010909 
" style="fill:none;stroke:#ffffff;stroke-linecap:round;"/>
     </g>
     <g id="line2d_22"/>
     <g id="text_11">
      <!-- 3.20 -->
      <g style="fill:#262626;" transform="translate(7.2 65.305597)scale(0.12 -0.12)">
       <use xlink:href="#ArialMT-33"/>
       <use x="55.615234" xlink:href="#ArialMT-2e"/>
       <use x="83.398438" xlink:href="#ArialMT-32"/>
       <use x="139.013672" xlink:href="#ArialMT-30"/>
      </g>
     </g>
    </g>
    <g id="ytick_6">
     <g id="line2d_23">
      <path clip-path="url(#p7b224e16cb)" d="M 37.553125 21.79013 
L 372.353125 21.79013 
" style="fill:none;stroke:#ffffff;stroke-linecap:round;"/>
     </g>
     <g id="line2d_24"/>
     <g id="text_12">
      <!-- 3.25 -->
      <g style="fill:#262626;" transform="translate(7.2 26.084817)scale(0.12 -0.12)">
       <use xlink:href="#ArialMT-33"/>
       <use x="55.615234" xlink:href="#ArialMT-2e"/>
       <use x="83.398438" xlink:href="#ArialMT-32"/>
       <use x="139.013672" xlink:href="#ArialMT-35"/>
      </g>
     </g>
    </g>
   </g>
   <g id="line2d_25">
    <defs>
     <path d="M 0 3.5 
C 0.928211 3.5 1.81853 3.131218 2.474874 2.474874 
C 3.131218 1.81853 3.5 0.928211 3.5 0 
C 3.5 -0.928211 3.131218 -1.81853 2.474874 -2.474874 
C 1.81853 -3.131218 0.928211 -3.5 0 -3.5 
C -0.928211 -3.5 -1.81853 -3.131218 -2.474874 -2.474874 
C -3.131218 -1.81853 -3.5 -0.928211 -3.5 0 
C -3.5 0.928211 -3.131218 1.81853 -2.474874 2.474874 
C -1.81853 3.131218 -0.928211 3.5 0 3.5 
z
" id="me67714ab17"/>
    </defs>
    <g clip-path="url(#p7b224e16cb)">
     <use style="fill:#4c72b0;" x="52.771307" xlink:href="#me67714ab17" y="86.112208"/>
    </g>
   </g>
   <g id="line2d_26">
    <defs>
     <path d="M 0 3.5 
C 0.928211 3.5 1.81853 3.131218 2.474874 2.474874 
C 3.131218 1.81853 3.5 0.928211 3.5 0 
C 3.5 -0.928211 3.131218 -1.81853 2.474874 -2.474874 
C 1.81853 -3.131218 0.928211 -3.5 0 -3.5 
C -0.928211 -3.5 -1.81853 -3.131218 -2.474874 -2.474874 
C -3.131218 -1.81853 -3.5 -0.928211 -3.5 0 
C -3.5 0.928211 -3.131218 1.81853 -2.474874 2.474874 
C -1.81853 3.131218 -0.928211 3.5 0 3.5 
z
" id="mff5204b3c6"/>
    </defs>
    <g clip-path="url(#p7b224e16cb)">
     <use style="fill:#55a868;" x="55.845687" xlink:href="#mff5204b3c6" y="164.553766"/>
    </g>
   </g>
   <g id="line2d_27">
    <defs>
     <path d="M 0 3.5 
C 0.928211 3.5 1.81853 3.131218 2.474874 2.474874 
C 3.131218 1.81853 3.5 0.928211 3.5 0 
C 3.5 -0.928211 3.131218 -1.81853 2.474874 -2.474874 
C 1.81853 -3.131218 0.928211 -3.5 0 -3.5 
C -0.928211 -3.5 -1.81853 -3.131218 -2.474874 -2.474874 
C -3.131218 -1.81853 -3.5 -0.928211 -3.5 0 
C -3.5 0.928211 -3.131218 1.81853 -2.474874 2.474874 
C -1.81853 3.131218 -0.928211 3.5 0 3.5 
z
" id="m8571f85c5d"/>
    </defs>
    <g clip-path="url(#p7b224e16cb)">
     <use style="fill:#c44e52;" x="58.920067" xlink:href="#m8571f85c5d" y="79.836883"/>
    </g>
   </g>
   <g id="line2d_28">
    <defs>
     <path d="M 0 3.5 
C 0.928211 3.5 1.81853 3.131218 2.474874 2.474874 
C 3.131218 1.81853 3.5 0.928211 3.5 0 
C 3.5 -0.928211 3.131218 -1.81853 2.474874 -2.474874 
C 1.81853 -3.131218 0.928211 -3.5 0 -3.5 
C -0.928211 -3.5 -1.81853 -3.131218 -2.474874 -2.474874 
C -3.131218 -1.81853 -3.5 -0.928211 -3.5 0 
C -3.5 0.928211 -3.131218 1.81853 -2.474874 2.474874 
C -1.81853 3.131218 -0.928211 3.5 0 3.5 
z
" id="mb356231fac"/>
    </defs>
    <g clip-path="url(#p7b224e16cb)">
     <use style="fill:#8172b2;" x="61.994447" xlink:href="#mb356231fac" y="142.59013"/>
    </g>
   </g>
   <g id="line2d_29">
    <defs>
     <path d="M 0 3.5 
C 0.928211 3.5 1.81853 3.131218 2.474874 2.474874 
C 3.131218 1.81853 3.5 0.928211 3.5 0 
C 3.5 -0.928211 3.131218 -1.81853 2.474874 -2.474874 
C 1.81853 -3.131218 0.928211 -3.5 0 -3.5 
C -0.928211 -3.5 -1.81853 -3.131218 -2.474874 -2.474874 
C -3.131218 -1.81853 -3.5 -0.928211 -3.5 0 
C -3.5 0.928211 -3.131218 1.81853 -2.474874 2.474874 
C -1.81853 3.131218 -0.928211 3.5 0 3.5 
z
" id="me381def0b6"/>
    </defs>
    <g clip-path="url(#p7b224e16cb)">
     <use style="fill:#ccb974;" x="65.068827" xlink:href="#me381def0b6" y="70.423896"/>
    </g>
   </g>
   <g id="line2d_30">
    <defs>
     <path d="M 0 3.5 
C 0.928211 3.5 1.81853 3.131218 2.474874 2.474874 
C 3.131218 1.81853 3.5 0.928211 3.5 0 
C 3.5 -0.928211 3.131218 -1.81853 2.474874 -2.474874 
C 1.81853 -3.131218 0.928211 -3.5 0 -3.5 
C -0.928211 -3.5 -1.81853 -3.131218 -2.474874 -2.474874 
C -3.131218 -1.81853 -3.5 -0.928211 -3.5 0 
C -3.5 0.928211 -3.131218 1.81853 -2.474874 2.474874 
C -1.81853 3.131218 -0.928211 3.5 0 3.5 
z
" id="mc6dac2c635"/>
    </defs>
    <g clip-path="url(#p7b224e16cb)">
     <use style="fill:#64b5cd;" x="68.143208" xlink:href="#mc6dac2c635" y="108.075844"/>
    </g>
   </g>
   <g id="line2d_31">
    <g clip-path="url(#p7b224e16cb)">
     <use style="fill:#4c72b0;" x="71.217588" xlink:href="#me67714ab17" y="133.177143"/>
    </g>
   </g>
   <g id="line2d_32">
    <g clip-path="url(#p7b224e16cb)">
     <use style="fill:#55a868;" x="74.291968" xlink:href="#mff5204b3c6" y="214.756364"/>
    </g>
   </g>
   <g id="line2d_33">
    <g clip-path="url(#p7b224e16cb)">
     <use style="fill:#c44e52;" x="77.366348" xlink:href="#m8571f85c5d" y="104.938182"/>
    </g>
   </g>
   <g id="line2d_34">
    <g clip-path="url(#p7b224e16cb)">
     <use style="fill:#8172b2;" x="80.440728" xlink:href="#mb356231fac" y="136.314805"/>
    </g>
   </g>
   <g id="line2d_35">
    <g clip-path="url(#p7b224e16cb)">
     <use style="fill:#ccb974;" x="83.515108" xlink:href="#me381def0b6" y="111.213506"/>
    </g>
   </g>
   <g id="line2d_36">
    <g clip-path="url(#p7b224e16cb)">
     <use style="fill:#64b5cd;" x="86.589489" xlink:href="#mc6dac2c635" y="114.351169"/>
    </g>
   </g>
   <g id="line2d_37">
    <g clip-path="url(#p7b224e16cb)">
     <use style="fill:#4c72b0;" x="89.663869" xlink:href="#me67714ab17" y="133.177143"/>
    </g>
   </g>
   <g id="line2d_38">
    <g clip-path="url(#p7b224e16cb)">
     <use style="fill:#55a868;" x="92.738249" xlink:href="#mff5204b3c6" y="158.278442"/>
    </g>
   </g>
   <g id="line2d_39">
    <g clip-path="url(#p7b224e16cb)">
     <use style="fill:#c44e52;" x="95.812629" xlink:href="#m8571f85c5d" y="120.626494"/>
    </g>
   </g>
   <g id="line2d_40">
    <g clip-path="url(#p7b224e16cb)">
     <use style="fill:#8172b2;" x="98.887009" xlink:href="#mb356231fac" y="95.525195"/>
    </g>
   </g>
   <g id="line2d_41">
    <g clip-path="url(#p7b224e16cb)">
     <use style="fill:#ccb974;" x="101.961389" xlink:href="#me381def0b6" y="101.800519"/>
    </g>
   </g>
   <g id="line2d_42">
    <g clip-path="url(#p7b224e16cb)">
     <use style="fill:#64b5cd;" x="105.03577" xlink:href="#mc6dac2c635" y="98.662857"/>
    </g>
   </g>
   <g id="line2d_43">
    <g clip-path="url(#p7b224e16cb)">
     <use style="fill:#4c72b0;" x="108.11015" xlink:href="#me67714ab17" y="120.626494"/>
    </g>
   </g>
   <g id="line2d_44">
    <g clip-path="url(#p7b224e16cb)">
     <use style="fill:#55a868;" x="111.18453" xlink:href="#mff5204b3c6" y="136.314805"/>
    </g>
   </g>
   <g id="line2d_45">
    <g clip-path="url(#p7b224e16cb)">
     <use style="fill:#c44e52;" x="114.25891" xlink:href="#m8571f85c5d" y="98.662857"/>
    </g>
   </g>
   <g id="line2d_46">
    <g clip-path="url(#p7b224e16cb)">
     <use style="fill:#8172b2;" x="117.33329" xlink:href="#mb356231fac" y="45.322597"/>
    </g>
   </g>
   <g id="line2d_47">
    <g clip-path="url(#p7b224e16cb)">
     <use style="fill:#ccb974;" x="120.40767" xlink:href="#me381def0b6" y="167.691429"/>
    </g>
   </g>
   <g id="line2d_48">
    <g clip-path="url(#p7b224e16cb)">
     <use style="fill:#64b5cd;" x="123.482051" xlink:href="#mc6dac2c635" y="79.836883"/>
    </g>
   </g>
   <g id="line2d_49">
    <g clip-path="url(#p7b224e16cb)">
     <use style="fill:#4c72b0;" x="126.556431" xlink:href="#me67714ab17" y="101.800519"/>
    </g>
   </g>
   <g id="line2d_50">
    <g clip-path="url(#p7b224e16cb)">
     <use style="fill:#55a868;" x="129.630811" xlink:href="#mff5204b3c6" y="158.278442"/>
    </g>
   </g>
   <g id="line2d_51">
    <g clip-path="url(#p7b224e16cb)">
     <use style="fill:#c44e52;" x="132.705191" xlink:href="#m8571f85c5d" y="117.488831"/>
    </g>
   </g>
   <g id="line2d_52">
    <g clip-path="url(#p7b224e16cb)">
     <use style="fill:#8172b2;" x="135.779571" xlink:href="#mb356231fac" y="136.314805"/>
    </g>
   </g>
   <g id="line2d_53">
    <g clip-path="url(#p7b224e16cb)">
     <use style="fill:#ccb974;" x="138.853951" xlink:href="#me381def0b6" y="54.735584"/>
    </g>
   </g>
   <g id="line2d_54">
    <g clip-path="url(#p7b224e16cb)">
     <use style="fill:#64b5cd;" x="141.928332" xlink:href="#mc6dac2c635" y="155.140779"/>
    </g>
   </g>
   <g id="line2d_55">
    <g clip-path="url(#p7b224e16cb)">
     <use style="fill:#4c72b0;" x="145.002712" xlink:href="#me67714ab17" y="214.756364"/>
    </g>
   </g>
   <g id="line2d_56">
    <g clip-path="url(#p7b224e16cb)">
     <use style="fill:#55a868;" x="148.077092" xlink:href="#mff5204b3c6" y="76.699221"/>
    </g>
   </g>
   <g id="line2d_57">
    <g clip-path="url(#p7b224e16cb)">
     <use style="fill:#c44e52;" x="151.151472" xlink:href="#m8571f85c5d" y="195.93039"/>
    </g>
   </g>
   <g id="line2d_58">
    <g clip-path="url(#p7b224e16cb)">
     <use style="fill:#8172b2;" x="154.225852" xlink:href="#mb356231fac" y="177.104416"/>
    </g>
   </g>
   <g id="line2d_59">
    <g clip-path="url(#p7b224e16cb)">
     <use style="fill:#ccb974;" x="157.300232" xlink:href="#me381def0b6" y="82.974545"/>
    </g>
   </g>
   <g id="line2d_60">
    <g clip-path="url(#p7b224e16cb)">
     <use style="fill:#64b5cd;" x="160.374613" xlink:href="#mc6dac2c635" y="108.075844"/>
    </g>
   </g>
   <g id="line2d_61">
    <g clip-path="url(#p7b224e16cb)">
     <use style="fill:#4c72b0;" x="163.448993" xlink:href="#me67714ab17" y="79.836883"/>
    </g>
   </g>
   <g id="line2d_62">
    <g clip-path="url(#p7b224e16cb)">
     <use style="fill:#55a868;" x="166.523373" xlink:href="#mff5204b3c6" y="136.314805"/>
    </g>
   </g>
   <g id="line2d_63">
    <g clip-path="url(#p7b224e16cb)">
     <use style="fill:#c44e52;" x="169.597753" xlink:href="#m8571f85c5d" y="29.634286"/>
    </g>
   </g>
   <g id="line2d_64">
    <g clip-path="url(#p7b224e16cb)">
     <use style="fill:#8172b2;" x="172.672133" xlink:href="#mb356231fac" y="158.278442"/>
    </g>
   </g>
   <g id="line2d_65">
    <g clip-path="url(#p7b224e16cb)">
     <use style="fill:#ccb974;" x="175.746513" xlink:href="#me381def0b6" y="177.104416"/>
    </g>
   </g>
   <g id="line2d_66">
    <g clip-path="url(#p7b224e16cb)">
     <use style="fill:#64b5cd;" x="178.820894" xlink:href="#mc6dac2c635" y="136.314805"/>
    </g>
   </g>
   <g id="line2d_67">
    <g clip-path="url(#p7b224e16cb)">
     <use style="fill:#4c72b0;" x="181.895274" xlink:href="#me67714ab17" y="101.800519"/>
    </g>
   </g>
   <g id="line2d_68">
    <g clip-path="url(#p7b224e16cb)">
     <use style="fill:#55a868;" x="184.969654" xlink:href="#mff5204b3c6" y="70.423896"/>
    </g>
   </g>
   <g id="line2d_69">
    <g clip-path="url(#p7b224e16cb)">
     <use style="fill:#c44e52;" x="188.044034" xlink:href="#m8571f85c5d" y="101.800519"/>
    </g>
   </g>
   <g id="line2d_70">
    <g clip-path="url(#p7b224e16cb)">
     <use style="fill:#8172b2;" x="191.118414" xlink:href="#mb356231fac" y="98.662857"/>
    </g>
   </g>
   <g id="line2d_71">
    <g clip-path="url(#p7b224e16cb)">
     <use style="fill:#ccb974;" x="194.192794" xlink:href="#me381def0b6" y="64.148571"/>
    </g>
   </g>
   <g id="line2d_72">
    <g clip-path="url(#p7b224e16cb)">
     <use style="fill:#64b5cd;" x="197.267175" xlink:href="#mc6dac2c635" y="73.561558"/>
    </g>
   </g>
   <g id="line2d_73">
    <g clip-path="url(#p7b224e16cb)">
     <use style="fill:#4c72b0;" x="200.341555" xlink:href="#me67714ab17" y="111.213506"/>
    </g>
   </g>
   <g id="line2d_74">
    <g clip-path="url(#p7b224e16cb)">
     <use style="fill:#55a868;" x="203.415935" xlink:href="#mff5204b3c6" y="164.553766"/>
    </g>
   </g>
   <g id="line2d_75">
    <g clip-path="url(#p7b224e16cb)">
     <use style="fill:#c44e52;" x="206.490315" xlink:href="#m8571f85c5d" y="101.800519"/>
    </g>
   </g>
   <g id="line2d_76">
    <g clip-path="url(#p7b224e16cb)">
     <use style="fill:#8172b2;" x="209.564695" xlink:href="#mb356231fac" y="123.764156"/>
    </g>
   </g>
   <g id="line2d_77">
    <g clip-path="url(#p7b224e16cb)">
     <use style="fill:#ccb974;" x="212.639075" xlink:href="#me381def0b6" y="92.387532"/>
    </g>
   </g>
   <g id="line2d_78">
    <g clip-path="url(#p7b224e16cb)">
     <use style="fill:#64b5cd;" x="215.713456" xlink:href="#mc6dac2c635" y="42.184935"/>
    </g>
   </g>
   <g id="line2d_79">
    <g clip-path="url(#p7b224e16cb)">
     <use style="fill:#4c72b0;" x="218.787836" xlink:href="#me67714ab17" y="152.003117"/>
    </g>
   </g>
   <g id="line2d_80">
    <g clip-path="url(#p7b224e16cb)">
     <use style="fill:#55a868;" x="221.862216" xlink:href="#mff5204b3c6" y="170.829091"/>
    </g>
   </g>
   <g id="line2d_81">
    <g clip-path="url(#p7b224e16cb)">
     <use style="fill:#c44e52;" x="224.936596" xlink:href="#m8571f85c5d" y="101.800519"/>
    </g>
   </g>
   <g id="line2d_82">
    <g clip-path="url(#p7b224e16cb)">
     <use style="fill:#8172b2;" x="228.010976" xlink:href="#mb356231fac" y="17.083636"/>
    </g>
   </g>
   <g id="line2d_83">
    <g clip-path="url(#p7b224e16cb)">
     <use style="fill:#ccb974;" x="231.085356" xlink:href="#me381def0b6" y="86.112208"/>
    </g>
   </g>
   <g id="line2d_84">
    <g clip-path="url(#p7b224e16cb)">
     <use style="fill:#64b5cd;" x="234.159737" xlink:href="#mc6dac2c635" y="111.213506"/>
    </g>
   </g>
   <g id="line2d_85">
    <g clip-path="url(#p7b224e16cb)">
     <use style="fill:#4c72b0;" x="237.234117" xlink:href="#me67714ab17" y="148.865455"/>
    </g>
   </g>
   <g id="line2d_86">
    <g clip-path="url(#p7b224e16cb)">
     <use style="fill:#55a868;" x="240.308497" xlink:href="#mff5204b3c6" y="39.047273"/>
    </g>
   </g>
   <g id="line2d_87">
    <g clip-path="url(#p7b224e16cb)">
     <use style="fill:#c44e52;" x="243.382877" xlink:href="#m8571f85c5d" y="139.452468"/>
    </g>
   </g>
   <g id="line2d_88">
    <g clip-path="url(#p7b224e16cb)">
     <use style="fill:#8172b2;" x="246.457257" xlink:href="#mb356231fac" y="67.286234"/>
    </g>
   </g>
   <g id="line2d_89">
    <g clip-path="url(#p7b224e16cb)">
     <use style="fill:#ccb974;" x="249.531637" xlink:href="#me381def0b6" y="89.24987"/>
    </g>
   </g>
   <g id="line2d_90">
    <g clip-path="url(#p7b224e16cb)">
     <use style="fill:#64b5cd;" x="252.606018" xlink:href="#mc6dac2c635" y="92.387532"/>
    </g>
   </g>
   <g id="line2d_91">
    <g clip-path="url(#p7b224e16cb)">
     <use style="fill:#4c72b0;" x="255.680398" xlink:href="#me67714ab17" y="114.351169"/>
    </g>
   </g>
   <g id="line2d_92">
    <g clip-path="url(#p7b224e16cb)">
     <use style="fill:#55a868;" x="258.754778" xlink:href="#mff5204b3c6" y="57.873247"/>
    </g>
   </g>
   <g id="line2d_93">
    <g clip-path="url(#p7b224e16cb)">
     <use style="fill:#c44e52;" x="261.829158" xlink:href="#m8571f85c5d" y="79.836883"/>
    </g>
   </g>
   <g id="line2d_94">
    <g clip-path="url(#p7b224e16cb)">
     <use style="fill:#8172b2;" x="264.903538" xlink:href="#mb356231fac" y="17.083636"/>
    </g>
   </g>
   <g id="line2d_95">
    <g clip-path="url(#p7b224e16cb)">
     <use style="fill:#ccb974;" x="267.977918" xlink:href="#me381def0b6" y="73.561558"/>
    </g>
   </g>
   <g id="line2d_96">
    <g clip-path="url(#p7b224e16cb)">
     <use style="fill:#64b5cd;" x="271.052299" xlink:href="#mc6dac2c635" y="73.561558"/>
    </g>
   </g>
   <g id="line2d_97">
    <g clip-path="url(#p7b224e16cb)">
     <use style="fill:#4c72b0;" x="274.126679" xlink:href="#me67714ab17" y="145.727792"/>
    </g>
   </g>
   <g id="line2d_98">
    <g clip-path="url(#p7b224e16cb)">
     <use style="fill:#55a868;" x="277.201059" xlink:href="#mff5204b3c6" y="167.691429"/>
    </g>
   </g>
   <g id="line2d_99">
    <g clip-path="url(#p7b224e16cb)">
     <use style="fill:#c44e52;" x="280.275439" xlink:href="#m8571f85c5d" y="130.039481"/>
    </g>
   </g>
   <g id="line2d_100">
    <g clip-path="url(#p7b224e16cb)">
     <use style="fill:#8172b2;" x="283.349819" xlink:href="#mb356231fac" y="186.517403"/>
    </g>
   </g>
   <g id="line2d_101">
    <g clip-path="url(#p7b224e16cb)">
     <use style="fill:#ccb974;" x="286.424199" xlink:href="#me381def0b6" y="42.184935"/>
    </g>
   </g>
   <g id="line2d_102">
    <g clip-path="url(#p7b224e16cb)">
     <use style="fill:#64b5cd;" x="289.49858" xlink:href="#mc6dac2c635" y="79.836883"/>
    </g>
   </g>
   <g id="line2d_103">
    <g clip-path="url(#p7b224e16cb)">
     <use style="fill:#4c72b0;" x="292.57296" xlink:href="#me67714ab17" y="101.800519"/>
    </g>
   </g>
   <g id="line2d_104">
    <g clip-path="url(#p7b224e16cb)">
     <use style="fill:#55a868;" x="295.64734" xlink:href="#mff5204b3c6" y="148.865455"/>
    </g>
   </g>
   <g id="line2d_105">
    <g clip-path="url(#p7b224e16cb)">
     <use style="fill:#c44e52;" x="298.72172" xlink:href="#m8571f85c5d" y="42.184935"/>
    </g>
   </g>
   <g id="line2d_106">
    <g clip-path="url(#p7b224e16cb)">
     <use style="fill:#8172b2;" x="301.7961" xlink:href="#mb356231fac" y="39.047273"/>
    </g>
   </g>
   <g id="line2d_107">
    <g clip-path="url(#p7b224e16cb)">
     <use style="fill:#ccb974;" x="304.87048" xlink:href="#me381def0b6" y="95.525195"/>
    </g>
   </g>
   <g id="line2d_108">
    <g clip-path="url(#p7b224e16cb)">
     <use style="fill:#64b5cd;" x="307.944861" xlink:href="#mc6dac2c635" y="108.075844"/>
    </g>
   </g>
   <g id="line2d_109">
    <g clip-path="url(#p7b224e16cb)">
     <use style="fill:#4c72b0;" x="311.019241" xlink:href="#me67714ab17" y="67.286234"/>
    </g>
   </g>
   <g id="line2d_110">
    <g clip-path="url(#p7b224e16cb)">
     <use style="fill:#55a868;" x="314.093621" xlink:href="#mff5204b3c6" y="120.626494"/>
    </g>
   </g>
   <g id="line2d_111">
    <g clip-path="url(#p7b224e16cb)">
     <use style="fill:#c44e52;" x="317.168001" xlink:href="#m8571f85c5d" y="136.314805"/>
    </g>
   </g>
   <g id="line2d_112">
    <g clip-path="url(#p7b224e16cb)">
     <use style="fill:#8172b2;" x="320.242381" xlink:href="#mb356231fac" y="48.46026"/>
    </g>
   </g>
   <g id="line2d_113">
    <g clip-path="url(#p7b224e16cb)">
     <use style="fill:#ccb974;" x="323.316761" xlink:href="#me381def0b6" y="57.873247"/>
    </g>
   </g>
   <g id="line2d_114">
    <g clip-path="url(#p7b224e16cb)">
     <use style="fill:#64b5cd;" x="326.391142" xlink:href="#mc6dac2c635" y="101.800519"/>
    </g>
   </g>
   <g id="line2d_115">
    <g clip-path="url(#p7b224e16cb)">
     <use style="fill:#4c72b0;" x="329.465522" xlink:href="#me67714ab17" y="145.727792"/>
    </g>
   </g>
   <g id="line2d_116">
    <g clip-path="url(#p7b224e16cb)">
     <use style="fill:#55a868;" x="332.539902" xlink:href="#mff5204b3c6" y="61.010909"/>
    </g>
   </g>
   <g id="line2d_117">
    <g clip-path="url(#p7b224e16cb)">
     <use style="fill:#c44e52;" x="335.614282" xlink:href="#m8571f85c5d" y="152.003117"/>
    </g>
   </g>
   <g id="line2d_118">
    <g clip-path="url(#p7b224e16cb)">
     <use style="fill:#8172b2;" x="338.688662" xlink:href="#mb356231fac" y="123.764156"/>
    </g>
   </g>
   <g id="line2d_119">
    <g clip-path="url(#p7b224e16cb)">
     <use style="fill:#ccb974;" x="341.763042" xlink:href="#me381def0b6" y="70.423896"/>
    </g>
   </g>
   <g id="line2d_120">
    <g clip-path="url(#p7b224e16cb)">
     <use style="fill:#64b5cd;" x="344.837423" xlink:href="#mc6dac2c635" y="136.314805"/>
    </g>
   </g>
   <g id="line2d_121">
    <g clip-path="url(#p7b224e16cb)">
     <use style="fill:#4c72b0;" x="347.911803" xlink:href="#me67714ab17" y="145.727792"/>
    </g>
   </g>
   <g id="line2d_122">
    <g clip-path="url(#p7b224e16cb)">
     <use style="fill:#55a868;" x="350.986183" xlink:href="#mff5204b3c6" y="142.59013"/>
    </g>
   </g>
   <g id="line2d_123">
    <g clip-path="url(#p7b224e16cb)">
     <use style="fill:#c44e52;" x="354.060563" xlink:href="#m8571f85c5d" y="155.140779"/>
    </g>
   </g>
   <g id="line2d_124">
    <g clip-path="url(#p7b224e16cb)">
     <use style="fill:#8172b2;" x="357.134943" xlink:href="#mb356231fac" y="117.488831"/>
    </g>
   </g>
   <g id="line2d_125">
    <path clip-path="url(#p7b224e16cb)" d="M 52.771307 109.676052 
L 55.845687 109.676052 
L 58.920067 109.676052 
L 61.994447 109.676052 
L 65.068827 109.676052 
L 68.143208 109.676052 
L 71.217588 109.676052 
L 74.291968 109.676052 
L 77.366348 109.676052 
L 80.440728 109.676052 
L 83.515108 109.676052 
L 86.589489 109.676052 
L 89.663869 109.676052 
L 92.738249 109.676052 
L 95.812629 109.676052 
L 98.887009 109.676052 
L 101.961389 109.676052 
L 105.03577 109.676052 
L 108.11015 109.676052 
L 111.18453 109.676052 
L 114.25891 109.676052 
L 117.33329 109.676052 
L 120.40767 109.676052 
L 123.482051 109.676052 
L 126.556431 109.676052 
L 129.630811 109.676052 
L 132.705191 109.676052 
L 135.779571 109.676052 
L 138.853951 109.676052 
L 141.928332 109.676052 
L 145.002712 109.676052 
L 148.077092 109.676052 
L 151.151472 109.676052 
L 154.225852 109.676052 
L 157.300232 109.676052 
L 160.374613 109.676052 
L 163.448993 109.676052 
L 166.523373 109.676052 
L 169.597753 109.676052 
L 172.672133 109.676052 
L 175.746513 109.676052 
L 178.820894 109.676052 
L 181.895274 109.676052 
L 184.969654 109.676052 
L 188.044034 109.676052 
L 191.118414 109.676052 
L 194.192794 109.676052 
L 197.267175 109.676052 
L 200.341555 109.676052 
L 203.415935 109.676052 
L 206.490315 109.676052 
L 209.564695 109.676052 
L 212.639075 109.676052 
L 215.713456 109.676052 
L 218.787836 109.676052 
L 221.862216 109.676052 
L 224.936596 109.676052 
L 228.010976 109.676052 
L 231.085356 109.676052 
L 234.159737 109.676052 
L 237.234117 109.676052 
L 240.308497 109.676052 
L 243.382877 109.676052 
L 246.457257 109.676052 
L 249.531637 109.676052 
L 252.606018 109.676052 
L 255.680398 109.676052 
L 258.754778 109.676052 
L 261.829158 109.676052 
L 264.903538 109.676052 
L 267.977918 109.676052 
L 271.052299 109.676052 
L 274.126679 109.676052 
L 277.201059 109.676052 
L 280.275439 109.676052 
L 283.349819 109.676052 
L 286.424199 109.676052 
L 289.49858 109.676052 
L 292.57296 109.676052 
L 295.64734 109.676052 
L 298.72172 109.676052 
L 301.7961 109.676052 
L 304.87048 109.676052 
L 307.944861 109.676052 
L 311.019241 109.676052 
L 314.093621 109.676052 
L 317.168001 109.676052 
L 320.242381 109.676052 
L 323.316761 109.676052 
L 326.391142 109.676052 
L 329.465522 109.676052 
L 332.539902 109.676052 
L 335.614282 109.676052 
L 338.688662 109.676052 
L 341.763042 109.676052 
L 344.837423 109.676052 
L 347.911803 109.676052 
L 350.986183 109.676052 
L 354.060563 109.676052 
L 357.134943 109.676052 
" style="fill:none;stroke:#ccb974;stroke-linecap:round;stroke-width:2;"/>
   </g>
   <g id="patch_3">
    <path d="M 37.553125 224.64 
L 37.553125 7.2 
" style="fill:none;"/>
   </g>
   <g id="patch_4">
    <path d="M 372.353125 224.64 
L 372.353125 7.2 
" style="fill:none;"/>
   </g>
   <g id="patch_5">
    <path d="M 37.553125 224.64 
L 372.353125 224.64 
" style="fill:none;"/>
   </g>
   <g id="patch_6">
    <path d="M 37.553125 7.2 
L 372.353125 7.2 
" style="fill:none;"/>
   </g>
  </g>
 </g>
 <defs>
  <clipPath id="p7b224e16cb">
   <rect height="217.44" width="334.8" x="37.553125" y="7.2"/>
  </clipPath>
 </defs>
</svg>
